ISO-10303-21;
HEADER;
/* Generated by software containing ST-Developer
 * from STEP Tools, Inc. (www.steptools.com) 
 */

FILE_DESCRIPTION(
/* description */ (''),
/* implementation_level */ '2;1');

FILE_NAME(
/* name */ 'APSX-PIM_B.step',
/* time_stamp */ '2026-04-29T17:02:53-07:00',
/* author */ (''),
/* organization */ (''),
/* preprocessor_version */ 'ST-DEVELOPER v20.1',
/* originating_system */ 'Autodesk Translation Framework v14.24.0.0',
/* authorisation */ '');

FILE_SCHEMA (('AUTOMOTIVE_DESIGN { 1 0 10303 214 3 1 1 }'));
ENDSEC;

DATA;
#10=MECHANICAL_DESIGN_GEOMETRIC_PRESENTATION_REPRESENTATION('',(#13),#635);
#11=SHAPE_REPRESENTATION_RELATIONSHIP('SRR','None',#645,#12);
#12=ADVANCED_BREP_SHAPE_REPRESENTATION('',(#14),#634);
#13=STYLED_ITEM('',(#654),#14);
#14=MANIFOLD_SOLID_BREP('APSX-PIM_B',#367);
#15=FACE_BOUND('',#65,.T.);
#16=FACE_BOUND('',#66,.T.);
#17=FACE_BOUND('',#67,.T.);
#18=FACE_BOUND('',#68,.T.);
#19=PLANE('',#384);
#20=PLANE('',#386);
#21=PLANE('',#395);
#22=PLANE('',#396);
#23=PLANE('',#397);
#24=PLANE('',#398);
#25=PLANE('',#405);
#26=PLANE('',#408);
#27=PLANE('',#411);
#28=PLANE('',#414);
#29=PLANE('',#415);
#30=PLANE('',#416);
#31=PLANE('',#417);
#32=PLANE('',#418);
#33=FACE_OUTER_BOUND('',#55,.T.);
#34=FACE_OUTER_BOUND('',#56,.T.);
#35=FACE_OUTER_BOUND('',#57,.T.);
#36=FACE_OUTER_BOUND('',#58,.T.);
#37=FACE_OUTER_BOUND('',#59,.T.);
#38=FACE_OUTER_BOUND('',#60,.T.);
#39=FACE_OUTER_BOUND('',#61,.T.);
#40=FACE_OUTER_BOUND('',#62,.T.);
#41=FACE_OUTER_BOUND('',#63,.T.);
#42=FACE_OUTER_BOUND('',#64,.T.);
#43=FACE_OUTER_BOUND('',#69,.T.);
#44=FACE_OUTER_BOUND('',#70,.T.);
#45=FACE_OUTER_BOUND('',#71,.T.);
#46=FACE_OUTER_BOUND('',#72,.T.);
#47=FACE_OUTER_BOUND('',#73,.T.);
#48=FACE_OUTER_BOUND('',#74,.T.);
#49=FACE_OUTER_BOUND('',#75,.T.);
#50=FACE_OUTER_BOUND('',#76,.T.);
#51=FACE_OUTER_BOUND('',#77,.T.);
#52=FACE_OUTER_BOUND('',#78,.T.);
#53=FACE_OUTER_BOUND('',#79,.T.);
#54=FACE_OUTER_BOUND('',#80,.T.);
#55=EDGE_LOOP('',(#241,#242,#243,#244));
#56=EDGE_LOOP('',(#245,#246,#247,#248));
#57=EDGE_LOOP('',(#249,#250,#251,#252));
#58=EDGE_LOOP('',(#253,#254,#255,#256));
#59=EDGE_LOOP('',(#257,#258,#259,#260));
#60=EDGE_LOOP('',(#261,#262,#263,#264));
#61=EDGE_LOOP('',(#265,#266,#267,#268));
#62=EDGE_LOOP('',(#269,#270,#271,#272));
#63=EDGE_LOOP('',(#273,#274,#275,#276,#277,#278,#279,#280));
#64=EDGE_LOOP('',(#281,#282,#283,#284,#285,#286,#287,#288,#289,#290,#291,
#292));
#65=EDGE_LOOP('',(#293));
#66=EDGE_LOOP('',(#294));
#67=EDGE_LOOP('',(#295));
#68=EDGE_LOOP('',(#296));
#69=EDGE_LOOP('',(#297,#298,#299,#300));
#70=EDGE_LOOP('',(#301));
#71=EDGE_LOOP('',(#302,#303,#304,#305));
#72=EDGE_LOOP('',(#306));
#73=EDGE_LOOP('',(#307,#308,#309,#310));
#74=EDGE_LOOP('',(#311));
#75=EDGE_LOOP('',(#312,#313,#314,#315));
#76=EDGE_LOOP('',(#316));
#77=EDGE_LOOP('',(#317,#318,#319,#320,#321,#322,#323,#324));
#78=EDGE_LOOP('',(#325,#326,#327,#328));
#79=EDGE_LOOP('',(#329,#330,#331,#332));
#80=EDGE_LOOP('',(#333,#334,#335,#336));
#81=LINE('',#535,#113);
#82=LINE('',#538,#114);
#83=LINE('',#541,#115);
#84=LINE('',#544,#116);
#85=LINE('',#547,#117);
#86=LINE('',#548,#118);
#87=LINE('',#552,#119);
#88=LINE('',#558,#120);
#89=LINE('',#561,#121);
#90=LINE('',#567,#122);
#91=LINE('',#570,#123);
#92=LINE('',#572,#124);
#93=LINE('',#573,#125);
#94=LINE('',#575,#126);
#95=LINE('',#578,#127);
#96=LINE('',#580,#128);
#97=LINE('',#582,#129);
#98=LINE('',#584,#130);
#99=LINE('',#585,#131);
#100=LINE('',#588,#132);
#101=LINE('',#590,#133);
#102=LINE('',#591,#134);
#103=LINE('',#592,#135);
#104=LINE('',#603,#136);
#105=LINE('',#608,#137);
#106=LINE('',#613,#138);
#107=LINE('',#618,#139);
#108=LINE('',#623,#140);
#109=LINE('',#625,#141);
#110=LINE('',#626,#142);
#111=LINE('',#628,#143);
#112=LINE('',#630,#144);
#113=VECTOR('',#425,1.);
#114=VECTOR('',#428,1.);
#115=VECTOR('',#431,1.);
#116=VECTOR('',#434,1.);
#117=VECTOR('',#437,1.);
#118=VECTOR('',#438,1.);
#119=VECTOR('',#443,1.);
#120=VECTOR('',#448,1.);
#121=VECTOR('',#451,1.);
#122=VECTOR('',#456,1.);
#123=VECTOR('',#459,1.);
#124=VECTOR('',#462,1.);
#125=VECTOR('',#463,1.);
#126=VECTOR('',#466,1.);
#127=VECTOR('',#469,1.);
#128=VECTOR('',#470,1.);
#129=VECTOR('',#471,1.);
#130=VECTOR('',#472,1.);
#131=VECTOR('',#473,1.);
#132=VECTOR('',#476,1.);
#133=VECTOR('',#477,1.);
#134=VECTOR('',#478,1.);
#135=VECTOR('',#479,1.);
#136=VECTOR('',#490,0.1875);
#137=VECTOR('',#497,0.1875);
#138=VECTOR('',#504,0.1875);
#139=VECTOR('',#511,0.1875);
#140=VECTOR('',#518,1.);
#141=VECTOR('',#519,1.);
#142=VECTOR('',#520,1.);
#143=VECTOR('',#523,1.);
#144=VECTOR('',#526,1.);
#145=CIRCLE('',#382,0.25);
#146=CIRCLE('',#383,0.25);
#147=CIRCLE('',#385,0.25);
#148=CIRCLE('',#388,0.25);
#149=CIRCLE('',#390,0.25);
#150=CIRCLE('',#391,0.25);
#151=CIRCLE('',#393,0.25);
#152=CIRCLE('',#394,0.25);
#153=CIRCLE('',#399,0.1875);
#154=CIRCLE('',#400,0.1875);
#155=CIRCLE('',#401,0.1875);
#156=CIRCLE('',#402,0.1875);
#157=CIRCLE('',#404,0.1875);
#158=CIRCLE('',#407,0.1875);
#159=CIRCLE('',#410,0.1875);
#160=CIRCLE('',#413,0.1875);
#161=VERTEX_POINT('',#531);
#162=VERTEX_POINT('',#532);
#163=VERTEX_POINT('',#534);
#164=VERTEX_POINT('',#536);
#165=VERTEX_POINT('',#540);
#166=VERTEX_POINT('',#542);
#167=VERTEX_POINT('',#546);
#168=VERTEX_POINT('',#550);
#169=VERTEX_POINT('',#554);
#170=VERTEX_POINT('',#555);
#171=VERTEX_POINT('',#557);
#172=VERTEX_POINT('',#559);
#173=VERTEX_POINT('',#563);
#174=VERTEX_POINT('',#564);
#175=VERTEX_POINT('',#566);
#176=VERTEX_POINT('',#568);
#177=VERTEX_POINT('',#577);
#178=VERTEX_POINT('',#579);
#179=VERTEX_POINT('',#581);
#180=VERTEX_POINT('',#583);
#181=VERTEX_POINT('',#587);
#182=VERTEX_POINT('',#589);
#183=VERTEX_POINT('',#593);
#184=VERTEX_POINT('',#595);
#185=VERTEX_POINT('',#597);
#186=VERTEX_POINT('',#599);
#187=VERTEX_POINT('',#602);
#188=VERTEX_POINT('',#607);
#189=VERTEX_POINT('',#612);
#190=VERTEX_POINT('',#617);
#191=VERTEX_POINT('',#622);
#192=VERTEX_POINT('',#624);
#193=EDGE_CURVE('',#161,#162,#145,.T.);
#194=EDGE_CURVE('',#163,#161,#81,.T.);
#195=EDGE_CURVE('',#163,#164,#146,.T.);
#196=EDGE_CURVE('',#164,#162,#82,.T.);
#197=EDGE_CURVE('',#162,#165,#83,.T.);
#198=EDGE_CURVE('',#165,#166,#147,.T.);
#199=EDGE_CURVE('',#161,#166,#84,.T.);
#200=EDGE_CURVE('',#167,#164,#85,.T.);
#201=EDGE_CURVE('',#165,#167,#86,.T.);
#202=EDGE_CURVE('',#167,#168,#148,.T.);
#203=EDGE_CURVE('',#166,#168,#87,.T.);
#204=EDGE_CURVE('',#169,#170,#149,.T.);
#205=EDGE_CURVE('',#171,#169,#88,.T.);
#206=EDGE_CURVE('',#171,#172,#150,.T.);
#207=EDGE_CURVE('',#172,#170,#89,.T.);
#208=EDGE_CURVE('',#173,#174,#151,.T.);
#209=EDGE_CURVE('',#173,#175,#90,.T.);
#210=EDGE_CURVE('',#175,#176,#152,.T.);
#211=EDGE_CURVE('',#174,#176,#91,.T.);
#212=EDGE_CURVE('',#170,#173,#92,.T.);
#213=EDGE_CURVE('',#169,#174,#93,.T.);
#214=EDGE_CURVE('',#175,#172,#94,.T.);
#215=EDGE_CURVE('',#177,#168,#95,.T.);
#216=EDGE_CURVE('',#177,#178,#96,.T.);
#217=EDGE_CURVE('',#178,#179,#97,.T.);
#218=EDGE_CURVE('',#180,#179,#98,.T.);
#219=EDGE_CURVE('',#163,#180,#99,.T.);
#220=EDGE_CURVE('',#181,#176,#100,.T.);
#221=EDGE_CURVE('',#171,#182,#101,.T.);
#222=EDGE_CURVE('',#182,#177,#102,.T.);
#223=EDGE_CURVE('',#180,#181,#103,.T.);
#224=EDGE_CURVE('',#183,#183,#153,.T.);
#225=EDGE_CURVE('',#184,#184,#154,.T.);
#226=EDGE_CURVE('',#185,#185,#155,.T.);
#227=EDGE_CURVE('',#186,#186,#156,.T.);
#228=EDGE_CURVE('',#183,#187,#104,.T.);
#229=EDGE_CURVE('',#187,#187,#157,.T.);
#230=EDGE_CURVE('',#184,#188,#105,.T.);
#231=EDGE_CURVE('',#188,#188,#158,.T.);
#232=EDGE_CURVE('',#185,#189,#106,.T.);
#233=EDGE_CURVE('',#189,#189,#159,.T.);
#234=EDGE_CURVE('',#186,#190,#107,.T.);
#235=EDGE_CURVE('',#190,#190,#160,.T.);
#236=EDGE_CURVE('',#181,#191,#108,.T.);
#237=EDGE_CURVE('',#191,#192,#109,.T.);
#238=EDGE_CURVE('',#182,#192,#110,.T.);
#239=EDGE_CURVE('',#192,#178,#111,.T.);
#240=EDGE_CURVE('',#179,#191,#112,.T.);
#241=ORIENTED_EDGE('',*,*,#193,.F.);
#242=ORIENTED_EDGE('',*,*,#194,.F.);
#243=ORIENTED_EDGE('',*,*,#195,.T.);
#244=ORIENTED_EDGE('',*,*,#196,.T.);
#245=ORIENTED_EDGE('',*,*,#193,.T.);
#246=ORIENTED_EDGE('',*,*,#197,.T.);
#247=ORIENTED_EDGE('',*,*,#198,.T.);
#248=ORIENTED_EDGE('',*,*,#199,.F.);
#249=ORIENTED_EDGE('',*,*,#196,.F.);
#250=ORIENTED_EDGE('',*,*,#200,.F.);
#251=ORIENTED_EDGE('',*,*,#201,.F.);
#252=ORIENTED_EDGE('',*,*,#197,.F.);
#253=ORIENTED_EDGE('',*,*,#198,.F.);
#254=ORIENTED_EDGE('',*,*,#201,.T.);
#255=ORIENTED_EDGE('',*,*,#202,.T.);
#256=ORIENTED_EDGE('',*,*,#203,.F.);
#257=ORIENTED_EDGE('',*,*,#204,.F.);
#258=ORIENTED_EDGE('',*,*,#205,.F.);
#259=ORIENTED_EDGE('',*,*,#206,.T.);
#260=ORIENTED_EDGE('',*,*,#207,.T.);
#261=ORIENTED_EDGE('',*,*,#208,.F.);
#262=ORIENTED_EDGE('',*,*,#209,.T.);
#263=ORIENTED_EDGE('',*,*,#210,.T.);
#264=ORIENTED_EDGE('',*,*,#211,.F.);
#265=ORIENTED_EDGE('',*,*,#204,.T.);
#266=ORIENTED_EDGE('',*,*,#212,.T.);
#267=ORIENTED_EDGE('',*,*,#208,.T.);
#268=ORIENTED_EDGE('',*,*,#213,.F.);
#269=ORIENTED_EDGE('',*,*,#207,.F.);
#270=ORIENTED_EDGE('',*,*,#214,.F.);
#271=ORIENTED_EDGE('',*,*,#209,.F.);
#272=ORIENTED_EDGE('',*,*,#212,.F.);
#273=ORIENTED_EDGE('',*,*,#194,.T.);
#274=ORIENTED_EDGE('',*,*,#199,.T.);
#275=ORIENTED_EDGE('',*,*,#203,.T.);
#276=ORIENTED_EDGE('',*,*,#215,.F.);
#277=ORIENTED_EDGE('',*,*,#216,.T.);
#278=ORIENTED_EDGE('',*,*,#217,.T.);
#279=ORIENTED_EDGE('',*,*,#218,.F.);
#280=ORIENTED_EDGE('',*,*,#219,.F.);
#281=ORIENTED_EDGE('',*,*,#220,.T.);
#282=ORIENTED_EDGE('',*,*,#210,.F.);
#283=ORIENTED_EDGE('',*,*,#214,.T.);
#284=ORIENTED_EDGE('',*,*,#206,.F.);
#285=ORIENTED_EDGE('',*,*,#221,.T.);
#286=ORIENTED_EDGE('',*,*,#222,.T.);
#287=ORIENTED_EDGE('',*,*,#215,.T.);
#288=ORIENTED_EDGE('',*,*,#202,.F.);
#289=ORIENTED_EDGE('',*,*,#200,.T.);
#290=ORIENTED_EDGE('',*,*,#195,.F.);
#291=ORIENTED_EDGE('',*,*,#219,.T.);
#292=ORIENTED_EDGE('',*,*,#223,.T.);
#293=ORIENTED_EDGE('',*,*,#224,.T.);
#294=ORIENTED_EDGE('',*,*,#225,.T.);
#295=ORIENTED_EDGE('',*,*,#226,.T.);
#296=ORIENTED_EDGE('',*,*,#227,.T.);
#297=ORIENTED_EDGE('',*,*,#224,.F.);
#298=ORIENTED_EDGE('',*,*,#228,.T.);
#299=ORIENTED_EDGE('',*,*,#229,.F.);
#300=ORIENTED_EDGE('',*,*,#228,.F.);
#301=ORIENTED_EDGE('',*,*,#229,.T.);
#302=ORIENTED_EDGE('',*,*,#225,.F.);
#303=ORIENTED_EDGE('',*,*,#230,.T.);
#304=ORIENTED_EDGE('',*,*,#231,.F.);
#305=ORIENTED_EDGE('',*,*,#230,.F.);
#306=ORIENTED_EDGE('',*,*,#231,.T.);
#307=ORIENTED_EDGE('',*,*,#226,.F.);
#308=ORIENTED_EDGE('',*,*,#232,.T.);
#309=ORIENTED_EDGE('',*,*,#233,.F.);
#310=ORIENTED_EDGE('',*,*,#232,.F.);
#311=ORIENTED_EDGE('',*,*,#233,.T.);
#312=ORIENTED_EDGE('',*,*,#227,.F.);
#313=ORIENTED_EDGE('',*,*,#234,.T.);
#314=ORIENTED_EDGE('',*,*,#235,.F.);
#315=ORIENTED_EDGE('',*,*,#234,.F.);
#316=ORIENTED_EDGE('',*,*,#235,.T.);
#317=ORIENTED_EDGE('',*,*,#211,.T.);
#318=ORIENTED_EDGE('',*,*,#220,.F.);
#319=ORIENTED_EDGE('',*,*,#236,.T.);
#320=ORIENTED_EDGE('',*,*,#237,.T.);
#321=ORIENTED_EDGE('',*,*,#238,.F.);
#322=ORIENTED_EDGE('',*,*,#221,.F.);
#323=ORIENTED_EDGE('',*,*,#205,.T.);
#324=ORIENTED_EDGE('',*,*,#213,.T.);
#325=ORIENTED_EDGE('',*,*,#239,.T.);
#326=ORIENTED_EDGE('',*,*,#216,.F.);
#327=ORIENTED_EDGE('',*,*,#222,.F.);
#328=ORIENTED_EDGE('',*,*,#238,.T.);
#329=ORIENTED_EDGE('',*,*,#240,.T.);
#330=ORIENTED_EDGE('',*,*,#236,.F.);
#331=ORIENTED_EDGE('',*,*,#223,.F.);
#332=ORIENTED_EDGE('',*,*,#218,.T.);
#333=ORIENTED_EDGE('',*,*,#237,.F.);
#334=ORIENTED_EDGE('',*,*,#240,.F.);
#335=ORIENTED_EDGE('',*,*,#217,.F.);
#336=ORIENTED_EDGE('',*,*,#239,.F.);
#337=CYLINDRICAL_SURFACE('',#381,0.25);
#338=CYLINDRICAL_SURFACE('',#387,0.25);
#339=CYLINDRICAL_SURFACE('',#389,0.25);
#340=CYLINDRICAL_SURFACE('',#392,0.25);
#341=CYLINDRICAL_SURFACE('',#403,0.1875);
#342=CYLINDRICAL_SURFACE('',#406,0.1875);
#343=CYLINDRICAL_SURFACE('',#409,0.1875);
#344=CYLINDRICAL_SURFACE('',#412,0.1875);
#345=ADVANCED_FACE('',(#33),#337,.F.);
#346=ADVANCED_FACE('',(#34),#19,.T.);
#347=ADVANCED_FACE('',(#35),#20,.F.);
#348=ADVANCED_FACE('',(#36),#338,.F.);
#349=ADVANCED_FACE('',(#37),#339,.F.);
#350=ADVANCED_FACE('',(#38),#340,.F.);
#351=ADVANCED_FACE('',(#39),#21,.T.);
#352=ADVANCED_FACE('',(#40),#22,.F.);
#353=ADVANCED_FACE('',(#41),#23,.T.);
#354=ADVANCED_FACE('',(#42,#15,#16,#17,#18),#24,.T.);
#355=ADVANCED_FACE('',(#43),#341,.F.);
#356=ADVANCED_FACE('',(#44),#25,.T.);
#357=ADVANCED_FACE('',(#45),#342,.F.);
#358=ADVANCED_FACE('',(#46),#26,.T.);
#359=ADVANCED_FACE('',(#47),#343,.F.);
#360=ADVANCED_FACE('',(#48),#27,.T.);
#361=ADVANCED_FACE('',(#49),#344,.F.);
#362=ADVANCED_FACE('',(#50),#28,.T.);
#363=ADVANCED_FACE('',(#51),#29,.T.);
#364=ADVANCED_FACE('',(#52),#30,.T.);
#365=ADVANCED_FACE('',(#53),#31,.T.);
#366=ADVANCED_FACE('',(#54),#32,.F.);
#367=CLOSED_SHELL('',(#345,#346,#347,#348,#349,#350,#351,#352,#353,#354,
#355,#356,#357,#358,#359,#360,#361,#362,#363,#364,#365,#366));
#368=DERIVED_UNIT_ELEMENT(#370,1.);
#369=DERIVED_UNIT_ELEMENT(#639,-3.);
#370=(
MASS_UNIT()
NAMED_UNIT(*)
SI_UNIT(.KILO.,.GRAM.)
);
#371=DERIVED_UNIT((#368,#369));
#372=MEASURE_REPRESENTATION_ITEM('density measure',
POSITIVE_RATIO_MEASURE(7850.),#371);
#373=PROPERTY_DEFINITION_REPRESENTATION(#378,#375);
#374=PROPERTY_DEFINITION_REPRESENTATION(#379,#376);
#375=REPRESENTATION('material name',(#377),#634);
#376=REPRESENTATION('density',(#372),#634);
#377=DESCRIPTIVE_REPRESENTATION_ITEM('Steel','Steel');
#378=PROPERTY_DEFINITION('material property','material name',#647);
#379=PROPERTY_DEFINITION('material property','density of part',#647);
#380=AXIS2_PLACEMENT_3D('',#529,#419,#420);
#381=AXIS2_PLACEMENT_3D('',#530,#421,#422);
#382=AXIS2_PLACEMENT_3D('',#533,#423,#424);
#383=AXIS2_PLACEMENT_3D('',#537,#426,#427);
#384=AXIS2_PLACEMENT_3D('',#539,#429,#430);
#385=AXIS2_PLACEMENT_3D('',#543,#432,#433);
#386=AXIS2_PLACEMENT_3D('',#545,#435,#436);
#387=AXIS2_PLACEMENT_3D('',#549,#439,#440);
#388=AXIS2_PLACEMENT_3D('',#551,#441,#442);
#389=AXIS2_PLACEMENT_3D('',#553,#444,#445);
#390=AXIS2_PLACEMENT_3D('',#556,#446,#447);
#391=AXIS2_PLACEMENT_3D('',#560,#449,#450);
#392=AXIS2_PLACEMENT_3D('',#562,#452,#453);
#393=AXIS2_PLACEMENT_3D('',#565,#454,#455);
#394=AXIS2_PLACEMENT_3D('',#569,#457,#458);
#395=AXIS2_PLACEMENT_3D('',#571,#460,#461);
#396=AXIS2_PLACEMENT_3D('',#574,#464,#465);
#397=AXIS2_PLACEMENT_3D('',#576,#467,#468);
#398=AXIS2_PLACEMENT_3D('',#586,#474,#475);
#399=AXIS2_PLACEMENT_3D('',#594,#480,#481);
#400=AXIS2_PLACEMENT_3D('',#596,#482,#483);
#401=AXIS2_PLACEMENT_3D('',#598,#484,#485);
#402=AXIS2_PLACEMENT_3D('',#600,#486,#487);
#403=AXIS2_PLACEMENT_3D('',#601,#488,#489);
#404=AXIS2_PLACEMENT_3D('',#604,#491,#492);
#405=AXIS2_PLACEMENT_3D('',#605,#493,#494);
#406=AXIS2_PLACEMENT_3D('',#606,#495,#496);
#407=AXIS2_PLACEMENT_3D('',#609,#498,#499);
#408=AXIS2_PLACEMENT_3D('',#610,#500,#501);
#409=AXIS2_PLACEMENT_3D('',#611,#502,#503);
#410=AXIS2_PLACEMENT_3D('',#614,#505,#506);
#411=AXIS2_PLACEMENT_3D('',#615,#507,#508);
#412=AXIS2_PLACEMENT_3D('',#616,#509,#510);
#413=AXIS2_PLACEMENT_3D('',#619,#512,#513);
#414=AXIS2_PLACEMENT_3D('',#620,#514,#515);
#415=AXIS2_PLACEMENT_3D('',#621,#516,#517);
#416=AXIS2_PLACEMENT_3D('',#627,#521,#522);
#417=AXIS2_PLACEMENT_3D('',#629,#524,#525);
#418=AXIS2_PLACEMENT_3D('',#631,#527,#528);
#419=DIRECTION('axis',(0.,0.,1.));
#420=DIRECTION('refdir',(1.,0.,0.));
#421=DIRECTION('center_axis',(2.22044604925031E-16,-1.,2.22044604925031E-16));
#422=DIRECTION('ref_axis',(0.707106781186548,3.14018491736755E-16,0.707106781186548));
#423=DIRECTION('center_axis',(-2.22044604925031E-16,1.,-2.22044604925031E-16));
#424=DIRECTION('ref_axis',(0.707106781186548,3.14018491736755E-16,0.707106781186548));
#425=DIRECTION('',(2.22044604925031E-16,-1.,2.22044604925031E-16));
#426=DIRECTION('center_axis',(-2.22044604925031E-16,1.,-2.22044604925031E-16));
#427=DIRECTION('ref_axis',(0.707106781186548,3.14018491736755E-16,0.707106781186548));
#428=DIRECTION('',(2.22044604925031E-16,-1.,2.22044604925031E-16));
#429=DIRECTION('center_axis',(-2.22044604925031E-16,1.,-2.22044604925031E-16));
#430=DIRECTION('ref_axis',(-4.93038065763132E-32,2.22044604925031E-16,1.));
#431=DIRECTION('',(4.93038065763132E-32,-2.22044604925031E-16,-1.));
#432=DIRECTION('center_axis',(-2.22044604925031E-16,1.,-2.22044604925031E-16));
#433=DIRECTION('ref_axis',(0.707106781186548,0.,-0.707106781186548));
#434=DIRECTION('',(4.93038065763132E-32,-2.22044604925031E-16,-1.));
#435=DIRECTION('center_axis',(1.,2.22044604925031E-16,0.));
#436=DIRECTION('ref_axis',(-2.22044604925031E-16,1.,-2.22044604925031E-16));
#437=DIRECTION('',(-4.93038065763132E-32,2.22044604925031E-16,1.));
#438=DIRECTION('',(-2.22044604925031E-16,1.,-2.22044604925031E-16));
#439=DIRECTION('center_axis',(2.22044604925031E-16,-1.,2.22044604925031E-16));
#440=DIRECTION('ref_axis',(0.707106781186548,0.,-0.707106781186548));
#441=DIRECTION('center_axis',(-2.22044604925031E-16,1.,-2.22044604925031E-16));
#442=DIRECTION('ref_axis',(0.707106781186548,0.,-0.707106781186548));
#443=DIRECTION('',(-2.22044604925031E-16,1.,-2.22044604925031E-16));
#444=DIRECTION('center_axis',(2.22044604925031E-16,-1.,2.22044604925031E-16));
#445=DIRECTION('ref_axis',(-0.707106781186548,-3.14018491736755E-16,-0.707106781186548));
#446=DIRECTION('center_axis',(-2.22044604925031E-16,1.,-2.22044604925031E-16));
#447=DIRECTION('ref_axis',(-0.707106781186548,-3.14018491736755E-16,-0.707106781186548));
#448=DIRECTION('',(2.22044604925031E-16,-1.,2.22044604925031E-16));
#449=DIRECTION('center_axis',(-2.22044604925031E-16,1.,-2.22044604925031E-16));
#450=DIRECTION('ref_axis',(-0.707106781186548,-3.14018491736755E-16,-0.707106781186548));
#451=DIRECTION('',(2.22044604925031E-16,-1.,2.22044604925031E-16));
#452=DIRECTION('center_axis',(2.22044604925031E-16,-1.,2.22044604925031E-16));
#453=DIRECTION('ref_axis',(-0.707106781186548,0.,0.707106781186548));
#454=DIRECTION('center_axis',(-2.22044604925031E-16,1.,-2.22044604925031E-16));
#455=DIRECTION('ref_axis',(-0.707106781186548,0.,0.707106781186548));
#456=DIRECTION('',(-2.22044604925031E-16,1.,-2.22044604925031E-16));
#457=DIRECTION('center_axis',(-2.22044604925031E-16,1.,-2.22044604925031E-16));
#458=DIRECTION('ref_axis',(-0.707106781186548,0.,0.707106781186548));
#459=DIRECTION('',(-2.22044604925031E-16,1.,-2.22044604925031E-16));
#460=DIRECTION('center_axis',(-2.22044604925031E-16,1.,-2.22044604925031E-16));
#461=DIRECTION('ref_axis',(-4.93038065763132E-32,2.22044604925031E-16,1.));
#462=DIRECTION('',(-4.93038065763132E-32,2.22044604925031E-16,1.));
#463=DIRECTION('',(-4.93038065763132E-32,2.22044604925031E-16,1.));
#464=DIRECTION('center_axis',(-1.,-2.22044604925031E-16,0.));
#465=DIRECTION('ref_axis',(2.22044604925031E-16,-1.,2.22044604925031E-16));
#466=DIRECTION('',(4.93038065763132E-32,-2.22044604925031E-16,-1.));
#467=DIRECTION('center_axis',(-1.,-2.22044604925031E-16,0.));
#468=DIRECTION('ref_axis',(2.22044604925031E-16,-1.,2.22044604925031E-16));
#469=DIRECTION('',(-4.93038065763132E-32,2.22044604925031E-16,1.));
#470=DIRECTION('',(2.22044604925031E-16,-1.,2.22044604925031E-16));
#471=DIRECTION('',(-4.93038065763132E-32,2.22044604925031E-16,1.));
#472=DIRECTION('',(2.22044604925031E-16,-1.,2.22044604925031E-16));
#473=DIRECTION('',(-4.93038065763132E-32,2.22044604925031E-16,1.));
#474=DIRECTION('center_axis',(-2.22044604925031E-16,1.,-2.22044604925031E-16));
#475=DIRECTION('ref_axis',(-4.93038065763132E-32,2.22044604925031E-16,1.));
#476=DIRECTION('',(4.93038065763132E-32,-2.22044604925031E-16,-1.));
#477=DIRECTION('',(4.93038065763132E-32,-2.22044604925031E-16,-1.));
#478=DIRECTION('',(-1.,-2.22044604925031E-16,0.));
#479=DIRECTION('',(1.,2.22044604925031E-16,0.));
#480=DIRECTION('center_axis',(2.22044604925031E-16,-1.,2.22044604925031E-16));
#481=DIRECTION('ref_axis',(4.93038065763132E-32,-2.22044604925031E-16,-1.));
#482=DIRECTION('center_axis',(2.22044604925031E-16,-1.,2.22044604925031E-16));
#483=DIRECTION('ref_axis',(4.93038065763132E-32,-2.22044604925031E-16,-1.));
#484=DIRECTION('center_axis',(2.22044604925031E-16,-1.,2.22044604925031E-16));
#485=DIRECTION('ref_axis',(4.93038065763132E-32,-2.22044604925031E-16,-1.));
#486=DIRECTION('center_axis',(2.22044604925031E-16,-1.,2.22044604925031E-16));
#487=DIRECTION('ref_axis',(4.93038065763132E-32,-2.22044604925031E-16,-1.));
#488=DIRECTION('center_axis',(2.22044604925031E-16,-1.,2.22044604925031E-16));
#489=DIRECTION('ref_axis',(4.93038065763132E-32,-2.22044604925031E-16,-1.));
#490=DIRECTION('',(2.22044604925031E-16,-1.,2.22044604925031E-16));
#491=DIRECTION('center_axis',(-2.22044604925031E-16,1.,-2.22044604925031E-16));
#492=DIRECTION('ref_axis',(4.93038065763132E-32,-2.22044604925031E-16,-1.));
#493=DIRECTION('center_axis',(-2.22044604925031E-16,1.,-2.22044604925031E-16));
#494=DIRECTION('ref_axis',(-4.93038065763132E-32,2.22044604925031E-16,1.));
#495=DIRECTION('center_axis',(2.22044604925031E-16,-1.,2.22044604925031E-16));
#496=DIRECTION('ref_axis',(4.93038065763132E-32,-2.22044604925031E-16,-1.));
#497=DIRECTION('',(2.22044604925031E-16,-1.,2.22044604925031E-16));
#498=DIRECTION('center_axis',(-2.22044604925031E-16,1.,-2.22044604925031E-16));
#499=DIRECTION('ref_axis',(4.93038065763132E-32,-2.22044604925031E-16,-1.));
#500=DIRECTION('center_axis',(-2.22044604925031E-16,1.,-2.22044604925031E-16));
#501=DIRECTION('ref_axis',(-4.93038065763132E-32,2.22044604925031E-16,1.));
#502=DIRECTION('center_axis',(2.22044604925031E-16,-1.,2.22044604925031E-16));
#503=DIRECTION('ref_axis',(4.93038065763132E-32,-2.22044604925031E-16,-1.));
#504=DIRECTION('',(2.22044604925031E-16,-1.,2.22044604925031E-16));
#505=DIRECTION('center_axis',(-2.22044604925031E-16,1.,-2.22044604925031E-16));
#506=DIRECTION('ref_axis',(4.93038065763132E-32,-2.22044604925031E-16,-1.));
#507=DIRECTION('center_axis',(-2.22044604925031E-16,1.,-2.22044604925031E-16));
#508=DIRECTION('ref_axis',(-4.93038065763132E-32,2.22044604925031E-16,1.));
#509=DIRECTION('center_axis',(2.22044604925031E-16,-1.,2.22044604925031E-16));
#510=DIRECTION('ref_axis',(4.93038065763132E-32,-2.22044604925031E-16,-1.));
#511=DIRECTION('',(2.22044604925031E-16,-1.,2.22044604925031E-16));
#512=DIRECTION('center_axis',(-2.22044604925031E-16,1.,-2.22044604925031E-16));
#513=DIRECTION('ref_axis',(4.93038065763132E-32,-2.22044604925031E-16,-1.));
#514=DIRECTION('center_axis',(-2.22044604925031E-16,1.,-2.22044604925031E-16));
#515=DIRECTION('ref_axis',(-4.93038065763132E-32,2.22044604925031E-16,1.));
#516=DIRECTION('center_axis',(1.,2.22044604925031E-16,0.));
#517=DIRECTION('ref_axis',(-2.22044604925031E-16,1.,-2.22044604925031E-16));
#518=DIRECTION('',(2.22044604925031E-16,-1.,2.22044604925031E-16));
#519=DIRECTION('',(4.93038065763132E-32,-2.22044604925031E-16,-1.));
#520=DIRECTION('',(2.22044604925031E-16,-1.,2.22044604925031E-16));
#521=DIRECTION('center_axis',(4.93038065763132E-32,-2.22044604925031E-16,
-1.));
#522=DIRECTION('ref_axis',(1.,2.22044604925031E-16,0.));
#523=DIRECTION('',(-1.,-2.22044604925031E-16,0.));
#524=DIRECTION('center_axis',(-4.93038065763132E-32,2.22044604925031E-16,
1.));
#525=DIRECTION('ref_axis',(-1.,-2.22044604925031E-16,0.));
#526=DIRECTION('',(1.,2.22044604925031E-16,0.));
#527=DIRECTION('center_axis',(-2.22044604925031E-16,1.,-2.22044604925031E-16));
#528=DIRECTION('ref_axis',(-4.93038065763132E-32,2.22044604925031E-16,1.));
#529=CARTESIAN_POINT('',(0.,0.,0.));
#530=CARTESIAN_POINT('Origin',(-2.4,-4.21884749357559E-16,0.5));
#531=CARTESIAN_POINT('',(-2.4,-0.75,0.75));
#532=CARTESIAN_POINT('',(-2.15,-0.75,0.5));
#533=CARTESIAN_POINT('Origin',(-2.4,-0.75,0.5));
#534=CARTESIAN_POINT('',(-2.4,-3.66373598126302E-16,0.75));
#535=CARTESIAN_POINT('',(-2.4,-3.66373598126302E-16,0.75));
#536=CARTESIAN_POINT('',(-2.15,-3.66373598126302E-16,0.5));
#537=CARTESIAN_POINT('Origin',(-2.4,-4.21884749357559E-16,0.5));
#538=CARTESIAN_POINT('',(-2.15,-3.66373598126302E-16,0.5));
#539=CARTESIAN_POINT('Origin',(-2.39822351114542,-0.75,1.66533453693773E-16));
#540=CARTESIAN_POINT('',(-2.15,-0.75,-0.5));
#541=CARTESIAN_POINT('',(-2.15,-0.75,0.75));
#542=CARTESIAN_POINT('',(-2.4,-0.750000000000001,-0.75));
#543=CARTESIAN_POINT('Origin',(-2.4,-0.750000000000001,-0.5));
#544=CARTESIAN_POINT('',(-2.4,-0.75,1.66533453693773E-16));
#545=CARTESIAN_POINT('Origin',(-2.15,-4.77395900588817E-16,0.));
#546=CARTESIAN_POINT('',(-2.15,-5.88418203051333E-16,-0.5));
#547=CARTESIAN_POINT('',(-2.15,-4.77395900588817E-16,0.));
#548=CARTESIAN_POINT('',(-2.15,-5.88418203051333E-16,-0.5));
#549=CARTESIAN_POINT('Origin',(-2.4,-6.43929354282591E-16,-0.5));
#550=CARTESIAN_POINT('',(-2.4,-6.99440505513848E-16,-0.75));
#551=CARTESIAN_POINT('Origin',(-2.4,-6.43929354282591E-16,-0.5));
#552=CARTESIAN_POINT('',(-2.4,-6.99440505513848E-16,-0.75));
#553=CARTESIAN_POINT('Origin',(2.4,4.21884749357559E-16,-0.5));
#554=CARTESIAN_POINT('',(2.4,-0.75,-0.75));
#555=CARTESIAN_POINT('',(2.15,-0.75,-0.5));
#556=CARTESIAN_POINT('Origin',(2.4,-0.75,-0.5));
#557=CARTESIAN_POINT('',(2.4,3.66373598126302E-16,-0.75));
#558=CARTESIAN_POINT('',(2.4,3.66373598126302E-16,-0.75));
#559=CARTESIAN_POINT('',(2.15,3.66373598126302E-16,-0.5));
#560=CARTESIAN_POINT('Origin',(2.4,4.21884749357559E-16,-0.5));
#561=CARTESIAN_POINT('',(2.15,3.66373598126302E-16,-0.5));
#562=CARTESIAN_POINT('Origin',(2.4,6.43929354282591E-16,0.5));
#563=CARTESIAN_POINT('',(2.15,-0.749999999999999,0.5));
#564=CARTESIAN_POINT('',(2.4,-0.749999999999999,0.75));
#565=CARTESIAN_POINT('Origin',(2.4,-0.749999999999999,0.5));
#566=CARTESIAN_POINT('',(2.15,5.88418203051333E-16,0.5));
#567=CARTESIAN_POINT('',(2.15,5.88418203051333E-16,0.5));
#568=CARTESIAN_POINT('',(2.4,6.99440505513848E-16,0.75));
#569=CARTESIAN_POINT('Origin',(2.4,6.43929354282591E-16,0.5));
#570=CARTESIAN_POINT('',(2.4,6.99440505513848E-16,0.75));
#571=CARTESIAN_POINT('Origin',(2.39822351114542,-0.749999999999999,1.66533453693773E-16));
#572=CARTESIAN_POINT('',(2.15,-0.749999999999999,0.75));
#573=CARTESIAN_POINT('',(2.4,-0.749999999999999,1.66533453693773E-16));
#574=CARTESIAN_POINT('Origin',(2.15,4.77395900588817E-16,0.));
#575=CARTESIAN_POINT('',(2.15,4.77395900588817E-16,0.));
#576=CARTESIAN_POINT('Origin',(-2.4,-5.32907051820075E-16,0.));
#577=CARTESIAN_POINT('',(-2.4,-1.19904086659517E-15,-3.));
#578=CARTESIAN_POINT('',(-2.4,-1.19904086659517E-15,-3.));
#579=CARTESIAN_POINT('',(-2.4,-1.,-3.));
#580=CARTESIAN_POINT('',(-2.4,-1.19904086659517E-15,-3.));
#581=CARTESIAN_POINT('',(-2.4,-1.,3.));
#582=CARTESIAN_POINT('',(-2.4,-1.,-3.));
#583=CARTESIAN_POINT('',(-2.4,1.33226762955019E-16,3.));
#584=CARTESIAN_POINT('',(-2.4,1.33226762955019E-16,3.));
#585=CARTESIAN_POINT('',(-2.4,-1.19904086659517E-15,-3.));
#586=CARTESIAN_POINT('Origin',(0.,0.,0.));
#587=CARTESIAN_POINT('',(2.4,1.19904086659517E-15,3.));
#588=CARTESIAN_POINT('',(2.4,1.19904086659517E-15,3.));
#589=CARTESIAN_POINT('',(2.4,-1.33226762955019E-16,-3.));
#590=CARTESIAN_POINT('',(2.4,1.19904086659517E-15,3.));
#591=CARTESIAN_POINT('',(2.4,-1.33226762955019E-16,-3.));
#592=CARTESIAN_POINT('',(-2.4,1.33226762955019E-16,3.));
#593=CARTESIAN_POINT('',(-1.9,-9.35362898246694E-16,-2.3125));
#594=CARTESIAN_POINT('Origin',(-1.9,-9.76996261670137E-16,-2.5));
#595=CARTESIAN_POINT('',(1.9,-9.15933995315753E-17,-2.3125));
#596=CARTESIAN_POINT('Origin',(1.9,-1.33226762955019E-16,-2.5));
#597=CARTESIAN_POINT('',(1.9,1.01862962509358E-15,2.6875));
#598=CARTESIAN_POINT('Origin',(1.9,9.76996261670137E-16,2.5));
#599=CARTESIAN_POINT('',(-1.9,1.74860126378462E-16,2.6875));
#600=CARTESIAN_POINT('Origin',(-1.9,1.33226762955019E-16,2.5));
#601=CARTESIAN_POINT('Origin',(-1.9,-9.76996261670137E-16,-2.5));
#602=CARTESIAN_POINT('',(-1.9,-0.900000000000001,-2.3125));
#603=CARTESIAN_POINT('',(-1.9,-9.35362898246694E-16,-2.3125));
#604=CARTESIAN_POINT('Origin',(-1.9,-0.900000000000001,-2.5));
#605=CARTESIAN_POINT('Origin',(-1.9,-0.900000000000001,-2.5));
#606=CARTESIAN_POINT('Origin',(1.9,-1.33226762955019E-16,-2.5));
#607=CARTESIAN_POINT('',(1.9,-0.9,-2.3125));
#608=CARTESIAN_POINT('',(1.9,-9.15933995315753E-17,-2.3125));
#609=CARTESIAN_POINT('Origin',(1.9,-0.9,-2.5));
#610=CARTESIAN_POINT('Origin',(1.9,-0.9,-2.5));
#611=CARTESIAN_POINT('Origin',(1.9,9.76996261670137E-16,2.5));
#612=CARTESIAN_POINT('',(1.9,-0.899999999999999,2.6875));
#613=CARTESIAN_POINT('',(1.9,1.01862962509358E-15,2.6875));
#614=CARTESIAN_POINT('Origin',(1.9,-0.899999999999999,2.5));
#615=CARTESIAN_POINT('Origin',(1.9,-0.899999999999999,2.5));
#616=CARTESIAN_POINT('Origin',(-1.9,1.33226762955019E-16,2.5));
#617=CARTESIAN_POINT('',(-1.9,-0.9,2.6875));
#618=CARTESIAN_POINT('',(-1.9,1.74860126378462E-16,2.6875));
#619=CARTESIAN_POINT('Origin',(-1.9,-0.9,2.5));
#620=CARTESIAN_POINT('Origin',(-1.9,-0.9,2.5));
#621=CARTESIAN_POINT('Origin',(2.4,5.32907051820075E-16,0.));
#622=CARTESIAN_POINT('',(2.4,-0.999999999999999,3.));
#623=CARTESIAN_POINT('',(2.4,1.19904086659517E-15,3.));
#624=CARTESIAN_POINT('',(2.4,-1.,-3.));
#625=CARTESIAN_POINT('',(2.4,-0.999999999999999,3.));
#626=CARTESIAN_POINT('',(2.4,-1.33226762955019E-16,-3.));
#627=CARTESIAN_POINT('Origin',(1.4791141972894E-31,-6.66133814775094E-16,
-3.));
#628=CARTESIAN_POINT('',(2.4,-1.,-3.));
#629=CARTESIAN_POINT('Origin',(-1.4791141972894E-31,6.66133814775094E-16,
3.));
#630=CARTESIAN_POINT('',(-2.4,-1.,3.));
#631=CARTESIAN_POINT('Origin',(2.22044604925031E-16,-1.,2.22044604925031E-16));
#632=UNCERTAINTY_MEASURE_WITH_UNIT(LENGTH_MEASURE(0.000393700787401575),
#637,'DISTANCE_ACCURACY_VALUE',
'Maximum model space distance between geometric entities at asserted c
onnectivities');
#633=UNCERTAINTY_MEASURE_WITH_UNIT(LENGTH_MEASURE(0.000393700787401575),
#637,'DISTANCE_ACCURACY_VALUE',
'Maximum model space distance between geometric entities at asserted c
onnectivities');
#634=(
GEOMETRIC_REPRESENTATION_CONTEXT(3)
GLOBAL_UNCERTAINTY_ASSIGNED_CONTEXT((#632))
GLOBAL_UNIT_ASSIGNED_CONTEXT((#637,#641,#642))
REPRESENTATION_CONTEXT('','3D')
);
#635=(
GEOMETRIC_REPRESENTATION_CONTEXT(3)
GLOBAL_UNCERTAINTY_ASSIGNED_CONTEXT((#633))
GLOBAL_UNIT_ASSIGNED_CONTEXT((#637,#641,#642))
REPRESENTATION_CONTEXT('','3D')
);
#636=DIMENSIONAL_EXPONENTS(1.,0.,0.,0.,0.,0.,0.);
#637=(
CONVERSION_BASED_UNIT('inch',#640)
LENGTH_UNIT()
NAMED_UNIT(#636)
);
#638=(
LENGTH_UNIT()
NAMED_UNIT(*)
SI_UNIT(.MILLI.,.METRE.)
);
#639=(
LENGTH_UNIT()
NAMED_UNIT(*)
SI_UNIT($,.METRE.)
);
#640=LENGTH_MEASURE_WITH_UNIT(LENGTH_MEASURE(25.4),#638);
#641=(
NAMED_UNIT(*)
PLANE_ANGLE_UNIT()
SI_UNIT($,.RADIAN.)
);
#642=(
NAMED_UNIT(*)
SI_UNIT($,.STERADIAN.)
SOLID_ANGLE_UNIT()
);
#643=SHAPE_DEFINITION_REPRESENTATION(#644,#645);
#644=PRODUCT_DEFINITION_SHAPE('',$,#647);
#645=SHAPE_REPRESENTATION('',(#380),#634);
#646=PRODUCT_DEFINITION_CONTEXT('part definition',#651,'design');
#647=PRODUCT_DEFINITION('2026-04-29-17-02-53-664','APSX-PIM_B',#648,#646);
#648=PRODUCT_DEFINITION_FORMATION('',$,#653);
#649=PRODUCT_RELATED_PRODUCT_CATEGORY('APSX-PIM_B','APSX-PIM_B',(#653));
#650=APPLICATION_PROTOCOL_DEFINITION('international standard',
'automotive_design',2009,#651);
#651=APPLICATION_CONTEXT(
'Core Data for Automotive Mechanical Design Process');
#652=PRODUCT_CONTEXT('part definition',#651,'mechanical');
#653=PRODUCT('2026-04-29-17-02-53-664','APSX-PIM_B',$,(#652));
#654=PRESENTATION_STYLE_ASSIGNMENT((#655));
#655=SURFACE_STYLE_USAGE(.BOTH.,#656);
#656=SURFACE_SIDE_STYLE('',(#657));
#657=SURFACE_STYLE_FILL_AREA(#658);
#658=FILL_AREA_STYLE('Steel - Satin',(#659));
#659=FILL_AREA_STYLE_COLOUR('Steel - Satin',#660);
#660=COLOUR_RGB('Steel - Satin',0.627450980392157,0.627450980392157,0.627450980392157);
ENDSEC;
END-ISO-10303-21;
