ISO-10303-21;
HEADER;
/* Generated by software containing ST-Developer
 * from STEP Tools, Inc. (www.steptools.com) 
 */

FILE_DESCRIPTION(
/* description */ (''),
/* implementation_level */ '2;1');

FILE_NAME(
/* name */ 'APSX-PIM_A.step',
/* time_stamp */ '2026-04-29T17:02:28-07:00',
/* author */ (''),
/* organization */ (''),
/* preprocessor_version */ 'ST-DEVELOPER v20.1',
/* originating_system */ 'Autodesk Translation Framework v14.24.0.0',
/* authorisation */ '');

FILE_SCHEMA (('AUTOMOTIVE_DESIGN { 1 0 10303 214 3 1 1 }'));
ENDSEC;

DATA;
#10=MECHANICAL_DESIGN_GEOMETRIC_PRESENTATION_REPRESENTATION('',(#13),#996);
#11=SHAPE_REPRESENTATION_RELATIONSHIP('SRR','None',#1006,#12);
#12=ADVANCED_BREP_SHAPE_REPRESENTATION('',(#14),#995);
#13=STYLED_ITEM('',(#1015),#14);
#14=MANIFOLD_SOLID_BREP('APSX-PIM_A',#568);
#15=FACE_BOUND('',#118,.T.);
#16=FACE_BOUND('',#119,.T.);
#17=FACE_BOUND('',#120,.T.);
#18=FACE_BOUND('',#121,.T.);
#19=FACE_BOUND('',#122,.T.);
#20=FACE_BOUND('',#123,.T.);
#21=FACE_BOUND('',#124,.T.);
#22=FACE_BOUND('',#125,.T.);
#23=FACE_BOUND('',#126,.T.);
#24=FACE_BOUND('',#127,.T.);
#25=FACE_BOUND('',#128,.T.);
#26=FACE_BOUND('',#130,.T.);
#27=FACE_BOUND('',#131,.T.);
#28=FACE_BOUND('',#132,.T.);
#29=FACE_BOUND('',#133,.T.);
#30=FACE_BOUND('',#134,.T.);
#31=FACE_BOUND('',#135,.T.);
#32=FACE_BOUND('',#136,.T.);
#33=FACE_BOUND('',#139,.T.);
#34=FACE_BOUND('',#142,.T.);
#35=FACE_BOUND('',#145,.T.);
#36=FACE_BOUND('',#148,.T.);
#37=FACE_BOUND('',#163,.T.);
#38=FACE_BOUND('',#166,.T.);
#39=FACE_BOUND('',#169,.T.);
#40=FACE_BOUND('',#172,.T.);
#41=PLANE('',#591);
#42=PLANE('',#600);
#43=PLANE('',#607);
#44=PLANE('',#611);
#45=PLANE('',#615);
#46=PLANE('',#619);
#47=PLANE('',#628);
#48=PLANE('',#632);
#49=PLANE('',#636);
#50=PLANE('',#640);
#51=PLANE('',#643);
#52=PLANE('',#646);
#53=PLANE('',#649);
#54=PLANE('',#652);
#55=PLANE('',#653);
#56=PLANE('',#654);
#57=PLANE('',#655);
#58=PLANE('',#656);
#59=CYLINDRICAL_SURFACE('',#585,0.135);
#60=CYLINDRICAL_SURFACE('',#588,0.135);
#61=CYLINDRICAL_SURFACE('',#605,0.28);
#62=CYLINDRICAL_SURFACE('',#609,0.28);
#63=CYLINDRICAL_SURFACE('',#613,0.28);
#64=CYLINDRICAL_SURFACE('',#617,0.28);
#65=CYLINDRICAL_SURFACE('',#621,0.1875);
#66=CYLINDRICAL_SURFACE('',#622,0.1875);
#67=CYLINDRICAL_SURFACE('',#623,0.1875);
#68=CYLINDRICAL_SURFACE('',#624,0.1875);
#69=CYLINDRICAL_SURFACE('',#625,0.2);
#70=CYLINDRICAL_SURFACE('',#629,0.2);
#71=CYLINDRICAL_SURFACE('',#633,0.2);
#72=CYLINDRICAL_SURFACE('',#637,0.2);
#73=CYLINDRICAL_SURFACE('',#641,0.251);
#74=CYLINDRICAL_SURFACE('',#644,0.251);
#75=CYLINDRICAL_SURFACE('',#647,0.251);
#76=CYLINDRICAL_SURFACE('',#650,0.251);
#77=FACE_OUTER_BOUND('',#114,.T.);
#78=FACE_OUTER_BOUND('',#115,.T.);
#79=FACE_OUTER_BOUND('',#116,.T.);
#80=FACE_OUTER_BOUND('',#117,.T.);
#81=FACE_OUTER_BOUND('',#129,.T.);
#82=FACE_OUTER_BOUND('',#137,.T.);
#83=FACE_OUTER_BOUND('',#138,.T.);
#84=FACE_OUTER_BOUND('',#140,.T.);
#85=FACE_OUTER_BOUND('',#141,.T.);
#86=FACE_OUTER_BOUND('',#143,.T.);
#87=FACE_OUTER_BOUND('',#144,.T.);
#88=FACE_OUTER_BOUND('',#146,.T.);
#89=FACE_OUTER_BOUND('',#147,.T.);
#90=FACE_OUTER_BOUND('',#149,.T.);
#91=FACE_OUTER_BOUND('',#150,.T.);
#92=FACE_OUTER_BOUND('',#151,.T.);
#93=FACE_OUTER_BOUND('',#152,.T.);
#94=FACE_OUTER_BOUND('',#153,.T.);
#95=FACE_OUTER_BOUND('',#154,.T.);
#96=FACE_OUTER_BOUND('',#155,.T.);
#97=FACE_OUTER_BOUND('',#156,.T.);
#98=FACE_OUTER_BOUND('',#157,.T.);
#99=FACE_OUTER_BOUND('',#158,.T.);
#100=FACE_OUTER_BOUND('',#159,.T.);
#101=FACE_OUTER_BOUND('',#160,.T.);
#102=FACE_OUTER_BOUND('',#161,.T.);
#103=FACE_OUTER_BOUND('',#162,.T.);
#104=FACE_OUTER_BOUND('',#164,.T.);
#105=FACE_OUTER_BOUND('',#165,.T.);
#106=FACE_OUTER_BOUND('',#167,.T.);
#107=FACE_OUTER_BOUND('',#168,.T.);
#108=FACE_OUTER_BOUND('',#170,.T.);
#109=FACE_OUTER_BOUND('',#171,.T.);
#110=FACE_OUTER_BOUND('',#173,.T.);
#111=FACE_OUTER_BOUND('',#174,.T.);
#112=FACE_OUTER_BOUND('',#175,.T.);
#113=FACE_OUTER_BOUND('',#176,.T.);
#114=EDGE_LOOP('',(#392,#393,#394,#395));
#115=EDGE_LOOP('',(#396,#397,#398,#399));
#116=EDGE_LOOP('',(#400,#401,#402,#403));
#117=EDGE_LOOP('',(#404,#405,#406,#407));
#118=EDGE_LOOP('',(#408));
#119=EDGE_LOOP('',(#409));
#120=EDGE_LOOP('',(#410));
#121=EDGE_LOOP('',(#411));
#122=EDGE_LOOP('',(#412));
#123=EDGE_LOOP('',(#413));
#124=EDGE_LOOP('',(#414));
#125=EDGE_LOOP('',(#415));
#126=EDGE_LOOP('',(#416));
#127=EDGE_LOOP('',(#417));
#128=EDGE_LOOP('',(#418));
#129=EDGE_LOOP('',(#419,#420,#421,#422));
#130=EDGE_LOOP('',(#423));
#131=EDGE_LOOP('',(#424));
#132=EDGE_LOOP('',(#425));
#133=EDGE_LOOP('',(#426));
#134=EDGE_LOOP('',(#427));
#135=EDGE_LOOP('',(#428));
#136=EDGE_LOOP('',(#429));
#137=EDGE_LOOP('',(#430,#431,#432,#433));
#138=EDGE_LOOP('',(#434));
#139=EDGE_LOOP('',(#435));
#140=EDGE_LOOP('',(#436,#437,#438,#439));
#141=EDGE_LOOP('',(#440));
#142=EDGE_LOOP('',(#441));
#143=EDGE_LOOP('',(#442,#443,#444,#445));
#144=EDGE_LOOP('',(#446));
#145=EDGE_LOOP('',(#447));
#146=EDGE_LOOP('',(#448,#449,#450,#451));
#147=EDGE_LOOP('',(#452));
#148=EDGE_LOOP('',(#453));
#149=EDGE_LOOP('',(#454,#455,#456,#457));
#150=EDGE_LOOP('',(#458,#459,#460,#461));
#151=EDGE_LOOP('',(#462,#463,#464,#465));
#152=EDGE_LOOP('',(#466,#467,#468,#469));
#153=EDGE_LOOP('',(#470,#471,#472,#473));
#154=EDGE_LOOP('',(#474));
#155=EDGE_LOOP('',(#475,#476,#477,#478));
#156=EDGE_LOOP('',(#479));
#157=EDGE_LOOP('',(#480,#481,#482,#483));
#158=EDGE_LOOP('',(#484));
#159=EDGE_LOOP('',(#485,#486,#487,#488));
#160=EDGE_LOOP('',(#489));
#161=EDGE_LOOP('',(#490,#491,#492,#493));
#162=EDGE_LOOP('',(#494));
#163=EDGE_LOOP('',(#495));
#164=EDGE_LOOP('',(#496,#497,#498,#499));
#165=EDGE_LOOP('',(#500));
#166=EDGE_LOOP('',(#501));
#167=EDGE_LOOP('',(#502,#503,#504,#505));
#168=EDGE_LOOP('',(#506));
#169=EDGE_LOOP('',(#507));
#170=EDGE_LOOP('',(#508,#509,#510,#511));
#171=EDGE_LOOP('',(#512));
#172=EDGE_LOOP('',(#513));
#173=EDGE_LOOP('',(#514,#515,#516,#517));
#174=EDGE_LOOP('',(#518,#519,#520,#521));
#175=EDGE_LOOP('',(#522,#523,#524,#525));
#176=EDGE_LOOP('',(#526,#527,#528,#529));
#177=LINE('',#845,#208);
#178=LINE('',#851,#209);
#179=LINE('',#857,#210);
#180=LINE('',#862,#211);
#181=LINE('',#864,#212);
#182=LINE('',#866,#213);
#183=LINE('',#867,#214);
#184=LINE('',#887,#215);
#185=LINE('',#889,#216);
#186=LINE('',#891,#217);
#187=LINE('',#892,#218);
#188=LINE('',#903,#219);
#189=LINE('',#910,#220);
#190=LINE('',#917,#221);
#191=LINE('',#924,#222);
#192=LINE('',#930,#223);
#193=LINE('',#932,#224);
#194=LINE('',#934,#225);
#195=LINE('',#936,#226);
#196=LINE('',#941,#227);
#197=LINE('',#948,#228);
#198=LINE('',#955,#229);
#199=LINE('',#962,#230);
#200=LINE('',#967,#231);
#201=LINE('',#972,#232);
#202=LINE('',#977,#233);
#203=LINE('',#982,#234);
#204=LINE('',#986,#235);
#205=LINE('',#987,#236);
#206=LINE('',#989,#237);
#207=LINE('',#991,#238);
#208=VECTOR('',#663,0.175);
#209=VECTOR('',#670,0.135);
#210=VECTOR('',#677,0.135);
#211=VECTOR('',#682,1.);
#212=VECTOR('',#683,1.);
#213=VECTOR('',#684,1.);
#214=VECTOR('',#685,1.);
#215=VECTOR('',#704,1.);
#216=VECTOR('',#705,1.);
#217=VECTOR('',#706,1.);
#218=VECTOR('',#707,1.);
#219=VECTOR('',#718,0.28);
#220=VECTOR('',#727,0.28);
#221=VECTOR('',#736,0.28);
#222=VECTOR('',#745,0.28);
#223=VECTOR('',#754,0.1875);
#224=VECTOR('',#757,0.1875);
#225=VECTOR('',#760,0.1875);
#226=VECTOR('',#763,0.1875);
#227=VECTOR('',#768,0.2);
#228=VECTOR('',#777,0.2);
#229=VECTOR('',#786,0.2);
#230=VECTOR('',#795,0.2);
#231=VECTOR('',#802,0.251);
#232=VECTOR('',#809,0.251);
#233=VECTOR('',#816,0.251);
#234=VECTOR('',#823,0.251);
#235=VECTOR('',#830,1.);
#236=VECTOR('',#831,1.);
#237=VECTOR('',#834,1.);
#238=VECTOR('',#837,1.);
#239=CIRCLE('',#583,0.131339057091488);
#240=CIRCLE('',#584,0.175);
#241=CIRCLE('',#586,0.135);
#242=CIRCLE('',#587,0.135);
#243=CIRCLE('',#589,0.135);
#244=CIRCLE('',#590,0.135);
#245=CIRCLE('',#592,0.28);
#246=CIRCLE('',#593,0.28);
#247=CIRCLE('',#594,0.28);
#248=CIRCLE('',#595,0.28);
#249=CIRCLE('',#596,0.251);
#250=CIRCLE('',#597,0.251);
#251=CIRCLE('',#598,0.251);
#252=CIRCLE('',#599,0.251);
#253=CIRCLE('',#601,0.1875);
#254=CIRCLE('',#602,0.1875);
#255=CIRCLE('',#603,0.1875);
#256=CIRCLE('',#604,0.1875);
#257=CIRCLE('',#606,0.28);
#258=CIRCLE('',#608,0.1875);
#259=CIRCLE('',#610,0.28);
#260=CIRCLE('',#612,0.1875);
#261=CIRCLE('',#614,0.28);
#262=CIRCLE('',#616,0.1875);
#263=CIRCLE('',#618,0.28);
#264=CIRCLE('',#620,0.1875);
#265=CIRCLE('',#626,0.2);
#266=CIRCLE('',#627,0.2);
#267=CIRCLE('',#630,0.2);
#268=CIRCLE('',#631,0.2);
#269=CIRCLE('',#634,0.2);
#270=CIRCLE('',#635,0.2);
#271=CIRCLE('',#638,0.2);
#272=CIRCLE('',#639,0.2);
#273=CIRCLE('',#642,0.251);
#274=CIRCLE('',#645,0.251);
#275=CIRCLE('',#648,0.251);
#276=CIRCLE('',#651,0.251);
#277=VERTEX_POINT('',#842);
#278=VERTEX_POINT('',#844);
#279=VERTEX_POINT('',#848);
#280=VERTEX_POINT('',#850);
#281=VERTEX_POINT('',#854);
#282=VERTEX_POINT('',#856);
#283=VERTEX_POINT('',#860);
#284=VERTEX_POINT('',#861);
#285=VERTEX_POINT('',#863);
#286=VERTEX_POINT('',#865);
#287=VERTEX_POINT('',#868);
#288=VERTEX_POINT('',#870);
#289=VERTEX_POINT('',#872);
#290=VERTEX_POINT('',#874);
#291=VERTEX_POINT('',#876);
#292=VERTEX_POINT('',#878);
#293=VERTEX_POINT('',#880);
#294=VERTEX_POINT('',#882);
#295=VERTEX_POINT('',#885);
#296=VERTEX_POINT('',#886);
#297=VERTEX_POINT('',#888);
#298=VERTEX_POINT('',#890);
#299=VERTEX_POINT('',#893);
#300=VERTEX_POINT('',#895);
#301=VERTEX_POINT('',#897);
#302=VERTEX_POINT('',#899);
#303=VERTEX_POINT('',#902);
#304=VERTEX_POINT('',#906);
#305=VERTEX_POINT('',#909);
#306=VERTEX_POINT('',#913);
#307=VERTEX_POINT('',#916);
#308=VERTEX_POINT('',#920);
#309=VERTEX_POINT('',#923);
#310=VERTEX_POINT('',#927);
#311=VERTEX_POINT('',#938);
#312=VERTEX_POINT('',#940);
#313=VERTEX_POINT('',#945);
#314=VERTEX_POINT('',#947);
#315=VERTEX_POINT('',#952);
#316=VERTEX_POINT('',#954);
#317=VERTEX_POINT('',#959);
#318=VERTEX_POINT('',#961);
#319=VERTEX_POINT('',#966);
#320=VERTEX_POINT('',#971);
#321=VERTEX_POINT('',#976);
#322=VERTEX_POINT('',#981);
#323=EDGE_CURVE('',#277,#277,#239,.T.);
#324=EDGE_CURVE('',#277,#278,#177,.T.);
#325=EDGE_CURVE('',#278,#278,#240,.T.);
#326=EDGE_CURVE('',#279,#279,#241,.T.);
#327=EDGE_CURVE('',#279,#280,#178,.T.);
#328=EDGE_CURVE('',#280,#280,#242,.T.);
#329=EDGE_CURVE('',#281,#281,#243,.T.);
#330=EDGE_CURVE('',#281,#282,#179,.T.);
#331=EDGE_CURVE('',#282,#282,#244,.T.);
#332=EDGE_CURVE('',#283,#284,#180,.T.);
#333=EDGE_CURVE('',#284,#285,#181,.T.);
#334=EDGE_CURVE('',#285,#286,#182,.T.);
#335=EDGE_CURVE('',#286,#283,#183,.T.);
#336=EDGE_CURVE('',#287,#287,#245,.T.);
#337=EDGE_CURVE('',#288,#288,#246,.T.);
#338=EDGE_CURVE('',#289,#289,#247,.T.);
#339=EDGE_CURVE('',#290,#290,#248,.T.);
#340=EDGE_CURVE('',#291,#291,#249,.T.);
#341=EDGE_CURVE('',#292,#292,#250,.T.);
#342=EDGE_CURVE('',#293,#293,#251,.T.);
#343=EDGE_CURVE('',#294,#294,#252,.T.);
#344=EDGE_CURVE('',#295,#296,#184,.T.);
#345=EDGE_CURVE('',#297,#295,#185,.T.);
#346=EDGE_CURVE('',#298,#297,#186,.T.);
#347=EDGE_CURVE('',#296,#298,#187,.T.);
#348=EDGE_CURVE('',#299,#299,#253,.T.);
#349=EDGE_CURVE('',#300,#300,#254,.T.);
#350=EDGE_CURVE('',#301,#301,#255,.T.);
#351=EDGE_CURVE('',#302,#302,#256,.T.);
#352=EDGE_CURVE('',#287,#303,#188,.T.);
#353=EDGE_CURVE('',#303,#303,#257,.T.);
#354=EDGE_CURVE('',#304,#304,#258,.T.);
#355=EDGE_CURVE('',#288,#305,#189,.T.);
#356=EDGE_CURVE('',#305,#305,#259,.T.);
#357=EDGE_CURVE('',#306,#306,#260,.T.);
#358=EDGE_CURVE('',#289,#307,#190,.T.);
#359=EDGE_CURVE('',#307,#307,#261,.T.);
#360=EDGE_CURVE('',#308,#308,#262,.T.);
#361=EDGE_CURVE('',#290,#309,#191,.T.);
#362=EDGE_CURVE('',#309,#309,#263,.T.);
#363=EDGE_CURVE('',#310,#310,#264,.T.);
#364=EDGE_CURVE('',#304,#299,#192,.T.);
#365=EDGE_CURVE('',#306,#300,#193,.T.);
#366=EDGE_CURVE('',#308,#301,#194,.T.);
#367=EDGE_CURVE('',#310,#302,#195,.T.);
#368=EDGE_CURVE('',#311,#311,#265,.T.);
#369=EDGE_CURVE('',#311,#312,#196,.T.);
#370=EDGE_CURVE('',#312,#312,#266,.T.);
#371=EDGE_CURVE('',#313,#313,#267,.T.);
#372=EDGE_CURVE('',#313,#314,#197,.T.);
#373=EDGE_CURVE('',#314,#314,#268,.T.);
#374=EDGE_CURVE('',#315,#315,#269,.T.);
#375=EDGE_CURVE('',#315,#316,#198,.T.);
#376=EDGE_CURVE('',#316,#316,#270,.T.);
#377=EDGE_CURVE('',#317,#317,#271,.T.);
#378=EDGE_CURVE('',#317,#318,#199,.T.);
#379=EDGE_CURVE('',#318,#318,#272,.T.);
#380=EDGE_CURVE('',#291,#319,#200,.T.);
#381=EDGE_CURVE('',#319,#319,#273,.T.);
#382=EDGE_CURVE('',#292,#320,#201,.T.);
#383=EDGE_CURVE('',#320,#320,#274,.T.);
#384=EDGE_CURVE('',#293,#321,#202,.T.);
#385=EDGE_CURVE('',#321,#321,#275,.T.);
#386=EDGE_CURVE('',#294,#322,#203,.T.);
#387=EDGE_CURVE('',#322,#322,#276,.T.);
#388=EDGE_CURVE('',#285,#296,#204,.T.);
#389=EDGE_CURVE('',#284,#295,#205,.T.);
#390=EDGE_CURVE('',#286,#298,#206,.T.);
#391=EDGE_CURVE('',#283,#297,#207,.T.);
#392=ORIENTED_EDGE('',*,*,#323,.F.);
#393=ORIENTED_EDGE('',*,*,#324,.T.);
#394=ORIENTED_EDGE('',*,*,#325,.F.);
#395=ORIENTED_EDGE('',*,*,#324,.F.);
#396=ORIENTED_EDGE('',*,*,#326,.F.);
#397=ORIENTED_EDGE('',*,*,#327,.T.);
#398=ORIENTED_EDGE('',*,*,#328,.F.);
#399=ORIENTED_EDGE('',*,*,#327,.F.);
#400=ORIENTED_EDGE('',*,*,#329,.F.);
#401=ORIENTED_EDGE('',*,*,#330,.T.);
#402=ORIENTED_EDGE('',*,*,#331,.F.);
#403=ORIENTED_EDGE('',*,*,#330,.F.);
#404=ORIENTED_EDGE('',*,*,#332,.T.);
#405=ORIENTED_EDGE('',*,*,#333,.T.);
#406=ORIENTED_EDGE('',*,*,#334,.T.);
#407=ORIENTED_EDGE('',*,*,#335,.T.);
#408=ORIENTED_EDGE('',*,*,#325,.T.);
#409=ORIENTED_EDGE('',*,*,#326,.T.);
#410=ORIENTED_EDGE('',*,*,#329,.T.);
#411=ORIENTED_EDGE('',*,*,#336,.T.);
#412=ORIENTED_EDGE('',*,*,#337,.T.);
#413=ORIENTED_EDGE('',*,*,#338,.T.);
#414=ORIENTED_EDGE('',*,*,#339,.T.);
#415=ORIENTED_EDGE('',*,*,#340,.T.);
#416=ORIENTED_EDGE('',*,*,#341,.T.);
#417=ORIENTED_EDGE('',*,*,#342,.T.);
#418=ORIENTED_EDGE('',*,*,#343,.T.);
#419=ORIENTED_EDGE('',*,*,#344,.F.);
#420=ORIENTED_EDGE('',*,*,#345,.F.);
#421=ORIENTED_EDGE('',*,*,#346,.F.);
#422=ORIENTED_EDGE('',*,*,#347,.F.);
#423=ORIENTED_EDGE('',*,*,#323,.T.);
#424=ORIENTED_EDGE('',*,*,#328,.T.);
#425=ORIENTED_EDGE('',*,*,#331,.T.);
#426=ORIENTED_EDGE('',*,*,#348,.T.);
#427=ORIENTED_EDGE('',*,*,#349,.T.);
#428=ORIENTED_EDGE('',*,*,#350,.T.);
#429=ORIENTED_EDGE('',*,*,#351,.T.);
#430=ORIENTED_EDGE('',*,*,#336,.F.);
#431=ORIENTED_EDGE('',*,*,#352,.T.);
#432=ORIENTED_EDGE('',*,*,#353,.F.);
#433=ORIENTED_EDGE('',*,*,#352,.F.);
#434=ORIENTED_EDGE('',*,*,#353,.T.);
#435=ORIENTED_EDGE('',*,*,#354,.F.);
#436=ORIENTED_EDGE('',*,*,#337,.F.);
#437=ORIENTED_EDGE('',*,*,#355,.T.);
#438=ORIENTED_EDGE('',*,*,#356,.F.);
#439=ORIENTED_EDGE('',*,*,#355,.F.);
#440=ORIENTED_EDGE('',*,*,#356,.T.);
#441=ORIENTED_EDGE('',*,*,#357,.F.);
#442=ORIENTED_EDGE('',*,*,#338,.F.);
#443=ORIENTED_EDGE('',*,*,#358,.T.);
#444=ORIENTED_EDGE('',*,*,#359,.F.);
#445=ORIENTED_EDGE('',*,*,#358,.F.);
#446=ORIENTED_EDGE('',*,*,#359,.T.);
#447=ORIENTED_EDGE('',*,*,#360,.F.);
#448=ORIENTED_EDGE('',*,*,#339,.F.);
#449=ORIENTED_EDGE('',*,*,#361,.T.);
#450=ORIENTED_EDGE('',*,*,#362,.F.);
#451=ORIENTED_EDGE('',*,*,#361,.F.);
#452=ORIENTED_EDGE('',*,*,#362,.T.);
#453=ORIENTED_EDGE('',*,*,#363,.F.);
#454=ORIENTED_EDGE('',*,*,#354,.T.);
#455=ORIENTED_EDGE('',*,*,#364,.T.);
#456=ORIENTED_EDGE('',*,*,#348,.F.);
#457=ORIENTED_EDGE('',*,*,#364,.F.);
#458=ORIENTED_EDGE('',*,*,#357,.T.);
#459=ORIENTED_EDGE('',*,*,#365,.T.);
#460=ORIENTED_EDGE('',*,*,#349,.F.);
#461=ORIENTED_EDGE('',*,*,#365,.F.);
#462=ORIENTED_EDGE('',*,*,#360,.T.);
#463=ORIENTED_EDGE('',*,*,#366,.T.);
#464=ORIENTED_EDGE('',*,*,#350,.F.);
#465=ORIENTED_EDGE('',*,*,#366,.F.);
#466=ORIENTED_EDGE('',*,*,#363,.T.);
#467=ORIENTED_EDGE('',*,*,#367,.T.);
#468=ORIENTED_EDGE('',*,*,#351,.F.);
#469=ORIENTED_EDGE('',*,*,#367,.F.);
#470=ORIENTED_EDGE('',*,*,#368,.F.);
#471=ORIENTED_EDGE('',*,*,#369,.T.);
#472=ORIENTED_EDGE('',*,*,#370,.F.);
#473=ORIENTED_EDGE('',*,*,#369,.F.);
#474=ORIENTED_EDGE('',*,*,#370,.T.);
#475=ORIENTED_EDGE('',*,*,#371,.F.);
#476=ORIENTED_EDGE('',*,*,#372,.T.);
#477=ORIENTED_EDGE('',*,*,#373,.F.);
#478=ORIENTED_EDGE('',*,*,#372,.F.);
#479=ORIENTED_EDGE('',*,*,#373,.T.);
#480=ORIENTED_EDGE('',*,*,#374,.F.);
#481=ORIENTED_EDGE('',*,*,#375,.T.);
#482=ORIENTED_EDGE('',*,*,#376,.F.);
#483=ORIENTED_EDGE('',*,*,#375,.F.);
#484=ORIENTED_EDGE('',*,*,#376,.T.);
#485=ORIENTED_EDGE('',*,*,#377,.F.);
#486=ORIENTED_EDGE('',*,*,#378,.T.);
#487=ORIENTED_EDGE('',*,*,#379,.F.);
#488=ORIENTED_EDGE('',*,*,#378,.F.);
#489=ORIENTED_EDGE('',*,*,#379,.T.);
#490=ORIENTED_EDGE('',*,*,#340,.F.);
#491=ORIENTED_EDGE('',*,*,#380,.T.);
#492=ORIENTED_EDGE('',*,*,#381,.F.);
#493=ORIENTED_EDGE('',*,*,#380,.F.);
#494=ORIENTED_EDGE('',*,*,#381,.T.);
#495=ORIENTED_EDGE('',*,*,#368,.T.);
#496=ORIENTED_EDGE('',*,*,#341,.F.);
#497=ORIENTED_EDGE('',*,*,#382,.T.);
#498=ORIENTED_EDGE('',*,*,#383,.F.);
#499=ORIENTED_EDGE('',*,*,#382,.F.);
#500=ORIENTED_EDGE('',*,*,#383,.T.);
#501=ORIENTED_EDGE('',*,*,#371,.T.);
#502=ORIENTED_EDGE('',*,*,#342,.F.);
#503=ORIENTED_EDGE('',*,*,#384,.T.);
#504=ORIENTED_EDGE('',*,*,#385,.F.);
#505=ORIENTED_EDGE('',*,*,#384,.F.);
#506=ORIENTED_EDGE('',*,*,#385,.T.);
#507=ORIENTED_EDGE('',*,*,#374,.T.);
#508=ORIENTED_EDGE('',*,*,#343,.F.);
#509=ORIENTED_EDGE('',*,*,#386,.T.);
#510=ORIENTED_EDGE('',*,*,#387,.F.);
#511=ORIENTED_EDGE('',*,*,#386,.F.);
#512=ORIENTED_EDGE('',*,*,#387,.T.);
#513=ORIENTED_EDGE('',*,*,#377,.T.);
#514=ORIENTED_EDGE('',*,*,#344,.T.);
#515=ORIENTED_EDGE('',*,*,#388,.F.);
#516=ORIENTED_EDGE('',*,*,#333,.F.);
#517=ORIENTED_EDGE('',*,*,#389,.T.);
#518=ORIENTED_EDGE('',*,*,#347,.T.);
#519=ORIENTED_EDGE('',*,*,#390,.F.);
#520=ORIENTED_EDGE('',*,*,#334,.F.);
#521=ORIENTED_EDGE('',*,*,#388,.T.);
#522=ORIENTED_EDGE('',*,*,#346,.T.);
#523=ORIENTED_EDGE('',*,*,#391,.F.);
#524=ORIENTED_EDGE('',*,*,#335,.F.);
#525=ORIENTED_EDGE('',*,*,#390,.T.);
#526=ORIENTED_EDGE('',*,*,#345,.T.);
#527=ORIENTED_EDGE('',*,*,#389,.F.);
#528=ORIENTED_EDGE('',*,*,#332,.F.);
#529=ORIENTED_EDGE('',*,*,#391,.T.);
#530=CONICAL_SURFACE('',#582,0.175,0.0436332312998574);
#531=ADVANCED_FACE('',(#77),#530,.F.);
#532=ADVANCED_FACE('',(#78),#59,.F.);
#533=ADVANCED_FACE('',(#79),#60,.F.);
#534=ADVANCED_FACE('',(#80,#15,#16,#17,#18,#19,#20,#21,#22,#23,#24,#25),
#41,.T.);
#535=ADVANCED_FACE('',(#81,#26,#27,#28,#29,#30,#31,#32),#42,.F.);
#536=ADVANCED_FACE('',(#82),#61,.F.);
#537=ADVANCED_FACE('',(#83,#33),#43,.T.);
#538=ADVANCED_FACE('',(#84),#62,.F.);
#539=ADVANCED_FACE('',(#85,#34),#44,.T.);
#540=ADVANCED_FACE('',(#86),#63,.F.);
#541=ADVANCED_FACE('',(#87,#35),#45,.T.);
#542=ADVANCED_FACE('',(#88),#64,.F.);
#543=ADVANCED_FACE('',(#89,#36),#46,.T.);
#544=ADVANCED_FACE('',(#90),#65,.F.);
#545=ADVANCED_FACE('',(#91),#66,.F.);
#546=ADVANCED_FACE('',(#92),#67,.F.);
#547=ADVANCED_FACE('',(#93),#68,.F.);
#548=ADVANCED_FACE('',(#94),#69,.F.);
#549=ADVANCED_FACE('',(#95),#47,.T.);
#550=ADVANCED_FACE('',(#96),#70,.F.);
#551=ADVANCED_FACE('',(#97),#48,.T.);
#552=ADVANCED_FACE('',(#98),#71,.F.);
#553=ADVANCED_FACE('',(#99),#49,.T.);
#554=ADVANCED_FACE('',(#100),#72,.F.);
#555=ADVANCED_FACE('',(#101),#50,.T.);
#556=ADVANCED_FACE('',(#102),#73,.F.);
#557=ADVANCED_FACE('',(#103,#37),#51,.T.);
#558=ADVANCED_FACE('',(#104),#74,.F.);
#559=ADVANCED_FACE('',(#105,#38),#52,.T.);
#560=ADVANCED_FACE('',(#106),#75,.F.);
#561=ADVANCED_FACE('',(#107,#39),#53,.T.);
#562=ADVANCED_FACE('',(#108),#76,.F.);
#563=ADVANCED_FACE('',(#109,#40),#54,.T.);
#564=ADVANCED_FACE('',(#110),#55,.T.);
#565=ADVANCED_FACE('',(#111),#56,.T.);
#566=ADVANCED_FACE('',(#112),#57,.T.);
#567=ADVANCED_FACE('',(#113),#58,.T.);
#568=CLOSED_SHELL('',(#531,#532,#533,#534,#535,#536,#537,#538,#539,#540,
#541,#542,#543,#544,#545,#546,#547,#548,#549,#550,#551,#552,#553,#554,#555,
#556,#557,#558,#559,#560,#561,#562,#563,#564,#565,#566,#567));
#569=DERIVED_UNIT_ELEMENT(#571,1.);
#570=DERIVED_UNIT_ELEMENT(#1000,-3.);
#571=(
MASS_UNIT()
NAMED_UNIT(*)
SI_UNIT(.KILO.,.GRAM.)
);
#572=DERIVED_UNIT((#569,#570));
#573=MEASURE_REPRESENTATION_ITEM('density measure',
POSITIVE_RATIO_MEASURE(7850.),#572);
#574=PROPERTY_DEFINITION_REPRESENTATION(#579,#576);
#575=PROPERTY_DEFINITION_REPRESENTATION(#580,#577);
#576=REPRESENTATION('material name',(#578),#995);
#577=REPRESENTATION('density',(#573),#995);
#578=DESCRIPTIVE_REPRESENTATION_ITEM('Steel','Steel');
#579=PROPERTY_DEFINITION('material property','material name',#1008);
#580=PROPERTY_DEFINITION('material property','density of part',#1008);
#581=AXIS2_PLACEMENT_3D('',#840,#657,#658);
#582=AXIS2_PLACEMENT_3D('',#841,#659,#660);
#583=AXIS2_PLACEMENT_3D('',#843,#661,#662);
#584=AXIS2_PLACEMENT_3D('',#846,#664,#665);
#585=AXIS2_PLACEMENT_3D('',#847,#666,#667);
#586=AXIS2_PLACEMENT_3D('',#849,#668,#669);
#587=AXIS2_PLACEMENT_3D('',#852,#671,#672);
#588=AXIS2_PLACEMENT_3D('',#853,#673,#674);
#589=AXIS2_PLACEMENT_3D('',#855,#675,#676);
#590=AXIS2_PLACEMENT_3D('',#858,#678,#679);
#591=AXIS2_PLACEMENT_3D('',#859,#680,#681);
#592=AXIS2_PLACEMENT_3D('',#869,#686,#687);
#593=AXIS2_PLACEMENT_3D('',#871,#688,#689);
#594=AXIS2_PLACEMENT_3D('',#873,#690,#691);
#595=AXIS2_PLACEMENT_3D('',#875,#692,#693);
#596=AXIS2_PLACEMENT_3D('',#877,#694,#695);
#597=AXIS2_PLACEMENT_3D('',#879,#696,#697);
#598=AXIS2_PLACEMENT_3D('',#881,#698,#699);
#599=AXIS2_PLACEMENT_3D('',#883,#700,#701);
#600=AXIS2_PLACEMENT_3D('',#884,#702,#703);
#601=AXIS2_PLACEMENT_3D('',#894,#708,#709);
#602=AXIS2_PLACEMENT_3D('',#896,#710,#711);
#603=AXIS2_PLACEMENT_3D('',#898,#712,#713);
#604=AXIS2_PLACEMENT_3D('',#900,#714,#715);
#605=AXIS2_PLACEMENT_3D('',#901,#716,#717);
#606=AXIS2_PLACEMENT_3D('',#904,#719,#720);
#607=AXIS2_PLACEMENT_3D('',#905,#721,#722);
#608=AXIS2_PLACEMENT_3D('',#907,#723,#724);
#609=AXIS2_PLACEMENT_3D('',#908,#725,#726);
#610=AXIS2_PLACEMENT_3D('',#911,#728,#729);
#611=AXIS2_PLACEMENT_3D('',#912,#730,#731);
#612=AXIS2_PLACEMENT_3D('',#914,#732,#733);
#613=AXIS2_PLACEMENT_3D('',#915,#734,#735);
#614=AXIS2_PLACEMENT_3D('',#918,#737,#738);
#615=AXIS2_PLACEMENT_3D('',#919,#739,#740);
#616=AXIS2_PLACEMENT_3D('',#921,#741,#742);
#617=AXIS2_PLACEMENT_3D('',#922,#743,#744);
#618=AXIS2_PLACEMENT_3D('',#925,#746,#747);
#619=AXIS2_PLACEMENT_3D('',#926,#748,#749);
#620=AXIS2_PLACEMENT_3D('',#928,#750,#751);
#621=AXIS2_PLACEMENT_3D('',#929,#752,#753);
#622=AXIS2_PLACEMENT_3D('',#931,#755,#756);
#623=AXIS2_PLACEMENT_3D('',#933,#758,#759);
#624=AXIS2_PLACEMENT_3D('',#935,#761,#762);
#625=AXIS2_PLACEMENT_3D('',#937,#764,#765);
#626=AXIS2_PLACEMENT_3D('',#939,#766,#767);
#627=AXIS2_PLACEMENT_3D('',#942,#769,#770);
#628=AXIS2_PLACEMENT_3D('',#943,#771,#772);
#629=AXIS2_PLACEMENT_3D('',#944,#773,#774);
#630=AXIS2_PLACEMENT_3D('',#946,#775,#776);
#631=AXIS2_PLACEMENT_3D('',#949,#778,#779);
#632=AXIS2_PLACEMENT_3D('',#950,#780,#781);
#633=AXIS2_PLACEMENT_3D('',#951,#782,#783);
#634=AXIS2_PLACEMENT_3D('',#953,#784,#785);
#635=AXIS2_PLACEMENT_3D('',#956,#787,#788);
#636=AXIS2_PLACEMENT_3D('',#957,#789,#790);
#637=AXIS2_PLACEMENT_3D('',#958,#791,#792);
#638=AXIS2_PLACEMENT_3D('',#960,#793,#794);
#639=AXIS2_PLACEMENT_3D('',#963,#796,#797);
#640=AXIS2_PLACEMENT_3D('',#964,#798,#799);
#641=AXIS2_PLACEMENT_3D('',#965,#800,#801);
#642=AXIS2_PLACEMENT_3D('',#968,#803,#804);
#643=AXIS2_PLACEMENT_3D('',#969,#805,#806);
#644=AXIS2_PLACEMENT_3D('',#970,#807,#808);
#645=AXIS2_PLACEMENT_3D('',#973,#810,#811);
#646=AXIS2_PLACEMENT_3D('',#974,#812,#813);
#647=AXIS2_PLACEMENT_3D('',#975,#814,#815);
#648=AXIS2_PLACEMENT_3D('',#978,#817,#818);
#649=AXIS2_PLACEMENT_3D('',#979,#819,#820);
#650=AXIS2_PLACEMENT_3D('',#980,#821,#822);
#651=AXIS2_PLACEMENT_3D('',#983,#824,#825);
#652=AXIS2_PLACEMENT_3D('',#984,#826,#827);
#653=AXIS2_PLACEMENT_3D('',#985,#828,#829);
#654=AXIS2_PLACEMENT_3D('',#988,#832,#833);
#655=AXIS2_PLACEMENT_3D('',#990,#835,#836);
#656=AXIS2_PLACEMENT_3D('',#992,#838,#839);
#657=DIRECTION('axis',(0.,0.,1.));
#658=DIRECTION('refdir',(1.,0.,0.));
#659=DIRECTION('center_axis',(2.22044604925031E-16,-1.,2.22044604925031E-16));
#660=DIRECTION('ref_axis',(-4.93038065763132E-32,2.22044604925031E-16,1.));
#661=DIRECTION('center_axis',(2.22044604925031E-16,-1.,2.22044604925031E-16));
#662=DIRECTION('ref_axis',(-4.93038065763132E-32,2.22044604925031E-16,1.));
#663=DIRECTION('',(2.27175101973971E-16,-0.999048221581858,-0.0436193873653349));
#664=DIRECTION('center_axis',(-2.22044604925031E-16,1.,-2.22044604925031E-16));
#665=DIRECTION('ref_axis',(-4.93038065763132E-32,2.22044604925031E-16,1.));
#666=DIRECTION('center_axis',(-2.22044604925031E-16,1.,-2.22044604925031E-16));
#667=DIRECTION('ref_axis',(-4.93038065763132E-32,2.22044604925031E-16,1.));
#668=DIRECTION('center_axis',(-2.22044604925031E-16,1.,-2.22044604925031E-16));
#669=DIRECTION('ref_axis',(-4.93038065763132E-32,2.22044604925031E-16,1.));
#670=DIRECTION('',(-2.22044604925031E-16,1.,-2.22044604925031E-16));
#671=DIRECTION('center_axis',(2.22044604925031E-16,-1.,2.22044604925031E-16));
#672=DIRECTION('ref_axis',(-4.93038065763132E-32,2.22044604925031E-16,1.));
#673=DIRECTION('center_axis',(-2.22044604925031E-16,1.,-2.22044604925031E-16));
#674=DIRECTION('ref_axis',(-4.93038065763132E-32,2.22044604925031E-16,1.));
#675=DIRECTION('center_axis',(-2.22044604925031E-16,1.,-2.22044604925031E-16));
#676=DIRECTION('ref_axis',(-4.93038065763132E-32,2.22044604925031E-16,1.));
#677=DIRECTION('',(-2.22044604925031E-16,1.,-2.22044604925031E-16));
#678=DIRECTION('center_axis',(2.22044604925031E-16,-1.,2.22044604925031E-16));
#679=DIRECTION('ref_axis',(-4.93038065763132E-32,2.22044604925031E-16,1.));
#680=DIRECTION('center_axis',(2.22044604925031E-16,-1.,2.22044604925031E-16));
#681=DIRECTION('ref_axis',(4.93038065763132E-32,-2.22044604925031E-16,-1.));
#682=DIRECTION('',(1.,2.22044604925031E-16,-1.11022302462516E-16));
#683=DIRECTION('',(-4.93038065763132E-32,2.22044604925031E-16,1.));
#684=DIRECTION('',(-1.,-2.22044604925031E-16,1.11022302462516E-16));
#685=DIRECTION('',(4.93038065763132E-32,-2.22044604925031E-16,-1.));
#686=DIRECTION('center_axis',(-2.22044604925031E-16,1.,-2.22044604925031E-16));
#687=DIRECTION('ref_axis',(-4.93038065763132E-32,2.22044604925031E-16,1.));
#688=DIRECTION('center_axis',(-2.22044604925031E-16,1.,-2.22044604925031E-16));
#689=DIRECTION('ref_axis',(-4.93038065763132E-32,2.22044604925031E-16,1.));
#690=DIRECTION('center_axis',(-2.22044604925031E-16,1.,-2.22044604925031E-16));
#691=DIRECTION('ref_axis',(-4.93038065763132E-32,2.22044604925031E-16,1.));
#692=DIRECTION('center_axis',(-2.22044604925031E-16,1.,-2.22044604925031E-16));
#693=DIRECTION('ref_axis',(-4.93038065763132E-32,2.22044604925031E-16,1.));
#694=DIRECTION('center_axis',(-2.22044604925031E-16,1.,-2.22044604925031E-16));
#695=DIRECTION('ref_axis',(-4.93038065763132E-32,2.22044604925031E-16,1.));
#696=DIRECTION('center_axis',(-2.22044604925031E-16,1.,-2.22044604925031E-16));
#697=DIRECTION('ref_axis',(-4.93038065763132E-32,2.22044604925031E-16,1.));
#698=DIRECTION('center_axis',(-2.22044604925031E-16,1.,-2.22044604925031E-16));
#699=DIRECTION('ref_axis',(-4.93038065763132E-32,2.22044604925031E-16,1.));
#700=DIRECTION('center_axis',(-2.22044604925031E-16,1.,-2.22044604925031E-16));
#701=DIRECTION('ref_axis',(-4.93038065763132E-32,2.22044604925031E-16,1.));
#702=DIRECTION('center_axis',(2.22044604925031E-16,-1.,2.22044604925031E-16));
#703=DIRECTION('ref_axis',(4.93038065763132E-32,-2.22044604925031E-16,-1.));
#704=DIRECTION('',(-4.93038065763132E-32,2.22044604925031E-16,1.));
#705=DIRECTION('',(1.,2.22044604925031E-16,-1.11022302462516E-16));
#706=DIRECTION('',(4.93038065763132E-32,-2.22044604925031E-16,-1.));
#707=DIRECTION('',(-1.,-2.22044604925031E-16,1.11022302462516E-16));
#708=DIRECTION('center_axis',(2.22044604925031E-16,-1.,2.22044604925031E-16));
#709=DIRECTION('ref_axis',(4.93038065763132E-32,-2.22044604925031E-16,-1.));
#710=DIRECTION('center_axis',(2.22044604925031E-16,-1.,2.22044604925031E-16));
#711=DIRECTION('ref_axis',(4.93038065763132E-32,-2.22044604925031E-16,-1.));
#712=DIRECTION('center_axis',(2.22044604925031E-16,-1.,2.22044604925031E-16));
#713=DIRECTION('ref_axis',(4.93038065763132E-32,-2.22044604925031E-16,-1.));
#714=DIRECTION('center_axis',(2.22044604925031E-16,-1.,2.22044604925031E-16));
#715=DIRECTION('ref_axis',(4.93038065763132E-32,-2.22044604925031E-16,-1.));
#716=DIRECTION('center_axis',(-2.22044604925031E-16,1.,-2.22044604925031E-16));
#717=DIRECTION('ref_axis',(-4.93038065763132E-32,2.22044604925031E-16,1.));
#718=DIRECTION('',(-2.22044604925031E-16,1.,-2.22044604925031E-16));
#719=DIRECTION('center_axis',(2.22044604925031E-16,-1.,2.22044604925031E-16));
#720=DIRECTION('ref_axis',(-4.93038065763132E-32,2.22044604925031E-16,1.));
#721=DIRECTION('center_axis',(2.22044604925031E-16,-1.,2.22044604925031E-16));
#722=DIRECTION('ref_axis',(4.93038065763132E-32,-2.22044604925031E-16,-1.));
#723=DIRECTION('center_axis',(2.22044604925031E-16,-1.,2.22044604925031E-16));
#724=DIRECTION('ref_axis',(4.93038065763132E-32,-2.22044604925031E-16,-1.));
#725=DIRECTION('center_axis',(-2.22044604925031E-16,1.,-2.22044604925031E-16));
#726=DIRECTION('ref_axis',(-4.93038065763132E-32,2.22044604925031E-16,1.));
#727=DIRECTION('',(-2.22044604925031E-16,1.,-2.22044604925031E-16));
#728=DIRECTION('center_axis',(2.22044604925031E-16,-1.,2.22044604925031E-16));
#729=DIRECTION('ref_axis',(-4.93038065763132E-32,2.22044604925031E-16,1.));
#730=DIRECTION('center_axis',(2.22044604925031E-16,-1.,2.22044604925031E-16));
#731=DIRECTION('ref_axis',(4.93038065763132E-32,-2.22044604925031E-16,-1.));
#732=DIRECTION('center_axis',(2.22044604925031E-16,-1.,2.22044604925031E-16));
#733=DIRECTION('ref_axis',(4.93038065763132E-32,-2.22044604925031E-16,-1.));
#734=DIRECTION('center_axis',(-2.22044604925031E-16,1.,-2.22044604925031E-16));
#735=DIRECTION('ref_axis',(-4.93038065763132E-32,2.22044604925031E-16,1.));
#736=DIRECTION('',(-2.22044604925031E-16,1.,-2.22044604925031E-16));
#737=DIRECTION('center_axis',(2.22044604925031E-16,-1.,2.22044604925031E-16));
#738=DIRECTION('ref_axis',(-4.93038065763132E-32,2.22044604925031E-16,1.));
#739=DIRECTION('center_axis',(2.22044604925031E-16,-1.,2.22044604925031E-16));
#740=DIRECTION('ref_axis',(4.93038065763132E-32,-2.22044604925031E-16,-1.));
#741=DIRECTION('center_axis',(2.22044604925031E-16,-1.,2.22044604925031E-16));
#742=DIRECTION('ref_axis',(4.93038065763132E-32,-2.22044604925031E-16,-1.));
#743=DIRECTION('center_axis',(-2.22044604925031E-16,1.,-2.22044604925031E-16));
#744=DIRECTION('ref_axis',(-4.93038065763132E-32,2.22044604925031E-16,1.));
#745=DIRECTION('',(-2.22044604925031E-16,1.,-2.22044604925031E-16));
#746=DIRECTION('center_axis',(2.22044604925031E-16,-1.,2.22044604925031E-16));
#747=DIRECTION('ref_axis',(-4.93038065763132E-32,2.22044604925031E-16,1.));
#748=DIRECTION('center_axis',(2.22044604925031E-16,-1.,2.22044604925031E-16));
#749=DIRECTION('ref_axis',(4.93038065763132E-32,-2.22044604925031E-16,-1.));
#750=DIRECTION('center_axis',(2.22044604925031E-16,-1.,2.22044604925031E-16));
#751=DIRECTION('ref_axis',(4.93038065763132E-32,-2.22044604925031E-16,-1.));
#752=DIRECTION('center_axis',(-2.22044604925031E-16,1.,-2.22044604925031E-16));
#753=DIRECTION('ref_axis',(4.93038065763132E-32,-2.22044604925031E-16,-1.));
#754=DIRECTION('',(-2.22044604925031E-16,1.,-2.22044604925031E-16));
#755=DIRECTION('center_axis',(-2.22044604925031E-16,1.,-2.22044604925031E-16));
#756=DIRECTION('ref_axis',(4.93038065763132E-32,-2.22044604925031E-16,-1.));
#757=DIRECTION('',(-2.22044604925031E-16,1.,-2.22044604925031E-16));
#758=DIRECTION('center_axis',(-2.22044604925031E-16,1.,-2.22044604925031E-16));
#759=DIRECTION('ref_axis',(4.93038065763132E-32,-2.22044604925031E-16,-1.));
#760=DIRECTION('',(-2.22044604925031E-16,1.,-2.22044604925031E-16));
#761=DIRECTION('center_axis',(-2.22044604925031E-16,1.,-2.22044604925031E-16));
#762=DIRECTION('ref_axis',(4.93038065763132E-32,-2.22044604925031E-16,-1.));
#763=DIRECTION('',(-2.22044604925031E-16,1.,-2.22044604925031E-16));
#764=DIRECTION('center_axis',(-2.22044604925031E-16,1.,-2.22044604925031E-16));
#765=DIRECTION('ref_axis',(-4.93038065763132E-32,2.22044604925031E-16,1.));
#766=DIRECTION('center_axis',(-2.22044604925031E-16,1.,-2.22044604925031E-16));
#767=DIRECTION('ref_axis',(-4.93038065763132E-32,2.22044604925031E-16,1.));
#768=DIRECTION('',(-2.22044604925031E-16,1.,-2.22044604925031E-16));
#769=DIRECTION('center_axis',(2.22044604925031E-16,-1.,2.22044604925031E-16));
#770=DIRECTION('ref_axis',(-4.93038065763132E-32,2.22044604925031E-16,1.));
#771=DIRECTION('center_axis',(2.22044604925031E-16,-1.,2.22044604925031E-16));
#772=DIRECTION('ref_axis',(4.93038065763132E-32,-2.22044604925031E-16,-1.));
#773=DIRECTION('center_axis',(-2.22044604925031E-16,1.,-2.22044604925031E-16));
#774=DIRECTION('ref_axis',(-4.93038065763132E-32,2.22044604925031E-16,1.));
#775=DIRECTION('center_axis',(-2.22044604925031E-16,1.,-2.22044604925031E-16));
#776=DIRECTION('ref_axis',(-4.93038065763132E-32,2.22044604925031E-16,1.));
#777=DIRECTION('',(-2.22044604925031E-16,1.,-2.22044604925031E-16));
#778=DIRECTION('center_axis',(2.22044604925031E-16,-1.,2.22044604925031E-16));
#779=DIRECTION('ref_axis',(-4.93038065763132E-32,2.22044604925031E-16,1.));
#780=DIRECTION('center_axis',(2.22044604925031E-16,-1.,2.22044604925031E-16));
#781=DIRECTION('ref_axis',(4.93038065763132E-32,-2.22044604925031E-16,-1.));
#782=DIRECTION('center_axis',(-2.22044604925031E-16,1.,-2.22044604925031E-16));
#783=DIRECTION('ref_axis',(-4.93038065763132E-32,2.22044604925031E-16,1.));
#784=DIRECTION('center_axis',(-2.22044604925031E-16,1.,-2.22044604925031E-16));
#785=DIRECTION('ref_axis',(-4.93038065763132E-32,2.22044604925031E-16,1.));
#786=DIRECTION('',(-2.22044604925031E-16,1.,-2.22044604925031E-16));
#787=DIRECTION('center_axis',(2.22044604925031E-16,-1.,2.22044604925031E-16));
#788=DIRECTION('ref_axis',(-4.93038065763132E-32,2.22044604925031E-16,1.));
#789=DIRECTION('center_axis',(2.22044604925031E-16,-1.,2.22044604925031E-16));
#790=DIRECTION('ref_axis',(4.93038065763132E-32,-2.22044604925031E-16,-1.));
#791=DIRECTION('center_axis',(-2.22044604925031E-16,1.,-2.22044604925031E-16));
#792=DIRECTION('ref_axis',(-4.93038065763132E-32,2.22044604925031E-16,1.));
#793=DIRECTION('center_axis',(-2.22044604925031E-16,1.,-2.22044604925031E-16));
#794=DIRECTION('ref_axis',(-4.93038065763132E-32,2.22044604925031E-16,1.));
#795=DIRECTION('',(-2.22044604925031E-16,1.,-2.22044604925031E-16));
#796=DIRECTION('center_axis',(2.22044604925031E-16,-1.,2.22044604925031E-16));
#797=DIRECTION('ref_axis',(-4.93038065763132E-32,2.22044604925031E-16,1.));
#798=DIRECTION('center_axis',(2.22044604925031E-16,-1.,2.22044604925031E-16));
#799=DIRECTION('ref_axis',(4.93038065763132E-32,-2.22044604925031E-16,-1.));
#800=DIRECTION('center_axis',(-2.22044604925031E-16,1.,-2.22044604925031E-16));
#801=DIRECTION('ref_axis',(-4.93038065763132E-32,2.22044604925031E-16,1.));
#802=DIRECTION('',(-2.22044604925031E-16,1.,-2.22044604925031E-16));
#803=DIRECTION('center_axis',(2.22044604925031E-16,-1.,2.22044604925031E-16));
#804=DIRECTION('ref_axis',(-4.93038065763132E-32,2.22044604925031E-16,1.));
#805=DIRECTION('center_axis',(2.22044604925031E-16,-1.,2.22044604925031E-16));
#806=DIRECTION('ref_axis',(4.93038065763132E-32,-2.22044604925031E-16,-1.));
#807=DIRECTION('center_axis',(-2.22044604925031E-16,1.,-2.22044604925031E-16));
#808=DIRECTION('ref_axis',(-4.93038065763132E-32,2.22044604925031E-16,1.));
#809=DIRECTION('',(-2.22044604925031E-16,1.,-2.22044604925031E-16));
#810=DIRECTION('center_axis',(2.22044604925031E-16,-1.,2.22044604925031E-16));
#811=DIRECTION('ref_axis',(-4.93038065763132E-32,2.22044604925031E-16,1.));
#812=DIRECTION('center_axis',(2.22044604925031E-16,-1.,2.22044604925031E-16));
#813=DIRECTION('ref_axis',(4.93038065763132E-32,-2.22044604925031E-16,-1.));
#814=DIRECTION('center_axis',(-2.22044604925031E-16,1.,-2.22044604925031E-16));
#815=DIRECTION('ref_axis',(-4.93038065763132E-32,2.22044604925031E-16,1.));
#816=DIRECTION('',(-2.22044604925031E-16,1.,-2.22044604925031E-16));
#817=DIRECTION('center_axis',(2.22044604925031E-16,-1.,2.22044604925031E-16));
#818=DIRECTION('ref_axis',(-4.93038065763132E-32,2.22044604925031E-16,1.));
#819=DIRECTION('center_axis',(2.22044604925031E-16,-1.,2.22044604925031E-16));
#820=DIRECTION('ref_axis',(4.93038065763132E-32,-2.22044604925031E-16,-1.));
#821=DIRECTION('center_axis',(-2.22044604925031E-16,1.,-2.22044604925031E-16));
#822=DIRECTION('ref_axis',(-4.93038065763132E-32,2.22044604925031E-16,1.));
#823=DIRECTION('',(-2.22044604925031E-16,1.,-2.22044604925031E-16));
#824=DIRECTION('center_axis',(2.22044604925031E-16,-1.,2.22044604925031E-16));
#825=DIRECTION('ref_axis',(-4.93038065763132E-32,2.22044604925031E-16,1.));
#826=DIRECTION('center_axis',(2.22044604925031E-16,-1.,2.22044604925031E-16));
#827=DIRECTION('ref_axis',(4.93038065763132E-32,-2.22044604925031E-16,-1.));
#828=DIRECTION('center_axis',(1.,2.22044604925031E-16,-1.11022302462516E-16));
#829=DIRECTION('ref_axis',(-2.22044604925031E-16,1.,-2.22044604925031E-16));
#830=DIRECTION('',(-2.22044604925031E-16,1.,-2.22044604925031E-16));
#831=DIRECTION('',(-2.22044604925031E-16,1.,-2.22044604925031E-16));
#832=DIRECTION('center_axis',(-4.93038065763132E-32,2.22044604925031E-16,
1.));
#833=DIRECTION('ref_axis',(-1.,-2.22044604925031E-16,0.));
#834=DIRECTION('',(-2.22044604925031E-16,1.,-2.22044604925031E-16));
#835=DIRECTION('center_axis',(-1.,-2.22044604925031E-16,1.11022302462516E-16));
#836=DIRECTION('ref_axis',(2.22044604925031E-16,-1.,2.22044604925031E-16));
#837=DIRECTION('',(-2.22044604925031E-16,1.,-2.22044604925031E-16));
#838=DIRECTION('center_axis',(4.93038065763132E-32,-2.22044604925031E-16,
-1.));
#839=DIRECTION('ref_axis',(1.,2.22044604925031E-16,0.));
#840=CARTESIAN_POINT('',(0.,0.,0.));
#841=CARTESIAN_POINT('Origin',(0.,0.,0.));
#842=CARTESIAN_POINT('',(-2.05960209338018E-16,1.,-0.131339057091489));
#843=CARTESIAN_POINT('Origin',(-2.22044604925031E-16,1.,-2.22044604925031E-16));
#844=CARTESIAN_POINT('',(2.1431318985079E-17,-3.88578058618805E-17,-0.175));
#845=CARTESIAN_POINT('',(2.14313189850787E-17,-3.88578058618805E-17,-0.175));
#846=CARTESIAN_POINT('Origin',(0.,0.,0.));
#847=CARTESIAN_POINT('Origin',(1.35585468084861E-31,-6.10622663543836E-16,
-2.75));
#848=CARTESIAN_POINT('',(1.65327317884901E-17,-6.40598685208715E-16,-2.885));
#849=CARTESIAN_POINT('Origin',(1.35585468084861E-31,-6.10622663543836E-16,
-2.75));
#850=CARTESIAN_POINT('',(-2.05511873136541E-16,0.999999999999999,-2.885));
#851=CARTESIAN_POINT('',(-1.65327317884891E-17,-6.40598685208715E-16,-2.885));
#852=CARTESIAN_POINT('Origin',(-2.22044604925031E-16,0.999999999999999,
-2.75));
#853=CARTESIAN_POINT('Origin',(-1.35585468084861E-31,6.10622663543836E-16,
2.75));
#854=CARTESIAN_POINT('',(1.65327317884899E-17,5.80646641878957E-16,2.615));
#855=CARTESIAN_POINT('Origin',(-1.35585468084861E-31,6.10622663543836E-16,
2.75));
#856=CARTESIAN_POINT('',(-2.05511873136541E-16,1.,2.615));
#857=CARTESIAN_POINT('',(-1.65327317884894E-17,5.80646641878957E-16,2.615));
#858=CARTESIAN_POINT('Origin',(-2.22044604925031E-16,1.,2.75));
#859=CARTESIAN_POINT('Origin',(0.,0.,0.));
#860=CARTESIAN_POINT('',(-2.4,-1.19904086659517E-15,-3.));
#861=CARTESIAN_POINT('',(2.4,-1.33226762955019E-16,-3.));
#862=CARTESIAN_POINT('',(-2.4,-1.19904086659517E-15,-3.));
#863=CARTESIAN_POINT('',(2.4,1.19904086659517E-15,3.));
#864=CARTESIAN_POINT('',(2.4,-1.33226762955019E-16,-3.));
#865=CARTESIAN_POINT('',(-2.4,1.33226762955019E-16,3.));
#866=CARTESIAN_POINT('',(2.4,1.19904086659517E-15,3.));
#867=CARTESIAN_POINT('',(-2.4,1.33226762955019E-16,3.));
#868=CARTESIAN_POINT('',(-2.,-7.00550728538473E-16,-1.155));
#869=CARTESIAN_POINT('Origin',(-2.,-6.38378239159465E-16,-0.874999999999999));
#870=CARTESIAN_POINT('',(2.,1.87627691161651E-16,-1.155));
#871=CARTESIAN_POINT('Origin',(2.,2.4980018054066E-16,-0.875));
#872=CARTESIAN_POINT('',(2.,5.76205749780456E-16,0.595));
#873=CARTESIAN_POINT('Origin',(2.,6.38378239159465E-16,0.875));
#874=CARTESIAN_POINT('',(-2.,-3.11972669919669E-16,0.595000000000001));
#875=CARTESIAN_POINT('Origin',(-2.,-2.4980018054066E-16,0.875000000000001));
#876=CARTESIAN_POINT('',(-1.9,7.74935671188357E-17,2.249));
#877=CARTESIAN_POINT('Origin',(-1.9,1.33226762955019E-16,2.5));
#878=CARTESIAN_POINT('',(1.9,9.21263065833955E-16,2.249));
#879=CARTESIAN_POINT('Origin',(1.9,9.76996261670137E-16,2.5));
#880=CARTESIAN_POINT('',(1.9,-1.88959958791202E-16,-2.751));
#881=CARTESIAN_POINT('Origin',(1.9,-1.33226762955019E-16,-2.5));
#882=CARTESIAN_POINT('',(-1.9,-1.03272945750632E-15,-2.751));
#883=CARTESIAN_POINT('Origin',(-1.9,-9.76996261670137E-16,-2.5));
#884=CARTESIAN_POINT('Origin',(-2.22044604925031E-16,1.,-2.22044604925031E-16));
#885=CARTESIAN_POINT('',(2.4,1.,-3.));
#886=CARTESIAN_POINT('',(2.4,1.,3.));
#887=CARTESIAN_POINT('',(2.4,1.,-3.));
#888=CARTESIAN_POINT('',(-2.4,0.999999999999999,-3.));
#889=CARTESIAN_POINT('',(-2.4,0.999999999999999,-3.));
#890=CARTESIAN_POINT('',(-2.4,1.,3.));
#891=CARTESIAN_POINT('',(-2.4,1.,3.));
#892=CARTESIAN_POINT('',(2.4,1.,3.));
#893=CARTESIAN_POINT('',(-2.,0.999999999999999,-0.6875));
#894=CARTESIAN_POINT('Origin',(-2.,0.999999999999999,-0.874999999999999));
#895=CARTESIAN_POINT('',(2.,1.,-0.687500000000001));
#896=CARTESIAN_POINT('Origin',(2.,1.,-0.875000000000001));
#897=CARTESIAN_POINT('',(2.,1.,1.0625));
#898=CARTESIAN_POINT('Origin',(2.,1.,0.874999999999999));
#899=CARTESIAN_POINT('',(-2.,1.,1.0625));
#900=CARTESIAN_POINT('Origin',(-2.,1.,0.875));
#901=CARTESIAN_POINT('Origin',(-2.,-6.38378239159465E-16,-0.874999999999999));
#902=CARTESIAN_POINT('',(-2.,0.349999999999999,-1.155));
#903=CARTESIAN_POINT('',(-2.,-7.00550728538473E-16,-1.155));
#904=CARTESIAN_POINT('Origin',(-2.,0.349999999999999,-0.874999999999999));
#905=CARTESIAN_POINT('Origin',(-2.,0.349999999999999,-0.874999999999999));
#906=CARTESIAN_POINT('',(-2.,0.349999999999999,-0.687499999999999));
#907=CARTESIAN_POINT('Origin',(-2.,0.349999999999999,-0.874999999999999));
#908=CARTESIAN_POINT('Origin',(2.,2.4980018054066E-16,-0.875));
#909=CARTESIAN_POINT('',(2.,0.35,-1.155));
#910=CARTESIAN_POINT('',(2.,1.87627691161651E-16,-1.155));
#911=CARTESIAN_POINT('Origin',(2.,0.35,-0.875));
#912=CARTESIAN_POINT('Origin',(2.,0.35,-0.875));
#913=CARTESIAN_POINT('',(2.,0.35,-0.6875));
#914=CARTESIAN_POINT('Origin',(2.,0.35,-0.875));
#915=CARTESIAN_POINT('Origin',(2.,6.38378239159465E-16,0.875));
#916=CARTESIAN_POINT('',(2.,0.350000000000001,0.595));
#917=CARTESIAN_POINT('',(2.,5.76205749780456E-16,0.595));
#918=CARTESIAN_POINT('Origin',(2.,0.350000000000001,0.875));
#919=CARTESIAN_POINT('Origin',(2.,0.350000000000001,0.875));
#920=CARTESIAN_POINT('',(2.,0.350000000000001,1.0625));
#921=CARTESIAN_POINT('Origin',(2.,0.350000000000001,0.875));
#922=CARTESIAN_POINT('Origin',(-2.,-2.4980018054066E-16,0.875000000000001));
#923=CARTESIAN_POINT('',(-2.,0.35,0.595));
#924=CARTESIAN_POINT('',(-2.,-3.11972669919669E-16,0.595000000000001));
#925=CARTESIAN_POINT('Origin',(-2.,0.35,0.875000000000001));
#926=CARTESIAN_POINT('Origin',(-2.,0.35,0.875000000000001));
#927=CARTESIAN_POINT('',(-2.,0.35,1.0625));
#928=CARTESIAN_POINT('Origin',(-2.,0.35,0.875000000000001));
#929=CARTESIAN_POINT('Origin',(-2.,-6.74854825112421,-0.874999999999998));
#930=CARTESIAN_POINT('',(-2.,-6.74854825112421,-0.687499999999998));
#931=CARTESIAN_POINT('Origin',(2.,-6.74854825112421,-0.874999999999999));
#932=CARTESIAN_POINT('',(2.,-6.74854825112421,-0.687499999999999));
#933=CARTESIAN_POINT('Origin',(2.,-6.74854825112421,0.875000000000001));
#934=CARTESIAN_POINT('',(2.,-6.74854825112421,1.0625));
#935=CARTESIAN_POINT('Origin',(-2.,-6.74854825112421,0.875000000000002));
#936=CARTESIAN_POINT('',(-2.,-6.74854825112421,1.0625));
#937=CARTESIAN_POINT('Origin',(-1.9,1.33226762955019E-16,2.5));
#938=CARTESIAN_POINT('',(-1.9,0.51,2.3));
#939=CARTESIAN_POINT('Origin',(-1.9,0.51,2.5));
#940=CARTESIAN_POINT('',(-1.9,0.8,2.3));
#941=CARTESIAN_POINT('',(-1.9,8.88178419700124E-17,2.3));
#942=CARTESIAN_POINT('Origin',(-1.9,0.8,2.5));
#943=CARTESIAN_POINT('Origin',(-1.9,0.8,2.5));
#944=CARTESIAN_POINT('Origin',(1.9,9.76996261670137E-16,2.5));
#945=CARTESIAN_POINT('',(1.9,0.510000000000001,2.3));
#946=CARTESIAN_POINT('Origin',(1.9,0.510000000000001,2.5));
#947=CARTESIAN_POINT('',(1.9,0.8,2.3));
#948=CARTESIAN_POINT('',(1.9,9.32587340685131E-16,2.3));
#949=CARTESIAN_POINT('Origin',(1.9,0.8,2.5));
#950=CARTESIAN_POINT('Origin',(1.9,0.8,2.5));
#951=CARTESIAN_POINT('Origin',(1.9,-1.33226762955019E-16,-2.5));
#952=CARTESIAN_POINT('',(1.9,0.51,-2.7));
#953=CARTESIAN_POINT('Origin',(1.9,0.51,-2.5));
#954=CARTESIAN_POINT('',(1.9,0.799999999999999,-2.7));
#955=CARTESIAN_POINT('',(1.9,-1.77635683940025E-16,-2.7));
#956=CARTESIAN_POINT('Origin',(1.9,0.799999999999999,-2.5));
#957=CARTESIAN_POINT('Origin',(1.9,0.799999999999999,-2.5));
#958=CARTESIAN_POINT('Origin',(-1.9,-9.76996261670137E-16,-2.5));
#959=CARTESIAN_POINT('',(-1.9,0.509999999999999,-2.7));
#960=CARTESIAN_POINT('Origin',(-1.9,0.509999999999999,-2.5));
#961=CARTESIAN_POINT('',(-1.9,0.799999999999999,-2.7));
#962=CARTESIAN_POINT('',(-1.9,-1.02140518265514E-15,-2.7));
#963=CARTESIAN_POINT('Origin',(-1.9,0.799999999999999,-2.5));
#964=CARTESIAN_POINT('Origin',(-1.9,0.799999999999999,-2.5));
#965=CARTESIAN_POINT('Origin',(-1.9,1.33226762955019E-16,2.5));
#966=CARTESIAN_POINT('',(-1.9,0.51,2.249));
#967=CARTESIAN_POINT('',(-1.9,7.74935671188358E-17,2.249));
#968=CARTESIAN_POINT('Origin',(-1.9,0.51,2.5));
#969=CARTESIAN_POINT('Origin',(-1.9,0.51,2.5));
#970=CARTESIAN_POINT('Origin',(1.9,9.76996261670137E-16,2.5));
#971=CARTESIAN_POINT('',(1.9,0.510000000000001,2.249));
#972=CARTESIAN_POINT('',(1.9,9.21263065833955E-16,2.249));
#973=CARTESIAN_POINT('Origin',(1.9,0.510000000000001,2.5));
#974=CARTESIAN_POINT('Origin',(1.9,0.510000000000001,2.5));
#975=CARTESIAN_POINT('Origin',(1.9,-1.33226762955019E-16,-2.5));
#976=CARTESIAN_POINT('',(1.9,0.51,-2.751));
#977=CARTESIAN_POINT('',(1.9,-1.88959958791202E-16,-2.751));
#978=CARTESIAN_POINT('Origin',(1.9,0.51,-2.5));
#979=CARTESIAN_POINT('Origin',(1.9,0.51,-2.5));
#980=CARTESIAN_POINT('Origin',(-1.9,-9.76996261670137E-16,-2.5));
#981=CARTESIAN_POINT('',(-1.9,0.509999999999999,-2.751));
#982=CARTESIAN_POINT('',(-1.9,-1.03272945750632E-15,-2.751));
#983=CARTESIAN_POINT('Origin',(-1.9,0.509999999999999,-2.5));
#984=CARTESIAN_POINT('Origin',(-1.9,0.509999999999999,-2.5));
#985=CARTESIAN_POINT('Origin',(2.4,5.32907051820075E-16,-2.66453525910038E-16));
#986=CARTESIAN_POINT('',(2.4,1.19904086659517E-15,3.));
#987=CARTESIAN_POINT('',(2.4,-1.33226762955019E-16,-3.));
#988=CARTESIAN_POINT('Origin',(-1.4791141972894E-31,6.66133814775094E-16,
3.));
#989=CARTESIAN_POINT('',(-2.4,1.33226762955019E-16,3.));
#990=CARTESIAN_POINT('Origin',(-2.4,-5.32907051820075E-16,2.66453525910037E-16));
#991=CARTESIAN_POINT('',(-2.4,-1.19904086659517E-15,-3.));
#992=CARTESIAN_POINT('Origin',(1.4791141972894E-31,-6.66133814775094E-16,
-3.));
#993=UNCERTAINTY_MEASURE_WITH_UNIT(LENGTH_MEASURE(0.000393700787401575),
#998,'DISTANCE_ACCURACY_VALUE',
'Maximum model space distance between geometric entities at asserted c
onnectivities');
#994=UNCERTAINTY_MEASURE_WITH_UNIT(LENGTH_MEASURE(0.000393700787401575),
#998,'DISTANCE_ACCURACY_VALUE',
'Maximum model space distance between geometric entities at asserted c
onnectivities');
#995=(
GEOMETRIC_REPRESENTATION_CONTEXT(3)
GLOBAL_UNCERTAINTY_ASSIGNED_CONTEXT((#993))
GLOBAL_UNIT_ASSIGNED_CONTEXT((#998,#1002,#1003))
REPRESENTATION_CONTEXT('','3D')
);
#996=(
GEOMETRIC_REPRESENTATION_CONTEXT(3)
GLOBAL_UNCERTAINTY_ASSIGNED_CONTEXT((#994))
GLOBAL_UNIT_ASSIGNED_CONTEXT((#998,#1002,#1003))
REPRESENTATION_CONTEXT('','3D')
);
#997=DIMENSIONAL_EXPONENTS(1.,0.,0.,0.,0.,0.,0.);
#998=(
CONVERSION_BASED_UNIT('inch',#1001)
LENGTH_UNIT()
NAMED_UNIT(#997)
);
#999=(
LENGTH_UNIT()
NAMED_UNIT(*)
SI_UNIT(.MILLI.,.METRE.)
);
#1000=(
LENGTH_UNIT()
NAMED_UNIT(*)
SI_UNIT($,.METRE.)
);
#1001=LENGTH_MEASURE_WITH_UNIT(LENGTH_MEASURE(25.4),#999);
#1002=(
NAMED_UNIT(*)
PLANE_ANGLE_UNIT()
SI_UNIT($,.RADIAN.)
);
#1003=(
NAMED_UNIT(*)
SI_UNIT($,.STERADIAN.)
SOLID_ANGLE_UNIT()
);
#1004=SHAPE_DEFINITION_REPRESENTATION(#1005,#1006);
#1005=PRODUCT_DEFINITION_SHAPE('',$,#1008);
#1006=SHAPE_REPRESENTATION('',(#581),#995);
#1007=PRODUCT_DEFINITION_CONTEXT('part definition',#1012,'design');
#1008=PRODUCT_DEFINITION('2026-04-29-17-02-28-918','APSX-PIM_A',#1009,#1007);
#1009=PRODUCT_DEFINITION_FORMATION('',$,#1014);
#1010=PRODUCT_RELATED_PRODUCT_CATEGORY('APSX-PIM_A','APSX-PIM_A',(#1014));
#1011=APPLICATION_PROTOCOL_DEFINITION('international standard',
'automotive_design',2009,#1012);
#1012=APPLICATION_CONTEXT(
'Core Data for Automotive Mechanical Design Process');
#1013=PRODUCT_CONTEXT('part definition',#1012,'mechanical');
#1014=PRODUCT('2026-04-29-17-02-28-918','APSX-PIM_A',$,(#1013));
#1015=PRESENTATION_STYLE_ASSIGNMENT((#1016));
#1016=SURFACE_STYLE_USAGE(.BOTH.,#1017);
#1017=SURFACE_SIDE_STYLE('',(#1018));
#1018=SURFACE_STYLE_FILL_AREA(#1019);
#1019=FILL_AREA_STYLE('Steel - Satin',(#1020));
#1020=FILL_AREA_STYLE_COLOUR('Steel - Satin',#1021);
#1021=COLOUR_RGB('Steel - Satin',0.627450980392157,0.627450980392157,0.627450980392157);
ENDSEC;
END-ISO-10303-21;
