ISO-10303-21;
HEADER;
/* Generated by software containing ST-Developer
 * from STEP Tools, Inc. (www.steptools.com) 
 */

FILE_DESCRIPTION(
/* description */ (''),
/* implementation_level */ '2;1');

FILE_NAME(
/* name */ 'BlankMoldTop.step',
/* time_stamp */ '2026-04-14T18:09:33-07:00',
/* author */ (''),
/* organization */ (''),
/* preprocessor_version */ 'ST-DEVELOPER v20.1',
/* originating_system */ 'Autodesk Translation Framework v14.24.0.0',
/* authorisation */ '');

FILE_SCHEMA (('AUTOMOTIVE_DESIGN { 1 0 10303 214 3 1 1 }'));
ENDSEC;

DATA;
#10=MECHANICAL_DESIGN_GEOMETRIC_PRESENTATION_REPRESENTATION('',(#13),#984);
#11=SHAPE_REPRESENTATION_RELATIONSHIP('SRR','None',#994,#12);
#12=ADVANCED_BREP_SHAPE_REPRESENTATION('',(#14),#983);
#13=STYLED_ITEM('',(#1004),#14);
#14=MANIFOLD_SOLID_BREP('BlankMoldTop',#572);
#15=CYLINDRICAL_SURFACE('',#602,0.12007874015748);
#16=CYLINDRICAL_SURFACE('',#604,0.12007874015748);
#17=CYLINDRICAL_SURFACE('',#606,0.12007874015748);
#18=CYLINDRICAL_SURFACE('',#608,0.171875);
#19=CYLINDRICAL_SURFACE('',#611,2.6);
#20=CYLINDRICAL_SURFACE('',#614,0.171875);
#21=CYLINDRICAL_SURFACE('',#617,2.6);
#22=CYLINDRICAL_SURFACE('',#620,0.171875);
#23=CYLINDRICAL_SURFACE('',#623,2.6);
#24=CYLINDRICAL_SURFACE('',#626,0.171875);
#25=CYLINDRICAL_SURFACE('',#629,2.6);
#26=CYLINDRICAL_SURFACE('',#632,0.171875);
#27=CYLINDRICAL_SURFACE('',#635,2.6);
#28=CYLINDRICAL_SURFACE('',#638,0.171875);
#29=CYLINDRICAL_SURFACE('',#641,2.6);
#30=FACE_BOUND('',#66,.T.);
#31=FACE_BOUND('',#67,.T.);
#32=FACE_BOUND('',#68,.T.);
#33=FACE_BOUND('',#97,.T.);
#34=FACE_BOUND('',#98,.T.);
#35=FACE_BOUND('',#99,.T.);
#36=FACE_OUTER_BOUND('',#65,.T.);
#37=FACE_OUTER_BOUND('',#69,.T.);
#38=FACE_OUTER_BOUND('',#70,.T.);
#39=FACE_OUTER_BOUND('',#71,.T.);
#40=FACE_OUTER_BOUND('',#72,.T.);
#41=FACE_OUTER_BOUND('',#73,.T.);
#42=FACE_OUTER_BOUND('',#74,.T.);
#43=FACE_OUTER_BOUND('',#75,.T.);
#44=FACE_OUTER_BOUND('',#76,.T.);
#45=FACE_OUTER_BOUND('',#77,.T.);
#46=FACE_OUTER_BOUND('',#78,.T.);
#47=FACE_OUTER_BOUND('',#79,.T.);
#48=FACE_OUTER_BOUND('',#80,.T.);
#49=FACE_OUTER_BOUND('',#81,.T.);
#50=FACE_OUTER_BOUND('',#82,.T.);
#51=FACE_OUTER_BOUND('',#83,.T.);
#52=FACE_OUTER_BOUND('',#84,.T.);
#53=FACE_OUTER_BOUND('',#85,.T.);
#54=FACE_OUTER_BOUND('',#86,.T.);
#55=FACE_OUTER_BOUND('',#87,.T.);
#56=FACE_OUTER_BOUND('',#88,.T.);
#57=FACE_OUTER_BOUND('',#89,.T.);
#58=FACE_OUTER_BOUND('',#90,.T.);
#59=FACE_OUTER_BOUND('',#91,.T.);
#60=FACE_OUTER_BOUND('',#92,.T.);
#61=FACE_OUTER_BOUND('',#93,.T.);
#62=FACE_OUTER_BOUND('',#94,.T.);
#63=FACE_OUTER_BOUND('',#95,.T.);
#64=FACE_OUTER_BOUND('',#96,.T.);
#65=EDGE_LOOP('',(#367,#368,#369,#370,#371,#372,#373,#374,#375,#376,#377,
#378,#379,#380,#381,#382,#383,#384,#385,#386,#387,#388,#389,#390));
#66=EDGE_LOOP('',(#391));
#67=EDGE_LOOP('',(#392));
#68=EDGE_LOOP('',(#393));
#69=EDGE_LOOP('',(#394,#395,#396,#397));
#70=EDGE_LOOP('',(#398,#399,#400,#401));
#71=EDGE_LOOP('',(#402,#403,#404,#405));
#72=EDGE_LOOP('',(#406,#407,#408,#409));
#73=EDGE_LOOP('',(#410,#411,#412,#413));
#74=EDGE_LOOP('',(#414,#415,#416,#417));
#75=EDGE_LOOP('',(#418,#419,#420,#421));
#76=EDGE_LOOP('',(#422,#423,#424,#425));
#77=EDGE_LOOP('',(#426,#427,#428,#429));
#78=EDGE_LOOP('',(#430,#431,#432,#433));
#79=EDGE_LOOP('',(#434,#435,#436,#437));
#80=EDGE_LOOP('',(#438,#439,#440,#441));
#81=EDGE_LOOP('',(#442,#443,#444,#445));
#82=EDGE_LOOP('',(#446,#447,#448,#449));
#83=EDGE_LOOP('',(#450,#451,#452,#453));
#84=EDGE_LOOP('',(#454,#455,#456,#457));
#85=EDGE_LOOP('',(#458,#459,#460,#461));
#86=EDGE_LOOP('',(#462,#463,#464,#465));
#87=EDGE_LOOP('',(#466,#467,#468,#469));
#88=EDGE_LOOP('',(#470,#471,#472,#473));
#89=EDGE_LOOP('',(#474,#475,#476,#477));
#90=EDGE_LOOP('',(#478,#479,#480,#481));
#91=EDGE_LOOP('',(#482,#483,#484,#485));
#92=EDGE_LOOP('',(#486,#487,#488,#489));
#93=EDGE_LOOP('',(#490,#491,#492,#493));
#94=EDGE_LOOP('',(#494,#495,#496,#497));
#95=EDGE_LOOP('',(#498,#499,#500,#501));
#96=EDGE_LOOP('',(#502,#503,#504,#505,#506,#507,#508,#509,#510,#511,#512,
#513,#514,#515,#516,#517,#518,#519,#520,#521,#522,#523,#524,#525));
#97=EDGE_LOOP('',(#526));
#98=EDGE_LOOP('',(#527));
#99=EDGE_LOOP('',(#528));
#100=CIRCLE('',#587,0.171875);
#101=CIRCLE('',#588,2.6);
#102=CIRCLE('',#589,0.171875);
#103=CIRCLE('',#590,2.6);
#104=CIRCLE('',#591,0.171875);
#105=CIRCLE('',#592,2.6);
#106=CIRCLE('',#593,0.171875);
#107=CIRCLE('',#594,2.6);
#108=CIRCLE('',#595,0.171875);
#109=CIRCLE('',#596,2.6);
#110=CIRCLE('',#597,0.171875);
#111=CIRCLE('',#598,2.6);
#112=CIRCLE('',#599,0.12007874015748);
#113=CIRCLE('',#600,0.12007874015748);
#114=CIRCLE('',#601,0.12007874015748);
#115=CIRCLE('',#603,0.12007874015748);
#116=CIRCLE('',#605,0.12007874015748);
#117=CIRCLE('',#607,0.12007874015748);
#118=CIRCLE('',#609,0.171875);
#119=CIRCLE('',#612,2.6);
#120=CIRCLE('',#615,0.171875);
#121=CIRCLE('',#618,2.6);
#122=CIRCLE('',#621,0.171875);
#123=CIRCLE('',#624,2.6);
#124=CIRCLE('',#627,0.171875);
#125=CIRCLE('',#630,2.6);
#126=CIRCLE('',#633,0.171875);
#127=CIRCLE('',#636,2.6);
#128=CIRCLE('',#639,0.171875);
#129=CIRCLE('',#642,2.6);
#130=LINE('',#820,#181);
#131=LINE('',#824,#182);
#132=LINE('',#828,#183);
#133=LINE('',#832,#184);
#134=LINE('',#836,#185);
#135=LINE('',#840,#186);
#136=LINE('',#844,#187);
#137=LINE('',#848,#188);
#138=LINE('',#852,#189);
#139=LINE('',#856,#190);
#140=LINE('',#860,#191);
#141=LINE('',#864,#192);
#142=LINE('',#875,#193);
#143=LINE('',#879,#194);
#144=LINE('',#883,#195);
#145=LINE('',#886,#196);
#146=LINE('',#889,#197);
#147=LINE('',#892,#198);
#148=LINE('',#893,#199);
#149=LINE('',#897,#200);
#150=LINE('',#900,#201);
#151=LINE('',#901,#202);
#152=LINE('',#905,#203);
#153=LINE('',#908,#204);
#154=LINE('',#909,#205);
#155=LINE('',#913,#206);
#156=LINE('',#916,#207);
#157=LINE('',#917,#208);
#158=LINE('',#921,#209);
#159=LINE('',#924,#210);
#160=LINE('',#925,#211);
#161=LINE('',#929,#212);
#162=LINE('',#932,#213);
#163=LINE('',#933,#214);
#164=LINE('',#937,#215);
#165=LINE('',#940,#216);
#166=LINE('',#941,#217);
#167=LINE('',#945,#218);
#168=LINE('',#948,#219);
#169=LINE('',#949,#220);
#170=LINE('',#953,#221);
#171=LINE('',#956,#222);
#172=LINE('',#957,#223);
#173=LINE('',#961,#224);
#174=LINE('',#964,#225);
#175=LINE('',#965,#226);
#176=LINE('',#969,#227);
#177=LINE('',#972,#228);
#178=LINE('',#973,#229);
#179=LINE('',#977,#230);
#180=LINE('',#979,#231);
#181=VECTOR('',#649,0.393700787401575);
#182=VECTOR('',#652,0.393700787401575);
#183=VECTOR('',#655,0.393700787401575);
#184=VECTOR('',#658,0.393700787401575);
#185=VECTOR('',#661,0.393700787401575);
#186=VECTOR('',#664,0.393700787401575);
#187=VECTOR('',#667,0.393700787401575);
#188=VECTOR('',#670,0.393700787401575);
#189=VECTOR('',#673,0.393700787401575);
#190=VECTOR('',#676,0.393700787401575);
#191=VECTOR('',#679,0.393700787401575);
#192=VECTOR('',#682,0.393700787401575);
#193=VECTOR('',#695,0.12007874015748);
#194=VECTOR('',#700,0.12007874015748);
#195=VECTOR('',#705,0.12007874015748);
#196=VECTOR('',#708,0.393700787401575);
#197=VECTOR('',#711,0.393700787401575);
#198=VECTOR('',#714,0.393700787401575);
#199=VECTOR('',#715,0.393700787401575);
#200=VECTOR('',#720,0.393700787401575);
#201=VECTOR('',#723,0.393700787401575);
#202=VECTOR('',#724,0.393700787401575);
#203=VECTOR('',#729,0.393700787401575);
#204=VECTOR('',#732,0.393700787401575);
#205=VECTOR('',#733,0.393700787401575);
#206=VECTOR('',#738,0.393700787401575);
#207=VECTOR('',#741,0.393700787401575);
#208=VECTOR('',#742,0.393700787401575);
#209=VECTOR('',#747,0.393700787401575);
#210=VECTOR('',#750,0.393700787401575);
#211=VECTOR('',#751,0.393700787401575);
#212=VECTOR('',#756,0.393700787401575);
#213=VECTOR('',#759,0.393700787401575);
#214=VECTOR('',#760,0.393700787401575);
#215=VECTOR('',#765,0.393700787401575);
#216=VECTOR('',#768,0.393700787401575);
#217=VECTOR('',#769,0.393700787401575);
#218=VECTOR('',#774,0.393700787401575);
#219=VECTOR('',#777,0.393700787401575);
#220=VECTOR('',#778,0.393700787401575);
#221=VECTOR('',#783,0.393700787401575);
#222=VECTOR('',#786,0.393700787401575);
#223=VECTOR('',#787,0.393700787401575);
#224=VECTOR('',#792,0.393700787401575);
#225=VECTOR('',#795,0.393700787401575);
#226=VECTOR('',#796,0.393700787401575);
#227=VECTOR('',#801,0.393700787401575);
#228=VECTOR('',#804,0.393700787401575);
#229=VECTOR('',#805,0.393700787401575);
#230=VECTOR('',#810,0.393700787401575);
#231=VECTOR('',#813,0.393700787401575);
#232=VERTEX_POINT('',#818);
#233=VERTEX_POINT('',#819);
#234=VERTEX_POINT('',#821);
#235=VERTEX_POINT('',#823);
#236=VERTEX_POINT('',#825);
#237=VERTEX_POINT('',#827);
#238=VERTEX_POINT('',#829);
#239=VERTEX_POINT('',#831);
#240=VERTEX_POINT('',#833);
#241=VERTEX_POINT('',#835);
#242=VERTEX_POINT('',#837);
#243=VERTEX_POINT('',#839);
#244=VERTEX_POINT('',#841);
#245=VERTEX_POINT('',#843);
#246=VERTEX_POINT('',#845);
#247=VERTEX_POINT('',#847);
#248=VERTEX_POINT('',#849);
#249=VERTEX_POINT('',#851);
#250=VERTEX_POINT('',#853);
#251=VERTEX_POINT('',#855);
#252=VERTEX_POINT('',#857);
#253=VERTEX_POINT('',#859);
#254=VERTEX_POINT('',#861);
#255=VERTEX_POINT('',#863);
#256=VERTEX_POINT('',#866);
#257=VERTEX_POINT('',#868);
#258=VERTEX_POINT('',#870);
#259=VERTEX_POINT('',#873);
#260=VERTEX_POINT('',#877);
#261=VERTEX_POINT('',#881);
#262=VERTEX_POINT('',#885);
#263=VERTEX_POINT('',#887);
#264=VERTEX_POINT('',#891);
#265=VERTEX_POINT('',#895);
#266=VERTEX_POINT('',#899);
#267=VERTEX_POINT('',#903);
#268=VERTEX_POINT('',#907);
#269=VERTEX_POINT('',#911);
#270=VERTEX_POINT('',#915);
#271=VERTEX_POINT('',#919);
#272=VERTEX_POINT('',#923);
#273=VERTEX_POINT('',#927);
#274=VERTEX_POINT('',#931);
#275=VERTEX_POINT('',#935);
#276=VERTEX_POINT('',#939);
#277=VERTEX_POINT('',#943);
#278=VERTEX_POINT('',#947);
#279=VERTEX_POINT('',#951);
#280=VERTEX_POINT('',#955);
#281=VERTEX_POINT('',#959);
#282=VERTEX_POINT('',#963);
#283=VERTEX_POINT('',#967);
#284=VERTEX_POINT('',#971);
#285=VERTEX_POINT('',#975);
#286=EDGE_CURVE('',#232,#233,#130,.T.);
#287=EDGE_CURVE('',#232,#234,#100,.T.);
#288=EDGE_CURVE('',#235,#234,#131,.T.);
#289=EDGE_CURVE('',#236,#235,#101,.T.);
#290=EDGE_CURVE('',#237,#236,#132,.T.);
#291=EDGE_CURVE('',#237,#238,#102,.T.);
#292=EDGE_CURVE('',#239,#238,#133,.T.);
#293=EDGE_CURVE('',#240,#239,#103,.T.);
#294=EDGE_CURVE('',#241,#240,#134,.T.);
#295=EDGE_CURVE('',#241,#242,#104,.T.);
#296=EDGE_CURVE('',#243,#242,#135,.T.);
#297=EDGE_CURVE('',#244,#243,#105,.T.);
#298=EDGE_CURVE('',#245,#244,#136,.T.);
#299=EDGE_CURVE('',#245,#246,#106,.T.);
#300=EDGE_CURVE('',#247,#246,#137,.T.);
#301=EDGE_CURVE('',#248,#247,#107,.T.);
#302=EDGE_CURVE('',#249,#248,#138,.T.);
#303=EDGE_CURVE('',#249,#250,#108,.T.);
#304=EDGE_CURVE('',#251,#250,#139,.T.);
#305=EDGE_CURVE('',#252,#251,#109,.T.);
#306=EDGE_CURVE('',#253,#252,#140,.T.);
#307=EDGE_CURVE('',#253,#254,#110,.T.);
#308=EDGE_CURVE('',#255,#254,#141,.T.);
#309=EDGE_CURVE('',#233,#255,#111,.T.);
#310=EDGE_CURVE('',#256,#256,#112,.T.);
#311=EDGE_CURVE('',#257,#257,#113,.T.);
#312=EDGE_CURVE('',#258,#258,#114,.T.);
#313=EDGE_CURVE('',#259,#259,#115,.T.);
#314=EDGE_CURVE('',#259,#258,#142,.T.);
#315=EDGE_CURVE('',#260,#260,#116,.T.);
#316=EDGE_CURVE('',#260,#257,#143,.T.);
#317=EDGE_CURVE('',#261,#261,#117,.T.);
#318=EDGE_CURVE('',#261,#256,#144,.T.);
#319=EDGE_CURVE('',#232,#262,#145,.T.);
#320=EDGE_CURVE('',#263,#262,#118,.T.);
#321=EDGE_CURVE('',#234,#263,#146,.T.);
#322=EDGE_CURVE('',#264,#263,#147,.T.);
#323=EDGE_CURVE('',#235,#264,#148,.T.);
#324=EDGE_CURVE('',#265,#264,#119,.T.);
#325=EDGE_CURVE('',#236,#265,#149,.T.);
#326=EDGE_CURVE('',#266,#265,#150,.T.);
#327=EDGE_CURVE('',#237,#266,#151,.T.);
#328=EDGE_CURVE('',#267,#266,#120,.T.);
#329=EDGE_CURVE('',#238,#267,#152,.T.);
#330=EDGE_CURVE('',#268,#267,#153,.T.);
#331=EDGE_CURVE('',#239,#268,#154,.T.);
#332=EDGE_CURVE('',#269,#268,#121,.T.);
#333=EDGE_CURVE('',#240,#269,#155,.T.);
#334=EDGE_CURVE('',#270,#269,#156,.T.);
#335=EDGE_CURVE('',#241,#270,#157,.T.);
#336=EDGE_CURVE('',#271,#270,#122,.T.);
#337=EDGE_CURVE('',#242,#271,#158,.T.);
#338=EDGE_CURVE('',#272,#271,#159,.T.);
#339=EDGE_CURVE('',#243,#272,#160,.T.);
#340=EDGE_CURVE('',#273,#272,#123,.T.);
#341=EDGE_CURVE('',#244,#273,#161,.T.);
#342=EDGE_CURVE('',#274,#273,#162,.T.);
#343=EDGE_CURVE('',#245,#274,#163,.T.);
#344=EDGE_CURVE('',#275,#274,#124,.T.);
#345=EDGE_CURVE('',#246,#275,#164,.T.);
#346=EDGE_CURVE('',#276,#275,#165,.T.);
#347=EDGE_CURVE('',#247,#276,#166,.T.);
#348=EDGE_CURVE('',#277,#276,#125,.T.);
#349=EDGE_CURVE('',#248,#277,#167,.T.);
#350=EDGE_CURVE('',#278,#277,#168,.T.);
#351=EDGE_CURVE('',#249,#278,#169,.T.);
#352=EDGE_CURVE('',#279,#278,#126,.T.);
#353=EDGE_CURVE('',#250,#279,#170,.T.);
#354=EDGE_CURVE('',#280,#279,#171,.T.);
#355=EDGE_CURVE('',#251,#280,#172,.T.);
#356=EDGE_CURVE('',#281,#280,#127,.T.);
#357=EDGE_CURVE('',#252,#281,#173,.T.);
#358=EDGE_CURVE('',#282,#281,#174,.T.);
#359=EDGE_CURVE('',#253,#282,#175,.T.);
#360=EDGE_CURVE('',#283,#282,#128,.T.);
#361=EDGE_CURVE('',#254,#283,#176,.T.);
#362=EDGE_CURVE('',#284,#283,#177,.T.);
#363=EDGE_CURVE('',#255,#284,#178,.T.);
#364=EDGE_CURVE('',#285,#284,#129,.T.);
#365=EDGE_CURVE('',#233,#285,#179,.T.);
#366=EDGE_CURVE('',#262,#285,#180,.T.);
#367=ORIENTED_EDGE('',*,*,#286,.F.);
#368=ORIENTED_EDGE('',*,*,#287,.T.);
#369=ORIENTED_EDGE('',*,*,#288,.F.);
#370=ORIENTED_EDGE('',*,*,#289,.F.);
#371=ORIENTED_EDGE('',*,*,#290,.F.);
#372=ORIENTED_EDGE('',*,*,#291,.T.);
#373=ORIENTED_EDGE('',*,*,#292,.F.);
#374=ORIENTED_EDGE('',*,*,#293,.F.);
#375=ORIENTED_EDGE('',*,*,#294,.F.);
#376=ORIENTED_EDGE('',*,*,#295,.T.);
#377=ORIENTED_EDGE('',*,*,#296,.F.);
#378=ORIENTED_EDGE('',*,*,#297,.F.);
#379=ORIENTED_EDGE('',*,*,#298,.F.);
#380=ORIENTED_EDGE('',*,*,#299,.T.);
#381=ORIENTED_EDGE('',*,*,#300,.F.);
#382=ORIENTED_EDGE('',*,*,#301,.F.);
#383=ORIENTED_EDGE('',*,*,#302,.F.);
#384=ORIENTED_EDGE('',*,*,#303,.T.);
#385=ORIENTED_EDGE('',*,*,#304,.F.);
#386=ORIENTED_EDGE('',*,*,#305,.F.);
#387=ORIENTED_EDGE('',*,*,#306,.F.);
#388=ORIENTED_EDGE('',*,*,#307,.T.);
#389=ORIENTED_EDGE('',*,*,#308,.F.);
#390=ORIENTED_EDGE('',*,*,#309,.F.);
#391=ORIENTED_EDGE('',*,*,#310,.T.);
#392=ORIENTED_EDGE('',*,*,#311,.T.);
#393=ORIENTED_EDGE('',*,*,#312,.T.);
#394=ORIENTED_EDGE('',*,*,#313,.F.);
#395=ORIENTED_EDGE('',*,*,#314,.T.);
#396=ORIENTED_EDGE('',*,*,#312,.F.);
#397=ORIENTED_EDGE('',*,*,#314,.F.);
#398=ORIENTED_EDGE('',*,*,#315,.F.);
#399=ORIENTED_EDGE('',*,*,#316,.T.);
#400=ORIENTED_EDGE('',*,*,#311,.F.);
#401=ORIENTED_EDGE('',*,*,#316,.F.);
#402=ORIENTED_EDGE('',*,*,#317,.F.);
#403=ORIENTED_EDGE('',*,*,#318,.T.);
#404=ORIENTED_EDGE('',*,*,#310,.F.);
#405=ORIENTED_EDGE('',*,*,#318,.F.);
#406=ORIENTED_EDGE('',*,*,#287,.F.);
#407=ORIENTED_EDGE('',*,*,#319,.T.);
#408=ORIENTED_EDGE('',*,*,#320,.F.);
#409=ORIENTED_EDGE('',*,*,#321,.F.);
#410=ORIENTED_EDGE('',*,*,#288,.T.);
#411=ORIENTED_EDGE('',*,*,#321,.T.);
#412=ORIENTED_EDGE('',*,*,#322,.F.);
#413=ORIENTED_EDGE('',*,*,#323,.F.);
#414=ORIENTED_EDGE('',*,*,#289,.T.);
#415=ORIENTED_EDGE('',*,*,#323,.T.);
#416=ORIENTED_EDGE('',*,*,#324,.F.);
#417=ORIENTED_EDGE('',*,*,#325,.F.);
#418=ORIENTED_EDGE('',*,*,#290,.T.);
#419=ORIENTED_EDGE('',*,*,#325,.T.);
#420=ORIENTED_EDGE('',*,*,#326,.F.);
#421=ORIENTED_EDGE('',*,*,#327,.F.);
#422=ORIENTED_EDGE('',*,*,#291,.F.);
#423=ORIENTED_EDGE('',*,*,#327,.T.);
#424=ORIENTED_EDGE('',*,*,#328,.F.);
#425=ORIENTED_EDGE('',*,*,#329,.F.);
#426=ORIENTED_EDGE('',*,*,#292,.T.);
#427=ORIENTED_EDGE('',*,*,#329,.T.);
#428=ORIENTED_EDGE('',*,*,#330,.F.);
#429=ORIENTED_EDGE('',*,*,#331,.F.);
#430=ORIENTED_EDGE('',*,*,#293,.T.);
#431=ORIENTED_EDGE('',*,*,#331,.T.);
#432=ORIENTED_EDGE('',*,*,#332,.F.);
#433=ORIENTED_EDGE('',*,*,#333,.F.);
#434=ORIENTED_EDGE('',*,*,#294,.T.);
#435=ORIENTED_EDGE('',*,*,#333,.T.);
#436=ORIENTED_EDGE('',*,*,#334,.F.);
#437=ORIENTED_EDGE('',*,*,#335,.F.);
#438=ORIENTED_EDGE('',*,*,#295,.F.);
#439=ORIENTED_EDGE('',*,*,#335,.T.);
#440=ORIENTED_EDGE('',*,*,#336,.F.);
#441=ORIENTED_EDGE('',*,*,#337,.F.);
#442=ORIENTED_EDGE('',*,*,#296,.T.);
#443=ORIENTED_EDGE('',*,*,#337,.T.);
#444=ORIENTED_EDGE('',*,*,#338,.F.);
#445=ORIENTED_EDGE('',*,*,#339,.F.);
#446=ORIENTED_EDGE('',*,*,#297,.T.);
#447=ORIENTED_EDGE('',*,*,#339,.T.);
#448=ORIENTED_EDGE('',*,*,#340,.F.);
#449=ORIENTED_EDGE('',*,*,#341,.F.);
#450=ORIENTED_EDGE('',*,*,#298,.T.);
#451=ORIENTED_EDGE('',*,*,#341,.T.);
#452=ORIENTED_EDGE('',*,*,#342,.F.);
#453=ORIENTED_EDGE('',*,*,#343,.F.);
#454=ORIENTED_EDGE('',*,*,#299,.F.);
#455=ORIENTED_EDGE('',*,*,#343,.T.);
#456=ORIENTED_EDGE('',*,*,#344,.F.);
#457=ORIENTED_EDGE('',*,*,#345,.F.);
#458=ORIENTED_EDGE('',*,*,#300,.T.);
#459=ORIENTED_EDGE('',*,*,#345,.T.);
#460=ORIENTED_EDGE('',*,*,#346,.F.);
#461=ORIENTED_EDGE('',*,*,#347,.F.);
#462=ORIENTED_EDGE('',*,*,#301,.T.);
#463=ORIENTED_EDGE('',*,*,#347,.T.);
#464=ORIENTED_EDGE('',*,*,#348,.F.);
#465=ORIENTED_EDGE('',*,*,#349,.F.);
#466=ORIENTED_EDGE('',*,*,#302,.T.);
#467=ORIENTED_EDGE('',*,*,#349,.T.);
#468=ORIENTED_EDGE('',*,*,#350,.F.);
#469=ORIENTED_EDGE('',*,*,#351,.F.);
#470=ORIENTED_EDGE('',*,*,#303,.F.);
#471=ORIENTED_EDGE('',*,*,#351,.T.);
#472=ORIENTED_EDGE('',*,*,#352,.F.);
#473=ORIENTED_EDGE('',*,*,#353,.F.);
#474=ORIENTED_EDGE('',*,*,#304,.T.);
#475=ORIENTED_EDGE('',*,*,#353,.T.);
#476=ORIENTED_EDGE('',*,*,#354,.F.);
#477=ORIENTED_EDGE('',*,*,#355,.F.);
#478=ORIENTED_EDGE('',*,*,#305,.T.);
#479=ORIENTED_EDGE('',*,*,#355,.T.);
#480=ORIENTED_EDGE('',*,*,#356,.F.);
#481=ORIENTED_EDGE('',*,*,#357,.F.);
#482=ORIENTED_EDGE('',*,*,#306,.T.);
#483=ORIENTED_EDGE('',*,*,#357,.T.);
#484=ORIENTED_EDGE('',*,*,#358,.F.);
#485=ORIENTED_EDGE('',*,*,#359,.F.);
#486=ORIENTED_EDGE('',*,*,#307,.F.);
#487=ORIENTED_EDGE('',*,*,#359,.T.);
#488=ORIENTED_EDGE('',*,*,#360,.F.);
#489=ORIENTED_EDGE('',*,*,#361,.F.);
#490=ORIENTED_EDGE('',*,*,#308,.T.);
#491=ORIENTED_EDGE('',*,*,#361,.T.);
#492=ORIENTED_EDGE('',*,*,#362,.F.);
#493=ORIENTED_EDGE('',*,*,#363,.F.);
#494=ORIENTED_EDGE('',*,*,#309,.T.);
#495=ORIENTED_EDGE('',*,*,#363,.T.);
#496=ORIENTED_EDGE('',*,*,#364,.F.);
#497=ORIENTED_EDGE('',*,*,#365,.F.);
#498=ORIENTED_EDGE('',*,*,#286,.T.);
#499=ORIENTED_EDGE('',*,*,#365,.T.);
#500=ORIENTED_EDGE('',*,*,#366,.F.);
#501=ORIENTED_EDGE('',*,*,#319,.F.);
#502=ORIENTED_EDGE('',*,*,#366,.T.);
#503=ORIENTED_EDGE('',*,*,#364,.T.);
#504=ORIENTED_EDGE('',*,*,#362,.T.);
#505=ORIENTED_EDGE('',*,*,#360,.T.);
#506=ORIENTED_EDGE('',*,*,#358,.T.);
#507=ORIENTED_EDGE('',*,*,#356,.T.);
#508=ORIENTED_EDGE('',*,*,#354,.T.);
#509=ORIENTED_EDGE('',*,*,#352,.T.);
#510=ORIENTED_EDGE('',*,*,#350,.T.);
#511=ORIENTED_EDGE('',*,*,#348,.T.);
#512=ORIENTED_EDGE('',*,*,#346,.T.);
#513=ORIENTED_EDGE('',*,*,#344,.T.);
#514=ORIENTED_EDGE('',*,*,#342,.T.);
#515=ORIENTED_EDGE('',*,*,#340,.T.);
#516=ORIENTED_EDGE('',*,*,#338,.T.);
#517=ORIENTED_EDGE('',*,*,#336,.T.);
#518=ORIENTED_EDGE('',*,*,#334,.T.);
#519=ORIENTED_EDGE('',*,*,#332,.T.);
#520=ORIENTED_EDGE('',*,*,#330,.T.);
#521=ORIENTED_EDGE('',*,*,#328,.T.);
#522=ORIENTED_EDGE('',*,*,#326,.T.);
#523=ORIENTED_EDGE('',*,*,#324,.T.);
#524=ORIENTED_EDGE('',*,*,#322,.T.);
#525=ORIENTED_EDGE('',*,*,#320,.T.);
#526=ORIENTED_EDGE('',*,*,#313,.T.);
#527=ORIENTED_EDGE('',*,*,#315,.T.);
#528=ORIENTED_EDGE('',*,*,#317,.T.);
#529=PLANE('',#586);
#530=PLANE('',#610);
#531=PLANE('',#613);
#532=PLANE('',#616);
#533=PLANE('',#619);
#534=PLANE('',#622);
#535=PLANE('',#625);
#536=PLANE('',#628);
#537=PLANE('',#631);
#538=PLANE('',#634);
#539=PLANE('',#637);
#540=PLANE('',#640);
#541=PLANE('',#643);
#542=PLANE('',#644);
#543=ADVANCED_FACE('',(#36,#30,#31,#32),#529,.T.);
#544=ADVANCED_FACE('',(#37),#15,.F.);
#545=ADVANCED_FACE('',(#38),#16,.F.);
#546=ADVANCED_FACE('',(#39),#17,.F.);
#547=ADVANCED_FACE('',(#40),#18,.F.);
#548=ADVANCED_FACE('',(#41),#530,.T.);
#549=ADVANCED_FACE('',(#42),#19,.T.);
#550=ADVANCED_FACE('',(#43),#531,.T.);
#551=ADVANCED_FACE('',(#44),#20,.F.);
#552=ADVANCED_FACE('',(#45),#532,.T.);
#553=ADVANCED_FACE('',(#46),#21,.T.);
#554=ADVANCED_FACE('',(#47),#533,.T.);
#555=ADVANCED_FACE('',(#48),#22,.F.);
#556=ADVANCED_FACE('',(#49),#534,.T.);
#557=ADVANCED_FACE('',(#50),#23,.T.);
#558=ADVANCED_FACE('',(#51),#535,.T.);
#559=ADVANCED_FACE('',(#52),#24,.F.);
#560=ADVANCED_FACE('',(#53),#536,.T.);
#561=ADVANCED_FACE('',(#54),#25,.T.);
#562=ADVANCED_FACE('',(#55),#537,.T.);
#563=ADVANCED_FACE('',(#56),#26,.F.);
#564=ADVANCED_FACE('',(#57),#538,.T.);
#565=ADVANCED_FACE('',(#58),#27,.T.);
#566=ADVANCED_FACE('',(#59),#539,.T.);
#567=ADVANCED_FACE('',(#60),#28,.F.);
#568=ADVANCED_FACE('',(#61),#540,.T.);
#569=ADVANCED_FACE('',(#62),#29,.T.);
#570=ADVANCED_FACE('',(#63),#541,.T.);
#571=ADVANCED_FACE('',(#64,#33,#34,#35),#542,.T.);
#572=CLOSED_SHELL('',(#543,#544,#545,#546,#547,#548,#549,#550,#551,#552,
#553,#554,#555,#556,#557,#558,#559,#560,#561,#562,#563,#564,#565,#566,#567,
#568,#569,#570,#571));
#573=DERIVED_UNIT_ELEMENT(#575,1.);
#574=DERIVED_UNIT_ELEMENT(#988,-3.);
#575=(
MASS_UNIT()
NAMED_UNIT(*)
SI_UNIT(.KILO.,.GRAM.)
);
#576=DERIVED_UNIT((#573,#574));
#577=MEASURE_REPRESENTATION_ITEM('density measure',
POSITIVE_RATIO_MEASURE(7850.),#576);
#578=PROPERTY_DEFINITION_REPRESENTATION(#583,#580);
#579=PROPERTY_DEFINITION_REPRESENTATION(#584,#581);
#580=REPRESENTATION('material name',(#582),#983);
#581=REPRESENTATION('density',(#577),#983);
#582=DESCRIPTIVE_REPRESENTATION_ITEM('Steel','Steel');
#583=PROPERTY_DEFINITION('material property','material name',#996);
#584=PROPERTY_DEFINITION('material property','density of part',#996);
#585=AXIS2_PLACEMENT_3D('',#816,#645,#646);
#586=AXIS2_PLACEMENT_3D('',#817,#647,#648);
#587=AXIS2_PLACEMENT_3D('',#822,#650,#651);
#588=AXIS2_PLACEMENT_3D('',#826,#653,#654);
#589=AXIS2_PLACEMENT_3D('',#830,#656,#657);
#590=AXIS2_PLACEMENT_3D('',#834,#659,#660);
#591=AXIS2_PLACEMENT_3D('',#838,#662,#663);
#592=AXIS2_PLACEMENT_3D('',#842,#665,#666);
#593=AXIS2_PLACEMENT_3D('',#846,#668,#669);
#594=AXIS2_PLACEMENT_3D('',#850,#671,#672);
#595=AXIS2_PLACEMENT_3D('',#854,#674,#675);
#596=AXIS2_PLACEMENT_3D('',#858,#677,#678);
#597=AXIS2_PLACEMENT_3D('',#862,#680,#681);
#598=AXIS2_PLACEMENT_3D('',#865,#683,#684);
#599=AXIS2_PLACEMENT_3D('',#867,#685,#686);
#600=AXIS2_PLACEMENT_3D('',#869,#687,#688);
#601=AXIS2_PLACEMENT_3D('',#871,#689,#690);
#602=AXIS2_PLACEMENT_3D('',#872,#691,#692);
#603=AXIS2_PLACEMENT_3D('',#874,#693,#694);
#604=AXIS2_PLACEMENT_3D('',#876,#696,#697);
#605=AXIS2_PLACEMENT_3D('',#878,#698,#699);
#606=AXIS2_PLACEMENT_3D('',#880,#701,#702);
#607=AXIS2_PLACEMENT_3D('',#882,#703,#704);
#608=AXIS2_PLACEMENT_3D('',#884,#706,#707);
#609=AXIS2_PLACEMENT_3D('',#888,#709,#710);
#610=AXIS2_PLACEMENT_3D('',#890,#712,#713);
#611=AXIS2_PLACEMENT_3D('',#894,#716,#717);
#612=AXIS2_PLACEMENT_3D('',#896,#718,#719);
#613=AXIS2_PLACEMENT_3D('',#898,#721,#722);
#614=AXIS2_PLACEMENT_3D('',#902,#725,#726);
#615=AXIS2_PLACEMENT_3D('',#904,#727,#728);
#616=AXIS2_PLACEMENT_3D('',#906,#730,#731);
#617=AXIS2_PLACEMENT_3D('',#910,#734,#735);
#618=AXIS2_PLACEMENT_3D('',#912,#736,#737);
#619=AXIS2_PLACEMENT_3D('',#914,#739,#740);
#620=AXIS2_PLACEMENT_3D('',#918,#743,#744);
#621=AXIS2_PLACEMENT_3D('',#920,#745,#746);
#622=AXIS2_PLACEMENT_3D('',#922,#748,#749);
#623=AXIS2_PLACEMENT_3D('',#926,#752,#753);
#624=AXIS2_PLACEMENT_3D('',#928,#754,#755);
#625=AXIS2_PLACEMENT_3D('',#930,#757,#758);
#626=AXIS2_PLACEMENT_3D('',#934,#761,#762);
#627=AXIS2_PLACEMENT_3D('',#936,#763,#764);
#628=AXIS2_PLACEMENT_3D('',#938,#766,#767);
#629=AXIS2_PLACEMENT_3D('',#942,#770,#771);
#630=AXIS2_PLACEMENT_3D('',#944,#772,#773);
#631=AXIS2_PLACEMENT_3D('',#946,#775,#776);
#632=AXIS2_PLACEMENT_3D('',#950,#779,#780);
#633=AXIS2_PLACEMENT_3D('',#952,#781,#782);
#634=AXIS2_PLACEMENT_3D('',#954,#784,#785);
#635=AXIS2_PLACEMENT_3D('',#958,#788,#789);
#636=AXIS2_PLACEMENT_3D('',#960,#790,#791);
#637=AXIS2_PLACEMENT_3D('',#962,#793,#794);
#638=AXIS2_PLACEMENT_3D('',#966,#797,#798);
#639=AXIS2_PLACEMENT_3D('',#968,#799,#800);
#640=AXIS2_PLACEMENT_3D('',#970,#802,#803);
#641=AXIS2_PLACEMENT_3D('',#974,#806,#807);
#642=AXIS2_PLACEMENT_3D('',#976,#808,#809);
#643=AXIS2_PLACEMENT_3D('',#978,#811,#812);
#644=AXIS2_PLACEMENT_3D('',#980,#814,#815);
#645=DIRECTION('axis',(0.,0.,1.));
#646=DIRECTION('refdir',(1.,0.,0.));
#647=DIRECTION('center_axis',(0.,-1.,0.));
#648=DIRECTION('ref_axis',(1.,0.,0.));
#649=DIRECTION('',(-0.866025403784438,0.,-0.5));
#650=DIRECTION('center_axis',(0.,1.,0.));
#651=DIRECTION('ref_axis',(-0.499999999999908,0.,0.866025403784492));
#652=DIRECTION('',(0.866025403784439,0.,0.5));
#653=DIRECTION('center_axis',(0.,1.,0.));
#654=DIRECTION('ref_axis',(-1.,0.,0.));
#655=DIRECTION('',(0.,0.,-1.));
#656=DIRECTION('center_axis',(0.,1.,0.));
#657=DIRECTION('ref_axis',(-1.,0.,1.0375856699718E-13));
#658=DIRECTION('',(1.39642013190362E-15,0.,1.));
#659=DIRECTION('center_axis',(0.,1.,0.));
#660=DIRECTION('ref_axis',(-1.,0.,0.));
#661=DIRECTION('',(0.866025403784439,0.,-0.499999999999999));
#662=DIRECTION('center_axis',(0.,1.,0.));
#663=DIRECTION('ref_axis',(-0.500000000000089,0.,-0.866025403784388));
#664=DIRECTION('',(-0.866025403784441,0.,0.499999999999996));
#665=DIRECTION('center_axis',(0.,1.,0.));
#666=DIRECTION('ref_axis',(-1.,0.,0.));
#667=DIRECTION('',(0.866025403784438,0.,0.500000000000001));
#668=DIRECTION('center_axis',(0.,1.,0.));
#669=DIRECTION('ref_axis',(0.499999999999911,0.,-0.86602540378449));
#670=DIRECTION('',(-0.866025403784437,0.,-0.500000000000004));
#671=DIRECTION('center_axis',(0.,1.,0.));
#672=DIRECTION('ref_axis',(-1.,0.,0.));
#673=DIRECTION('',(-1.90420927077758E-16,0.,1.));
#674=DIRECTION('center_axis',(0.,1.,0.));
#675=DIRECTION('ref_axis',(1.,0.,-1.0375856699718E-13));
#676=DIRECTION('',(-3.23715576032204E-15,0.,-1.));
#677=DIRECTION('center_axis',(0.,1.,0.));
#678=DIRECTION('ref_axis',(-1.,0.,0.));
#679=DIRECTION('',(-0.866025403784438,0.,0.5));
#680=DIRECTION('center_axis',(0.,1.,0.));
#681=DIRECTION('ref_axis',(0.500000000000089,0.,0.866025403784388));
#682=DIRECTION('',(0.866025403784439,0.,-0.5));
#683=DIRECTION('center_axis',(0.,1.,0.));
#684=DIRECTION('ref_axis',(-1.,0.,0.));
#685=DIRECTION('center_axis',(0.,1.,0.));
#686=DIRECTION('ref_axis',(1.,0.,0.));
#687=DIRECTION('center_axis',(0.,1.,0.));
#688=DIRECTION('ref_axis',(1.,0.,0.));
#689=DIRECTION('center_axis',(0.,1.,0.));
#690=DIRECTION('ref_axis',(1.,0.,0.));
#691=DIRECTION('center_axis',(0.,1.,0.));
#692=DIRECTION('ref_axis',(1.,0.,0.));
#693=DIRECTION('center_axis',(0.,-1.,0.));
#694=DIRECTION('ref_axis',(1.,0.,0.));
#695=DIRECTION('',(0.,-1.,0.));
#696=DIRECTION('center_axis',(0.,1.,0.));
#697=DIRECTION('ref_axis',(1.,0.,0.));
#698=DIRECTION('center_axis',(0.,-1.,0.));
#699=DIRECTION('ref_axis',(1.,0.,0.));
#700=DIRECTION('',(0.,-1.,0.));
#701=DIRECTION('center_axis',(0.,1.,0.));
#702=DIRECTION('ref_axis',(1.,0.,0.));
#703=DIRECTION('center_axis',(0.,-1.,0.));
#704=DIRECTION('ref_axis',(1.,0.,0.));
#705=DIRECTION('',(0.,-1.,0.));
#706=DIRECTION('center_axis',(0.,1.,0.));
#707=DIRECTION('ref_axis',(-0.499999999999908,0.,0.866025403784492));
#708=DIRECTION('',(0.,1.,0.));
#709=DIRECTION('center_axis',(0.,-1.,0.));
#710=DIRECTION('ref_axis',(-0.499999999999908,0.,0.866025403784492));
#711=DIRECTION('',(0.,1.,0.));
#712=DIRECTION('center_axis',(-0.5,0.,0.866025403784439));
#713=DIRECTION('ref_axis',(0.866025403784439,0.,0.5));
#714=DIRECTION('',(0.866025403784439,0.,0.5));
#715=DIRECTION('',(0.,1.,0.));
#716=DIRECTION('center_axis',(0.,1.,0.));
#717=DIRECTION('ref_axis',(-1.,0.,0.));
#718=DIRECTION('center_axis',(0.,1.,0.));
#719=DIRECTION('ref_axis',(-1.,0.,0.));
#720=DIRECTION('',(0.,1.,0.));
#721=DIRECTION('center_axis',(1.,0.,0.));
#722=DIRECTION('ref_axis',(0.,0.,-1.));
#723=DIRECTION('',(0.,0.,-1.));
#724=DIRECTION('',(0.,1.,0.));
#725=DIRECTION('center_axis',(0.,1.,0.));
#726=DIRECTION('ref_axis',(-1.,0.,1.0375856699718E-13));
#727=DIRECTION('center_axis',(0.,-1.,0.));
#728=DIRECTION('ref_axis',(-1.,0.,1.0375856699718E-13));
#729=DIRECTION('',(0.,1.,0.));
#730=DIRECTION('center_axis',(-1.,0.,1.39642013190363E-15));
#731=DIRECTION('ref_axis',(1.39642013190362E-15,0.,1.));
#732=DIRECTION('',(1.39642013190362E-15,0.,1.));
#733=DIRECTION('',(0.,1.,0.));
#734=DIRECTION('center_axis',(0.,1.,0.));
#735=DIRECTION('ref_axis',(-1.,0.,0.));
#736=DIRECTION('center_axis',(0.,1.,0.));
#737=DIRECTION('ref_axis',(-1.,0.,0.));
#738=DIRECTION('',(0.,1.,0.));
#739=DIRECTION('center_axis',(0.499999999999999,0.,0.866025403784439));
#740=DIRECTION('ref_axis',(0.866025403784439,0.,-0.499999999999999));
#741=DIRECTION('',(0.866025403784439,0.,-0.499999999999999));
#742=DIRECTION('',(0.,1.,0.));
#743=DIRECTION('center_axis',(0.,1.,0.));
#744=DIRECTION('ref_axis',(-0.500000000000089,0.,-0.866025403784388));
#745=DIRECTION('center_axis',(0.,-1.,0.));
#746=DIRECTION('ref_axis',(-0.500000000000089,0.,-0.866025403784388));
#747=DIRECTION('',(0.,1.,0.));
#748=DIRECTION('center_axis',(-0.499999999999996,0.,-0.866025403784441));
#749=DIRECTION('ref_axis',(-0.866025403784441,0.,0.499999999999996));
#750=DIRECTION('',(-0.866025403784441,0.,0.499999999999996));
#751=DIRECTION('',(0.,1.,0.));
#752=DIRECTION('center_axis',(0.,1.,0.));
#753=DIRECTION('ref_axis',(1.,0.,1.01064309961486E-15));
#754=DIRECTION('center_axis',(0.,1.,0.));
#755=DIRECTION('ref_axis',(-1.,0.,0.));
#756=DIRECTION('',(0.,1.,0.));
#757=DIRECTION('center_axis',(-0.500000000000001,0.,0.866025403784438));
#758=DIRECTION('ref_axis',(0.866025403784438,0.,0.500000000000001));
#759=DIRECTION('',(0.866025403784438,0.,0.500000000000001));
#760=DIRECTION('',(0.,1.,0.));
#761=DIRECTION('center_axis',(0.,1.,0.));
#762=DIRECTION('ref_axis',(0.499999999999911,0.,-0.86602540378449));
#763=DIRECTION('center_axis',(0.,-1.,0.));
#764=DIRECTION('ref_axis',(0.499999999999911,0.,-0.86602540378449));
#765=DIRECTION('',(0.,1.,0.));
#766=DIRECTION('center_axis',(0.500000000000004,0.,-0.866025403784437));
#767=DIRECTION('ref_axis',(-0.866025403784437,0.,-0.500000000000004));
#768=DIRECTION('',(-0.866025403784437,0.,-0.500000000000004));
#769=DIRECTION('',(0.,1.,0.));
#770=DIRECTION('center_axis',(0.,1.,0.));
#771=DIRECTION('ref_axis',(-1.,0.,0.));
#772=DIRECTION('center_axis',(0.,1.,0.));
#773=DIRECTION('ref_axis',(-1.,0.,0.));
#774=DIRECTION('',(0.,1.,0.));
#775=DIRECTION('center_axis',(-1.,0.,-1.90420927077758E-16));
#776=DIRECTION('ref_axis',(-1.90420927077758E-16,0.,1.));
#777=DIRECTION('',(-1.90420927077758E-16,0.,1.));
#778=DIRECTION('',(0.,1.,0.));
#779=DIRECTION('center_axis',(0.,1.,0.));
#780=DIRECTION('ref_axis',(1.,0.,-1.0375856699718E-13));
#781=DIRECTION('center_axis',(0.,-1.,0.));
#782=DIRECTION('ref_axis',(1.,0.,-1.0375856699718E-13));
#783=DIRECTION('',(0.,1.,0.));
#784=DIRECTION('center_axis',(1.,0.,-3.23715576032204E-15));
#785=DIRECTION('ref_axis',(-3.23715576032204E-15,0.,-1.));
#786=DIRECTION('',(-3.23715576032204E-15,0.,-1.));
#787=DIRECTION('',(0.,1.,0.));
#788=DIRECTION('center_axis',(0.,1.,0.));
#789=DIRECTION('ref_axis',(-1.,0.,0.));
#790=DIRECTION('center_axis',(0.,1.,0.));
#791=DIRECTION('ref_axis',(-1.,0.,0.));
#792=DIRECTION('',(0.,1.,0.));
#793=DIRECTION('center_axis',(-0.5,0.,-0.866025403784439));
#794=DIRECTION('ref_axis',(-0.866025403784438,0.,0.5));
#795=DIRECTION('',(-0.866025403784438,0.,0.5));
#796=DIRECTION('',(0.,1.,0.));
#797=DIRECTION('center_axis',(0.,1.,0.));
#798=DIRECTION('ref_axis',(0.500000000000089,0.,0.866025403784388));
#799=DIRECTION('center_axis',(0.,-1.,0.));
#800=DIRECTION('ref_axis',(0.500000000000089,0.,0.866025403784388));
#801=DIRECTION('',(0.,1.,0.));
#802=DIRECTION('center_axis',(0.5,0.,0.866025403784439));
#803=DIRECTION('ref_axis',(0.866025403784439,0.,-0.5));
#804=DIRECTION('',(0.866025403784439,0.,-0.5));
#805=DIRECTION('',(0.,1.,0.));
#806=DIRECTION('center_axis',(0.,1.,0.));
#807=DIRECTION('ref_axis',(-1.,0.,0.));
#808=DIRECTION('center_axis',(0.,1.,0.));
#809=DIRECTION('ref_axis',(-1.,0.,0.));
#810=DIRECTION('',(0.,1.,0.));
#811=DIRECTION('center_axis',(0.5,0.,-0.866025403784438));
#812=DIRECTION('ref_axis',(-0.866025403784438,0.,-0.5));
#813=DIRECTION('',(-0.866025403784438,0.,-0.5));
#814=DIRECTION('center_axis',(0.,1.,0.));
#815=DIRECTION('ref_axis',(-1.,0.,0.));
#816=CARTESIAN_POINT('',(0.,0.,0.));
#817=CARTESIAN_POINT('Origin',(8.74191357972564E-17,0.,-8.74191357972564E-17));
#818=CARTESIAN_POINT('',(-2.0344947207018,0.,-0.976151919628126));
#819=CARTESIAN_POINT('',(-2.3326783035377,0.,-1.14830829144636));
#820=CARTESIAN_POINT('',(-2.0344947207018,0.,-0.976151919628126));
#821=CARTESIAN_POINT('',(-1.86261972070184,0.,-1.27384815217905));
#822=CARTESIAN_POINT('Origin',(-1.94855722070182,0.,-1.12500003590359));
#823=CARTESIAN_POINT('',(-2.1608033035377,0.,-1.44600452399726));
#824=CARTESIAN_POINT('',(-2.1608033035377,0.,-1.44600452399726));
#825=CARTESIAN_POINT('',(-0.171875,0.,-2.59431281544362));
#826=CARTESIAN_POINT('Origin',(0.,0.,0.));
#827=CARTESIAN_POINT('',(-0.171875,0.,-2.25000007180715));
#828=CARTESIAN_POINT('',(-0.171875,0.,-2.25000007180715));
#829=CARTESIAN_POINT('',(0.171875,0.,-2.25000007180719));
#830=CARTESIAN_POINT('Origin',(-8.74191357972564E-17,0.,-2.25000007180717));
#831=CARTESIAN_POINT('',(0.171875,0.,-2.59431281544362));
#832=CARTESIAN_POINT('',(0.171874999999999,0.,-2.59431281544362));
#833=CARTESIAN_POINT('',(2.16080330353771,0.,-1.44600452399726));
#834=CARTESIAN_POINT('Origin',(0.,0.,0.));
#835=CARTESIAN_POINT('',(1.86261972070181,0.,-1.27384815217902));
#836=CARTESIAN_POINT('',(1.86261972070181,0.,-1.27384815217902));
#837=CARTESIAN_POINT('',(2.03449471848383,0.,-0.976151918347573));
#838=CARTESIAN_POINT('Origin',(1.94855722070182,0.,-1.12500003590358));
#839=CARTESIAN_POINT('',(2.33267830353771,0.,-1.14830829144636));
#840=CARTESIAN_POINT('',(2.33267830353771,0.,-1.14830829144636));
#841=CARTESIAN_POINT('',(2.3326783035377,0.,1.14830829144636));
#842=CARTESIAN_POINT('Origin',(0.,0.,0.));
#843=CARTESIAN_POINT('',(2.0344947207018,0.,0.976151919628127));
#844=CARTESIAN_POINT('',(2.0344947207018,0.,0.976151919628127));
#845=CARTESIAN_POINT('',(1.86261972070184,0.,1.27384815217905));
#846=CARTESIAN_POINT('Origin',(1.94855722070182,0.,1.12500003590359));
#847=CARTESIAN_POINT('',(2.1608033035377,0.,1.44600452399726));
#848=CARTESIAN_POINT('',(2.1608033035377,0.,1.44600452399726));
#849=CARTESIAN_POINT('',(0.171875,0.,2.59431281544362));
#850=CARTESIAN_POINT('Origin',(0.,0.,0.));
#851=CARTESIAN_POINT('',(0.171875,0.,2.25000007180715));
#852=CARTESIAN_POINT('',(0.171875,0.,2.25000007180715));
#853=CARTESIAN_POINT('',(-0.171875,0.,2.25000007180719));
#854=CARTESIAN_POINT('Origin',(-1.74838271594513E-16,0.,2.25000007180717));
#855=CARTESIAN_POINT('',(-0.171874999999999,0.,2.59431281544362));
#856=CARTESIAN_POINT('',(-0.171874999999999,0.,2.59431281544362));
#857=CARTESIAN_POINT('',(-2.1608033035377,0.,1.44600452399726));
#858=CARTESIAN_POINT('Origin',(0.,0.,0.));
#859=CARTESIAN_POINT('',(-1.86261972070181,0.,1.27384815217903));
#860=CARTESIAN_POINT('',(-1.86261972070181,0.,1.27384815217903));
#861=CARTESIAN_POINT('',(-2.03449471848383,0.,0.976151918347575));
#862=CARTESIAN_POINT('Origin',(-1.94855722070182,0.,1.12500003590359));
#863=CARTESIAN_POINT('',(-2.3326783035377,0.,1.14830829144636));
#864=CARTESIAN_POINT('',(-2.3326783035377,0.,1.14830829144636));
#865=CARTESIAN_POINT('Origin',(0.,0.,0.));
#866=CARTESIAN_POINT('',(-1.24507874015748,0.,-1.94855715851499));
#867=CARTESIAN_POINT('Origin',(-1.125,0.,-1.94855715851499));
#868=CARTESIAN_POINT('',(2.12992125984252,0.,-6.99353086378051E-16));
#869=CARTESIAN_POINT('Origin',(2.25,0.,-6.99353086378051E-16));
#870=CARTESIAN_POINT('',(-1.24507874015748,0.,1.94855715851499));
#871=CARTESIAN_POINT('Origin',(-1.125,0.,1.94855715851499));
#872=CARTESIAN_POINT('Origin',(-1.125,0.,1.94855715851499));
#873=CARTESIAN_POINT('',(-1.24507874015748,0.5,1.94855715851499));
#874=CARTESIAN_POINT('Origin',(-1.125,0.5,1.94855715851499));
#875=CARTESIAN_POINT('',(-1.24507874015748,0.,1.94855715851499));
#876=CARTESIAN_POINT('Origin',(2.25,0.,-6.99353086378051E-16));
#877=CARTESIAN_POINT('',(2.12992125984252,0.5,-6.99353086378051E-16));
#878=CARTESIAN_POINT('Origin',(2.25,0.5,-6.99353086378051E-16));
#879=CARTESIAN_POINT('',(2.12992125984252,0.,-6.84647681900101E-16));
#880=CARTESIAN_POINT('Origin',(-1.125,0.,-1.94855715851499));
#881=CARTESIAN_POINT('',(-1.24507874015748,0.5,-1.94855715851499));
#882=CARTESIAN_POINT('Origin',(-1.125,0.5,-1.94855715851499));
#883=CARTESIAN_POINT('',(-1.24507874015748,0.,-1.94855715851499));
#884=CARTESIAN_POINT('Origin',(-1.94855722070182,0.,-1.12500003590359));
#885=CARTESIAN_POINT('',(-2.0344947207018,0.5,-0.976151919628126));
#886=CARTESIAN_POINT('',(-2.0344947207018,0.,-0.976151919628126));
#887=CARTESIAN_POINT('',(-1.86261972070184,0.5,-1.27384815217905));
#888=CARTESIAN_POINT('Origin',(-1.94855722070182,0.5,-1.12500003590359));
#889=CARTESIAN_POINT('',(-1.86261972070184,0.,-1.27384815217905));
#890=CARTESIAN_POINT('Origin',(-2.1608033035377,0.,-1.44600452399726));
#891=CARTESIAN_POINT('',(-2.16080330353771,0.5,-1.44600452399726));
#892=CARTESIAN_POINT('',(-2.1608033035377,0.5,-1.44600452399726));
#893=CARTESIAN_POINT('',(-2.1608033035377,0.,-1.44600452399726));
#894=CARTESIAN_POINT('Origin',(0.,0.,0.));
#895=CARTESIAN_POINT('',(-0.171875,0.5,-2.59431281544362));
#896=CARTESIAN_POINT('Origin',(0.,0.5,0.));
#897=CARTESIAN_POINT('',(-0.171875,0.,-2.59431281544362));
#898=CARTESIAN_POINT('Origin',(-0.171875,0.,-2.25000007180715));
#899=CARTESIAN_POINT('',(-0.171875,0.5,-2.25000007180715));
#900=CARTESIAN_POINT('',(-0.171875,0.5,-2.25000007180715));
#901=CARTESIAN_POINT('',(-0.171875,0.,-2.25000007180715));
#902=CARTESIAN_POINT('Origin',(-8.74191357972564E-17,0.,-2.25000007180717));
#903=CARTESIAN_POINT('',(0.171875,0.5,-2.25000007180719));
#904=CARTESIAN_POINT('Origin',(-8.74191357972564E-17,0.5,-2.25000007180717));
#905=CARTESIAN_POINT('',(0.171875,0.,-2.25000007180719));
#906=CARTESIAN_POINT('Origin',(0.171874999999999,0.,-2.59431281544362));
#907=CARTESIAN_POINT('',(0.171875,0.5,-2.59431281544362));
#908=CARTESIAN_POINT('',(0.171874999999999,0.5,-2.59431281544362));
#909=CARTESIAN_POINT('',(0.171875,0.,-2.59431281544362));
#910=CARTESIAN_POINT('Origin',(0.,0.,0.));
#911=CARTESIAN_POINT('',(2.16080330353771,0.5,-1.44600452399726));
#912=CARTESIAN_POINT('Origin',(0.,0.5,0.));
#913=CARTESIAN_POINT('',(2.16080330353771,0.,-1.44600452399726));
#914=CARTESIAN_POINT('Origin',(1.86261972070181,0.,-1.27384815217902));
#915=CARTESIAN_POINT('',(1.86261972070181,0.5,-1.27384815217902));
#916=CARTESIAN_POINT('',(1.86261972070181,0.5,-1.27384815217902));
#917=CARTESIAN_POINT('',(1.86261972070181,0.,-1.27384815217902));
#918=CARTESIAN_POINT('Origin',(1.94855722070182,0.,-1.12500003590358));
#919=CARTESIAN_POINT('',(2.03449471848383,0.5,-0.976151918347573));
#920=CARTESIAN_POINT('Origin',(1.94855722070182,0.5,-1.12500003590358));
#921=CARTESIAN_POINT('',(2.03449471848383,0.,-0.976151918347573));
#922=CARTESIAN_POINT('Origin',(2.33267830353771,0.,-1.14830829144636));
#923=CARTESIAN_POINT('',(2.33267830353771,0.5,-1.14830829144636));
#924=CARTESIAN_POINT('',(2.33267830353771,0.5,-1.14830829144636));
#925=CARTESIAN_POINT('',(2.33267830353771,0.,-1.14830829144636));
#926=CARTESIAN_POINT('Origin',(0.,0.,0.));
#927=CARTESIAN_POINT('',(2.3326783035377,0.5,1.14830829144636));
#928=CARTESIAN_POINT('Origin',(0.,0.5,0.));
#929=CARTESIAN_POINT('',(2.3326783035377,0.,1.14830829144636));
#930=CARTESIAN_POINT('Origin',(2.0344947207018,0.,0.976151919628127));
#931=CARTESIAN_POINT('',(2.0344947207018,0.5,0.976151919628127));
#932=CARTESIAN_POINT('',(2.0344947207018,0.5,0.976151919628127));
#933=CARTESIAN_POINT('',(2.0344947207018,0.,0.976151919628127));
#934=CARTESIAN_POINT('Origin',(1.94855722070182,0.,1.12500003590359));
#935=CARTESIAN_POINT('',(1.86261972070184,0.5,1.27384815217905));
#936=CARTESIAN_POINT('Origin',(1.94855722070182,0.5,1.12500003590359));
#937=CARTESIAN_POINT('',(1.86261972070184,0.,1.27384815217905));
#938=CARTESIAN_POINT('Origin',(2.1608033035377,0.,1.44600452399726));
#939=CARTESIAN_POINT('',(2.1608033035377,0.5,1.44600452399726));
#940=CARTESIAN_POINT('',(2.1608033035377,0.5,1.44600452399726));
#941=CARTESIAN_POINT('',(2.1608033035377,0.,1.44600452399726));
#942=CARTESIAN_POINT('Origin',(0.,0.,0.));
#943=CARTESIAN_POINT('',(0.171875,0.5,2.59431281544362));
#944=CARTESIAN_POINT('Origin',(0.,0.5,0.));
#945=CARTESIAN_POINT('',(0.171875,0.,2.59431281544362));
#946=CARTESIAN_POINT('Origin',(0.171875,0.,2.25000007180715));
#947=CARTESIAN_POINT('',(0.171875,0.5,2.25000007180715));
#948=CARTESIAN_POINT('',(0.171875,0.5,2.25000007180715));
#949=CARTESIAN_POINT('',(0.171875,0.,2.25000007180715));
#950=CARTESIAN_POINT('Origin',(-1.74838271594513E-16,0.,2.25000007180717));
#951=CARTESIAN_POINT('',(-0.171875,0.5,2.25000007180719));
#952=CARTESIAN_POINT('Origin',(-1.74838271594513E-16,0.5,2.25000007180717));
#953=CARTESIAN_POINT('',(-0.171875,0.,2.25000007180719));
#954=CARTESIAN_POINT('Origin',(-0.171874999999999,0.,2.59431281544362));
#955=CARTESIAN_POINT('',(-0.171874999999999,0.5,2.59431281544362));
#956=CARTESIAN_POINT('',(-0.171874999999999,0.5,2.59431281544362));
#957=CARTESIAN_POINT('',(-0.171874999999999,0.,2.59431281544362));
#958=CARTESIAN_POINT('Origin',(0.,0.,0.));
#959=CARTESIAN_POINT('',(-2.16080330353771,0.5,1.44600452399726));
#960=CARTESIAN_POINT('Origin',(0.,0.5,0.));
#961=CARTESIAN_POINT('',(-2.1608033035377,0.,1.44600452399726));
#962=CARTESIAN_POINT('Origin',(-1.86261972070181,0.,1.27384815217903));
#963=CARTESIAN_POINT('',(-1.86261972070181,0.5,1.27384815217903));
#964=CARTESIAN_POINT('',(-1.86261972070181,0.5,1.27384815217903));
#965=CARTESIAN_POINT('',(-1.86261972070181,0.,1.27384815217903));
#966=CARTESIAN_POINT('Origin',(-1.94855722070182,0.,1.12500003590359));
#967=CARTESIAN_POINT('',(-2.03449471848383,0.5,0.976151918347575));
#968=CARTESIAN_POINT('Origin',(-1.94855722070182,0.5,1.12500003590359));
#969=CARTESIAN_POINT('',(-2.03449471848383,0.,0.976151918347575));
#970=CARTESIAN_POINT('Origin',(-2.3326783035377,0.,1.14830829144636));
#971=CARTESIAN_POINT('',(-2.3326783035377,0.5,1.14830829144636));
#972=CARTESIAN_POINT('',(-2.3326783035377,0.5,1.14830829144636));
#973=CARTESIAN_POINT('',(-2.3326783035377,0.,1.14830829144636));
#974=CARTESIAN_POINT('Origin',(0.,0.,0.));
#975=CARTESIAN_POINT('',(-2.3326783035377,0.5,-1.14830829144636));
#976=CARTESIAN_POINT('Origin',(0.,0.5,0.));
#977=CARTESIAN_POINT('',(-2.3326783035377,0.,-1.14830829144636));
#978=CARTESIAN_POINT('Origin',(-2.0344947207018,0.,-0.976151919628126));
#979=CARTESIAN_POINT('',(-2.0344947207018,0.5,-0.976151919628126));
#980=CARTESIAN_POINT('Origin',(0.,0.5,0.));
#981=UNCERTAINTY_MEASURE_WITH_UNIT(LENGTH_MEASURE(0.000393700787401575),
#986,'DISTANCE_ACCURACY_VALUE',
'Maximum model space distance between geometric entities at asserted c
onnectivities');
#982=UNCERTAINTY_MEASURE_WITH_UNIT(LENGTH_MEASURE(0.000393700787401575),
#986,'DISTANCE_ACCURACY_VALUE',
'Maximum model space distance between geometric entities at asserted c
onnectivities');
#983=(
GEOMETRIC_REPRESENTATION_CONTEXT(3)
GLOBAL_UNCERTAINTY_ASSIGNED_CONTEXT((#981))
GLOBAL_UNIT_ASSIGNED_CONTEXT((#986,#990,#991))
REPRESENTATION_CONTEXT('','3D')
);
#984=(
GEOMETRIC_REPRESENTATION_CONTEXT(3)
GLOBAL_UNCERTAINTY_ASSIGNED_CONTEXT((#982))
GLOBAL_UNIT_ASSIGNED_CONTEXT((#986,#990,#991))
REPRESENTATION_CONTEXT('','3D')
);
#985=DIMENSIONAL_EXPONENTS(1.,0.,0.,0.,0.,0.,0.);
#986=(
CONVERSION_BASED_UNIT('inch',#989)
LENGTH_UNIT()
NAMED_UNIT(#985)
);
#987=(
LENGTH_UNIT()
NAMED_UNIT(*)
SI_UNIT(.MILLI.,.METRE.)
);
#988=(
LENGTH_UNIT()
NAMED_UNIT(*)
SI_UNIT($,.METRE.)
);
#989=LENGTH_MEASURE_WITH_UNIT(LENGTH_MEASURE(25.4),#987);
#990=(
NAMED_UNIT(*)
PLANE_ANGLE_UNIT()
SI_UNIT($,.RADIAN.)
);
#991=(
NAMED_UNIT(*)
SI_UNIT($,.STERADIAN.)
SOLID_ANGLE_UNIT()
);
#992=SHAPE_DEFINITION_REPRESENTATION(#993,#994);
#993=PRODUCT_DEFINITION_SHAPE('',$,#996);
#994=SHAPE_REPRESENTATION('',(#585),#983);
#995=PRODUCT_DEFINITION_CONTEXT('part definition',#1000,'design');
#996=PRODUCT_DEFINITION('2026-04-14-18-09-33-622','BlankMoldTop',#997,#995);
#997=PRODUCT_DEFINITION_FORMATION('',$,#1002);
#998=PRODUCT_RELATED_PRODUCT_CATEGORY('BlankMoldTop','BlankMoldTop',(#1002));
#999=APPLICATION_PROTOCOL_DEFINITION('international standard',
'automotive_design',2009,#1000);
#1000=APPLICATION_CONTEXT(
'Core Data for Automotive Mechanical Design Process');
#1001=PRODUCT_CONTEXT('part definition',#1000,'mechanical');
#1002=PRODUCT('2026-04-14-18-09-33-622','BlankMoldTop',$,(#1001));
#1003=PRESENTATION_STYLE_ASSIGNMENT((#1005));
#1004=PRESENTATION_STYLE_ASSIGNMENT((#1006));
#1005=SURFACE_STYLE_USAGE(.BOTH.,#1007);
#1006=SURFACE_STYLE_USAGE(.BOTH.,#1008);
#1007=SURFACE_SIDE_STYLE('',(#1009));
#1008=SURFACE_SIDE_STYLE('',(#1010));
#1009=SURFACE_STYLE_FILL_AREA(#1011);
#1010=SURFACE_STYLE_FILL_AREA(#1012);
#1011=FILL_AREA_STYLE('Steel - Satin',(#1013));
#1012=FILL_AREA_STYLE('Polymide (Kapton)',(#1014));
#1013=FILL_AREA_STYLE_COLOUR('Steel - Satin',#1015);
#1014=FILL_AREA_STYLE_COLOUR('Polymide (Kapton)',#1016);
#1015=COLOUR_RGB('Steel - Satin',0.627450980392157,0.627450980392157,0.627450980392157);
#1016=COLOUR_RGB('Polymide (Kapton)',0.784313725490196,0.556862745098039,
0.0274509803921569);
ENDSEC;
END-ISO-10303-21;
