ISO-10303-21;
HEADER;
/* Generated by software containing ST-Developer
 * from STEP Tools, Inc. (www.steptools.com) 
 */

FILE_DESCRIPTION(
/* description */ (''),
/* implementation_level */ '2;1');

FILE_NAME(
/* name */ 'CircleMoldBlankTop.step',
/* time_stamp */ '2026-03-14T11:28:28-07:00',
/* author */ (''),
/* organization */ (''),
/* preprocessor_version */ 'ST-DEVELOPER v20.1',
/* originating_system */ 'Autodesk Translation Framework v14.24.0.0',
/* authorisation */ '');

FILE_SCHEMA (('AUTOMOTIVE_DESIGN { 1 0 10303 214 3 1 1 }'));
ENDSEC;

DATA;
#10=MECHANICAL_DESIGN_GEOMETRIC_PRESENTATION_REPRESENTATION('',(#13),#1086);
#11=SHAPE_REPRESENTATION_RELATIONSHIP('SRR','None',#1096,#12);
#12=ADVANCED_BREP_SHAPE_REPRESENTATION('',(#14),#1085);
#13=STYLED_ITEM('',(#1106),#14);
#14=MANIFOLD_SOLID_BREP('CircleCoasterMoldTopDirect (1)',#632);
#15=CYLINDRICAL_SURFACE('',#663,0.171875);
#16=CYLINDRICAL_SURFACE('',#666,2.6);
#17=CYLINDRICAL_SURFACE('',#669,0.171875);
#18=CYLINDRICAL_SURFACE('',#672,2.6);
#19=CYLINDRICAL_SURFACE('',#675,0.171875);
#20=CYLINDRICAL_SURFACE('',#678,2.6);
#21=CYLINDRICAL_SURFACE('',#681,0.137795275590551);
#22=CYLINDRICAL_SURFACE('',#686,0.1375);
#23=CYLINDRICAL_SURFACE('',#687,0.208661417322835);
#24=CYLINDRICAL_SURFACE('',#689,0.208661417322835);
#25=CYLINDRICAL_SURFACE('',#691,0.208661417322835);
#26=CYLINDRICAL_SURFACE('',#693,0.171875);
#27=CYLINDRICAL_SURFACE('',#696,2.6);
#28=CYLINDRICAL_SURFACE('',#699,0.171875);
#29=CYLINDRICAL_SURFACE('',#702,2.6);
#30=CYLINDRICAL_SURFACE('',#705,0.171875);
#31=CYLINDRICAL_SURFACE('',#708,2.6);
#32=FACE_BOUND('',#74,.T.);
#33=FACE_BOUND('',#75,.T.);
#34=FACE_BOUND('',#76,.T.);
#35=FACE_BOUND('',#77,.T.);
#36=FACE_BOUND('',#92,.T.);
#37=FACE_BOUND('',#110,.T.);
#38=FACE_BOUND('',#111,.T.);
#39=FACE_BOUND('',#112,.T.);
#40=FACE_BOUND('',#113,.T.);
#41=FACE_OUTER_BOUND('',#73,.T.);
#42=FACE_OUTER_BOUND('',#78,.T.);
#43=FACE_OUTER_BOUND('',#79,.T.);
#44=FACE_OUTER_BOUND('',#80,.T.);
#45=FACE_OUTER_BOUND('',#81,.T.);
#46=FACE_OUTER_BOUND('',#82,.T.);
#47=FACE_OUTER_BOUND('',#83,.T.);
#48=FACE_OUTER_BOUND('',#84,.T.);
#49=FACE_OUTER_BOUND('',#85,.T.);
#50=FACE_OUTER_BOUND('',#86,.T.);
#51=FACE_OUTER_BOUND('',#87,.T.);
#52=FACE_OUTER_BOUND('',#88,.T.);
#53=FACE_OUTER_BOUND('',#89,.T.);
#54=FACE_OUTER_BOUND('',#90,.T.);
#55=FACE_OUTER_BOUND('',#91,.T.);
#56=FACE_OUTER_BOUND('',#93,.T.);
#57=FACE_OUTER_BOUND('',#94,.T.);
#58=FACE_OUTER_BOUND('',#95,.T.);
#59=FACE_OUTER_BOUND('',#96,.T.);
#60=FACE_OUTER_BOUND('',#97,.T.);
#61=FACE_OUTER_BOUND('',#98,.T.);
#62=FACE_OUTER_BOUND('',#99,.T.);
#63=FACE_OUTER_BOUND('',#100,.T.);
#64=FACE_OUTER_BOUND('',#101,.T.);
#65=FACE_OUTER_BOUND('',#102,.T.);
#66=FACE_OUTER_BOUND('',#103,.T.);
#67=FACE_OUTER_BOUND('',#104,.T.);
#68=FACE_OUTER_BOUND('',#105,.T.);
#69=FACE_OUTER_BOUND('',#106,.T.);
#70=FACE_OUTER_BOUND('',#107,.T.);
#71=FACE_OUTER_BOUND('',#108,.T.);
#72=FACE_OUTER_BOUND('',#109,.T.);
#73=EDGE_LOOP('',(#407,#408,#409,#410,#411,#412,#413,#414,#415,#416,#417,
#418,#419,#420,#421,#422,#423,#424,#425,#426,#427,#428,#429,#430));
#74=EDGE_LOOP('',(#431));
#75=EDGE_LOOP('',(#432));
#76=EDGE_LOOP('',(#433));
#77=EDGE_LOOP('',(#434));
#78=EDGE_LOOP('',(#435,#436,#437,#438));
#79=EDGE_LOOP('',(#439,#440,#441,#442));
#80=EDGE_LOOP('',(#443,#444,#445,#446));
#81=EDGE_LOOP('',(#447,#448,#449,#450));
#82=EDGE_LOOP('',(#451,#452,#453,#454));
#83=EDGE_LOOP('',(#455,#456,#457,#458));
#84=EDGE_LOOP('',(#459,#460,#461,#462));
#85=EDGE_LOOP('',(#463,#464,#465,#466));
#86=EDGE_LOOP('',(#467,#468,#469,#470));
#87=EDGE_LOOP('',(#471,#472,#473,#474));
#88=EDGE_LOOP('',(#475,#476,#477,#478));
#89=EDGE_LOOP('',(#479,#480,#481,#482));
#90=EDGE_LOOP('',(#483,#484,#485,#486));
#91=EDGE_LOOP('',(#487));
#92=EDGE_LOOP('',(#488));
#93=EDGE_LOOP('',(#489,#490,#491,#492));
#94=EDGE_LOOP('',(#493,#494,#495,#496));
#95=EDGE_LOOP('',(#497,#498,#499,#500));
#96=EDGE_LOOP('',(#501,#502,#503,#504));
#97=EDGE_LOOP('',(#505,#506,#507,#508,#509));
#98=EDGE_LOOP('',(#510,#511,#512,#513));
#99=EDGE_LOOP('',(#514,#515,#516,#517));
#100=EDGE_LOOP('',(#518,#519,#520,#521));
#101=EDGE_LOOP('',(#522,#523,#524,#525));
#102=EDGE_LOOP('',(#526,#527,#528,#529));
#103=EDGE_LOOP('',(#530,#531,#532,#533));
#104=EDGE_LOOP('',(#534,#535,#536,#537,#538));
#105=EDGE_LOOP('',(#539,#540,#541,#542,#543));
#106=EDGE_LOOP('',(#544,#545,#546,#547));
#107=EDGE_LOOP('',(#548,#549,#550,#551));
#108=EDGE_LOOP('',(#552,#553,#554,#555,#556));
#109=EDGE_LOOP('',(#557,#558,#559,#560,#561,#562,#563,#564,#565,#566,#567,
#568,#569,#570,#571,#572,#573,#574,#575,#576,#577,#578,#579,#580));
#110=EDGE_LOOP('',(#581));
#111=EDGE_LOOP('',(#582));
#112=EDGE_LOOP('',(#583));
#113=EDGE_LOOP('',(#584));
#114=CIRCLE('',#647,2.6);
#115=CIRCLE('',#648,0.171875);
#116=CIRCLE('',#649,2.6);
#117=CIRCLE('',#650,0.171875000000001);
#118=CIRCLE('',#651,2.6);
#119=CIRCLE('',#652,0.171874999999999);
#120=CIRCLE('',#653,2.6);
#121=CIRCLE('',#654,0.171875);
#122=CIRCLE('',#655,2.6);
#123=CIRCLE('',#656,0.171875);
#124=CIRCLE('',#657,2.6);
#125=CIRCLE('',#658,0.171875);
#126=CIRCLE('',#659,0.1375);
#127=CIRCLE('',#660,0.208661417322835);
#128=CIRCLE('',#661,0.208661417322835);
#129=CIRCLE('',#662,0.208661417322835);
#130=CIRCLE('',#664,0.171875);
#131=CIRCLE('',#667,2.6);
#132=CIRCLE('',#670,0.171875);
#133=CIRCLE('',#673,2.6);
#134=CIRCLE('',#676,0.171875);
#135=CIRCLE('',#679,2.6);
#136=CIRCLE('',#682,0.137795275590551);
#137=CIRCLE('',#683,0.137795275590551);
#138=CIRCLE('',#685,0.1375);
#139=CIRCLE('',#688,0.208661417322835);
#140=CIRCLE('',#690,0.208661417322835);
#141=CIRCLE('',#692,0.208661417322835);
#142=CIRCLE('',#694,0.171875);
#143=CIRCLE('',#697,2.6);
#144=CIRCLE('',#700,0.171875);
#145=CIRCLE('',#703,2.6);
#146=CIRCLE('',#706,0.171875);
#147=CIRCLE('',#709,2.6);
#148=LINE('',#905,#203);
#149=LINE('',#909,#204);
#150=LINE('',#913,#205);
#151=LINE('',#917,#206);
#152=LINE('',#921,#207);
#153=LINE('',#925,#208);
#154=LINE('',#929,#209);
#155=LINE('',#933,#210);
#156=LINE('',#937,#211);
#157=LINE('',#941,#212);
#158=LINE('',#945,#213);
#159=LINE('',#949,#214);
#160=LINE('',#961,#215);
#161=LINE('',#964,#216);
#162=LINE('',#967,#217);
#163=LINE('',#968,#218);
#164=LINE('',#971,#219);
#165=LINE('',#975,#220);
#166=LINE('',#976,#221);
#167=LINE('',#979,#222);
#168=LINE('',#983,#223);
#169=LINE('',#984,#224);
#170=LINE('',#987,#225);
#171=LINE('',#991,#226);
#172=LINE('',#992,#227);
#173=LINE('',#995,#228);
#174=LINE('',#999,#229);
#175=LINE('',#1000,#230);
#176=LINE('',#1003,#231);
#177=LINE('',#1007,#232);
#178=LINE('',#1008,#233);
#179=LINE('',#1013,#234);
#180=LINE('',#1019,#235);
#181=LINE('',#1023,#236);
#182=LINE('',#1027,#237);
#183=LINE('',#1031,#238);
#184=LINE('',#1035,#239);
#185=LINE('',#1037,#240);
#186=LINE('',#1040,#241);
#187=LINE('',#1041,#242);
#188=LINE('',#1045,#243);
#189=LINE('',#1048,#244);
#190=LINE('',#1049,#245);
#191=LINE('',#1053,#246);
#192=LINE('',#1056,#247);
#193=LINE('',#1057,#248);
#194=LINE('',#1061,#249);
#195=LINE('',#1064,#250);
#196=LINE('',#1066,#251);
#197=LINE('',#1067,#252);
#198=LINE('',#1071,#253);
#199=LINE('',#1074,#254);
#200=LINE('',#1075,#255);
#201=LINE('',#1079,#256);
#202=LINE('',#1081,#257);
#203=VECTOR('',#716,0.393700787401575);
#204=VECTOR('',#719,0.393700787401575);
#205=VECTOR('',#722,0.393700787401575);
#206=VECTOR('',#725,0.393700787401575);
#207=VECTOR('',#728,0.393700787401575);
#208=VECTOR('',#731,0.393700787401575);
#209=VECTOR('',#734,0.393700787401575);
#210=VECTOR('',#737,0.393700787401575);
#211=VECTOR('',#740,0.393700787401575);
#212=VECTOR('',#743,0.393700787401575);
#213=VECTOR('',#746,0.393700787401575);
#214=VECTOR('',#749,0.393700787401575);
#215=VECTOR('',#762,0.393700787401575);
#216=VECTOR('',#765,0.393700787401575);
#217=VECTOR('',#768,0.393700787401575);
#218=VECTOR('',#769,0.393700787401575);
#219=VECTOR('',#772,0.393700787401575);
#220=VECTOR('',#777,0.393700787401575);
#221=VECTOR('',#778,0.393700787401575);
#222=VECTOR('',#781,0.393700787401575);
#223=VECTOR('',#786,0.393700787401575);
#224=VECTOR('',#787,0.393700787401575);
#225=VECTOR('',#790,0.393700787401575);
#226=VECTOR('',#795,0.393700787401575);
#227=VECTOR('',#796,0.393700787401575);
#228=VECTOR('',#799,0.393700787401575);
#229=VECTOR('',#804,0.393700787401575);
#230=VECTOR('',#805,0.393700787401575);
#231=VECTOR('',#808,0.393700787401575);
#232=VECTOR('',#813,0.393700787401575);
#233=VECTOR('',#814,0.393700787401575);
#234=VECTOR('',#819,0.137795275590551);
#235=VECTOR('',#828,0.1375);
#236=VECTOR('',#833,0.208661417322835);
#237=VECTOR('',#838,0.208661417322835);
#238=VECTOR('',#843,0.208661417322835);
#239=VECTOR('',#846,0.393700787401575);
#240=VECTOR('',#849,0.393700787401575);
#241=VECTOR('',#852,0.393700787401575);
#242=VECTOR('',#853,0.393700787401575);
#243=VECTOR('',#858,0.393700787401575);
#244=VECTOR('',#861,0.393700787401575);
#245=VECTOR('',#862,0.393700787401575);
#246=VECTOR('',#867,0.393700787401575);
#247=VECTOR('',#870,0.393700787401575);
#248=VECTOR('',#871,0.393700787401575);
#249=VECTOR('',#876,0.393700787401575);
#250=VECTOR('',#879,0.393700787401575);
#251=VECTOR('',#880,0.393700787401575);
#252=VECTOR('',#881,0.393700787401575);
#253=VECTOR('',#886,0.393700787401575);
#254=VECTOR('',#889,0.393700787401575);
#255=VECTOR('',#890,0.393700787401575);
#256=VECTOR('',#895,0.393700787401575);
#257=VECTOR('',#898,0.393700787401575);
#258=VERTEX_POINT('',#903);
#259=VERTEX_POINT('',#904);
#260=VERTEX_POINT('',#906);
#261=VERTEX_POINT('',#908);
#262=VERTEX_POINT('',#910);
#263=VERTEX_POINT('',#912);
#264=VERTEX_POINT('',#914);
#265=VERTEX_POINT('',#916);
#266=VERTEX_POINT('',#918);
#267=VERTEX_POINT('',#920);
#268=VERTEX_POINT('',#922);
#269=VERTEX_POINT('',#924);
#270=VERTEX_POINT('',#926);
#271=VERTEX_POINT('',#928);
#272=VERTEX_POINT('',#930);
#273=VERTEX_POINT('',#932);
#274=VERTEX_POINT('',#934);
#275=VERTEX_POINT('',#936);
#276=VERTEX_POINT('',#938);
#277=VERTEX_POINT('',#940);
#278=VERTEX_POINT('',#942);
#279=VERTEX_POINT('',#944);
#280=VERTEX_POINT('',#946);
#281=VERTEX_POINT('',#948);
#282=VERTEX_POINT('',#951);
#283=VERTEX_POINT('',#953);
#284=VERTEX_POINT('',#955);
#285=VERTEX_POINT('',#957);
#286=VERTEX_POINT('',#960);
#287=VERTEX_POINT('',#962);
#288=VERTEX_POINT('',#966);
#289=VERTEX_POINT('',#970);
#290=VERTEX_POINT('',#974);
#291=VERTEX_POINT('',#978);
#292=VERTEX_POINT('',#982);
#293=VERTEX_POINT('',#986);
#294=VERTEX_POINT('',#990);
#295=VERTEX_POINT('',#994);
#296=VERTEX_POINT('',#998);
#297=VERTEX_POINT('',#1002);
#298=VERTEX_POINT('',#1006);
#299=VERTEX_POINT('',#1010);
#300=VERTEX_POINT('',#1012);
#301=VERTEX_POINT('',#1016);
#302=VERTEX_POINT('',#1021);
#303=VERTEX_POINT('',#1025);
#304=VERTEX_POINT('',#1029);
#305=VERTEX_POINT('',#1033);
#306=VERTEX_POINT('',#1034);
#307=VERTEX_POINT('',#1039);
#308=VERTEX_POINT('',#1043);
#309=VERTEX_POINT('',#1047);
#310=VERTEX_POINT('',#1051);
#311=VERTEX_POINT('',#1055);
#312=VERTEX_POINT('',#1059);
#313=VERTEX_POINT('',#1063);
#314=VERTEX_POINT('',#1065);
#315=VERTEX_POINT('',#1069);
#316=VERTEX_POINT('',#1073);
#317=VERTEX_POINT('',#1077);
#318=EDGE_CURVE('',#258,#259,#148,.T.);
#319=EDGE_CURVE('',#259,#260,#114,.T.);
#320=EDGE_CURVE('',#260,#261,#149,.T.);
#321=EDGE_CURVE('',#261,#262,#115,.T.);
#322=EDGE_CURVE('',#262,#263,#150,.T.);
#323=EDGE_CURVE('',#263,#264,#116,.T.);
#324=EDGE_CURVE('',#264,#265,#151,.T.);
#325=EDGE_CURVE('',#265,#266,#117,.T.);
#326=EDGE_CURVE('',#266,#267,#152,.T.);
#327=EDGE_CURVE('',#267,#268,#118,.T.);
#328=EDGE_CURVE('',#268,#269,#153,.T.);
#329=EDGE_CURVE('',#269,#270,#119,.T.);
#330=EDGE_CURVE('',#270,#271,#154,.T.);
#331=EDGE_CURVE('',#271,#272,#120,.T.);
#332=EDGE_CURVE('',#272,#273,#155,.T.);
#333=EDGE_CURVE('',#273,#274,#121,.T.);
#334=EDGE_CURVE('',#274,#275,#156,.T.);
#335=EDGE_CURVE('',#275,#276,#122,.T.);
#336=EDGE_CURVE('',#276,#277,#157,.T.);
#337=EDGE_CURVE('',#277,#278,#123,.T.);
#338=EDGE_CURVE('',#278,#279,#158,.T.);
#339=EDGE_CURVE('',#279,#280,#124,.T.);
#340=EDGE_CURVE('',#280,#281,#159,.T.);
#341=EDGE_CURVE('',#281,#258,#125,.T.);
#342=EDGE_CURVE('',#282,#282,#126,.T.);
#343=EDGE_CURVE('',#283,#283,#127,.T.);
#344=EDGE_CURVE('',#284,#284,#128,.T.);
#345=EDGE_CURVE('',#285,#285,#129,.T.);
#346=EDGE_CURVE('',#273,#286,#160,.T.);
#347=EDGE_CURVE('',#287,#286,#130,.T.);
#348=EDGE_CURVE('',#274,#287,#161,.T.);
#349=EDGE_CURVE('',#272,#288,#162,.T.);
#350=EDGE_CURVE('',#286,#288,#163,.T.);
#351=EDGE_CURVE('',#271,#289,#164,.T.);
#352=EDGE_CURVE('',#288,#289,#131,.T.);
#353=EDGE_CURVE('',#270,#290,#165,.T.);
#354=EDGE_CURVE('',#289,#290,#166,.T.);
#355=EDGE_CURVE('',#269,#291,#167,.T.);
#356=EDGE_CURVE('',#290,#291,#132,.T.);
#357=EDGE_CURVE('',#268,#292,#168,.T.);
#358=EDGE_CURVE('',#291,#292,#169,.T.);
#359=EDGE_CURVE('',#267,#293,#170,.T.);
#360=EDGE_CURVE('',#292,#293,#133,.T.);
#361=EDGE_CURVE('',#266,#294,#171,.T.);
#362=EDGE_CURVE('',#293,#294,#172,.T.);
#363=EDGE_CURVE('',#265,#295,#173,.T.);
#364=EDGE_CURVE('',#294,#295,#134,.T.);
#365=EDGE_CURVE('',#264,#296,#174,.T.);
#366=EDGE_CURVE('',#295,#296,#175,.T.);
#367=EDGE_CURVE('',#263,#297,#176,.T.);
#368=EDGE_CURVE('',#296,#297,#135,.T.);
#369=EDGE_CURVE('',#262,#298,#177,.T.);
#370=EDGE_CURVE('',#297,#298,#178,.T.);
#371=EDGE_CURVE('',#299,#299,#136,.T.);
#372=EDGE_CURVE('',#299,#300,#179,.T.);
#373=EDGE_CURVE('',#300,#300,#137,.T.);
#374=EDGE_CURVE('',#301,#301,#138,.T.);
#375=EDGE_CURVE('',#301,#282,#180,.T.);
#376=EDGE_CURVE('',#302,#302,#139,.T.);
#377=EDGE_CURVE('',#302,#284,#181,.T.);
#378=EDGE_CURVE('',#303,#303,#140,.T.);
#379=EDGE_CURVE('',#303,#285,#182,.T.);
#380=EDGE_CURVE('',#304,#304,#141,.T.);
#381=EDGE_CURVE('',#304,#283,#183,.T.);
#382=EDGE_CURVE('',#305,#306,#184,.T.);
#383=EDGE_CURVE('',#298,#306,#142,.T.);
#384=EDGE_CURVE('',#305,#261,#185,.T.);
#385=EDGE_CURVE('',#307,#287,#186,.T.);
#386=EDGE_CURVE('',#275,#307,#187,.T.);
#387=EDGE_CURVE('',#308,#307,#143,.T.);
#388=EDGE_CURVE('',#276,#308,#188,.T.);
#389=EDGE_CURVE('',#309,#308,#189,.T.);
#390=EDGE_CURVE('',#277,#309,#190,.T.);
#391=EDGE_CURVE('',#310,#309,#144,.T.);
#392=EDGE_CURVE('',#278,#310,#191,.T.);
#393=EDGE_CURVE('',#311,#310,#192,.T.);
#394=EDGE_CURVE('',#279,#311,#193,.T.);
#395=EDGE_CURVE('',#312,#311,#145,.T.);
#396=EDGE_CURVE('',#280,#312,#194,.T.);
#397=EDGE_CURVE('',#313,#312,#195,.T.);
#398=EDGE_CURVE('',#314,#313,#196,.T.);
#399=EDGE_CURVE('',#314,#281,#197,.T.);
#400=EDGE_CURVE('',#315,#313,#146,.T.);
#401=EDGE_CURVE('',#258,#315,#198,.T.);
#402=EDGE_CURVE('',#316,#315,#199,.T.);
#403=EDGE_CURVE('',#259,#316,#200,.T.);
#404=EDGE_CURVE('',#317,#316,#147,.T.);
#405=EDGE_CURVE('',#260,#317,#201,.T.);
#406=EDGE_CURVE('',#306,#317,#202,.T.);
#407=ORIENTED_EDGE('',*,*,#318,.T.);
#408=ORIENTED_EDGE('',*,*,#319,.T.);
#409=ORIENTED_EDGE('',*,*,#320,.T.);
#410=ORIENTED_EDGE('',*,*,#321,.T.);
#411=ORIENTED_EDGE('',*,*,#322,.T.);
#412=ORIENTED_EDGE('',*,*,#323,.T.);
#413=ORIENTED_EDGE('',*,*,#324,.T.);
#414=ORIENTED_EDGE('',*,*,#325,.T.);
#415=ORIENTED_EDGE('',*,*,#326,.T.);
#416=ORIENTED_EDGE('',*,*,#327,.T.);
#417=ORIENTED_EDGE('',*,*,#328,.T.);
#418=ORIENTED_EDGE('',*,*,#329,.T.);
#419=ORIENTED_EDGE('',*,*,#330,.T.);
#420=ORIENTED_EDGE('',*,*,#331,.T.);
#421=ORIENTED_EDGE('',*,*,#332,.T.);
#422=ORIENTED_EDGE('',*,*,#333,.T.);
#423=ORIENTED_EDGE('',*,*,#334,.T.);
#424=ORIENTED_EDGE('',*,*,#335,.T.);
#425=ORIENTED_EDGE('',*,*,#336,.T.);
#426=ORIENTED_EDGE('',*,*,#337,.T.);
#427=ORIENTED_EDGE('',*,*,#338,.T.);
#428=ORIENTED_EDGE('',*,*,#339,.T.);
#429=ORIENTED_EDGE('',*,*,#340,.T.);
#430=ORIENTED_EDGE('',*,*,#341,.T.);
#431=ORIENTED_EDGE('',*,*,#342,.T.);
#432=ORIENTED_EDGE('',*,*,#343,.T.);
#433=ORIENTED_EDGE('',*,*,#344,.T.);
#434=ORIENTED_EDGE('',*,*,#345,.T.);
#435=ORIENTED_EDGE('',*,*,#346,.T.);
#436=ORIENTED_EDGE('',*,*,#347,.F.);
#437=ORIENTED_EDGE('',*,*,#348,.F.);
#438=ORIENTED_EDGE('',*,*,#333,.F.);
#439=ORIENTED_EDGE('',*,*,#349,.T.);
#440=ORIENTED_EDGE('',*,*,#350,.F.);
#441=ORIENTED_EDGE('',*,*,#346,.F.);
#442=ORIENTED_EDGE('',*,*,#332,.F.);
#443=ORIENTED_EDGE('',*,*,#351,.T.);
#444=ORIENTED_EDGE('',*,*,#352,.F.);
#445=ORIENTED_EDGE('',*,*,#349,.F.);
#446=ORIENTED_EDGE('',*,*,#331,.F.);
#447=ORIENTED_EDGE('',*,*,#353,.T.);
#448=ORIENTED_EDGE('',*,*,#354,.F.);
#449=ORIENTED_EDGE('',*,*,#351,.F.);
#450=ORIENTED_EDGE('',*,*,#330,.F.);
#451=ORIENTED_EDGE('',*,*,#355,.T.);
#452=ORIENTED_EDGE('',*,*,#356,.F.);
#453=ORIENTED_EDGE('',*,*,#353,.F.);
#454=ORIENTED_EDGE('',*,*,#329,.F.);
#455=ORIENTED_EDGE('',*,*,#357,.T.);
#456=ORIENTED_EDGE('',*,*,#358,.F.);
#457=ORIENTED_EDGE('',*,*,#355,.F.);
#458=ORIENTED_EDGE('',*,*,#328,.F.);
#459=ORIENTED_EDGE('',*,*,#359,.T.);
#460=ORIENTED_EDGE('',*,*,#360,.F.);
#461=ORIENTED_EDGE('',*,*,#357,.F.);
#462=ORIENTED_EDGE('',*,*,#327,.F.);
#463=ORIENTED_EDGE('',*,*,#361,.T.);
#464=ORIENTED_EDGE('',*,*,#362,.F.);
#465=ORIENTED_EDGE('',*,*,#359,.F.);
#466=ORIENTED_EDGE('',*,*,#326,.F.);
#467=ORIENTED_EDGE('',*,*,#363,.T.);
#468=ORIENTED_EDGE('',*,*,#364,.F.);
#469=ORIENTED_EDGE('',*,*,#361,.F.);
#470=ORIENTED_EDGE('',*,*,#325,.F.);
#471=ORIENTED_EDGE('',*,*,#365,.T.);
#472=ORIENTED_EDGE('',*,*,#366,.F.);
#473=ORIENTED_EDGE('',*,*,#363,.F.);
#474=ORIENTED_EDGE('',*,*,#324,.F.);
#475=ORIENTED_EDGE('',*,*,#367,.T.);
#476=ORIENTED_EDGE('',*,*,#368,.F.);
#477=ORIENTED_EDGE('',*,*,#365,.F.);
#478=ORIENTED_EDGE('',*,*,#323,.F.);
#479=ORIENTED_EDGE('',*,*,#369,.T.);
#480=ORIENTED_EDGE('',*,*,#370,.F.);
#481=ORIENTED_EDGE('',*,*,#367,.F.);
#482=ORIENTED_EDGE('',*,*,#322,.F.);
#483=ORIENTED_EDGE('',*,*,#371,.F.);
#484=ORIENTED_EDGE('',*,*,#372,.T.);
#485=ORIENTED_EDGE('',*,*,#373,.F.);
#486=ORIENTED_EDGE('',*,*,#372,.F.);
#487=ORIENTED_EDGE('',*,*,#373,.T.);
#488=ORIENTED_EDGE('',*,*,#374,.T.);
#489=ORIENTED_EDGE('',*,*,#374,.F.);
#490=ORIENTED_EDGE('',*,*,#375,.T.);
#491=ORIENTED_EDGE('',*,*,#342,.F.);
#492=ORIENTED_EDGE('',*,*,#375,.F.);
#493=ORIENTED_EDGE('',*,*,#376,.F.);
#494=ORIENTED_EDGE('',*,*,#377,.T.);
#495=ORIENTED_EDGE('',*,*,#344,.F.);
#496=ORIENTED_EDGE('',*,*,#377,.F.);
#497=ORIENTED_EDGE('',*,*,#378,.F.);
#498=ORIENTED_EDGE('',*,*,#379,.T.);
#499=ORIENTED_EDGE('',*,*,#345,.F.);
#500=ORIENTED_EDGE('',*,*,#379,.F.);
#501=ORIENTED_EDGE('',*,*,#380,.F.);
#502=ORIENTED_EDGE('',*,*,#381,.T.);
#503=ORIENTED_EDGE('',*,*,#343,.F.);
#504=ORIENTED_EDGE('',*,*,#381,.F.);
#505=ORIENTED_EDGE('',*,*,#382,.T.);
#506=ORIENTED_EDGE('',*,*,#383,.F.);
#507=ORIENTED_EDGE('',*,*,#369,.F.);
#508=ORIENTED_EDGE('',*,*,#321,.F.);
#509=ORIENTED_EDGE('',*,*,#384,.F.);
#510=ORIENTED_EDGE('',*,*,#348,.T.);
#511=ORIENTED_EDGE('',*,*,#385,.F.);
#512=ORIENTED_EDGE('',*,*,#386,.F.);
#513=ORIENTED_EDGE('',*,*,#334,.F.);
#514=ORIENTED_EDGE('',*,*,#386,.T.);
#515=ORIENTED_EDGE('',*,*,#387,.F.);
#516=ORIENTED_EDGE('',*,*,#388,.F.);
#517=ORIENTED_EDGE('',*,*,#335,.F.);
#518=ORIENTED_EDGE('',*,*,#388,.T.);
#519=ORIENTED_EDGE('',*,*,#389,.F.);
#520=ORIENTED_EDGE('',*,*,#390,.F.);
#521=ORIENTED_EDGE('',*,*,#336,.F.);
#522=ORIENTED_EDGE('',*,*,#390,.T.);
#523=ORIENTED_EDGE('',*,*,#391,.F.);
#524=ORIENTED_EDGE('',*,*,#392,.F.);
#525=ORIENTED_EDGE('',*,*,#337,.F.);
#526=ORIENTED_EDGE('',*,*,#392,.T.);
#527=ORIENTED_EDGE('',*,*,#393,.F.);
#528=ORIENTED_EDGE('',*,*,#394,.F.);
#529=ORIENTED_EDGE('',*,*,#338,.F.);
#530=ORIENTED_EDGE('',*,*,#394,.T.);
#531=ORIENTED_EDGE('',*,*,#395,.F.);
#532=ORIENTED_EDGE('',*,*,#396,.F.);
#533=ORIENTED_EDGE('',*,*,#339,.F.);
#534=ORIENTED_EDGE('',*,*,#396,.T.);
#535=ORIENTED_EDGE('',*,*,#397,.F.);
#536=ORIENTED_EDGE('',*,*,#398,.F.);
#537=ORIENTED_EDGE('',*,*,#399,.T.);
#538=ORIENTED_EDGE('',*,*,#340,.F.);
#539=ORIENTED_EDGE('',*,*,#398,.T.);
#540=ORIENTED_EDGE('',*,*,#400,.F.);
#541=ORIENTED_EDGE('',*,*,#401,.F.);
#542=ORIENTED_EDGE('',*,*,#341,.F.);
#543=ORIENTED_EDGE('',*,*,#399,.F.);
#544=ORIENTED_EDGE('',*,*,#401,.T.);
#545=ORIENTED_EDGE('',*,*,#402,.F.);
#546=ORIENTED_EDGE('',*,*,#403,.F.);
#547=ORIENTED_EDGE('',*,*,#318,.F.);
#548=ORIENTED_EDGE('',*,*,#403,.T.);
#549=ORIENTED_EDGE('',*,*,#404,.F.);
#550=ORIENTED_EDGE('',*,*,#405,.F.);
#551=ORIENTED_EDGE('',*,*,#319,.F.);
#552=ORIENTED_EDGE('',*,*,#405,.T.);
#553=ORIENTED_EDGE('',*,*,#406,.F.);
#554=ORIENTED_EDGE('',*,*,#382,.F.);
#555=ORIENTED_EDGE('',*,*,#384,.T.);
#556=ORIENTED_EDGE('',*,*,#320,.F.);
#557=ORIENTED_EDGE('',*,*,#406,.T.);
#558=ORIENTED_EDGE('',*,*,#404,.T.);
#559=ORIENTED_EDGE('',*,*,#402,.T.);
#560=ORIENTED_EDGE('',*,*,#400,.T.);
#561=ORIENTED_EDGE('',*,*,#397,.T.);
#562=ORIENTED_EDGE('',*,*,#395,.T.);
#563=ORIENTED_EDGE('',*,*,#393,.T.);
#564=ORIENTED_EDGE('',*,*,#391,.T.);
#565=ORIENTED_EDGE('',*,*,#389,.T.);
#566=ORIENTED_EDGE('',*,*,#387,.T.);
#567=ORIENTED_EDGE('',*,*,#385,.T.);
#568=ORIENTED_EDGE('',*,*,#347,.T.);
#569=ORIENTED_EDGE('',*,*,#350,.T.);
#570=ORIENTED_EDGE('',*,*,#352,.T.);
#571=ORIENTED_EDGE('',*,*,#354,.T.);
#572=ORIENTED_EDGE('',*,*,#356,.T.);
#573=ORIENTED_EDGE('',*,*,#358,.T.);
#574=ORIENTED_EDGE('',*,*,#360,.T.);
#575=ORIENTED_EDGE('',*,*,#362,.T.);
#576=ORIENTED_EDGE('',*,*,#364,.T.);
#577=ORIENTED_EDGE('',*,*,#366,.T.);
#578=ORIENTED_EDGE('',*,*,#368,.T.);
#579=ORIENTED_EDGE('',*,*,#370,.T.);
#580=ORIENTED_EDGE('',*,*,#383,.T.);
#581=ORIENTED_EDGE('',*,*,#371,.T.);
#582=ORIENTED_EDGE('',*,*,#380,.T.);
#583=ORIENTED_EDGE('',*,*,#378,.T.);
#584=ORIENTED_EDGE('',*,*,#376,.T.);
#585=PLANE('',#646);
#586=PLANE('',#665);
#587=PLANE('',#668);
#588=PLANE('',#671);
#589=PLANE('',#674);
#590=PLANE('',#677);
#591=PLANE('',#680);
#592=PLANE('',#684);
#593=PLANE('',#695);
#594=PLANE('',#698);
#595=PLANE('',#701);
#596=PLANE('',#704);
#597=PLANE('',#707);
#598=PLANE('',#710);
#599=PLANE('',#711);
#600=ADVANCED_FACE('',(#41,#32,#33,#34,#35),#585,.T.);
#601=ADVANCED_FACE('',(#42),#15,.F.);
#602=ADVANCED_FACE('',(#43),#586,.T.);
#603=ADVANCED_FACE('',(#44),#16,.T.);
#604=ADVANCED_FACE('',(#45),#587,.T.);
#605=ADVANCED_FACE('',(#46),#17,.F.);
#606=ADVANCED_FACE('',(#47),#588,.T.);
#607=ADVANCED_FACE('',(#48),#18,.T.);
#608=ADVANCED_FACE('',(#49),#589,.T.);
#609=ADVANCED_FACE('',(#50),#19,.F.);
#610=ADVANCED_FACE('',(#51),#590,.T.);
#611=ADVANCED_FACE('',(#52),#20,.T.);
#612=ADVANCED_FACE('',(#53),#591,.T.);
#613=ADVANCED_FACE('',(#54),#21,.F.);
#614=ADVANCED_FACE('',(#55,#36),#592,.T.);
#615=ADVANCED_FACE('',(#56),#22,.F.);
#616=ADVANCED_FACE('',(#57),#23,.F.);
#617=ADVANCED_FACE('',(#58),#24,.F.);
#618=ADVANCED_FACE('',(#59),#25,.F.);
#619=ADVANCED_FACE('',(#60),#26,.F.);
#620=ADVANCED_FACE('',(#61),#593,.T.);
#621=ADVANCED_FACE('',(#62),#27,.T.);
#622=ADVANCED_FACE('',(#63),#594,.T.);
#623=ADVANCED_FACE('',(#64),#28,.F.);
#624=ADVANCED_FACE('',(#65),#595,.T.);
#625=ADVANCED_FACE('',(#66),#29,.T.);
#626=ADVANCED_FACE('',(#67),#596,.T.);
#627=ADVANCED_FACE('',(#68),#30,.F.);
#628=ADVANCED_FACE('',(#69),#597,.T.);
#629=ADVANCED_FACE('',(#70),#31,.T.);
#630=ADVANCED_FACE('',(#71),#598,.T.);
#631=ADVANCED_FACE('',(#72,#37,#38,#39,#40),#599,.T.);
#632=CLOSED_SHELL('',(#600,#601,#602,#603,#604,#605,#606,#607,#608,#609,
#610,#611,#612,#613,#614,#615,#616,#617,#618,#619,#620,#621,#622,#623,#624,
#625,#626,#627,#628,#629,#630,#631));
#633=DERIVED_UNIT_ELEMENT(#635,1.);
#634=DERIVED_UNIT_ELEMENT(#1090,-3.);
#635=(
MASS_UNIT()
NAMED_UNIT(*)
SI_UNIT(.KILO.,.GRAM.)
);
#636=DERIVED_UNIT((#633,#634));
#637=MEASURE_REPRESENTATION_ITEM('density measure',
POSITIVE_RATIO_MEASURE(7850.),#636);
#638=PROPERTY_DEFINITION_REPRESENTATION(#643,#640);
#639=PROPERTY_DEFINITION_REPRESENTATION(#644,#641);
#640=REPRESENTATION('material name',(#642),#1085);
#641=REPRESENTATION('density',(#637),#1085);
#642=DESCRIPTIVE_REPRESENTATION_ITEM('Steel','Steel');
#643=PROPERTY_DEFINITION('material property','material name',#1098);
#644=PROPERTY_DEFINITION('material property','density of part',#1098);
#645=AXIS2_PLACEMENT_3D('',#901,#712,#713);
#646=AXIS2_PLACEMENT_3D('',#902,#714,#715);
#647=AXIS2_PLACEMENT_3D('',#907,#717,#718);
#648=AXIS2_PLACEMENT_3D('',#911,#720,#721);
#649=AXIS2_PLACEMENT_3D('',#915,#723,#724);
#650=AXIS2_PLACEMENT_3D('',#919,#726,#727);
#651=AXIS2_PLACEMENT_3D('',#923,#729,#730);
#652=AXIS2_PLACEMENT_3D('',#927,#732,#733);
#653=AXIS2_PLACEMENT_3D('',#931,#735,#736);
#654=AXIS2_PLACEMENT_3D('',#935,#738,#739);
#655=AXIS2_PLACEMENT_3D('',#939,#741,#742);
#656=AXIS2_PLACEMENT_3D('',#943,#744,#745);
#657=AXIS2_PLACEMENT_3D('',#947,#747,#748);
#658=AXIS2_PLACEMENT_3D('',#950,#750,#751);
#659=AXIS2_PLACEMENT_3D('',#952,#752,#753);
#660=AXIS2_PLACEMENT_3D('',#954,#754,#755);
#661=AXIS2_PLACEMENT_3D('',#956,#756,#757);
#662=AXIS2_PLACEMENT_3D('',#958,#758,#759);
#663=AXIS2_PLACEMENT_3D('',#959,#760,#761);
#664=AXIS2_PLACEMENT_3D('',#963,#763,#764);
#665=AXIS2_PLACEMENT_3D('',#965,#766,#767);
#666=AXIS2_PLACEMENT_3D('',#969,#770,#771);
#667=AXIS2_PLACEMENT_3D('',#972,#773,#774);
#668=AXIS2_PLACEMENT_3D('',#973,#775,#776);
#669=AXIS2_PLACEMENT_3D('',#977,#779,#780);
#670=AXIS2_PLACEMENT_3D('',#980,#782,#783);
#671=AXIS2_PLACEMENT_3D('',#981,#784,#785);
#672=AXIS2_PLACEMENT_3D('',#985,#788,#789);
#673=AXIS2_PLACEMENT_3D('',#988,#791,#792);
#674=AXIS2_PLACEMENT_3D('',#989,#793,#794);
#675=AXIS2_PLACEMENT_3D('',#993,#797,#798);
#676=AXIS2_PLACEMENT_3D('',#996,#800,#801);
#677=AXIS2_PLACEMENT_3D('',#997,#802,#803);
#678=AXIS2_PLACEMENT_3D('',#1001,#806,#807);
#679=AXIS2_PLACEMENT_3D('',#1004,#809,#810);
#680=AXIS2_PLACEMENT_3D('',#1005,#811,#812);
#681=AXIS2_PLACEMENT_3D('',#1009,#815,#816);
#682=AXIS2_PLACEMENT_3D('',#1011,#817,#818);
#683=AXIS2_PLACEMENT_3D('',#1014,#820,#821);
#684=AXIS2_PLACEMENT_3D('',#1015,#822,#823);
#685=AXIS2_PLACEMENT_3D('',#1017,#824,#825);
#686=AXIS2_PLACEMENT_3D('',#1018,#826,#827);
#687=AXIS2_PLACEMENT_3D('',#1020,#829,#830);
#688=AXIS2_PLACEMENT_3D('',#1022,#831,#832);
#689=AXIS2_PLACEMENT_3D('',#1024,#834,#835);
#690=AXIS2_PLACEMENT_3D('',#1026,#836,#837);
#691=AXIS2_PLACEMENT_3D('',#1028,#839,#840);
#692=AXIS2_PLACEMENT_3D('',#1030,#841,#842);
#693=AXIS2_PLACEMENT_3D('',#1032,#844,#845);
#694=AXIS2_PLACEMENT_3D('',#1036,#847,#848);
#695=AXIS2_PLACEMENT_3D('',#1038,#850,#851);
#696=AXIS2_PLACEMENT_3D('',#1042,#854,#855);
#697=AXIS2_PLACEMENT_3D('',#1044,#856,#857);
#698=AXIS2_PLACEMENT_3D('',#1046,#859,#860);
#699=AXIS2_PLACEMENT_3D('',#1050,#863,#864);
#700=AXIS2_PLACEMENT_3D('',#1052,#865,#866);
#701=AXIS2_PLACEMENT_3D('',#1054,#868,#869);
#702=AXIS2_PLACEMENT_3D('',#1058,#872,#873);
#703=AXIS2_PLACEMENT_3D('',#1060,#874,#875);
#704=AXIS2_PLACEMENT_3D('',#1062,#877,#878);
#705=AXIS2_PLACEMENT_3D('',#1068,#882,#883);
#706=AXIS2_PLACEMENT_3D('',#1070,#884,#885);
#707=AXIS2_PLACEMENT_3D('',#1072,#887,#888);
#708=AXIS2_PLACEMENT_3D('',#1076,#891,#892);
#709=AXIS2_PLACEMENT_3D('',#1078,#893,#894);
#710=AXIS2_PLACEMENT_3D('',#1080,#896,#897);
#711=AXIS2_PLACEMENT_3D('',#1082,#899,#900);
#712=DIRECTION('axis',(0.,0.,1.));
#713=DIRECTION('refdir',(1.,0.,0.));
#714=DIRECTION('center_axis',(0.,-1.,0.));
#715=DIRECTION('ref_axis',(1.,0.,0.));
#716=DIRECTION('',(-0.866025403784438,0.,0.500000000000001));
#717=DIRECTION('center_axis',(0.,-1.,0.));
#718=DIRECTION('ref_axis',(-0.897183962899117,0.,0.441657035171677));
#719=DIRECTION('',(0.866025403784439,0.,0.5));
#720=DIRECTION('center_axis',(0.,1.,0.));
#721=DIRECTION('ref_axis',(0.499999999999909,0.,-0.866025403784491));
#722=DIRECTION('',(-0.866025403784439,0.,-0.499999999999999));
#723=DIRECTION('center_axis',(0.,-1.,0.));
#724=DIRECTION('ref_axis',(-0.831078193668348,0.,-0.556155586152792));
#725=DIRECTION('',(-3.80841854155515E-16,0.,1.));
#726=DIRECTION('center_axis',(0.,1.,0.));
#727=DIRECTION('ref_axis',(1.,0.,-1.05793048703007E-13));
#728=DIRECTION('',(0.,0.,-1.));
#729=DIRECTION('center_axis',(0.,-1.,0.));
#730=DIRECTION('ref_axis',(0.0661057692307691,0.,-0.997812621324469));
#731=DIRECTION('',(-0.86602540378444,0.,0.499999999999997));
#732=DIRECTION('center_axis',(0.,1.,0.));
#733=DIRECTION('ref_axis',(0.499999987095303,0.,0.866025411234969));
#734=DIRECTION('',(0.866025403784444,0.,-0.499999999999991));
#735=DIRECTION('center_axis',(0.,-1.,0.));
#736=DIRECTION('ref_axis',(0.897183962899118,0.,-0.441657035171675));
#737=DIRECTION('',(-0.866025403784437,0.,-0.500000000000004));
#738=DIRECTION('center_axis',(0.,1.,0.));
#739=DIRECTION('ref_axis',(-0.499999999999912,0.,0.86602540378449));
#740=DIRECTION('',(0.866025403784437,0.,0.500000000000003));
#741=DIRECTION('center_axis',(0.,-1.,0.));
#742=DIRECTION('ref_axis',(0.831078193668347,0.,0.556155586152793));
#743=DIRECTION('',(1.26947284718505E-16,0.,-1.));
#744=DIRECTION('center_axis',(0.,1.,0.));
#745=DIRECTION('ref_axis',(-1.,0.,1.01724085291353E-13));
#746=DIRECTION('',(3.17368211796295E-15,0.,1.));
#747=DIRECTION('center_axis',(0.,-1.,0.));
#748=DIRECTION('ref_axis',(-0.0661057692307688,0.,0.997812621324469));
#749=DIRECTION('',(0.866025403784438,0.,-0.500000000000001));
#750=DIRECTION('center_axis',(0.,1.,0.));
#751=DIRECTION('ref_axis',(-0.499999987095304,0.,-0.866025411234968));
#752=DIRECTION('center_axis',(0.,1.,0.));
#753=DIRECTION('ref_axis',(-1.,0.,1.3684555315672E-48));
#754=DIRECTION('center_axis',(0.,1.,0.));
#755=DIRECTION('ref_axis',(1.,0.,0.));
#756=DIRECTION('center_axis',(0.,1.,0.));
#757=DIRECTION('ref_axis',(1.,0.,0.));
#758=DIRECTION('center_axis',(0.,1.,0.));
#759=DIRECTION('ref_axis',(1.,0.,0.));
#760=DIRECTION('center_axis',(0.,1.,0.));
#761=DIRECTION('ref_axis',(0.499999999999911,0.,-0.86602540378449));
#762=DIRECTION('',(0.,1.,0.));
#763=DIRECTION('center_axis',(0.,-1.,0.));
#764=DIRECTION('ref_axis',(0.499999999999911,0.,-0.86602540378449));
#765=DIRECTION('',(0.,1.,0.));
#766=DIRECTION('center_axis',(-0.500000000000001,0.,0.866025403784438));
#767=DIRECTION('ref_axis',(0.866025403784438,0.,0.500000000000001));
#768=DIRECTION('',(0.,1.,0.));
#769=DIRECTION('',(0.866025403784438,0.,0.500000000000001));
#770=DIRECTION('center_axis',(0.,1.,0.));
#771=DIRECTION('ref_axis',(1.,0.,1.65389215948552E-15));
#772=DIRECTION('',(0.,1.,0.));
#773=DIRECTION('center_axis',(0.,1.,0.));
#774=DIRECTION('ref_axis',(-1.,0.,0.));
#775=DIRECTION('center_axis',(-0.499999999999996,0.,-0.866025403784441));
#776=DIRECTION('ref_axis',(-0.866025403784441,0.,0.499999999999996));
#777=DIRECTION('',(0.,1.,0.));
#778=DIRECTION('',(-0.866025403784441,0.,0.499999999999996));
#779=DIRECTION('center_axis',(0.,1.,0.));
#780=DIRECTION('ref_axis',(-0.500000000000089,0.,-0.866025403784388));
#781=DIRECTION('',(0.,1.,0.));
#782=DIRECTION('center_axis',(0.,-1.,0.));
#783=DIRECTION('ref_axis',(-0.500000000000089,0.,-0.866025403784388));
#784=DIRECTION('center_axis',(0.499999999999999,0.,0.866025403784439));
#785=DIRECTION('ref_axis',(0.866025403784439,0.,-0.499999999999999));
#786=DIRECTION('',(0.,1.,0.));
#787=DIRECTION('',(0.866025403784439,0.,-0.499999999999999));
#788=DIRECTION('center_axis',(0.,1.,0.));
#789=DIRECTION('ref_axis',(-1.,0.,0.));
#790=DIRECTION('',(0.,1.,0.));
#791=DIRECTION('center_axis',(0.,1.,0.));
#792=DIRECTION('ref_axis',(-1.,0.,0.));
#793=DIRECTION('center_axis',(-1.,0.,1.39642013190363E-15));
#794=DIRECTION('ref_axis',(1.39642013190362E-15,0.,1.));
#795=DIRECTION('',(0.,1.,0.));
#796=DIRECTION('',(1.39642013190362E-15,0.,1.));
#797=DIRECTION('center_axis',(0.,1.,0.));
#798=DIRECTION('ref_axis',(-1.,0.,1.0375856699718E-13));
#799=DIRECTION('',(0.,1.,0.));
#800=DIRECTION('center_axis',(0.,-1.,0.));
#801=DIRECTION('ref_axis',(-1.,0.,1.0375856699718E-13));
#802=DIRECTION('center_axis',(1.,0.,0.));
#803=DIRECTION('ref_axis',(0.,0.,-1.));
#804=DIRECTION('',(0.,1.,0.));
#805=DIRECTION('',(0.,0.,-1.));
#806=DIRECTION('center_axis',(0.,1.,0.));
#807=DIRECTION('ref_axis',(-1.,0.,0.));
#808=DIRECTION('',(0.,1.,0.));
#809=DIRECTION('center_axis',(0.,1.,0.));
#810=DIRECTION('ref_axis',(-1.,0.,0.));
#811=DIRECTION('center_axis',(-0.5,0.,0.866025403784439));
#812=DIRECTION('ref_axis',(0.866025403784439,0.,0.5));
#813=DIRECTION('',(0.,1.,0.));
#814=DIRECTION('',(0.866025403784439,0.,0.5));
#815=DIRECTION('center_axis',(0.,1.,0.));
#816=DIRECTION('ref_axis',(-1.,0.,0.));
#817=DIRECTION('center_axis',(0.,-1.,0.));
#818=DIRECTION('ref_axis',(-1.,0.,0.));
#819=DIRECTION('',(0.,-1.,0.));
#820=DIRECTION('center_axis',(1.23259516440783E-32,1.,-1.11022302462516E-16));
#821=DIRECTION('ref_axis',(-1.,0.,0.));
#822=DIRECTION('center_axis',(1.23259516440783E-32,1.,-1.11022302462516E-16));
#823=DIRECTION('ref_axis',(1.,1.97215226305253E-31,1.88737914186277E-15));
#824=DIRECTION('center_axis',(-1.23259516440783E-32,-1.,1.11022302462516E-16));
#825=DIRECTION('ref_axis',(-1.,0.,1.3684555315672E-48));
#826=DIRECTION('center_axis',(0.,-1.,1.11022302462516E-16));
#827=DIRECTION('ref_axis',(-1.,0.,1.3684555315672E-48));
#828=DIRECTION('',(0.,-1.,1.11022302462516E-16));
#829=DIRECTION('center_axis',(0.,1.,0.));
#830=DIRECTION('ref_axis',(-1.,0.,0.));
#831=DIRECTION('center_axis',(0.,-1.,0.));
#832=DIRECTION('ref_axis',(-1.,0.,0.));
#833=DIRECTION('',(0.,-1.,0.));
#834=DIRECTION('center_axis',(0.,1.,0.));
#835=DIRECTION('ref_axis',(-1.,0.,0.));
#836=DIRECTION('center_axis',(0.,-1.,0.));
#837=DIRECTION('ref_axis',(-1.,0.,0.));
#838=DIRECTION('',(0.,-1.,0.));
#839=DIRECTION('center_axis',(0.,1.,0.));
#840=DIRECTION('ref_axis',(-1.,0.,0.));
#841=DIRECTION('center_axis',(0.,-1.,0.));
#842=DIRECTION('ref_axis',(-1.,0.,0.));
#843=DIRECTION('',(0.,-1.,0.));
#844=DIRECTION('center_axis',(0.,1.,0.));
#845=DIRECTION('ref_axis',(-0.499999999999908,0.,0.866025403784492));
#846=DIRECTION('',(0.,1.,0.));
#847=DIRECTION('center_axis',(0.,-1.,0.));
#848=DIRECTION('ref_axis',(-0.499999999999908,0.,0.866025403784492));
#849=DIRECTION('',(0.,-1.,0.));
#850=DIRECTION('center_axis',(0.500000000000004,0.,-0.866025403784437));
#851=DIRECTION('ref_axis',(-0.866025403784437,0.,-0.500000000000004));
#852=DIRECTION('',(-0.866025403784437,0.,-0.500000000000004));
#853=DIRECTION('',(0.,1.,0.));
#854=DIRECTION('center_axis',(0.,1.,0.));
#855=DIRECTION('ref_axis',(-1.,0.,0.));
#856=DIRECTION('center_axis',(0.,1.,0.));
#857=DIRECTION('ref_axis',(-1.,0.,0.));
#858=DIRECTION('',(0.,1.,0.));
#859=DIRECTION('center_axis',(-1.,0.,-1.90420927077758E-16));
#860=DIRECTION('ref_axis',(-1.90420927077758E-16,0.,1.));
#861=DIRECTION('',(-1.90420927077758E-16,0.,1.));
#862=DIRECTION('',(0.,1.,0.));
#863=DIRECTION('center_axis',(0.,1.,0.));
#864=DIRECTION('ref_axis',(1.,0.,-1.0375856699718E-13));
#865=DIRECTION('center_axis',(0.,-1.,0.));
#866=DIRECTION('ref_axis',(1.,0.,-1.0375856699718E-13));
#867=DIRECTION('',(0.,1.,0.));
#868=DIRECTION('center_axis',(1.,0.,-3.23715576032204E-15));
#869=DIRECTION('ref_axis',(-3.23715576032204E-15,0.,-1.));
#870=DIRECTION('',(-3.23715576032204E-15,0.,-1.));
#871=DIRECTION('',(0.,1.,0.));
#872=DIRECTION('center_axis',(0.,1.,0.));
#873=DIRECTION('ref_axis',(-1.,0.,0.));
#874=DIRECTION('center_axis',(0.,1.,0.));
#875=DIRECTION('ref_axis',(-1.,0.,0.));
#876=DIRECTION('',(0.,1.,0.));
#877=DIRECTION('center_axis',(-0.5,0.,-0.866025403784439));
#878=DIRECTION('ref_axis',(-0.866025403784438,0.,0.5));
#879=DIRECTION('',(-0.866025403784438,0.,0.5));
#880=DIRECTION('',(0.,1.,0.));
#881=DIRECTION('',(0.,-1.,0.));
#882=DIRECTION('center_axis',(0.,1.,0.));
#883=DIRECTION('ref_axis',(0.500000000000089,0.,0.866025403784388));
#884=DIRECTION('center_axis',(0.,-1.,0.));
#885=DIRECTION('ref_axis',(0.500000000000089,0.,0.866025403784388));
#886=DIRECTION('',(0.,1.,0.));
#887=DIRECTION('center_axis',(0.5,0.,0.866025403784439));
#888=DIRECTION('ref_axis',(0.866025403784439,0.,-0.5));
#889=DIRECTION('',(0.866025403784439,0.,-0.5));
#890=DIRECTION('',(0.,1.,0.));
#891=DIRECTION('center_axis',(0.,1.,0.));
#892=DIRECTION('ref_axis',(-1.,0.,0.));
#893=DIRECTION('center_axis',(0.,1.,0.));
#894=DIRECTION('ref_axis',(-1.,0.,0.));
#895=DIRECTION('',(0.,1.,0.));
#896=DIRECTION('center_axis',(0.5,0.,-0.866025403784438));
#897=DIRECTION('ref_axis',(-0.866025403784438,0.,-0.5));
#898=DIRECTION('',(-0.866025403784438,0.,-0.5));
#899=DIRECTION('center_axis',(0.,1.,0.));
#900=DIRECTION('ref_axis',(-1.,0.,0.));
#901=CARTESIAN_POINT('',(0.,0.,0.));
#902=CARTESIAN_POINT('Origin',(-2.46286101511914E-33,0.,6.99353086378051E-16));
#903=CARTESIAN_POINT('',(-2.03449471848383,0.,0.976151918347575));
#904=CARTESIAN_POINT('',(-2.3326783035377,0.,1.14830829144636));
#905=CARTESIAN_POINT('',(-2.03449471848383,0.,0.976151918347575));
#906=CARTESIAN_POINT('',(-2.3326783035377,0.,-1.14830829144636));
#907=CARTESIAN_POINT('Origin',(-2.46286101511914E-33,0.,0.));
#908=CARTESIAN_POINT('',(-2.03449472291981,0.,-0.976151920908695));
#909=CARTESIAN_POINT('',(-2.3326783035377,0.,-1.14830829144636));
#910=CARTESIAN_POINT('',(-1.86261972070184,0.,-1.27384815217904));
#911=CARTESIAN_POINT('Origin',(-1.94855722070182,0.,-1.12500003590359));
#912=CARTESIAN_POINT('',(-2.16080330353771,0.,-1.44600452399726));
#913=CARTESIAN_POINT('',(-1.86261972070184,0.,-1.27384815217904));
#914=CARTESIAN_POINT('',(-0.171875,0.,-2.59431281544362));
#915=CARTESIAN_POINT('Origin',(-2.46286101511914E-33,0.,0.));
#916=CARTESIAN_POINT('',(-0.171875000000001,0.,-2.25000007180715));
#917=CARTESIAN_POINT('',(-0.171875,0.,-2.59431281544362));
#918=CARTESIAN_POINT('',(0.171875,0.,-2.25000007180719));
#919=CARTESIAN_POINT('Origin',(-7.86772222175308E-16,0.,-2.25000007180717));
#920=CARTESIAN_POINT('',(0.171875,0.,-2.59431281544362));
#921=CARTESIAN_POINT('',(0.171875,0.,-2.25000007180719));
#922=CARTESIAN_POINT('',(2.16080330353771,0.,-1.44600452399726));
#923=CARTESIAN_POINT('Origin',(-2.46286101511914E-33,0.,0.));
#924=CARTESIAN_POINT('',(1.86261972070181,0.,-1.27384815217902));
#925=CARTESIAN_POINT('',(2.16080330353771,0.,-1.44600452399726));
#926=CARTESIAN_POINT('',(2.03449471848383,0.,-0.976151918347574));
#927=CARTESIAN_POINT('Origin',(1.94855722070182,0.,-1.12500003590358));
#928=CARTESIAN_POINT('',(2.33267830353771,0.,-1.14830829144636));
#929=CARTESIAN_POINT('',(2.03449471848383,0.,-0.976151918347574));
#930=CARTESIAN_POINT('',(2.3326783035377,0.,1.14830829144636));
#931=CARTESIAN_POINT('Origin',(-2.46286101511914E-33,0.,0.));
#932=CARTESIAN_POINT('',(2.0344947207018,0.,0.976151919628128));
#933=CARTESIAN_POINT('',(2.3326783035377,0.,1.14830829144636));
#934=CARTESIAN_POINT('',(1.86261972070184,0.,1.27384815217905));
#935=CARTESIAN_POINT('Origin',(1.94855722070182,0.,1.12500003590359));
#936=CARTESIAN_POINT('',(2.1608033035377,0.,1.44600452399726));
#937=CARTESIAN_POINT('',(1.86261972070184,0.,1.27384815217905));
#938=CARTESIAN_POINT('',(0.171875,0.,2.59431281544362));
#939=CARTESIAN_POINT('Origin',(-2.46286101511914E-33,0.,0.));
#940=CARTESIAN_POINT('',(0.171875,0.,2.25000007180715));
#941=CARTESIAN_POINT('',(0.171875,0.,2.59431281544362));
#942=CARTESIAN_POINT('',(-0.171875,0.,2.25000007180719));
#943=CARTESIAN_POINT('Origin',(-1.74838271594513E-16,0.,2.25000007180717));
#944=CARTESIAN_POINT('',(-0.171874999999999,0.,2.59431281544362));
#945=CARTESIAN_POINT('',(-0.171875,0.,2.25000007180719));
#946=CARTESIAN_POINT('',(-2.16080330353771,0.,1.44600452399726));
#947=CARTESIAN_POINT('Origin',(-2.46286101511914E-33,0.,0.));
#948=CARTESIAN_POINT('',(-1.86261971907811,0.,1.27384815124159));
#949=CARTESIAN_POINT('',(-2.16080330353771,0.,1.44600452399726));
#950=CARTESIAN_POINT('Origin',(-1.94855722070182,0.,1.12500003590359));
#951=CARTESIAN_POINT('',(0.1375,0.,0.));
#952=CARTESIAN_POINT('Origin',(0.,0.,0.));
#953=CARTESIAN_POINT('',(2.45866141732283,0.,-7.24906740061047E-16));
#954=CARTESIAN_POINT('Origin',(2.25,0.,-6.99353086378051E-16));
#955=CARTESIAN_POINT('',(-0.916338582677165,0.,-1.94855715851499));
#956=CARTESIAN_POINT('Origin',(-1.125,0.,-1.94855715851499));
#957=CARTESIAN_POINT('',(-0.916338582677165,0.,1.94855715851499));
#958=CARTESIAN_POINT('Origin',(-1.125,0.,1.94855715851499));
#959=CARTESIAN_POINT('Origin',(1.94855722070182,0.05,1.12500003590359));
#960=CARTESIAN_POINT('',(2.0344947207018,0.55,0.976151919628127));
#961=CARTESIAN_POINT('',(2.0344947207018,0.05,0.976151919628127));
#962=CARTESIAN_POINT('',(1.86261972070184,0.55,1.27384815217905));
#963=CARTESIAN_POINT('Origin',(1.94855722070182,0.55,1.12500003590359));
#964=CARTESIAN_POINT('',(1.86261972070184,0.05,1.27384815217905));
#965=CARTESIAN_POINT('Origin',(2.0344947207018,0.05,0.976151919628127));
#966=CARTESIAN_POINT('',(2.3326783035377,0.55,1.14830829144636));
#967=CARTESIAN_POINT('',(2.3326783035377,0.05,1.14830829144636));
#968=CARTESIAN_POINT('',(2.0344947207018,0.55,0.976151919628127));
#969=CARTESIAN_POINT('Origin',(-2.46286101511914E-33,0.05,0.));
#970=CARTESIAN_POINT('',(2.33267830353771,0.55,-1.14830829144636));
#971=CARTESIAN_POINT('',(2.33267830353771,0.05,-1.14830829144636));
#972=CARTESIAN_POINT('Origin',(-2.46286101511914E-33,0.55,0.));
#973=CARTESIAN_POINT('Origin',(2.33267830353771,0.05,-1.14830829144636));
#974=CARTESIAN_POINT('',(2.03449471848383,0.55,-0.976151918347573));
#975=CARTESIAN_POINT('',(2.03449471848383,0.05,-0.976151918347573));
#976=CARTESIAN_POINT('',(2.33267830353771,0.55,-1.14830829144636));
#977=CARTESIAN_POINT('Origin',(1.94855722070182,0.05,-1.12500003590358));
#978=CARTESIAN_POINT('',(1.86261972070181,0.55,-1.27384815217902));
#979=CARTESIAN_POINT('',(1.86261972070181,0.05,-1.27384815217902));
#980=CARTESIAN_POINT('Origin',(1.94855722070182,0.55,-1.12500003590358));
#981=CARTESIAN_POINT('Origin',(1.86261972070181,0.05,-1.27384815217902));
#982=CARTESIAN_POINT('',(2.16080330353771,0.55,-1.44600452399726));
#983=CARTESIAN_POINT('',(2.16080330353771,0.05,-1.44600452399726));
#984=CARTESIAN_POINT('',(1.86261972070181,0.55,-1.27384815217902));
#985=CARTESIAN_POINT('Origin',(-2.46286101511914E-33,0.05,0.));
#986=CARTESIAN_POINT('',(0.171875,0.55,-2.59431281544362));
#987=CARTESIAN_POINT('',(0.171875,0.05,-2.59431281544362));
#988=CARTESIAN_POINT('Origin',(-2.46286101511914E-33,0.55,0.));
#989=CARTESIAN_POINT('Origin',(0.171874999999999,0.05,-2.59431281544362));
#990=CARTESIAN_POINT('',(0.171875,0.55,-2.25000007180719));
#991=CARTESIAN_POINT('',(0.171875,0.05,-2.25000007180719));
#992=CARTESIAN_POINT('',(0.171874999999999,0.55,-2.59431281544362));
#993=CARTESIAN_POINT('Origin',(-8.74191357972564E-17,0.05,-2.25000007180717));
#994=CARTESIAN_POINT('',(-0.171875,0.55,-2.25000007180715));
#995=CARTESIAN_POINT('',(-0.171875,0.05,-2.25000007180715));
#996=CARTESIAN_POINT('Origin',(-8.74191357972564E-17,0.55,-2.25000007180717));
#997=CARTESIAN_POINT('Origin',(-0.171875,0.05,-2.25000007180715));
#998=CARTESIAN_POINT('',(-0.171875,0.55,-2.59431281544362));
#999=CARTESIAN_POINT('',(-0.171875,0.05,-2.59431281544362));
#1000=CARTESIAN_POINT('',(-0.171875,0.55,-2.25000007180715));
#1001=CARTESIAN_POINT('Origin',(-2.46286101511914E-33,0.05,0.));
#1002=CARTESIAN_POINT('',(-2.16080330353771,0.55,-1.44600452399726));
#1003=CARTESIAN_POINT('',(-2.1608033035377,0.05,-1.44600452399726));
#1004=CARTESIAN_POINT('Origin',(-2.46286101511914E-33,0.55,0.));
#1005=CARTESIAN_POINT('Origin',(-2.1608033035377,0.05,-1.44600452399726));
#1006=CARTESIAN_POINT('',(-1.86261972070184,0.55,-1.27384815217905));
#1007=CARTESIAN_POINT('',(-1.86261972070184,0.05,-1.27384815217905));
#1008=CARTESIAN_POINT('',(-2.1608033035377,0.55,-1.44600452399726));
#1009=CARTESIAN_POINT('Origin',(-2.46286101511914E-33,0.35,0.));
#1010=CARTESIAN_POINT('',(0.137795275590551,0.55,0.));
#1011=CARTESIAN_POINT('Origin',(-2.46286101511914E-33,0.55,0.));
#1012=CARTESIAN_POINT('',(0.137795275590551,0.549811023622047,0.));
#1013=CARTESIAN_POINT('',(0.137795275590551,0.35,-1.68750543189596E-17));
#1014=CARTESIAN_POINT('Origin',(-2.46286101511914E-33,0.549811023622047,
0.));
#1015=CARTESIAN_POINT('Origin',(1.99680416634072E-33,0.549811023622047,
0.));
#1016=CARTESIAN_POINT('',(0.1375,0.549811023622047,0.));
#1017=CARTESIAN_POINT('Origin',(0.,0.549811023622047,0.));
#1018=CARTESIAN_POINT('Origin',(0.,0.249811023622047,0.));
#1019=CARTESIAN_POINT('',(0.1375,0.249811023622047,1.68388934882761E-17));
#1020=CARTESIAN_POINT('Origin',(-1.125,0.05,-1.94855715851499));
#1021=CARTESIAN_POINT('',(-0.916338582677165,0.55,-1.94855715851499));
#1022=CARTESIAN_POINT('Origin',(-1.125,0.55,-1.94855715851499));
#1023=CARTESIAN_POINT('',(-0.916338582677165,0.05,-1.94855715851499));
#1024=CARTESIAN_POINT('Origin',(-1.125,0.05,1.94855715851499));
#1025=CARTESIAN_POINT('',(-0.916338582677165,0.55,1.94855715851499));
#1026=CARTESIAN_POINT('Origin',(-1.125,0.55,1.94855715851499));
#1027=CARTESIAN_POINT('',(-0.916338582677165,0.05,1.94855715851499));
#1028=CARTESIAN_POINT('Origin',(2.25,0.05,-6.99353086378051E-16));
#1029=CARTESIAN_POINT('',(2.45866141732283,0.55,-6.99353086378051E-16));
#1030=CARTESIAN_POINT('Origin',(2.25,0.55,-6.99353086378051E-16));
#1031=CARTESIAN_POINT('',(2.45866141732283,0.05,-7.24906740061047E-16));
#1032=CARTESIAN_POINT('Origin',(-1.94855722070182,0.05,-1.12500003590359));
#1033=CARTESIAN_POINT('',(-2.0344947207018,0.05,-0.976151919628126));
#1034=CARTESIAN_POINT('',(-2.0344947207018,0.55,-0.976151919628126));
#1035=CARTESIAN_POINT('',(-2.0344947207018,0.05,-0.976151919628126));
#1036=CARTESIAN_POINT('Origin',(-1.94855722070182,0.55,-1.12500003590359));
#1037=CARTESIAN_POINT('',(-2.03449472291981,0.05,-0.976151920908695));
#1038=CARTESIAN_POINT('Origin',(2.1608033035377,0.05,1.44600452399726));
#1039=CARTESIAN_POINT('',(2.1608033035377,0.55,1.44600452399726));
#1040=CARTESIAN_POINT('',(2.1608033035377,0.55,1.44600452399726));
#1041=CARTESIAN_POINT('',(2.1608033035377,0.05,1.44600452399726));
#1042=CARTESIAN_POINT('Origin',(-2.46286101511914E-33,0.05,0.));
#1043=CARTESIAN_POINT('',(0.171875,0.55,2.59431281544362));
#1044=CARTESIAN_POINT('Origin',(-2.46286101511914E-33,0.55,0.));
#1045=CARTESIAN_POINT('',(0.171875,0.05,2.59431281544362));
#1046=CARTESIAN_POINT('Origin',(0.171875,0.05,2.25000007180715));
#1047=CARTESIAN_POINT('',(0.171875,0.55,2.25000007180715));
#1048=CARTESIAN_POINT('',(0.171875,0.55,2.25000007180715));
#1049=CARTESIAN_POINT('',(0.171875,0.05,2.25000007180715));
#1050=CARTESIAN_POINT('Origin',(-1.8576566356917E-16,0.05,2.25000007180717));
#1051=CARTESIAN_POINT('',(-0.171875,0.55,2.25000007180719));
#1052=CARTESIAN_POINT('Origin',(-1.8576566356917E-16,0.55,2.25000007180717));
#1053=CARTESIAN_POINT('',(-0.171875,0.05,2.25000007180719));
#1054=CARTESIAN_POINT('Origin',(-0.171874999999999,0.05,2.59431281544362));
#1055=CARTESIAN_POINT('',(-0.171874999999999,0.55,2.59431281544362));
#1056=CARTESIAN_POINT('',(-0.171874999999999,0.55,2.59431281544362));
#1057=CARTESIAN_POINT('',(-0.171874999999999,0.05,2.59431281544362));
#1058=CARTESIAN_POINT('Origin',(-2.46286101511914E-33,0.05,0.));
#1059=CARTESIAN_POINT('',(-2.16080330353771,0.55,1.44600452399726));
#1060=CARTESIAN_POINT('Origin',(-2.46286101511914E-33,0.55,0.));
#1061=CARTESIAN_POINT('',(-2.1608033035377,0.05,1.44600452399726));
#1062=CARTESIAN_POINT('Origin',(-1.86261972070181,0.05,1.27384815217903));
#1063=CARTESIAN_POINT('',(-1.86261972070181,0.55,1.27384815217903));
#1064=CARTESIAN_POINT('',(-1.86261972070181,0.55,1.27384815217903));
#1065=CARTESIAN_POINT('',(-1.86261972070181,0.05,1.27384815217903));
#1066=CARTESIAN_POINT('',(-1.86261972070181,0.05,1.27384815217903));
#1067=CARTESIAN_POINT('',(-1.86261971907811,0.05,1.27384815124159));
#1068=CARTESIAN_POINT('Origin',(-1.94855722070182,0.05,1.12500003590359));
#1069=CARTESIAN_POINT('',(-2.03449471848383,0.55,0.976151918347575));
#1070=CARTESIAN_POINT('Origin',(-1.94855722070182,0.55,1.12500003590359));
#1071=CARTESIAN_POINT('',(-2.03449471848383,0.05,0.976151918347575));
#1072=CARTESIAN_POINT('Origin',(-2.3326783035377,0.05,1.14830829144636));
#1073=CARTESIAN_POINT('',(-2.3326783035377,0.55,1.14830829144636));
#1074=CARTESIAN_POINT('',(-2.3326783035377,0.55,1.14830829144636));
#1075=CARTESIAN_POINT('',(-2.3326783035377,0.05,1.14830829144636));
#1076=CARTESIAN_POINT('Origin',(-2.46286101511914E-33,0.05,0.));
#1077=CARTESIAN_POINT('',(-2.3326783035377,0.55,-1.14830829144636));
#1078=CARTESIAN_POINT('Origin',(-2.46286101511914E-33,0.55,0.));
#1079=CARTESIAN_POINT('',(-2.3326783035377,0.05,-1.14830829144636));
#1080=CARTESIAN_POINT('Origin',(-2.0344947207018,0.05,-0.976151919628126));
#1081=CARTESIAN_POINT('',(-2.0344947207018,0.55,-0.976151919628126));
#1082=CARTESIAN_POINT('Origin',(-2.46286101511914E-33,0.55,0.));
#1083=UNCERTAINTY_MEASURE_WITH_UNIT(LENGTH_MEASURE(0.000393700787401575),
#1088,'DISTANCE_ACCURACY_VALUE',
'Maximum model space distance between geometric entities at asserted c
onnectivities');
#1084=UNCERTAINTY_MEASURE_WITH_UNIT(LENGTH_MEASURE(0.000393700787401575),
#1088,'DISTANCE_ACCURACY_VALUE',
'Maximum model space distance between geometric entities at asserted c
onnectivities');
#1085=(
GEOMETRIC_REPRESENTATION_CONTEXT(3)
GLOBAL_UNCERTAINTY_ASSIGNED_CONTEXT((#1083))
GLOBAL_UNIT_ASSIGNED_CONTEXT((#1088,#1092,#1093))
REPRESENTATION_CONTEXT('','3D')
);
#1086=(
GEOMETRIC_REPRESENTATION_CONTEXT(3)
GLOBAL_UNCERTAINTY_ASSIGNED_CONTEXT((#1084))
GLOBAL_UNIT_ASSIGNED_CONTEXT((#1088,#1092,#1093))
REPRESENTATION_CONTEXT('','3D')
);
#1087=DIMENSIONAL_EXPONENTS(1.,0.,0.,0.,0.,0.,0.);
#1088=(
CONVERSION_BASED_UNIT('inch',#1091)
LENGTH_UNIT()
NAMED_UNIT(#1087)
);
#1089=(
LENGTH_UNIT()
NAMED_UNIT(*)
SI_UNIT(.MILLI.,.METRE.)
);
#1090=(
LENGTH_UNIT()
NAMED_UNIT(*)
SI_UNIT($,.METRE.)
);
#1091=LENGTH_MEASURE_WITH_UNIT(LENGTH_MEASURE(25.4),#1089);
#1092=(
NAMED_UNIT(*)
PLANE_ANGLE_UNIT()
SI_UNIT($,.RADIAN.)
);
#1093=(
NAMED_UNIT(*)
SI_UNIT($,.STERADIAN.)
SOLID_ANGLE_UNIT()
);
#1094=SHAPE_DEFINITION_REPRESENTATION(#1095,#1096);
#1095=PRODUCT_DEFINITION_SHAPE('',$,#1098);
#1096=SHAPE_REPRESENTATION('',(#645),#1085);
#1097=PRODUCT_DEFINITION_CONTEXT('part definition',#1102,'design');
#1098=PRODUCT_DEFINITION('2026-03-14-11-28-28-005','CircleMoldBlankTop',
#1099,#1097);
#1099=PRODUCT_DEFINITION_FORMATION('',$,#1104);
#1100=PRODUCT_RELATED_PRODUCT_CATEGORY('CircleMoldBlankTop',
'CircleMoldBlankTop',(#1104));
#1101=APPLICATION_PROTOCOL_DEFINITION('international standard',
'automotive_design',2009,#1102);
#1102=APPLICATION_CONTEXT(
'Core Data for Automotive Mechanical Design Process');
#1103=PRODUCT_CONTEXT('part definition',#1102,'mechanical');
#1104=PRODUCT('2026-03-14-11-28-28-005','CircleMoldBlankTop',$,(#1103));
#1105=PRESENTATION_STYLE_ASSIGNMENT((#1107));
#1106=PRESENTATION_STYLE_ASSIGNMENT((#1108));
#1107=SURFACE_STYLE_USAGE(.BOTH.,#1109);
#1108=SURFACE_STYLE_USAGE(.BOTH.,#1110);
#1109=SURFACE_SIDE_STYLE('',(#1111));
#1110=SURFACE_SIDE_STYLE('',(#1112));
#1111=SURFACE_STYLE_FILL_AREA(#1113);
#1112=SURFACE_STYLE_FILL_AREA(#1114);
#1113=FILL_AREA_STYLE('Steel - Satin',(#1115));
#1114=FILL_AREA_STYLE('Polymide (Kapton)',(#1116));
#1115=FILL_AREA_STYLE_COLOUR('Steel - Satin',#1117);
#1116=FILL_AREA_STYLE_COLOUR('Polymide (Kapton)',#1118);
#1117=COLOUR_RGB('Steel - Satin',0.627450980392157,0.627450980392157,0.627450980392157);
#1118=COLOUR_RGB('Polymide (Kapton)',0.784313725490196,0.556862745098039,
0.0274509803921569);
ENDSEC;
END-ISO-10303-21;
