ISO-10303-21;
HEADER;
/* Generated by software containing ST-Developer
 * from STEP Tools, Inc. (www.steptools.com) 
 */

FILE_DESCRIPTION(
/* description */ (''),
/* implementation_level */ '2;1');

FILE_NAME(
/* name */ 'CircleBlankMoldBottom.step',
/* time_stamp */ '2026-03-14T11:28:33-07:00',
/* author */ (''),
/* organization */ (''),
/* preprocessor_version */ 'ST-DEVELOPER v20.1',
/* originating_system */ 'Autodesk Translation Framework v14.24.0.0',
/* authorisation */ '');

FILE_SCHEMA (('AUTOMOTIVE_DESIGN { 1 0 10303 214 3 1 1 }'));
ENDSEC;

DATA;
#10=MECHANICAL_DESIGN_GEOMETRIC_PRESENTATION_REPRESENTATION('',(#13),#1800);
#11=SHAPE_REPRESENTATION_RELATIONSHIP('SRR','None',#1810,#12);
#12=ADVANCED_BREP_SHAPE_REPRESENTATION('',(#14),#1799);
#13=STYLED_ITEM('',(#1819),#14);
#14=MANIFOLD_SOLID_BREP('BlankMoldBottom',#1052);
#15=FACE_BOUND('',#114,.T.);
#16=FACE_BOUND('',#115,.T.);
#17=FACE_BOUND('',#116,.T.);
#18=FACE_BOUND('',#130,.T.);
#19=FACE_BOUND('',#131,.T.);
#20=FACE_BOUND('',#132,.T.);
#21=PLANE('',#1093);
#22=PLANE('',#1102);
#23=PLANE('',#1105);
#24=PLANE('',#1108);
#25=PLANE('',#1109);
#26=PLANE('',#1110);
#27=PLANE('',#1113);
#28=PLANE('',#1116);
#29=PLANE('',#1117);
#30=PLANE('',#1118);
#31=PLANE('',#1128);
#32=PLANE('',#1131);
#33=PLANE('',#1132);
#34=PLANE('',#1135);
#35=PLANE('',#1136);
#36=PLANE('',#1139);
#37=PLANE('',#1149);
#38=PLANE('',#1150);
#39=PLANE('',#1151);
#40=PLANE('',#1152);
#41=PLANE('',#1155);
#42=PLANE('',#1156);
#43=PLANE('',#1157);
#44=PLANE('',#1160);
#45=PLANE('',#1161);
#46=PLANE('',#1162);
#47=PLANE('',#1165);
#48=PLANE('',#1167);
#49=PLANE('',#1168);
#50=PLANE('',#1169);
#51=PLANE('',#1170);
#52=PLANE('',#1171);
#53=FACE_OUTER_BOUND('',#106,.T.);
#54=FACE_OUTER_BOUND('',#107,.T.);
#55=FACE_OUTER_BOUND('',#108,.T.);
#56=FACE_OUTER_BOUND('',#109,.T.);
#57=FACE_OUTER_BOUND('',#110,.T.);
#58=FACE_OUTER_BOUND('',#111,.T.);
#59=FACE_OUTER_BOUND('',#112,.T.);
#60=FACE_OUTER_BOUND('',#113,.T.);
#61=FACE_OUTER_BOUND('',#117,.T.);
#62=FACE_OUTER_BOUND('',#118,.T.);
#63=FACE_OUTER_BOUND('',#119,.T.);
#64=FACE_OUTER_BOUND('',#120,.T.);
#65=FACE_OUTER_BOUND('',#121,.T.);
#66=FACE_OUTER_BOUND('',#122,.T.);
#67=FACE_OUTER_BOUND('',#123,.T.);
#68=FACE_OUTER_BOUND('',#124,.T.);
#69=FACE_OUTER_BOUND('',#125,.T.);
#70=FACE_OUTER_BOUND('',#126,.T.);
#71=FACE_OUTER_BOUND('',#127,.T.);
#72=FACE_OUTER_BOUND('',#128,.T.);
#73=FACE_OUTER_BOUND('',#129,.T.);
#74=FACE_OUTER_BOUND('',#133,.T.);
#75=FACE_OUTER_BOUND('',#134,.T.);
#76=FACE_OUTER_BOUND('',#135,.T.);
#77=FACE_OUTER_BOUND('',#136,.T.);
#78=FACE_OUTER_BOUND('',#137,.T.);
#79=FACE_OUTER_BOUND('',#138,.T.);
#80=FACE_OUTER_BOUND('',#139,.T.);
#81=FACE_OUTER_BOUND('',#140,.T.);
#82=FACE_OUTER_BOUND('',#141,.T.);
#83=FACE_OUTER_BOUND('',#142,.T.);
#84=FACE_OUTER_BOUND('',#143,.T.);
#85=FACE_OUTER_BOUND('',#144,.T.);
#86=FACE_OUTER_BOUND('',#145,.T.);
#87=FACE_OUTER_BOUND('',#146,.T.);
#88=FACE_OUTER_BOUND('',#147,.T.);
#89=FACE_OUTER_BOUND('',#148,.T.);
#90=FACE_OUTER_BOUND('',#149,.T.);
#91=FACE_OUTER_BOUND('',#150,.T.);
#92=FACE_OUTER_BOUND('',#151,.T.);
#93=FACE_OUTER_BOUND('',#152,.T.);
#94=FACE_OUTER_BOUND('',#153,.T.);
#95=FACE_OUTER_BOUND('',#154,.T.);
#96=FACE_OUTER_BOUND('',#155,.T.);
#97=FACE_OUTER_BOUND('',#156,.T.);
#98=FACE_OUTER_BOUND('',#157,.T.);
#99=FACE_OUTER_BOUND('',#158,.T.);
#100=FACE_OUTER_BOUND('',#159,.T.);
#101=FACE_OUTER_BOUND('',#160,.T.);
#102=FACE_OUTER_BOUND('',#161,.T.);
#103=FACE_OUTER_BOUND('',#162,.T.);
#104=FACE_OUTER_BOUND('',#163,.T.);
#105=FACE_OUTER_BOUND('',#164,.T.);
#106=EDGE_LOOP('',(#672,#673,#674,#675,#676,#677,#678,#679));
#107=EDGE_LOOP('',(#680,#681,#682,#683,#684,#685,#686,#687));
#108=EDGE_LOOP('',(#688,#689,#690,#691));
#109=EDGE_LOOP('',(#692,#693,#694,#695,#696,#697,#698,#699));
#110=EDGE_LOOP('',(#700,#701,#702,#703));
#111=EDGE_LOOP('',(#704,#705,#706,#707));
#112=EDGE_LOOP('',(#708,#709,#710,#711));
#113=EDGE_LOOP('',(#712,#713,#714,#715,#716,#717,#718,#719,#720,#721,#722,
#723,#724,#725,#726,#727,#728,#729,#730,#731,#732,#733,#734,#735));
#114=EDGE_LOOP('',(#736));
#115=EDGE_LOOP('',(#737));
#116=EDGE_LOOP('',(#738));
#117=EDGE_LOOP('',(#739,#740,#741,#742));
#118=EDGE_LOOP('',(#743,#744,#745,#746));
#119=EDGE_LOOP('',(#747,#748,#749,#750));
#120=EDGE_LOOP('',(#751,#752,#753,#754));
#121=EDGE_LOOP('',(#755,#756,#757,#758));
#122=EDGE_LOOP('',(#759,#760,#761,#762));
#123=EDGE_LOOP('',(#763,#764,#765,#766));
#124=EDGE_LOOP('',(#767,#768,#769,#770));
#125=EDGE_LOOP('',(#771,#772,#773,#774));
#126=EDGE_LOOP('',(#775,#776,#777,#778));
#127=EDGE_LOOP('',(#779,#780,#781,#782));
#128=EDGE_LOOP('',(#783,#784,#785,#786));
#129=EDGE_LOOP('',(#787,#788,#789,#790,#791,#792,#793,#794,#795,#796,#797,
#798,#799,#800,#801,#802,#803,#804,#805,#806,#807,#808,#809,#810));
#130=EDGE_LOOP('',(#811));
#131=EDGE_LOOP('',(#812));
#132=EDGE_LOOP('',(#813));
#133=EDGE_LOOP('',(#814,#815,#816,#817));
#134=EDGE_LOOP('',(#818,#819,#820,#821));
#135=EDGE_LOOP('',(#822,#823,#824,#825));
#136=EDGE_LOOP('',(#826,#827,#828,#829));
#137=EDGE_LOOP('',(#830,#831,#832,#833));
#138=EDGE_LOOP('',(#834,#835,#836,#837));
#139=EDGE_LOOP('',(#838,#839,#840,#841));
#140=EDGE_LOOP('',(#842,#843,#844,#845));
#141=EDGE_LOOP('',(#846,#847,#848,#849));
#142=EDGE_LOOP('',(#850,#851,#852,#853,#854,#855,#856,#857));
#143=EDGE_LOOP('',(#858,#859,#860,#861,#862,#863,#864,#865));
#144=EDGE_LOOP('',(#866,#867,#868,#869,#870,#871,#872,#873));
#145=EDGE_LOOP('',(#874,#875,#876,#877,#878,#879,#880,#881));
#146=EDGE_LOOP('',(#882,#883,#884,#885,#886,#887,#888,#889));
#147=EDGE_LOOP('',(#890,#891,#892,#893,#894,#895,#896,#897));
#148=EDGE_LOOP('',(#898,#899,#900,#901));
#149=EDGE_LOOP('',(#902,#903,#904,#905));
#150=EDGE_LOOP('',(#906,#907,#908,#909));
#151=EDGE_LOOP('',(#910,#911,#912,#913,#914,#915,#916,#917));
#152=EDGE_LOOP('',(#918,#919,#920,#921));
#153=EDGE_LOOP('',(#922,#923,#924,#925));
#154=EDGE_LOOP('',(#926,#927,#928,#929));
#155=EDGE_LOOP('',(#930,#931,#932,#933,#934,#935,#936,#937));
#156=EDGE_LOOP('',(#938,#939,#940,#941,#942,#943,#944,#945));
#157=EDGE_LOOP('',(#946,#947,#948,#949));
#158=EDGE_LOOP('',(#950,#951,#952,#953));
#159=EDGE_LOOP('',(#954,#955,#956,#957));
#160=EDGE_LOOP('',(#958,#959,#960,#961));
#161=EDGE_LOOP('',(#962,#963,#964,#965));
#162=EDGE_LOOP('',(#966,#967,#968,#969));
#163=EDGE_LOOP('',(#970,#971,#972,#973));
#164=EDGE_LOOP('',(#974,#975,#976,#977));
#165=LINE('',#1494,#264);
#166=LINE('',#1498,#265);
#167=LINE('',#1502,#266);
#168=LINE('',#1505,#267);
#169=LINE('',#1511,#268);
#170=LINE('',#1515,#269);
#171=LINE('',#1519,#270);
#172=LINE('',#1522,#271);
#173=LINE('',#1528,#272);
#174=LINE('',#1531,#273);
#175=LINE('',#1537,#274);
#176=LINE('',#1541,#275);
#177=LINE('',#1545,#276);
#178=LINE('',#1548,#277);
#179=LINE('',#1553,#278);
#180=LINE('',#1559,#279);
#181=LINE('',#1565,#280);
#182=LINE('',#1569,#281);
#183=LINE('',#1573,#282);
#184=LINE('',#1577,#283);
#185=LINE('',#1581,#284);
#186=LINE('',#1585,#285);
#187=LINE('',#1589,#286);
#188=LINE('',#1593,#287);
#189=LINE('',#1596,#288);
#190=LINE('',#1597,#289);
#191=LINE('',#1598,#290);
#192=LINE('',#1600,#291);
#193=LINE('',#1603,#292);
#194=LINE('',#1606,#293);
#195=LINE('',#1607,#294);
#196=LINE('',#1610,#295);
#197=LINE('',#1613,#296);
#198=LINE('',#1616,#297);
#199=LINE('',#1619,#298);
#200=LINE('',#1621,#299);
#201=LINE('',#1624,#300);
#202=LINE('',#1626,#301);
#203=LINE('',#1627,#302);
#204=LINE('',#1630,#303);
#205=LINE('',#1632,#304);
#206=LINE('',#1633,#305);
#207=LINE('',#1636,#306);
#208=LINE('',#1639,#307);
#209=LINE('',#1642,#308);
#210=LINE('',#1643,#309);
#211=LINE('',#1646,#310);
#212=LINE('',#1649,#311);
#213=LINE('',#1652,#312);
#214=LINE('',#1653,#313);
#215=LINE('',#1655,#314);
#216=LINE('',#1659,#315);
#217=LINE('',#1662,#316);
#218=LINE('',#1664,#317);
#219=LINE('',#1667,#318);
#220=LINE('',#1669,#319);
#221=LINE('',#1672,#320);
#222=LINE('',#1674,#321);
#223=LINE('',#1678,#322);
#224=LINE('',#1682,#323);
#225=LINE('',#1686,#324);
#226=LINE('',#1690,#325);
#227=LINE('',#1694,#326);
#228=LINE('',#1698,#327);
#229=LINE('',#1699,#328);
#230=LINE('',#1702,#329);
#231=LINE('',#1705,#330);
#232=LINE('',#1708,#331);
#233=LINE('',#1709,#332);
#234=LINE('',#1712,#333);
#235=LINE('',#1715,#334);
#236=LINE('',#1718,#335);
#237=LINE('',#1719,#336);
#238=LINE('',#1722,#337);
#239=LINE('',#1726,#338);
#240=LINE('',#1727,#339);
#241=LINE('',#1730,#340);
#242=LINE('',#1733,#341);
#243=LINE('',#1738,#342);
#244=LINE('',#1740,#343);
#245=LINE('',#1744,#344);
#246=LINE('',#1747,#345);
#247=LINE('',#1749,#346);
#248=LINE('',#1752,#347);
#249=LINE('',#1755,#348);
#250=LINE('',#1758,#349);
#251=LINE('',#1759,#350);
#252=LINE('',#1762,#351);
#253=LINE('',#1765,#352);
#254=LINE('',#1767,#353);
#255=LINE('',#1770,#354);
#256=LINE('',#1771,#355);
#257=LINE('',#1774,#356);
#258=LINE('',#1777,#357);
#259=LINE('',#1779,#358);
#260=LINE('',#1782,#359);
#261=LINE('',#1785,#360);
#262=LINE('',#1788,#361);
#263=LINE('',#1790,#362);
#264=VECTOR('',#1179,0.393700787401575);
#265=VECTOR('',#1182,0.393700787401575);
#266=VECTOR('',#1185,0.393700787401575);
#267=VECTOR('',#1188,0.393700787401575);
#268=VECTOR('',#1193,0.393700787401575);
#269=VECTOR('',#1196,0.393700787401575);
#270=VECTOR('',#1199,0.393700787401575);
#271=VECTOR('',#1202,0.393700787401575);
#272=VECTOR('',#1207,0.393700787401575);
#273=VECTOR('',#1210,0.393700787401575);
#274=VECTOR('',#1215,0.393700787401575);
#275=VECTOR('',#1218,0.393700787401575);
#276=VECTOR('',#1221,0.393700787401575);
#277=VECTOR('',#1224,0.393700787401575);
#278=VECTOR('',#1229,0.12007874015748);
#279=VECTOR('',#1236,0.12007874015748);
#280=VECTOR('',#1243,0.12007874015748);
#281=VECTOR('',#1248,0.393700787401575);
#282=VECTOR('',#1251,0.393700787401575);
#283=VECTOR('',#1254,0.393700787401575);
#284=VECTOR('',#1257,0.393700787401575);
#285=VECTOR('',#1260,0.393700787401575);
#286=VECTOR('',#1263,0.393700787401575);
#287=VECTOR('',#1266,0.393700787401575);
#288=VECTOR('',#1269,0.393700787401575);
#289=VECTOR('',#1270,0.393700787401575);
#290=VECTOR('',#1271,0.393700787401575);
#291=VECTOR('',#1272,0.393700787401575);
#292=VECTOR('',#1275,0.393700787401575);
#293=VECTOR('',#1278,0.393700787401575);
#294=VECTOR('',#1279,0.393700787401575);
#295=VECTOR('',#1282,0.393700787401575);
#296=VECTOR('',#1287,0.393700787401575);
#297=VECTOR('',#1290,0.393700787401575);
#298=VECTOR('',#1293,0.393700787401575);
#299=VECTOR('',#1296,0.393700787401575);
#300=VECTOR('',#1299,0.393700787401575);
#301=VECTOR('',#1300,0.393700787401575);
#302=VECTOR('',#1301,0.393700787401575);
#303=VECTOR('',#1304,0.393700787401575);
#304=VECTOR('',#1305,0.393700787401575);
#305=VECTOR('',#1306,0.393700787401575);
#306=VECTOR('',#1309,0.393700787401575);
#307=VECTOR('',#1312,0.393700787401575);
#308=VECTOR('',#1315,0.393700787401575);
#309=VECTOR('',#1316,0.393700787401575);
#310=VECTOR('',#1319,0.393700787401575);
#311=VECTOR('',#1322,0.393700787401575);
#312=VECTOR('',#1325,0.393700787401575);
#313=VECTOR('',#1326,0.393700787401575);
#314=VECTOR('',#1329,0.393700787401575);
#315=VECTOR('',#1332,0.393700787401575);
#316=VECTOR('',#1335,0.393700787401575);
#317=VECTOR('',#1336,0.393700787401575);
#318=VECTOR('',#1339,0.393700787401575);
#319=VECTOR('',#1340,0.393700787401575);
#320=VECTOR('',#1343,0.393700787401575);
#321=VECTOR('',#1344,0.393700787401575);
#322=VECTOR('',#1347,0.393700787401575);
#323=VECTOR('',#1350,0.393700787401575);
#324=VECTOR('',#1353,0.393700787401575);
#325=VECTOR('',#1356,0.393700787401575);
#326=VECTOR('',#1359,0.393700787401575);
#327=VECTOR('',#1364,0.393700787401575);
#328=VECTOR('',#1365,0.393700787401575);
#329=VECTOR('',#1368,0.393700787401575);
#330=VECTOR('',#1373,0.393700787401575);
#331=VECTOR('',#1376,0.393700787401575);
#332=VECTOR('',#1377,0.393700787401575);
#333=VECTOR('',#1380,0.393700787401575);
#334=VECTOR('',#1385,0.393700787401575);
#335=VECTOR('',#1388,0.393700787401575);
#336=VECTOR('',#1389,0.393700787401575);
#337=VECTOR('',#1392,0.393700787401575);
#338=VECTOR('',#1397,0.393700787401575);
#339=VECTOR('',#1398,0.393700787401575);
#340=VECTOR('',#1401,0.393700787401575);
#341=VECTOR('',#1404,0.393700787401575);
#342=VECTOR('',#1411,0.393700787401575);
#343=VECTOR('',#1412,0.393700787401575);
#344=VECTOR('',#1417,0.393700787401575);
#345=VECTOR('',#1420,0.393700787401575);
#346=VECTOR('',#1421,0.393700787401575);
#347=VECTOR('',#1426,0.393700787401575);
#348=VECTOR('',#1431,0.393700787401575);
#349=VECTOR('',#1434,0.393700787401575);
#350=VECTOR('',#1435,0.393700787401575);
#351=VECTOR('',#1438,0.393700787401575);
#352=VECTOR('',#1443,0.393700787401575);
#353=VECTOR('',#1446,0.393700787401575);
#354=VECTOR('',#1449,0.393700787401575);
#355=VECTOR('',#1450,0.393700787401575);
#356=VECTOR('',#1453,0.393700787401575);
#357=VECTOR('',#1458,0.393700787401575);
#358=VECTOR('',#1461,0.393700787401575);
#359=VECTOR('',#1464,0.393700787401575);
#360=VECTOR('',#1467,0.393700787401575);
#361=VECTOR('',#1472,0.393700787401575);
#362=VECTOR('',#1475,0.393700787401575);
#363=CIRCLE('',#1067,2.6);
#364=CIRCLE('',#1068,2.6);
#365=CIRCLE('',#1069,2.6);
#366=CIRCLE('',#1070,2.6);
#367=CIRCLE('',#1072,2.6);
#368=CIRCLE('',#1073,2.6);
#369=CIRCLE('',#1074,2.6);
#370=CIRCLE('',#1075,2.6);
#371=CIRCLE('',#1077,0.171875);
#372=CIRCLE('',#1078,0.171875);
#373=CIRCLE('',#1080,2.6);
#374=CIRCLE('',#1081,2.6);
#375=CIRCLE('',#1082,2.6);
#376=CIRCLE('',#1083,2.6);
#377=CIRCLE('',#1085,0.12007874015748);
#378=CIRCLE('',#1086,0.12007874015748);
#379=CIRCLE('',#1088,0.12007874015748);
#380=CIRCLE('',#1089,0.12007874015748);
#381=CIRCLE('',#1091,0.12007874015748);
#382=CIRCLE('',#1092,0.12007874015748);
#383=CIRCLE('',#1094,0.171875);
#384=CIRCLE('',#1095,2.6);
#385=CIRCLE('',#1096,0.171875);
#386=CIRCLE('',#1097,2.6);
#387=CIRCLE('',#1098,0.171875);
#388=CIRCLE('',#1099,2.6);
#389=CIRCLE('',#1100,0.171875);
#390=CIRCLE('',#1101,0.171875);
#391=CIRCLE('',#1104,0.171875);
#392=CIRCLE('',#1107,0.171875);
#393=CIRCLE('',#1112,0.171875);
#394=CIRCLE('',#1115,0.171875);
#395=CIRCLE('',#1119,0.3);
#396=CIRCLE('',#1120,0.3);
#397=CIRCLE('',#1121,0.3);
#398=CIRCLE('',#1122,0.3);
#399=CIRCLE('',#1123,2.6);
#400=CIRCLE('',#1124,0.3);
#401=CIRCLE('',#1125,2.6);
#402=CIRCLE('',#1126,0.3);
#403=CIRCLE('',#1127,2.6);
#404=CIRCLE('',#1130,0.3);
#405=CIRCLE('',#1134,0.3);
#406=CIRCLE('',#1138,0.3);
#407=CIRCLE('',#1141,2.6);
#408=CIRCLE('',#1142,2.6);
#409=CIRCLE('',#1144,2.6);
#410=CIRCLE('',#1145,2.6);
#411=CIRCLE('',#1147,2.6);
#412=CIRCLE('',#1148,2.6);
#413=CIRCLE('',#1154,0.3);
#414=CIRCLE('',#1159,0.3);
#415=CIRCLE('',#1163,0.3);
#416=CIRCLE('',#1164,0.171875);
#417=VERTEX_POINT('',#1490);
#418=VERTEX_POINT('',#1491);
#419=VERTEX_POINT('',#1493);
#420=VERTEX_POINT('',#1495);
#421=VERTEX_POINT('',#1497);
#422=VERTEX_POINT('',#1499);
#423=VERTEX_POINT('',#1501);
#424=VERTEX_POINT('',#1503);
#425=VERTEX_POINT('',#1507);
#426=VERTEX_POINT('',#1508);
#427=VERTEX_POINT('',#1510);
#428=VERTEX_POINT('',#1512);
#429=VERTEX_POINT('',#1514);
#430=VERTEX_POINT('',#1516);
#431=VERTEX_POINT('',#1518);
#432=VERTEX_POINT('',#1520);
#433=VERTEX_POINT('',#1524);
#434=VERTEX_POINT('',#1525);
#435=VERTEX_POINT('',#1527);
#436=VERTEX_POINT('',#1529);
#437=VERTEX_POINT('',#1533);
#438=VERTEX_POINT('',#1534);
#439=VERTEX_POINT('',#1536);
#440=VERTEX_POINT('',#1538);
#441=VERTEX_POINT('',#1540);
#442=VERTEX_POINT('',#1542);
#443=VERTEX_POINT('',#1544);
#444=VERTEX_POINT('',#1546);
#445=VERTEX_POINT('',#1550);
#446=VERTEX_POINT('',#1552);
#447=VERTEX_POINT('',#1556);
#448=VERTEX_POINT('',#1558);
#449=VERTEX_POINT('',#1562);
#450=VERTEX_POINT('',#1564);
#451=VERTEX_POINT('',#1568);
#452=VERTEX_POINT('',#1570);
#453=VERTEX_POINT('',#1572);
#454=VERTEX_POINT('',#1574);
#455=VERTEX_POINT('',#1576);
#456=VERTEX_POINT('',#1578);
#457=VERTEX_POINT('',#1580);
#458=VERTEX_POINT('',#1582);
#459=VERTEX_POINT('',#1584);
#460=VERTEX_POINT('',#1586);
#461=VERTEX_POINT('',#1588);
#462=VERTEX_POINT('',#1590);
#463=VERTEX_POINT('',#1592);
#464=VERTEX_POINT('',#1594);
#465=VERTEX_POINT('',#1599);
#466=VERTEX_POINT('',#1601);
#467=VERTEX_POINT('',#1605);
#468=VERTEX_POINT('',#1609);
#469=VERTEX_POINT('',#1615);
#470=VERTEX_POINT('',#1617);
#471=VERTEX_POINT('',#1623);
#472=VERTEX_POINT('',#1625);
#473=VERTEX_POINT('',#1629);
#474=VERTEX_POINT('',#1631);
#475=VERTEX_POINT('',#1635);
#476=VERTEX_POINT('',#1637);
#477=VERTEX_POINT('',#1641);
#478=VERTEX_POINT('',#1645);
#479=VERTEX_POINT('',#1647);
#480=VERTEX_POINT('',#1651);
#481=VERTEX_POINT('',#1657);
#482=VERTEX_POINT('',#1658);
#483=VERTEX_POINT('',#1660);
#484=VERTEX_POINT('',#1663);
#485=VERTEX_POINT('',#1665);
#486=VERTEX_POINT('',#1668);
#487=VERTEX_POINT('',#1670);
#488=VERTEX_POINT('',#1673);
#489=VERTEX_POINT('',#1675);
#490=VERTEX_POINT('',#1677);
#491=VERTEX_POINT('',#1679);
#492=VERTEX_POINT('',#1681);
#493=VERTEX_POINT('',#1683);
#494=VERTEX_POINT('',#1685);
#495=VERTEX_POINT('',#1687);
#496=VERTEX_POINT('',#1689);
#497=VERTEX_POINT('',#1691);
#498=VERTEX_POINT('',#1693);
#499=VERTEX_POINT('',#1697);
#500=VERTEX_POINT('',#1701);
#501=VERTEX_POINT('',#1707);
#502=VERTEX_POINT('',#1711);
#503=VERTEX_POINT('',#1717);
#504=VERTEX_POINT('',#1721);
#505=VERTEX_POINT('',#1725);
#506=VERTEX_POINT('',#1729);
#507=VERTEX_POINT('',#1732);
#508=VERTEX_POINT('',#1736);
#509=VERTEX_POINT('',#1739);
#510=VERTEX_POINT('',#1743);
#511=VERTEX_POINT('',#1745);
#512=VERTEX_POINT('',#1748);
#513=VERTEX_POINT('',#1757);
#514=VERTEX_POINT('',#1761);
#515=VERTEX_POINT('',#1769);
#516=VERTEX_POINT('',#1773);
#517=VERTEX_POINT('',#1781);
#518=VERTEX_POINT('',#1783);
#519=EDGE_CURVE('',#417,#418,#363,.T.);
#520=EDGE_CURVE('',#418,#419,#165,.T.);
#521=EDGE_CURVE('',#419,#420,#364,.T.);
#522=EDGE_CURVE('',#420,#421,#166,.T.);
#523=EDGE_CURVE('',#421,#422,#365,.T.);
#524=EDGE_CURVE('',#422,#423,#167,.T.);
#525=EDGE_CURVE('',#423,#424,#366,.T.);
#526=EDGE_CURVE('',#424,#417,#168,.T.);
#527=EDGE_CURVE('',#425,#426,#367,.T.);
#528=EDGE_CURVE('',#426,#427,#169,.T.);
#529=EDGE_CURVE('',#427,#428,#368,.T.);
#530=EDGE_CURVE('',#428,#429,#170,.T.);
#531=EDGE_CURVE('',#429,#430,#369,.T.);
#532=EDGE_CURVE('',#430,#431,#171,.T.);
#533=EDGE_CURVE('',#431,#432,#370,.T.);
#534=EDGE_CURVE('',#432,#425,#172,.T.);
#535=EDGE_CURVE('',#433,#434,#371,.T.);
#536=EDGE_CURVE('',#435,#434,#173,.T.);
#537=EDGE_CURVE('',#435,#436,#372,.T.);
#538=EDGE_CURVE('',#436,#433,#174,.T.);
#539=EDGE_CURVE('',#437,#438,#373,.T.);
#540=EDGE_CURVE('',#438,#439,#175,.T.);
#541=EDGE_CURVE('',#439,#440,#374,.T.);
#542=EDGE_CURVE('',#440,#441,#176,.T.);
#543=EDGE_CURVE('',#441,#442,#375,.T.);
#544=EDGE_CURVE('',#442,#443,#177,.T.);
#545=EDGE_CURVE('',#443,#444,#376,.T.);
#546=EDGE_CURVE('',#444,#437,#178,.T.);
#547=EDGE_CURVE('',#445,#445,#377,.T.);
#548=EDGE_CURVE('',#445,#446,#179,.T.);
#549=EDGE_CURVE('',#446,#446,#378,.T.);
#550=EDGE_CURVE('',#447,#447,#379,.T.);
#551=EDGE_CURVE('',#447,#448,#180,.T.);
#552=EDGE_CURVE('',#448,#448,#380,.T.);
#553=EDGE_CURVE('',#449,#449,#381,.T.);
#554=EDGE_CURVE('',#449,#450,#181,.T.);
#555=EDGE_CURVE('',#450,#450,#382,.T.);
#556=EDGE_CURVE('',#451,#417,#182,.T.);
#557=EDGE_CURVE('',#452,#451,#383,.T.);
#558=EDGE_CURVE('',#453,#452,#183,.T.);
#559=EDGE_CURVE('',#454,#453,#384,.T.);
#560=EDGE_CURVE('',#455,#454,#184,.T.);
#561=EDGE_CURVE('',#456,#455,#385,.T.);
#562=EDGE_CURVE('',#457,#456,#185,.T.);
#563=EDGE_CURVE('',#458,#457,#386,.T.);
#564=EDGE_CURVE('',#459,#458,#186,.T.);
#565=EDGE_CURVE('',#460,#459,#387,.T.);
#566=EDGE_CURVE('',#461,#460,#187,.T.);
#567=EDGE_CURVE('',#462,#461,#388,.T.);
#568=EDGE_CURVE('',#463,#462,#188,.T.);
#569=EDGE_CURVE('',#464,#463,#389,.T.);
#570=EDGE_CURVE('',#438,#464,#189,.T.);
#571=EDGE_CURVE('',#434,#437,#190,.T.);
#572=EDGE_CURVE('',#426,#433,#191,.T.);
#573=EDGE_CURVE('',#465,#425,#192,.T.);
#574=EDGE_CURVE('',#466,#465,#390,.T.);
#575=EDGE_CURVE('',#418,#466,#193,.T.);
#576=EDGE_CURVE('',#467,#466,#194,.T.);
#577=EDGE_CURVE('',#467,#419,#195,.T.);
#578=EDGE_CURVE('',#468,#465,#196,.T.);
#579=EDGE_CURVE('',#468,#467,#391,.T.);
#580=EDGE_CURVE('',#432,#468,#197,.T.);
#581=EDGE_CURVE('',#469,#451,#198,.T.);
#582=EDGE_CURVE('',#469,#470,#392,.T.);
#583=EDGE_CURVE('',#470,#452,#199,.T.);
#584=EDGE_CURVE('',#424,#469,#200,.T.);
#585=EDGE_CURVE('',#471,#454,#201,.T.);
#586=EDGE_CURVE('',#471,#472,#202,.T.);
#587=EDGE_CURVE('',#472,#455,#203,.T.);
#588=EDGE_CURVE('',#473,#456,#204,.T.);
#589=EDGE_CURVE('',#473,#474,#205,.T.);
#590=EDGE_CURVE('',#457,#474,#206,.T.);
#591=EDGE_CURVE('',#475,#459,#207,.T.);
#592=EDGE_CURVE('',#475,#476,#393,.T.);
#593=EDGE_CURVE('',#476,#460,#208,.T.);
#594=EDGE_CURVE('',#477,#458,#209,.T.);
#595=EDGE_CURVE('',#477,#475,#210,.T.);
#596=EDGE_CURVE('',#478,#463,#211,.T.);
#597=EDGE_CURVE('',#478,#479,#394,.T.);
#598=EDGE_CURVE('',#479,#464,#212,.T.);
#599=EDGE_CURVE('',#480,#462,#213,.T.);
#600=EDGE_CURVE('',#480,#478,#214,.T.);
#601=EDGE_CURVE('',#444,#435,#215,.T.);
#602=EDGE_CURVE('',#481,#482,#216,.T.);
#603=EDGE_CURVE('',#483,#481,#395,.T.);
#604=EDGE_CURVE('',#422,#483,#217,.T.);
#605=EDGE_CURVE('',#484,#421,#218,.T.);
#606=EDGE_CURVE('',#485,#484,#396,.T.);
#607=EDGE_CURVE('',#430,#485,#219,.T.);
#608=EDGE_CURVE('',#486,#429,#220,.T.);
#609=EDGE_CURVE('',#487,#486,#397,.T.);
#610=EDGE_CURVE('',#442,#487,#221,.T.);
#611=EDGE_CURVE('',#488,#441,#222,.T.);
#612=EDGE_CURVE('',#489,#488,#398,.T.);
#613=EDGE_CURVE('',#490,#489,#223,.T.);
#614=EDGE_CURVE('',#491,#490,#399,.T.);
#615=EDGE_CURVE('',#492,#491,#224,.T.);
#616=EDGE_CURVE('',#493,#492,#400,.T.);
#617=EDGE_CURVE('',#494,#493,#225,.T.);
#618=EDGE_CURVE('',#495,#494,#401,.T.);
#619=EDGE_CURVE('',#496,#495,#226,.T.);
#620=EDGE_CURVE('',#497,#496,#402,.T.);
#621=EDGE_CURVE('',#498,#497,#227,.T.);
#622=EDGE_CURVE('',#482,#498,#403,.T.);
#623=EDGE_CURVE('',#487,#499,#228,.T.);
#624=EDGE_CURVE('',#499,#443,#229,.T.);
#625=EDGE_CURVE('',#486,#500,#230,.T.);
#626=EDGE_CURVE('',#500,#499,#404,.T.);
#627=EDGE_CURVE('',#428,#500,#231,.T.);
#628=EDGE_CURVE('',#485,#501,#232,.T.);
#629=EDGE_CURVE('',#501,#431,#233,.T.);
#630=EDGE_CURVE('',#484,#502,#234,.T.);
#631=EDGE_CURVE('',#502,#501,#405,.T.);
#632=EDGE_CURVE('',#420,#502,#235,.T.);
#633=EDGE_CURVE('',#483,#503,#236,.T.);
#634=EDGE_CURVE('',#503,#423,#237,.T.);
#635=EDGE_CURVE('',#481,#504,#238,.T.);
#636=EDGE_CURVE('',#504,#503,#406,.T.);
#637=EDGE_CURVE('',#505,#482,#239,.T.);
#638=EDGE_CURVE('',#505,#504,#240,.T.);
#639=EDGE_CURVE('',#453,#506,#241,.T.);
#640=EDGE_CURVE('',#506,#505,#407,.T.);
#641=EDGE_CURVE('',#498,#507,#242,.T.);
#642=EDGE_CURVE('',#507,#471,#408,.T.);
#643=EDGE_CURVE('',#474,#508,#409,.T.);
#644=EDGE_CURVE('',#508,#495,#243,.T.);
#645=EDGE_CURVE('',#494,#509,#244,.T.);
#646=EDGE_CURVE('',#509,#477,#410,.T.);
#647=EDGE_CURVE('',#461,#510,#245,.T.);
#648=EDGE_CURVE('',#510,#511,#411,.T.);
#649=EDGE_CURVE('',#511,#491,#246,.T.);
#650=EDGE_CURVE('',#490,#512,#247,.T.);
#651=EDGE_CURVE('',#512,#480,#412,.T.);
#652=EDGE_CURVE('',#470,#506,#248,.T.);
#653=EDGE_CURVE('',#436,#427,#249,.T.);
#654=EDGE_CURVE('',#489,#513,#250,.T.);
#655=EDGE_CURVE('',#513,#512,#251,.T.);
#656=EDGE_CURVE('',#488,#514,#252,.T.);
#657=EDGE_CURVE('',#514,#513,#413,.T.);
#658=EDGE_CURVE('',#440,#514,#253,.T.);
#659=EDGE_CURVE('',#479,#439,#254,.T.);
#660=EDGE_CURVE('',#493,#515,#255,.T.);
#661=EDGE_CURVE('',#515,#509,#256,.T.);
#662=EDGE_CURVE('',#492,#516,#257,.T.);
#663=EDGE_CURVE('',#516,#515,#414,.T.);
#664=EDGE_CURVE('',#511,#516,#258,.T.);
#665=EDGE_CURVE('',#476,#510,#259,.T.);
#666=EDGE_CURVE('',#517,#507,#260,.T.);
#667=EDGE_CURVE('',#518,#517,#415,.T.);
#668=EDGE_CURVE('',#508,#518,#261,.T.);
#669=EDGE_CURVE('',#472,#473,#416,.T.);
#670=EDGE_CURVE('',#496,#518,#262,.T.);
#671=EDGE_CURVE('',#497,#517,#263,.T.);
#672=ORIENTED_EDGE('',*,*,#519,.T.);
#673=ORIENTED_EDGE('',*,*,#520,.T.);
#674=ORIENTED_EDGE('',*,*,#521,.T.);
#675=ORIENTED_EDGE('',*,*,#522,.T.);
#676=ORIENTED_EDGE('',*,*,#523,.T.);
#677=ORIENTED_EDGE('',*,*,#524,.T.);
#678=ORIENTED_EDGE('',*,*,#525,.T.);
#679=ORIENTED_EDGE('',*,*,#526,.T.);
#680=ORIENTED_EDGE('',*,*,#527,.T.);
#681=ORIENTED_EDGE('',*,*,#528,.T.);
#682=ORIENTED_EDGE('',*,*,#529,.T.);
#683=ORIENTED_EDGE('',*,*,#530,.T.);
#684=ORIENTED_EDGE('',*,*,#531,.T.);
#685=ORIENTED_EDGE('',*,*,#532,.T.);
#686=ORIENTED_EDGE('',*,*,#533,.T.);
#687=ORIENTED_EDGE('',*,*,#534,.T.);
#688=ORIENTED_EDGE('',*,*,#535,.T.);
#689=ORIENTED_EDGE('',*,*,#536,.F.);
#690=ORIENTED_EDGE('',*,*,#537,.T.);
#691=ORIENTED_EDGE('',*,*,#538,.T.);
#692=ORIENTED_EDGE('',*,*,#539,.T.);
#693=ORIENTED_EDGE('',*,*,#540,.T.);
#694=ORIENTED_EDGE('',*,*,#541,.T.);
#695=ORIENTED_EDGE('',*,*,#542,.T.);
#696=ORIENTED_EDGE('',*,*,#543,.T.);
#697=ORIENTED_EDGE('',*,*,#544,.T.);
#698=ORIENTED_EDGE('',*,*,#545,.T.);
#699=ORIENTED_EDGE('',*,*,#546,.T.);
#700=ORIENTED_EDGE('',*,*,#547,.F.);
#701=ORIENTED_EDGE('',*,*,#548,.T.);
#702=ORIENTED_EDGE('',*,*,#549,.F.);
#703=ORIENTED_EDGE('',*,*,#548,.F.);
#704=ORIENTED_EDGE('',*,*,#550,.F.);
#705=ORIENTED_EDGE('',*,*,#551,.T.);
#706=ORIENTED_EDGE('',*,*,#552,.F.);
#707=ORIENTED_EDGE('',*,*,#551,.F.);
#708=ORIENTED_EDGE('',*,*,#553,.T.);
#709=ORIENTED_EDGE('',*,*,#554,.T.);
#710=ORIENTED_EDGE('',*,*,#555,.F.);
#711=ORIENTED_EDGE('',*,*,#554,.F.);
#712=ORIENTED_EDGE('',*,*,#519,.F.);
#713=ORIENTED_EDGE('',*,*,#556,.F.);
#714=ORIENTED_EDGE('',*,*,#557,.F.);
#715=ORIENTED_EDGE('',*,*,#558,.F.);
#716=ORIENTED_EDGE('',*,*,#559,.F.);
#717=ORIENTED_EDGE('',*,*,#560,.F.);
#718=ORIENTED_EDGE('',*,*,#561,.F.);
#719=ORIENTED_EDGE('',*,*,#562,.F.);
#720=ORIENTED_EDGE('',*,*,#563,.F.);
#721=ORIENTED_EDGE('',*,*,#564,.F.);
#722=ORIENTED_EDGE('',*,*,#565,.F.);
#723=ORIENTED_EDGE('',*,*,#566,.F.);
#724=ORIENTED_EDGE('',*,*,#567,.F.);
#725=ORIENTED_EDGE('',*,*,#568,.F.);
#726=ORIENTED_EDGE('',*,*,#569,.F.);
#727=ORIENTED_EDGE('',*,*,#570,.F.);
#728=ORIENTED_EDGE('',*,*,#539,.F.);
#729=ORIENTED_EDGE('',*,*,#571,.F.);
#730=ORIENTED_EDGE('',*,*,#535,.F.);
#731=ORIENTED_EDGE('',*,*,#572,.F.);
#732=ORIENTED_EDGE('',*,*,#527,.F.);
#733=ORIENTED_EDGE('',*,*,#573,.F.);
#734=ORIENTED_EDGE('',*,*,#574,.F.);
#735=ORIENTED_EDGE('',*,*,#575,.F.);
#736=ORIENTED_EDGE('',*,*,#550,.T.);
#737=ORIENTED_EDGE('',*,*,#553,.F.);
#738=ORIENTED_EDGE('',*,*,#547,.T.);
#739=ORIENTED_EDGE('',*,*,#575,.T.);
#740=ORIENTED_EDGE('',*,*,#576,.F.);
#741=ORIENTED_EDGE('',*,*,#577,.T.);
#742=ORIENTED_EDGE('',*,*,#520,.F.);
#743=ORIENTED_EDGE('',*,*,#574,.T.);
#744=ORIENTED_EDGE('',*,*,#578,.F.);
#745=ORIENTED_EDGE('',*,*,#579,.T.);
#746=ORIENTED_EDGE('',*,*,#576,.T.);
#747=ORIENTED_EDGE('',*,*,#573,.T.);
#748=ORIENTED_EDGE('',*,*,#534,.F.);
#749=ORIENTED_EDGE('',*,*,#580,.T.);
#750=ORIENTED_EDGE('',*,*,#578,.T.);
#751=ORIENTED_EDGE('',*,*,#557,.T.);
#752=ORIENTED_EDGE('',*,*,#581,.F.);
#753=ORIENTED_EDGE('',*,*,#582,.T.);
#754=ORIENTED_EDGE('',*,*,#583,.T.);
#755=ORIENTED_EDGE('',*,*,#556,.T.);
#756=ORIENTED_EDGE('',*,*,#526,.F.);
#757=ORIENTED_EDGE('',*,*,#584,.T.);
#758=ORIENTED_EDGE('',*,*,#581,.T.);
#759=ORIENTED_EDGE('',*,*,#560,.T.);
#760=ORIENTED_EDGE('',*,*,#585,.F.);
#761=ORIENTED_EDGE('',*,*,#586,.T.);
#762=ORIENTED_EDGE('',*,*,#587,.T.);
#763=ORIENTED_EDGE('',*,*,#562,.T.);
#764=ORIENTED_EDGE('',*,*,#588,.F.);
#765=ORIENTED_EDGE('',*,*,#589,.T.);
#766=ORIENTED_EDGE('',*,*,#590,.F.);
#767=ORIENTED_EDGE('',*,*,#565,.T.);
#768=ORIENTED_EDGE('',*,*,#591,.F.);
#769=ORIENTED_EDGE('',*,*,#592,.T.);
#770=ORIENTED_EDGE('',*,*,#593,.T.);
#771=ORIENTED_EDGE('',*,*,#564,.T.);
#772=ORIENTED_EDGE('',*,*,#594,.F.);
#773=ORIENTED_EDGE('',*,*,#595,.T.);
#774=ORIENTED_EDGE('',*,*,#591,.T.);
#775=ORIENTED_EDGE('',*,*,#569,.T.);
#776=ORIENTED_EDGE('',*,*,#596,.F.);
#777=ORIENTED_EDGE('',*,*,#597,.T.);
#778=ORIENTED_EDGE('',*,*,#598,.T.);
#779=ORIENTED_EDGE('',*,*,#568,.T.);
#780=ORIENTED_EDGE('',*,*,#599,.F.);
#781=ORIENTED_EDGE('',*,*,#600,.T.);
#782=ORIENTED_EDGE('',*,*,#596,.T.);
#783=ORIENTED_EDGE('',*,*,#571,.T.);
#784=ORIENTED_EDGE('',*,*,#546,.F.);
#785=ORIENTED_EDGE('',*,*,#601,.T.);
#786=ORIENTED_EDGE('',*,*,#536,.T.);
#787=ORIENTED_EDGE('',*,*,#602,.F.);
#788=ORIENTED_EDGE('',*,*,#603,.F.);
#789=ORIENTED_EDGE('',*,*,#604,.F.);
#790=ORIENTED_EDGE('',*,*,#523,.F.);
#791=ORIENTED_EDGE('',*,*,#605,.F.);
#792=ORIENTED_EDGE('',*,*,#606,.F.);
#793=ORIENTED_EDGE('',*,*,#607,.F.);
#794=ORIENTED_EDGE('',*,*,#531,.F.);
#795=ORIENTED_EDGE('',*,*,#608,.F.);
#796=ORIENTED_EDGE('',*,*,#609,.F.);
#797=ORIENTED_EDGE('',*,*,#610,.F.);
#798=ORIENTED_EDGE('',*,*,#543,.F.);
#799=ORIENTED_EDGE('',*,*,#611,.F.);
#800=ORIENTED_EDGE('',*,*,#612,.F.);
#801=ORIENTED_EDGE('',*,*,#613,.F.);
#802=ORIENTED_EDGE('',*,*,#614,.F.);
#803=ORIENTED_EDGE('',*,*,#615,.F.);
#804=ORIENTED_EDGE('',*,*,#616,.F.);
#805=ORIENTED_EDGE('',*,*,#617,.F.);
#806=ORIENTED_EDGE('',*,*,#618,.F.);
#807=ORIENTED_EDGE('',*,*,#619,.F.);
#808=ORIENTED_EDGE('',*,*,#620,.F.);
#809=ORIENTED_EDGE('',*,*,#621,.F.);
#810=ORIENTED_EDGE('',*,*,#622,.F.);
#811=ORIENTED_EDGE('',*,*,#549,.T.);
#812=ORIENTED_EDGE('',*,*,#552,.T.);
#813=ORIENTED_EDGE('',*,*,#555,.T.);
#814=ORIENTED_EDGE('',*,*,#610,.T.);
#815=ORIENTED_EDGE('',*,*,#623,.T.);
#816=ORIENTED_EDGE('',*,*,#624,.T.);
#817=ORIENTED_EDGE('',*,*,#544,.F.);
#818=ORIENTED_EDGE('',*,*,#609,.T.);
#819=ORIENTED_EDGE('',*,*,#625,.T.);
#820=ORIENTED_EDGE('',*,*,#626,.T.);
#821=ORIENTED_EDGE('',*,*,#623,.F.);
#822=ORIENTED_EDGE('',*,*,#608,.T.);
#823=ORIENTED_EDGE('',*,*,#530,.F.);
#824=ORIENTED_EDGE('',*,*,#627,.T.);
#825=ORIENTED_EDGE('',*,*,#625,.F.);
#826=ORIENTED_EDGE('',*,*,#607,.T.);
#827=ORIENTED_EDGE('',*,*,#628,.T.);
#828=ORIENTED_EDGE('',*,*,#629,.T.);
#829=ORIENTED_EDGE('',*,*,#532,.F.);
#830=ORIENTED_EDGE('',*,*,#606,.T.);
#831=ORIENTED_EDGE('',*,*,#630,.T.);
#832=ORIENTED_EDGE('',*,*,#631,.T.);
#833=ORIENTED_EDGE('',*,*,#628,.F.);
#834=ORIENTED_EDGE('',*,*,#605,.T.);
#835=ORIENTED_EDGE('',*,*,#522,.F.);
#836=ORIENTED_EDGE('',*,*,#632,.T.);
#837=ORIENTED_EDGE('',*,*,#630,.F.);
#838=ORIENTED_EDGE('',*,*,#604,.T.);
#839=ORIENTED_EDGE('',*,*,#633,.T.);
#840=ORIENTED_EDGE('',*,*,#634,.T.);
#841=ORIENTED_EDGE('',*,*,#524,.F.);
#842=ORIENTED_EDGE('',*,*,#603,.T.);
#843=ORIENTED_EDGE('',*,*,#635,.T.);
#844=ORIENTED_EDGE('',*,*,#636,.T.);
#845=ORIENTED_EDGE('',*,*,#633,.F.);
#846=ORIENTED_EDGE('',*,*,#602,.T.);
#847=ORIENTED_EDGE('',*,*,#637,.F.);
#848=ORIENTED_EDGE('',*,*,#638,.T.);
#849=ORIENTED_EDGE('',*,*,#635,.F.);
#850=ORIENTED_EDGE('',*,*,#559,.T.);
#851=ORIENTED_EDGE('',*,*,#639,.T.);
#852=ORIENTED_EDGE('',*,*,#640,.T.);
#853=ORIENTED_EDGE('',*,*,#637,.T.);
#854=ORIENTED_EDGE('',*,*,#622,.T.);
#855=ORIENTED_EDGE('',*,*,#641,.T.);
#856=ORIENTED_EDGE('',*,*,#642,.T.);
#857=ORIENTED_EDGE('',*,*,#585,.T.);
#858=ORIENTED_EDGE('',*,*,#563,.T.);
#859=ORIENTED_EDGE('',*,*,#590,.T.);
#860=ORIENTED_EDGE('',*,*,#643,.T.);
#861=ORIENTED_EDGE('',*,*,#644,.T.);
#862=ORIENTED_EDGE('',*,*,#618,.T.);
#863=ORIENTED_EDGE('',*,*,#645,.T.);
#864=ORIENTED_EDGE('',*,*,#646,.T.);
#865=ORIENTED_EDGE('',*,*,#594,.T.);
#866=ORIENTED_EDGE('',*,*,#567,.T.);
#867=ORIENTED_EDGE('',*,*,#647,.T.);
#868=ORIENTED_EDGE('',*,*,#648,.T.);
#869=ORIENTED_EDGE('',*,*,#649,.T.);
#870=ORIENTED_EDGE('',*,*,#614,.T.);
#871=ORIENTED_EDGE('',*,*,#650,.T.);
#872=ORIENTED_EDGE('',*,*,#651,.T.);
#873=ORIENTED_EDGE('',*,*,#599,.T.);
#874=ORIENTED_EDGE('',*,*,#584,.F.);
#875=ORIENTED_EDGE('',*,*,#525,.F.);
#876=ORIENTED_EDGE('',*,*,#634,.F.);
#877=ORIENTED_EDGE('',*,*,#636,.F.);
#878=ORIENTED_EDGE('',*,*,#638,.F.);
#879=ORIENTED_EDGE('',*,*,#640,.F.);
#880=ORIENTED_EDGE('',*,*,#652,.F.);
#881=ORIENTED_EDGE('',*,*,#582,.F.);
#882=ORIENTED_EDGE('',*,*,#580,.F.);
#883=ORIENTED_EDGE('',*,*,#533,.F.);
#884=ORIENTED_EDGE('',*,*,#629,.F.);
#885=ORIENTED_EDGE('',*,*,#631,.F.);
#886=ORIENTED_EDGE('',*,*,#632,.F.);
#887=ORIENTED_EDGE('',*,*,#521,.F.);
#888=ORIENTED_EDGE('',*,*,#577,.F.);
#889=ORIENTED_EDGE('',*,*,#579,.F.);
#890=ORIENTED_EDGE('',*,*,#601,.F.);
#891=ORIENTED_EDGE('',*,*,#545,.F.);
#892=ORIENTED_EDGE('',*,*,#624,.F.);
#893=ORIENTED_EDGE('',*,*,#626,.F.);
#894=ORIENTED_EDGE('',*,*,#627,.F.);
#895=ORIENTED_EDGE('',*,*,#529,.F.);
#896=ORIENTED_EDGE('',*,*,#653,.F.);
#897=ORIENTED_EDGE('',*,*,#537,.F.);
#898=ORIENTED_EDGE('',*,*,#613,.T.);
#899=ORIENTED_EDGE('',*,*,#654,.T.);
#900=ORIENTED_EDGE('',*,*,#655,.T.);
#901=ORIENTED_EDGE('',*,*,#650,.F.);
#902=ORIENTED_EDGE('',*,*,#612,.T.);
#903=ORIENTED_EDGE('',*,*,#656,.T.);
#904=ORIENTED_EDGE('',*,*,#657,.T.);
#905=ORIENTED_EDGE('',*,*,#654,.F.);
#906=ORIENTED_EDGE('',*,*,#611,.T.);
#907=ORIENTED_EDGE('',*,*,#542,.F.);
#908=ORIENTED_EDGE('',*,*,#658,.T.);
#909=ORIENTED_EDGE('',*,*,#656,.F.);
#910=ORIENTED_EDGE('',*,*,#600,.F.);
#911=ORIENTED_EDGE('',*,*,#651,.F.);
#912=ORIENTED_EDGE('',*,*,#655,.F.);
#913=ORIENTED_EDGE('',*,*,#657,.F.);
#914=ORIENTED_EDGE('',*,*,#658,.F.);
#915=ORIENTED_EDGE('',*,*,#541,.F.);
#916=ORIENTED_EDGE('',*,*,#659,.F.);
#917=ORIENTED_EDGE('',*,*,#597,.F.);
#918=ORIENTED_EDGE('',*,*,#617,.T.);
#919=ORIENTED_EDGE('',*,*,#660,.T.);
#920=ORIENTED_EDGE('',*,*,#661,.T.);
#921=ORIENTED_EDGE('',*,*,#645,.F.);
#922=ORIENTED_EDGE('',*,*,#616,.T.);
#923=ORIENTED_EDGE('',*,*,#662,.T.);
#924=ORIENTED_EDGE('',*,*,#663,.T.);
#925=ORIENTED_EDGE('',*,*,#660,.F.);
#926=ORIENTED_EDGE('',*,*,#615,.T.);
#927=ORIENTED_EDGE('',*,*,#649,.F.);
#928=ORIENTED_EDGE('',*,*,#664,.T.);
#929=ORIENTED_EDGE('',*,*,#662,.F.);
#930=ORIENTED_EDGE('',*,*,#595,.F.);
#931=ORIENTED_EDGE('',*,*,#646,.F.);
#932=ORIENTED_EDGE('',*,*,#661,.F.);
#933=ORIENTED_EDGE('',*,*,#663,.F.);
#934=ORIENTED_EDGE('',*,*,#664,.F.);
#935=ORIENTED_EDGE('',*,*,#648,.F.);
#936=ORIENTED_EDGE('',*,*,#665,.F.);
#937=ORIENTED_EDGE('',*,*,#592,.F.);
#938=ORIENTED_EDGE('',*,*,#586,.F.);
#939=ORIENTED_EDGE('',*,*,#642,.F.);
#940=ORIENTED_EDGE('',*,*,#666,.F.);
#941=ORIENTED_EDGE('',*,*,#667,.F.);
#942=ORIENTED_EDGE('',*,*,#668,.F.);
#943=ORIENTED_EDGE('',*,*,#643,.F.);
#944=ORIENTED_EDGE('',*,*,#589,.F.);
#945=ORIENTED_EDGE('',*,*,#669,.F.);
#946=ORIENTED_EDGE('',*,*,#619,.T.);
#947=ORIENTED_EDGE('',*,*,#644,.F.);
#948=ORIENTED_EDGE('',*,*,#668,.T.);
#949=ORIENTED_EDGE('',*,*,#670,.F.);
#950=ORIENTED_EDGE('',*,*,#620,.T.);
#951=ORIENTED_EDGE('',*,*,#670,.T.);
#952=ORIENTED_EDGE('',*,*,#667,.T.);
#953=ORIENTED_EDGE('',*,*,#671,.F.);
#954=ORIENTED_EDGE('',*,*,#621,.T.);
#955=ORIENTED_EDGE('',*,*,#671,.T.);
#956=ORIENTED_EDGE('',*,*,#666,.T.);
#957=ORIENTED_EDGE('',*,*,#641,.F.);
#958=ORIENTED_EDGE('',*,*,#570,.T.);
#959=ORIENTED_EDGE('',*,*,#598,.F.);
#960=ORIENTED_EDGE('',*,*,#659,.T.);
#961=ORIENTED_EDGE('',*,*,#540,.F.);
#962=ORIENTED_EDGE('',*,*,#566,.T.);
#963=ORIENTED_EDGE('',*,*,#593,.F.);
#964=ORIENTED_EDGE('',*,*,#665,.T.);
#965=ORIENTED_EDGE('',*,*,#647,.F.);
#966=ORIENTED_EDGE('',*,*,#558,.T.);
#967=ORIENTED_EDGE('',*,*,#583,.F.);
#968=ORIENTED_EDGE('',*,*,#652,.T.);
#969=ORIENTED_EDGE('',*,*,#639,.F.);
#970=ORIENTED_EDGE('',*,*,#572,.T.);
#971=ORIENTED_EDGE('',*,*,#538,.F.);
#972=ORIENTED_EDGE('',*,*,#653,.T.);
#973=ORIENTED_EDGE('',*,*,#528,.F.);
#974=ORIENTED_EDGE('',*,*,#561,.T.);
#975=ORIENTED_EDGE('',*,*,#587,.F.);
#976=ORIENTED_EDGE('',*,*,#669,.T.);
#977=ORIENTED_EDGE('',*,*,#588,.T.);
#978=CYLINDRICAL_SURFACE('',#1066,2.6);
#979=CYLINDRICAL_SURFACE('',#1071,2.6);
#980=CYLINDRICAL_SURFACE('',#1076,0.171875);
#981=CYLINDRICAL_SURFACE('',#1079,2.6);
#982=CYLINDRICAL_SURFACE('',#1084,0.12007874015748);
#983=CYLINDRICAL_SURFACE('',#1087,0.12007874015748);
#984=CYLINDRICAL_SURFACE('',#1090,0.12007874015748);
#985=CYLINDRICAL_SURFACE('',#1103,0.171875);
#986=CYLINDRICAL_SURFACE('',#1106,0.171875);
#987=CYLINDRICAL_SURFACE('',#1111,0.171875);
#988=CYLINDRICAL_SURFACE('',#1114,0.171875);
#989=CYLINDRICAL_SURFACE('',#1129,0.3);
#990=CYLINDRICAL_SURFACE('',#1133,0.3);
#991=CYLINDRICAL_SURFACE('',#1137,0.3);
#992=CYLINDRICAL_SURFACE('',#1140,2.6);
#993=CYLINDRICAL_SURFACE('',#1143,2.6);
#994=CYLINDRICAL_SURFACE('',#1146,2.6);
#995=CYLINDRICAL_SURFACE('',#1153,0.3);
#996=CYLINDRICAL_SURFACE('',#1158,0.3);
#997=CYLINDRICAL_SURFACE('',#1166,0.3);
#998=CYLINDRICAL_SURFACE('',#1172,0.171875);
#999=ADVANCED_FACE('',(#53),#978,.T.);
#1000=ADVANCED_FACE('',(#54),#979,.T.);
#1001=ADVANCED_FACE('',(#55),#980,.F.);
#1002=ADVANCED_FACE('',(#56),#981,.T.);
#1003=ADVANCED_FACE('',(#57),#982,.F.);
#1004=ADVANCED_FACE('',(#58),#983,.F.);
#1005=ADVANCED_FACE('',(#59),#984,.F.);
#1006=ADVANCED_FACE('',(#60,#15,#16,#17),#21,.T.);
#1007=ADVANCED_FACE('',(#61),#22,.F.);
#1008=ADVANCED_FACE('',(#62),#985,.F.);
#1009=ADVANCED_FACE('',(#63),#23,.F.);
#1010=ADVANCED_FACE('',(#64),#986,.F.);
#1011=ADVANCED_FACE('',(#65),#24,.F.);
#1012=ADVANCED_FACE('',(#66),#25,.F.);
#1013=ADVANCED_FACE('',(#67),#26,.F.);
#1014=ADVANCED_FACE('',(#68),#987,.F.);
#1015=ADVANCED_FACE('',(#69),#27,.F.);
#1016=ADVANCED_FACE('',(#70),#988,.F.);
#1017=ADVANCED_FACE('',(#71),#28,.F.);
#1018=ADVANCED_FACE('',(#72),#29,.F.);
#1019=ADVANCED_FACE('',(#73,#18,#19,#20),#30,.F.);
#1020=ADVANCED_FACE('',(#74),#31,.F.);
#1021=ADVANCED_FACE('',(#75),#989,.F.);
#1022=ADVANCED_FACE('',(#76),#32,.F.);
#1023=ADVANCED_FACE('',(#77),#33,.F.);
#1024=ADVANCED_FACE('',(#78),#990,.F.);
#1025=ADVANCED_FACE('',(#79),#34,.F.);
#1026=ADVANCED_FACE('',(#80),#35,.F.);
#1027=ADVANCED_FACE('',(#81),#991,.F.);
#1028=ADVANCED_FACE('',(#82),#36,.F.);
#1029=ADVANCED_FACE('',(#83),#992,.T.);
#1030=ADVANCED_FACE('',(#84),#993,.T.);
#1031=ADVANCED_FACE('',(#85),#994,.T.);
#1032=ADVANCED_FACE('',(#86),#37,.T.);
#1033=ADVANCED_FACE('',(#87),#38,.T.);
#1034=ADVANCED_FACE('',(#88),#39,.T.);
#1035=ADVANCED_FACE('',(#89),#40,.F.);
#1036=ADVANCED_FACE('',(#90),#995,.F.);
#1037=ADVANCED_FACE('',(#91),#41,.F.);
#1038=ADVANCED_FACE('',(#92),#42,.T.);
#1039=ADVANCED_FACE('',(#93),#43,.F.);
#1040=ADVANCED_FACE('',(#94),#996,.F.);
#1041=ADVANCED_FACE('',(#95),#44,.F.);
#1042=ADVANCED_FACE('',(#96),#45,.T.);
#1043=ADVANCED_FACE('',(#97),#46,.T.);
#1044=ADVANCED_FACE('',(#98),#47,.F.);
#1045=ADVANCED_FACE('',(#99),#997,.F.);
#1046=ADVANCED_FACE('',(#100),#48,.F.);
#1047=ADVANCED_FACE('',(#101),#49,.F.);
#1048=ADVANCED_FACE('',(#102),#50,.F.);
#1049=ADVANCED_FACE('',(#103),#51,.F.);
#1050=ADVANCED_FACE('',(#104),#52,.F.);
#1051=ADVANCED_FACE('',(#105),#998,.F.);
#1052=CLOSED_SHELL('',(#999,#1000,#1001,#1002,#1003,#1004,#1005,#1006,#1007,
#1008,#1009,#1010,#1011,#1012,#1013,#1014,#1015,#1016,#1017,#1018,#1019,
#1020,#1021,#1022,#1023,#1024,#1025,#1026,#1027,#1028,#1029,#1030,#1031,
#1032,#1033,#1034,#1035,#1036,#1037,#1038,#1039,#1040,#1041,#1042,#1043,
#1044,#1045,#1046,#1047,#1048,#1049,#1050,#1051));
#1053=DERIVED_UNIT_ELEMENT(#1055,1.);
#1054=DERIVED_UNIT_ELEMENT(#1804,-3.);
#1055=(
MASS_UNIT()
NAMED_UNIT(*)
SI_UNIT(.KILO.,.GRAM.)
);
#1056=DERIVED_UNIT((#1053,#1054));
#1057=MEASURE_REPRESENTATION_ITEM('density measure',
POSITIVE_RATIO_MEASURE(7850.),#1056);
#1058=PROPERTY_DEFINITION_REPRESENTATION(#1063,#1060);
#1059=PROPERTY_DEFINITION_REPRESENTATION(#1064,#1061);
#1060=REPRESENTATION('material name',(#1062),#1799);
#1061=REPRESENTATION('density',(#1057),#1799);
#1062=DESCRIPTIVE_REPRESENTATION_ITEM('Steel','Steel');
#1063=PROPERTY_DEFINITION('material property','material name',#1812);
#1064=PROPERTY_DEFINITION('material property','density of part',#1812);
#1065=AXIS2_PLACEMENT_3D('',#1488,#1173,#1174);
#1066=AXIS2_PLACEMENT_3D('',#1489,#1175,#1176);
#1067=AXIS2_PLACEMENT_3D('',#1492,#1177,#1178);
#1068=AXIS2_PLACEMENT_3D('',#1496,#1180,#1181);
#1069=AXIS2_PLACEMENT_3D('',#1500,#1183,#1184);
#1070=AXIS2_PLACEMENT_3D('',#1504,#1186,#1187);
#1071=AXIS2_PLACEMENT_3D('',#1506,#1189,#1190);
#1072=AXIS2_PLACEMENT_3D('',#1509,#1191,#1192);
#1073=AXIS2_PLACEMENT_3D('',#1513,#1194,#1195);
#1074=AXIS2_PLACEMENT_3D('',#1517,#1197,#1198);
#1075=AXIS2_PLACEMENT_3D('',#1521,#1200,#1201);
#1076=AXIS2_PLACEMENT_3D('',#1523,#1203,#1204);
#1077=AXIS2_PLACEMENT_3D('',#1526,#1205,#1206);
#1078=AXIS2_PLACEMENT_3D('',#1530,#1208,#1209);
#1079=AXIS2_PLACEMENT_3D('',#1532,#1211,#1212);
#1080=AXIS2_PLACEMENT_3D('',#1535,#1213,#1214);
#1081=AXIS2_PLACEMENT_3D('',#1539,#1216,#1217);
#1082=AXIS2_PLACEMENT_3D('',#1543,#1219,#1220);
#1083=AXIS2_PLACEMENT_3D('',#1547,#1222,#1223);
#1084=AXIS2_PLACEMENT_3D('',#1549,#1225,#1226);
#1085=AXIS2_PLACEMENT_3D('',#1551,#1227,#1228);
#1086=AXIS2_PLACEMENT_3D('',#1554,#1230,#1231);
#1087=AXIS2_PLACEMENT_3D('',#1555,#1232,#1233);
#1088=AXIS2_PLACEMENT_3D('',#1557,#1234,#1235);
#1089=AXIS2_PLACEMENT_3D('',#1560,#1237,#1238);
#1090=AXIS2_PLACEMENT_3D('',#1561,#1239,#1240);
#1091=AXIS2_PLACEMENT_3D('',#1563,#1241,#1242);
#1092=AXIS2_PLACEMENT_3D('',#1566,#1244,#1245);
#1093=AXIS2_PLACEMENT_3D('',#1567,#1246,#1247);
#1094=AXIS2_PLACEMENT_3D('',#1571,#1249,#1250);
#1095=AXIS2_PLACEMENT_3D('',#1575,#1252,#1253);
#1096=AXIS2_PLACEMENT_3D('',#1579,#1255,#1256);
#1097=AXIS2_PLACEMENT_3D('',#1583,#1258,#1259);
#1098=AXIS2_PLACEMENT_3D('',#1587,#1261,#1262);
#1099=AXIS2_PLACEMENT_3D('',#1591,#1264,#1265);
#1100=AXIS2_PLACEMENT_3D('',#1595,#1267,#1268);
#1101=AXIS2_PLACEMENT_3D('',#1602,#1273,#1274);
#1102=AXIS2_PLACEMENT_3D('',#1604,#1276,#1277);
#1103=AXIS2_PLACEMENT_3D('',#1608,#1280,#1281);
#1104=AXIS2_PLACEMENT_3D('',#1611,#1283,#1284);
#1105=AXIS2_PLACEMENT_3D('',#1612,#1285,#1286);
#1106=AXIS2_PLACEMENT_3D('',#1614,#1288,#1289);
#1107=AXIS2_PLACEMENT_3D('',#1618,#1291,#1292);
#1108=AXIS2_PLACEMENT_3D('',#1620,#1294,#1295);
#1109=AXIS2_PLACEMENT_3D('',#1622,#1297,#1298);
#1110=AXIS2_PLACEMENT_3D('',#1628,#1302,#1303);
#1111=AXIS2_PLACEMENT_3D('',#1634,#1307,#1308);
#1112=AXIS2_PLACEMENT_3D('',#1638,#1310,#1311);
#1113=AXIS2_PLACEMENT_3D('',#1640,#1313,#1314);
#1114=AXIS2_PLACEMENT_3D('',#1644,#1317,#1318);
#1115=AXIS2_PLACEMENT_3D('',#1648,#1320,#1321);
#1116=AXIS2_PLACEMENT_3D('',#1650,#1323,#1324);
#1117=AXIS2_PLACEMENT_3D('',#1654,#1327,#1328);
#1118=AXIS2_PLACEMENT_3D('',#1656,#1330,#1331);
#1119=AXIS2_PLACEMENT_3D('',#1661,#1333,#1334);
#1120=AXIS2_PLACEMENT_3D('',#1666,#1337,#1338);
#1121=AXIS2_PLACEMENT_3D('',#1671,#1341,#1342);
#1122=AXIS2_PLACEMENT_3D('',#1676,#1345,#1346);
#1123=AXIS2_PLACEMENT_3D('',#1680,#1348,#1349);
#1124=AXIS2_PLACEMENT_3D('',#1684,#1351,#1352);
#1125=AXIS2_PLACEMENT_3D('',#1688,#1354,#1355);
#1126=AXIS2_PLACEMENT_3D('',#1692,#1357,#1358);
#1127=AXIS2_PLACEMENT_3D('',#1695,#1360,#1361);
#1128=AXIS2_PLACEMENT_3D('',#1696,#1362,#1363);
#1129=AXIS2_PLACEMENT_3D('',#1700,#1366,#1367);
#1130=AXIS2_PLACEMENT_3D('',#1703,#1369,#1370);
#1131=AXIS2_PLACEMENT_3D('',#1704,#1371,#1372);
#1132=AXIS2_PLACEMENT_3D('',#1706,#1374,#1375);
#1133=AXIS2_PLACEMENT_3D('',#1710,#1378,#1379);
#1134=AXIS2_PLACEMENT_3D('',#1713,#1381,#1382);
#1135=AXIS2_PLACEMENT_3D('',#1714,#1383,#1384);
#1136=AXIS2_PLACEMENT_3D('',#1716,#1386,#1387);
#1137=AXIS2_PLACEMENT_3D('',#1720,#1390,#1391);
#1138=AXIS2_PLACEMENT_3D('',#1723,#1393,#1394);
#1139=AXIS2_PLACEMENT_3D('',#1724,#1395,#1396);
#1140=AXIS2_PLACEMENT_3D('',#1728,#1399,#1400);
#1141=AXIS2_PLACEMENT_3D('',#1731,#1402,#1403);
#1142=AXIS2_PLACEMENT_3D('',#1734,#1405,#1406);
#1143=AXIS2_PLACEMENT_3D('',#1735,#1407,#1408);
#1144=AXIS2_PLACEMENT_3D('',#1737,#1409,#1410);
#1145=AXIS2_PLACEMENT_3D('',#1741,#1413,#1414);
#1146=AXIS2_PLACEMENT_3D('',#1742,#1415,#1416);
#1147=AXIS2_PLACEMENT_3D('',#1746,#1418,#1419);
#1148=AXIS2_PLACEMENT_3D('',#1750,#1422,#1423);
#1149=AXIS2_PLACEMENT_3D('',#1751,#1424,#1425);
#1150=AXIS2_PLACEMENT_3D('',#1753,#1427,#1428);
#1151=AXIS2_PLACEMENT_3D('',#1754,#1429,#1430);
#1152=AXIS2_PLACEMENT_3D('',#1756,#1432,#1433);
#1153=AXIS2_PLACEMENT_3D('',#1760,#1436,#1437);
#1154=AXIS2_PLACEMENT_3D('',#1763,#1439,#1440);
#1155=AXIS2_PLACEMENT_3D('',#1764,#1441,#1442);
#1156=AXIS2_PLACEMENT_3D('',#1766,#1444,#1445);
#1157=AXIS2_PLACEMENT_3D('',#1768,#1447,#1448);
#1158=AXIS2_PLACEMENT_3D('',#1772,#1451,#1452);
#1159=AXIS2_PLACEMENT_3D('',#1775,#1454,#1455);
#1160=AXIS2_PLACEMENT_3D('',#1776,#1456,#1457);
#1161=AXIS2_PLACEMENT_3D('',#1778,#1459,#1460);
#1162=AXIS2_PLACEMENT_3D('',#1780,#1462,#1463);
#1163=AXIS2_PLACEMENT_3D('',#1784,#1465,#1466);
#1164=AXIS2_PLACEMENT_3D('',#1786,#1468,#1469);
#1165=AXIS2_PLACEMENT_3D('',#1787,#1470,#1471);
#1166=AXIS2_PLACEMENT_3D('',#1789,#1473,#1474);
#1167=AXIS2_PLACEMENT_3D('',#1791,#1476,#1477);
#1168=AXIS2_PLACEMENT_3D('',#1792,#1478,#1479);
#1169=AXIS2_PLACEMENT_3D('',#1793,#1480,#1481);
#1170=AXIS2_PLACEMENT_3D('',#1794,#1482,#1483);
#1171=AXIS2_PLACEMENT_3D('',#1795,#1484,#1485);
#1172=AXIS2_PLACEMENT_3D('',#1796,#1486,#1487);
#1173=DIRECTION('axis',(0.,0.,1.));
#1174=DIRECTION('refdir',(1.,0.,0.));
#1175=DIRECTION('center_axis',(0.,-1.,0.));
#1176=DIRECTION('ref_axis',(-1.,0.,0.));
#1177=DIRECTION('center_axis',(0.,-1.,0.));
#1178=DIRECTION('ref_axis',(-1.,0.,0.));
#1179=DIRECTION('',(0.,-1.,0.));
#1180=DIRECTION('center_axis',(0.,1.,0.));
#1181=DIRECTION('ref_axis',(-1.,0.,0.));
#1182=DIRECTION('',(0.,-1.,0.));
#1183=DIRECTION('center_axis',(0.,1.,0.));
#1184=DIRECTION('ref_axis',(-1.,0.,0.));
#1185=DIRECTION('',(0.,1.,0.));
#1186=DIRECTION('center_axis',(0.,1.,0.));
#1187=DIRECTION('ref_axis',(-1.,0.,0.));
#1188=DIRECTION('',(0.,1.,0.));
#1189=DIRECTION('center_axis',(0.,-1.,0.));
#1190=DIRECTION('ref_axis',(-1.,0.,0.));
#1191=DIRECTION('center_axis',(0.,-1.,0.));
#1192=DIRECTION('ref_axis',(-1.,0.,0.));
#1193=DIRECTION('',(0.,-1.,0.));
#1194=DIRECTION('center_axis',(0.,1.,0.));
#1195=DIRECTION('ref_axis',(-1.,0.,0.));
#1196=DIRECTION('',(0.,-1.,0.));
#1197=DIRECTION('center_axis',(0.,1.,0.));
#1198=DIRECTION('ref_axis',(-1.,0.,0.));
#1199=DIRECTION('',(0.,1.,0.));
#1200=DIRECTION('center_axis',(0.,1.,0.));
#1201=DIRECTION('ref_axis',(-1.,0.,0.));
#1202=DIRECTION('',(0.,1.,0.));
#1203=DIRECTION('center_axis',(0.,-1.,0.));
#1204=DIRECTION('ref_axis',(-1.,0.,0.));
#1205=DIRECTION('center_axis',(0.,1.,0.));
#1206=DIRECTION('ref_axis',(-1.,0.,0.));
#1207=DIRECTION('',(0.,1.,0.));
#1208=DIRECTION('center_axis',(0.,-1.,0.));
#1209=DIRECTION('ref_axis',(-1.,0.,0.));
#1210=DIRECTION('',(0.,1.,0.));
#1211=DIRECTION('center_axis',(0.,-1.,0.));
#1212=DIRECTION('ref_axis',(-1.,0.,0.));
#1213=DIRECTION('center_axis',(0.,-1.,0.));
#1214=DIRECTION('ref_axis',(-1.,0.,0.));
#1215=DIRECTION('',(0.,-1.,0.));
#1216=DIRECTION('center_axis',(0.,1.,0.));
#1217=DIRECTION('ref_axis',(-1.,0.,0.));
#1218=DIRECTION('',(0.,-1.,0.));
#1219=DIRECTION('center_axis',(0.,1.,0.));
#1220=DIRECTION('ref_axis',(-1.,0.,0.));
#1221=DIRECTION('',(0.,1.,0.));
#1222=DIRECTION('center_axis',(0.,1.,0.));
#1223=DIRECTION('ref_axis',(-1.,0.,0.));
#1224=DIRECTION('',(0.,1.,0.));
#1225=DIRECTION('center_axis',(0.,-1.,0.));
#1226=DIRECTION('ref_axis',(0.5,0.,-0.866025403784438));
#1227=DIRECTION('center_axis',(0.,-1.,0.));
#1228=DIRECTION('ref_axis',(0.5,0.,-0.866025403784438));
#1229=DIRECTION('',(0.,-1.,0.));
#1230=DIRECTION('center_axis',(0.,1.,0.));
#1231=DIRECTION('ref_axis',(0.5,0.,-0.866025403784438));
#1232=DIRECTION('center_axis',(0.,-1.,0.));
#1233=DIRECTION('ref_axis',(0.5,0.,0.866025403784439));
#1234=DIRECTION('center_axis',(0.,-1.,0.));
#1235=DIRECTION('ref_axis',(0.5,0.,0.866025403784439));
#1236=DIRECTION('',(0.,-1.,0.));
#1237=DIRECTION('center_axis',(0.,1.,0.));
#1238=DIRECTION('ref_axis',(0.5,0.,0.866025403784439));
#1239=DIRECTION('center_axis',(0.,-1.,0.));
#1240=DIRECTION('ref_axis',(-1.,0.,0.));
#1241=DIRECTION('center_axis',(0.,1.,0.));
#1242=DIRECTION('ref_axis',(-1.,0.,0.));
#1243=DIRECTION('',(0.,-1.,0.));
#1244=DIRECTION('center_axis',(0.,1.,0.));
#1245=DIRECTION('ref_axis',(-1.,0.,0.));
#1246=DIRECTION('center_axis',(0.,1.,0.));
#1247=DIRECTION('ref_axis',(-1.,0.,0.));
#1248=DIRECTION('',(-0.866025403784439,0.,0.5));
#1249=DIRECTION('center_axis',(0.,1.,0.));
#1250=DIRECTION('ref_axis',(0.5,0.,0.866025403784439));
#1251=DIRECTION('',(0.866025403784439,0.,-0.5));
#1252=DIRECTION('center_axis',(0.,-1.,0.));
#1253=DIRECTION('ref_axis',(-1.,0.,0.));
#1254=DIRECTION('',(-1.22464679914735E-16,0.,1.));
#1255=DIRECTION('center_axis',(0.,1.,0.));
#1256=DIRECTION('ref_axis',(1.,0.,1.22464679914735E-16));
#1257=DIRECTION('',(1.22464679914735E-16,0.,-1.));
#1258=DIRECTION('center_axis',(0.,-1.,0.));
#1259=DIRECTION('ref_axis',(-1.,0.,0.));
#1260=DIRECTION('',(0.866025403784438,0.,0.5));
#1261=DIRECTION('center_axis',(0.,1.,0.));
#1262=DIRECTION('ref_axis',(0.5,0.,-0.866025403784438));
#1263=DIRECTION('',(-0.866025403784438,0.,-0.5));
#1264=DIRECTION('center_axis',(0.,-1.,0.));
#1265=DIRECTION('ref_axis',(-1.,0.,0.));
#1266=DIRECTION('',(0.866025403784439,0.,-0.499999999999999));
#1267=DIRECTION('center_axis',(0.,1.,0.));
#1268=DIRECTION('ref_axis',(-0.499999999999999,0.,-0.866025403784439));
#1269=DIRECTION('',(-0.866025403784439,0.,0.499999999999999));
#1270=DIRECTION('',(0.,0.,-1.));
#1271=DIRECTION('',(0.,0.,1.));
#1272=DIRECTION('',(-0.866025403784439,0.,-0.5));
#1273=DIRECTION('center_axis',(0.,1.,0.));
#1274=DIRECTION('ref_axis',(-0.5,0.,0.866025403784439));
#1275=DIRECTION('',(0.866025403784439,0.,0.5));
#1276=DIRECTION('center_axis',(-0.5,0.,0.866025403784439));
#1277=DIRECTION('ref_axis',(-0.866025403784439,0.,-0.5));
#1278=DIRECTION('',(0.,1.,0.));
#1279=DIRECTION('',(-0.866025403784439,0.,-0.5));
#1280=DIRECTION('center_axis',(0.,-1.,0.));
#1281=DIRECTION('ref_axis',(-0.5,0.,0.866025403784439));
#1282=DIRECTION('',(0.,1.,0.));
#1283=DIRECTION('center_axis',(0.,-1.,0.));
#1284=DIRECTION('ref_axis',(-0.5,0.,0.866025403784439));
#1285=DIRECTION('center_axis',(0.5,0.,-0.866025403784439));
#1286=DIRECTION('ref_axis',(0.866025403784439,0.,0.5));
#1287=DIRECTION('',(0.866025403784439,0.,0.5));
#1288=DIRECTION('center_axis',(0.,-1.,0.));
#1289=DIRECTION('ref_axis',(0.5,0.,0.866025403784439));
#1290=DIRECTION('',(0.,1.,0.));
#1291=DIRECTION('center_axis',(0.,-1.,0.));
#1292=DIRECTION('ref_axis',(0.5,0.,0.866025403784439));
#1293=DIRECTION('',(0.,1.,0.));
#1294=DIRECTION('center_axis',(-0.5,0.,-0.866025403784439));
#1295=DIRECTION('ref_axis',(0.866025403784439,0.,-0.5));
#1296=DIRECTION('',(0.866025403784439,0.,-0.5));
#1297=DIRECTION('center_axis',(-1.,0.,-1.22464679914735E-16));
#1298=DIRECTION('ref_axis',(1.22464679914735E-16,0.,-1.));
#1299=DIRECTION('',(0.,1.,0.));
#1300=DIRECTION('',(1.22464679914735E-16,0.,-1.));
#1301=DIRECTION('',(0.,1.,0.));
#1302=DIRECTION('center_axis',(1.,0.,1.22464679914735E-16));
#1303=DIRECTION('ref_axis',(-1.22464679914735E-16,0.,1.));
#1304=DIRECTION('',(0.,1.,0.));
#1305=DIRECTION('',(-1.22464679914735E-16,0.,1.));
#1306=DIRECTION('',(0.,-1.,0.));
#1307=DIRECTION('center_axis',(0.,-1.,0.));
#1308=DIRECTION('ref_axis',(0.5,0.,-0.866025403784438));
#1309=DIRECTION('',(0.,1.,0.));
#1310=DIRECTION('center_axis',(0.,-1.,0.));
#1311=DIRECTION('ref_axis',(0.5,0.,-0.866025403784438));
#1312=DIRECTION('',(0.,1.,0.));
#1313=DIRECTION('center_axis',(-0.5,0.,0.866025403784438));
#1314=DIRECTION('ref_axis',(-0.866025403784438,0.,-0.5));
#1315=DIRECTION('',(0.,1.,0.));
#1316=DIRECTION('',(-0.866025403784438,0.,-0.5));
#1317=DIRECTION('center_axis',(0.,-1.,0.));
#1318=DIRECTION('ref_axis',(-0.499999999999999,0.,-0.866025403784439));
#1319=DIRECTION('',(0.,1.,0.));
#1320=DIRECTION('center_axis',(0.,-1.,0.));
#1321=DIRECTION('ref_axis',(-0.499999999999999,0.,-0.866025403784439));
#1322=DIRECTION('',(0.,1.,0.));
#1323=DIRECTION('center_axis',(0.499999999999999,0.,0.866025403784439));
#1324=DIRECTION('ref_axis',(-0.866025403784439,0.,0.499999999999999));
#1325=DIRECTION('',(0.,1.,0.));
#1326=DIRECTION('',(-0.866025403784439,0.,0.499999999999999));
#1327=DIRECTION('center_axis',(1.,0.,0.));
#1328=DIRECTION('ref_axis',(0.,0.,1.));
#1329=DIRECTION('',(0.,0.,1.));
#1330=DIRECTION('center_axis',(0.,1.,0.));
#1331=DIRECTION('ref_axis',(0.,0.,1.));
#1332=DIRECTION('',(-0.866025403784439,0.,0.499999999999999));
#1333=DIRECTION('center_axis',(0.,-1.,0.));
#1334=DIRECTION('ref_axis',(0.499999999999999,0.,0.866025403784439));
#1335=DIRECTION('',(0.866025403784439,0.,-0.499999999999999));
#1336=DIRECTION('',(-0.866025403784438,0.,-0.500000000000001));
#1337=DIRECTION('center_axis',(0.,-1.,0.));
#1338=DIRECTION('ref_axis',(-0.5,0.,0.866025403784438));
#1339=DIRECTION('',(0.866025403784438,0.,0.5));
#1340=DIRECTION('',(1.90519829247192E-16,0.,-1.));
#1341=DIRECTION('center_axis',(0.,-1.,0.));
#1342=DIRECTION('ref_axis',(-1.,0.,-1.22464679914735E-16));
#1343=DIRECTION('',(-1.22464679914735E-16,0.,1.));
#1344=DIRECTION('',(0.866025403784439,0.,-0.5));
#1345=DIRECTION('center_axis',(0.,-1.,0.));
#1346=DIRECTION('ref_axis',(-0.5,0.,-0.866025403784439));
#1347=DIRECTION('',(-0.866025403784439,0.,0.5));
#1348=DIRECTION('center_axis',(0.,1.,0.));
#1349=DIRECTION('ref_axis',(-1.,0.,0.));
#1350=DIRECTION('',(0.866025403784438,0.,0.5));
#1351=DIRECTION('center_axis',(0.,-1.,0.));
#1352=DIRECTION('ref_axis',(0.5,0.,-0.866025403784439));
#1353=DIRECTION('',(-0.866025403784439,0.,-0.5));
#1354=DIRECTION('center_axis',(0.,1.,0.));
#1355=DIRECTION('ref_axis',(-1.,0.,0.));
#1356=DIRECTION('',(-6.80551493324571E-17,0.,1.));
#1357=DIRECTION('center_axis',(0.,-1.,0.));
#1358=DIRECTION('ref_axis',(1.,0.,0.));
#1359=DIRECTION('',(0.,0.,-1.));
#1360=DIRECTION('center_axis',(0.,1.,0.));
#1361=DIRECTION('ref_axis',(-1.,0.,0.));
#1362=DIRECTION('center_axis',(1.,0.,1.22464679914735E-16));
#1363=DIRECTION('ref_axis',(1.22464679914735E-16,0.,-1.));
#1364=DIRECTION('',(0.,1.,0.));
#1365=DIRECTION('',(1.22464679914735E-16,0.,-1.));
#1366=DIRECTION('center_axis',(0.,1.,0.));
#1367=DIRECTION('ref_axis',(-1.,0.,-1.22464679914735E-16));
#1368=DIRECTION('',(0.,1.,0.));
#1369=DIRECTION('center_axis',(0.,1.,0.));
#1370=DIRECTION('ref_axis',(-1.,0.,-1.22464679914735E-16));
#1371=DIRECTION('center_axis',(-1.,0.,-1.90519829247192E-16));
#1372=DIRECTION('ref_axis',(-1.90519829247192E-16,0.,1.));
#1373=DIRECTION('',(-1.90519829247192E-16,0.,1.));
#1374=DIRECTION('center_axis',(0.5,0.,-0.866025403784438));
#1375=DIRECTION('ref_axis',(-0.866025403784438,0.,-0.5));
#1376=DIRECTION('',(0.,1.,0.));
#1377=DIRECTION('',(-0.866025403784438,0.,-0.5));
#1378=DIRECTION('center_axis',(0.,1.,0.));
#1379=DIRECTION('ref_axis',(-0.5,0.,0.866025403784438));
#1380=DIRECTION('',(0.,1.,0.));
#1381=DIRECTION('center_axis',(0.,1.,0.));
#1382=DIRECTION('ref_axis',(-0.5,0.,0.866025403784438));
#1383=DIRECTION('center_axis',(-0.500000000000001,0.,0.866025403784438));
#1384=DIRECTION('ref_axis',(0.866025403784438,0.,0.500000000000001));
#1385=DIRECTION('',(0.866025403784438,0.,0.500000000000001));
#1386=DIRECTION('center_axis',(-0.499999999999999,0.,-0.866025403784439));
#1387=DIRECTION('ref_axis',(-0.866025403784439,0.,0.499999999999999));
#1388=DIRECTION('',(0.,1.,0.));
#1389=DIRECTION('',(-0.866025403784439,0.,0.499999999999999));
#1390=DIRECTION('center_axis',(0.,1.,0.));
#1391=DIRECTION('ref_axis',(0.499999999999999,0.,0.866025403784439));
#1392=DIRECTION('',(0.,1.,0.));
#1393=DIRECTION('center_axis',(0.,1.,0.));
#1394=DIRECTION('ref_axis',(0.499999999999999,0.,0.866025403784439));
#1395=DIRECTION('center_axis',(0.499999999999999,0.,0.866025403784439));
#1396=DIRECTION('ref_axis',(0.866025403784439,0.,-0.499999999999999));
#1397=DIRECTION('',(0.,-1.,0.));
#1398=DIRECTION('',(0.866025403784439,0.,-0.499999999999999));
#1399=DIRECTION('center_axis',(0.,-1.,0.));
#1400=DIRECTION('ref_axis',(-1.,0.,0.));
#1401=DIRECTION('',(0.,-1.,0.));
#1402=DIRECTION('center_axis',(0.,1.,0.));
#1403=DIRECTION('ref_axis',(-1.,0.,0.));
#1404=DIRECTION('',(0.,1.,0.));
#1405=DIRECTION('center_axis',(0.,1.,0.));
#1406=DIRECTION('ref_axis',(-1.,0.,0.));
#1407=DIRECTION('center_axis',(0.,-1.,0.));
#1408=DIRECTION('ref_axis',(-1.,0.,0.));
#1409=DIRECTION('center_axis',(0.,1.,0.));
#1410=DIRECTION('ref_axis',(-1.,0.,0.));
#1411=DIRECTION('',(0.,-1.,0.));
#1412=DIRECTION('',(0.,1.,0.));
#1413=DIRECTION('center_axis',(0.,1.,0.));
#1414=DIRECTION('ref_axis',(-1.,0.,0.));
#1415=DIRECTION('center_axis',(0.,-1.,0.));
#1416=DIRECTION('ref_axis',(1.,0.,3.21624529935327E-16));
#1417=DIRECTION('',(0.,-1.,0.));
#1418=DIRECTION('center_axis',(0.,1.,0.));
#1419=DIRECTION('ref_axis',(-1.,0.,0.));
#1420=DIRECTION('',(0.,-1.,0.));
#1421=DIRECTION('',(0.,1.,0.));
#1422=DIRECTION('center_axis',(0.,1.,0.));
#1423=DIRECTION('ref_axis',(-1.,0.,0.));
#1424=DIRECTION('center_axis',(0.,-1.,0.));
#1425=DIRECTION('ref_axis',(0.499999999999999,0.,0.866025403784439));
#1426=DIRECTION('',(-0.866025403784439,0.,0.5));
#1427=DIRECTION('center_axis',(0.,-1.,0.));
#1428=DIRECTION('ref_axis',(-0.5,0.,0.866025403784438));
#1429=DIRECTION('center_axis',(0.,-1.,0.));
#1430=DIRECTION('ref_axis',(-1.,0.,-1.22464679914735E-16));
#1431=DIRECTION('',(0.,0.,-1.));
#1432=DIRECTION('center_axis',(0.5,0.,0.866025403784439));
#1433=DIRECTION('ref_axis',(0.866025403784439,0.,-0.5));
#1434=DIRECTION('',(0.,1.,0.));
#1435=DIRECTION('',(0.866025403784439,0.,-0.5));
#1436=DIRECTION('center_axis',(0.,1.,0.));
#1437=DIRECTION('ref_axis',(-0.5,0.,-0.866025403784439));
#1438=DIRECTION('',(0.,1.,0.));
#1439=DIRECTION('center_axis',(0.,1.,0.));
#1440=DIRECTION('ref_axis',(-0.5,0.,-0.866025403784439));
#1441=DIRECTION('center_axis',(-0.5,0.,-0.866025403784439));
#1442=DIRECTION('ref_axis',(-0.866025403784439,0.,0.5));
#1443=DIRECTION('',(-0.866025403784439,0.,0.5));
#1444=DIRECTION('center_axis',(0.,-1.,0.));
#1445=DIRECTION('ref_axis',(-0.5,0.,-0.866025403784439));
#1446=DIRECTION('',(0.866025403784439,0.,-0.499999999999999));
#1447=DIRECTION('center_axis',(-0.5,0.,0.866025403784439));
#1448=DIRECTION('ref_axis',(0.866025403784439,0.,0.5));
#1449=DIRECTION('',(0.,1.,0.));
#1450=DIRECTION('',(0.866025403784439,0.,0.5));
#1451=DIRECTION('center_axis',(0.,1.,0.));
#1452=DIRECTION('ref_axis',(0.5,0.,-0.866025403784439));
#1453=DIRECTION('',(0.,1.,0.));
#1454=DIRECTION('center_axis',(0.,1.,0.));
#1455=DIRECTION('ref_axis',(0.5,0.,-0.866025403784439));
#1456=DIRECTION('center_axis',(0.5,0.,-0.866025403784439));
#1457=DIRECTION('ref_axis',(-0.866025403784438,0.,-0.5));
#1458=DIRECTION('',(-0.866025403784438,0.,-0.5));
#1459=DIRECTION('center_axis',(0.,-1.,0.));
#1460=DIRECTION('ref_axis',(0.5,0.,-0.866025403784439));
#1461=DIRECTION('',(0.866025403784438,0.,0.5));
#1462=DIRECTION('center_axis',(0.,-1.,0.));
#1463=DIRECTION('ref_axis',(1.,0.,0.));
#1464=DIRECTION('',(0.,0.,1.));
#1465=DIRECTION('center_axis',(0.,1.,0.));
#1466=DIRECTION('ref_axis',(1.,0.,0.));
#1467=DIRECTION('',(6.80551493324571E-17,0.,-1.));
#1468=DIRECTION('center_axis',(0.,-1.,0.));
#1469=DIRECTION('ref_axis',(1.,0.,1.22464679914735E-16));
#1470=DIRECTION('center_axis',(1.,0.,6.80551493324571E-17));
#1471=DIRECTION('ref_axis',(6.80551493324571E-17,0.,-1.));
#1472=DIRECTION('',(0.,1.,0.));
#1473=DIRECTION('center_axis',(0.,1.,0.));
#1474=DIRECTION('ref_axis',(1.,0.,0.));
#1475=DIRECTION('',(0.,1.,0.));
#1476=DIRECTION('center_axis',(-1.,0.,0.));
#1477=DIRECTION('ref_axis',(0.,0.,1.));
#1478=DIRECTION('center_axis',(-0.499999999999999,0.,-0.866025403784439));
#1479=DIRECTION('ref_axis',(0.866025403784439,0.,-0.499999999999999));
#1480=DIRECTION('center_axis',(0.5,0.,-0.866025403784438));
#1481=DIRECTION('ref_axis',(0.866025403784438,0.,0.5));
#1482=DIRECTION('center_axis',(0.5,0.,0.866025403784439));
#1483=DIRECTION('ref_axis',(-0.866025403784439,0.,0.5));
#1484=DIRECTION('center_axis',(-1.,0.,0.));
#1485=DIRECTION('ref_axis',(0.,0.,-1.));
#1486=DIRECTION('center_axis',(0.,-1.,0.));
#1487=DIRECTION('ref_axis',(1.,0.,1.22464679914735E-16));
#1488=CARTESIAN_POINT('',(0.,0.,0.));
#1489=CARTESIAN_POINT('Origin',(0.,0.,0.));
#1490=CARTESIAN_POINT('',(-2.3326783035377,-0.000149606299212617,1.14830829144636));
#1491=CARTESIAN_POINT('',(-2.3326783035377,-0.000149606299212617,-1.14830829144636));
#1492=CARTESIAN_POINT('Origin',(0.,-0.000149606299212617,0.));
#1493=CARTESIAN_POINT('',(-2.3326783035377,-0.2,-1.14830829144636));
#1494=CARTESIAN_POINT('',(-2.3326783035377,0.,-1.14830829144636));
#1495=CARTESIAN_POINT('',(-2.38520205705743,-0.2,-1.03480005170516));
#1496=CARTESIAN_POINT('Origin',(0.,-0.2,0.));
#1497=CARTESIAN_POINT('',(-2.38520205705743,-0.5,-1.03480005170516));
#1498=CARTESIAN_POINT('',(-2.38520205705743,0.,-1.03480005170516));
#1499=CARTESIAN_POINT('',(-2.3866269284585,-0.5,1.03150952703151));
#1500=CARTESIAN_POINT('Origin',(0.,-0.5,0.));
#1501=CARTESIAN_POINT('',(-2.3866269284585,-0.2,1.03150952703151));
#1502=CARTESIAN_POINT('',(-2.3866269284585,0.,1.03150952703151));
#1503=CARTESIAN_POINT('',(-2.33267830353771,-0.2,1.14830829144636));
#1504=CARTESIAN_POINT('Origin',(0.,-0.2,0.));
#1505=CARTESIAN_POINT('',(-2.3326783035377,0.,1.14830829144636));
#1506=CARTESIAN_POINT('Origin',(0.,0.,0.));
#1507=CARTESIAN_POINT('',(-2.1608033035377,-0.000149606299212617,-1.44600452399726));
#1508=CARTESIAN_POINT('',(-0.171875,-0.000149606299212617,-2.59431281544362));
#1509=CARTESIAN_POINT('Origin',(0.,-0.000149606299212617,0.));
#1510=CARTESIAN_POINT('',(-0.171875000000001,-0.2,-2.59431281544362));
#1511=CARTESIAN_POINT('',(-0.171875,0.,-2.59431281544362));
#1512=CARTESIAN_POINT('',(-0.296437895914593,-0.2,-2.58304560042321));
#1513=CARTESIAN_POINT('Origin',(0.,-0.2,0.));
#1514=CARTESIAN_POINT('',(-0.296437895914593,-0.5,-2.58304560042322));
#1515=CARTESIAN_POINT('',(-0.296437895914593,0.,-2.58304560042322));
#1516=CARTESIAN_POINT('',(-2.08662691888421,-0.5,-1.55112478588533));
#1517=CARTESIAN_POINT('Origin',(0.,-0.5,0.));
#1518=CARTESIAN_POINT('',(-2.08662691888421,-0.2,-1.55112478588533));
#1519=CARTESIAN_POINT('',(-2.08662691888421,0.,-1.55112478588533));
#1520=CARTESIAN_POINT('',(-2.1608033035377,-0.2,-1.44600452399726));
#1521=CARTESIAN_POINT('Origin',(0.,-0.2,0.));
#1522=CARTESIAN_POINT('',(-2.1608033035377,0.,-1.44600452399726));
#1523=CARTESIAN_POINT('Origin',(0.,0.,-2.25000007180717));
#1524=CARTESIAN_POINT('',(-0.171875,-0.000149606299212617,-2.25000007180717));
#1525=CARTESIAN_POINT('',(0.171875,-0.000149606299212617,-2.25000007180717));
#1526=CARTESIAN_POINT('Origin',(0.,-0.000149606299212617,-2.25000007180717));
#1527=CARTESIAN_POINT('',(0.171875,-0.2,-2.25000007180717));
#1528=CARTESIAN_POINT('',(0.171875,0.,-2.25000007180717));
#1529=CARTESIAN_POINT('',(-0.171874999999999,-0.2,-2.25000007180717));
#1530=CARTESIAN_POINT('Origin',(0.,-0.2,-2.25000007180717));
#1531=CARTESIAN_POINT('',(-0.171875,0.,-2.25000007180717));
#1532=CARTESIAN_POINT('Origin',(0.,0.,0.));
#1533=CARTESIAN_POINT('',(0.171875,-0.000149606299212617,-2.59431281544362));
#1534=CARTESIAN_POINT('',(2.16080330353771,-0.000149606299212617,-1.44600452399726));
#1535=CARTESIAN_POINT('Origin',(0.,-0.000149606299212617,0.));
#1536=CARTESIAN_POINT('',(2.1608033035377,-0.2,-1.44600452399726));
#1537=CARTESIAN_POINT('',(2.16080330353771,0.,-1.44600452399726));
#1538=CARTESIAN_POINT('',(2.08876416114284,-0.2,-1.54824554871805));
#1539=CARTESIAN_POINT('Origin',(0.,-0.2,0.));
#1540=CARTESIAN_POINT('',(2.08876416114284,-0.5,-1.54824554871805));
#1541=CARTESIAN_POINT('',(2.08876416114284,0.,-1.54824554871805));
#1542=CARTESIAN_POINT('',(0.30000000957429,-0.5,-2.58263431291684));
#1543=CARTESIAN_POINT('Origin',(0.,-0.5,0.));
#1544=CARTESIAN_POINT('',(0.30000000957429,-0.2,-2.58263431291684));
#1545=CARTESIAN_POINT('',(0.30000000957429,0.,-2.58263431291684));
#1546=CARTESIAN_POINT('',(0.171875000000001,-0.2,-2.59431281544362));
#1547=CARTESIAN_POINT('Origin',(0.,-0.2,0.));
#1548=CARTESIAN_POINT('',(0.171875,0.,-2.59431281544362));
#1549=CARTESIAN_POINT('Origin',(-1.125,0.499850393700787,1.94855715851499));
#1550=CARTESIAN_POINT('',(-1.18503937007874,-0.000149606299212617,2.05254839794579));
#1551=CARTESIAN_POINT('Origin',(-1.125,-0.000149606299212617,1.94855715851499));
#1552=CARTESIAN_POINT('',(-1.18503937007874,-0.5,2.05254839794579));
#1553=CARTESIAN_POINT('',(-1.18503937007874,0.499850393700787,2.05254839794579));
#1554=CARTESIAN_POINT('Origin',(-1.125,-0.5,1.94855715851499));
#1555=CARTESIAN_POINT('Origin',(-1.125,0.499850393700787,-1.94855715851499));
#1556=CARTESIAN_POINT('',(-1.18503937007874,-0.000149606299212617,-2.05254839794579));
#1557=CARTESIAN_POINT('Origin',(-1.125,-0.000149606299212617,-1.94855715851499));
#1558=CARTESIAN_POINT('',(-1.18503937007874,-0.5,-2.05254839794579));
#1559=CARTESIAN_POINT('',(-1.18503937007874,0.499850393700787,-2.05254839794579));
#1560=CARTESIAN_POINT('Origin',(-1.125,-0.5,-1.94855715851499));
#1561=CARTESIAN_POINT('Origin',(2.25,0.499850393700787,-6.99353086378051E-16));
#1562=CARTESIAN_POINT('',(2.37007874015748,-0.000149606299212617,-6.84647681900101E-16));
#1563=CARTESIAN_POINT('Origin',(2.25,-0.000149606299212617,-6.99353086378051E-16));
#1564=CARTESIAN_POINT('',(2.37007874015748,-0.5,-7.14058490856002E-16));
#1565=CARTESIAN_POINT('',(2.37007874015748,0.499850393700787,-6.84647681900101E-16));
#1566=CARTESIAN_POINT('Origin',(2.25,-0.5,-6.99353086378051E-16));
#1567=CARTESIAN_POINT('Origin',(-0.10000000319143,-0.000149606299212617,
0.));
#1568=CARTESIAN_POINT('',(-2.03449472070182,-0.000149606299212617,0.976151919628135));
#1569=CARTESIAN_POINT('',(-1.24680790296564,-0.000149606299212617,0.52138072337103));
#1570=CARTESIAN_POINT('',(-1.86261972070182,-0.000149606299212617,1.27384815217904));
#1571=CARTESIAN_POINT('Origin',(-1.94855722070182,-0.000149606299212617,
1.12500003590358));
#1572=CARTESIAN_POINT('',(-2.1608033035377,-0.000149606299212617,1.44600452399726));
#1573=CARTESIAN_POINT('',(-0.925841111547689,-0.000149606299212617,0.732998770012814));
#1574=CARTESIAN_POINT('',(-0.171875,-0.000149606299212617,2.59431281544362));
#1575=CARTESIAN_POINT('Origin',(0.,-0.000149606299212617,0.));
#1576=CARTESIAN_POINT('',(-0.171875,-0.000149606299212617,2.25000007180717));
#1577=CARTESIAN_POINT('',(-0.171875,-0.000149606299212617,1.29715640772181));
#1578=CARTESIAN_POINT('',(0.171875,-0.000149606299212617,2.25000007180717));
#1579=CARTESIAN_POINT('Origin',(-2.75545538601997E-16,-0.000149606299212617,
2.25000007180717));
#1580=CARTESIAN_POINT('',(0.171875,-0.000149606299212617,2.59431281544362));
#1581=CARTESIAN_POINT('',(0.171875,-0.000149606299212617,1.12500003590358));
#1582=CARTESIAN_POINT('',(2.1608033035377,-0.000149606299212617,1.44600452399726));
#1583=CARTESIAN_POINT('Origin',(0.,-0.000149606299212617,0.));
#1584=CARTESIAN_POINT('',(1.86261972070182,-0.000149606299212617,1.27384815217904));
#1585=CARTESIAN_POINT('',(0.999932900572065,-0.000149606299212617,0.77577568435078));
#1586=CARTESIAN_POINT('',(2.03449472070182,-0.000149606299212617,0.976151919628136));
#1587=CARTESIAN_POINT('Origin',(1.94855722070182,-0.000149606299212617,
1.12500003590359));
#1588=CARTESIAN_POINT('',(2.3326783035377,-0.000149606299212617,1.14830829144636));
#1589=CARTESIAN_POINT('',(1.02271610915412,-0.000149606299212617,0.392001265890763));
#1590=CARTESIAN_POINT('',(2.33267830353771,-0.000149606299212617,-1.14830829144636));
#1591=CARTESIAN_POINT('Origin',(0.,-0.000149606299212617,0.));
#1592=CARTESIAN_POINT('',(2.03449472070182,-0.000149606299212617,-0.976151919628133));
#1593=CARTESIAN_POINT('',(1.17180790057207,-0.000149606299212617,-0.478079451799878));
#1594=CARTESIAN_POINT('',(1.86261972070182,-0.000149606299212617,-1.27384815217903));
#1595=CARTESIAN_POINT('Origin',(1.94855722070182,-0.000149606299212617,
-1.12500003590358));
#1596=CARTESIAN_POINT('',(0.850841109154117,-0.000149606299212617,-0.689697498441662));
#1597=CARTESIAN_POINT('',(0.171875,-0.000149606299212617,-1.29715640772181));
#1598=CARTESIAN_POINT('',(-0.171875,-0.000149606299212617,-1.12500003590358));
#1599=CARTESIAN_POINT('',(-1.86261972070182,-0.000149606299212617,-1.27384815217904));
#1600=CARTESIAN_POINT('',(-1.07493290296564,-0.000149606299212617,-0.819076955921931));
#1601=CARTESIAN_POINT('',(-2.03449472070182,-0.000149606299212617,-0.976151919628135));
#1602=CARTESIAN_POINT('Origin',(-1.94855722070182,-0.000149606299212617,
-1.12500003590359));
#1603=CARTESIAN_POINT('',(-1.09771611154769,-0.000149606299212617,-0.435302537461914));
#1604=CARTESIAN_POINT('Origin',(-2.0344947207018,0.,-0.976151919628126));
#1605=CARTESIAN_POINT('',(-2.03449472070182,-0.2,-0.976151919628136));
#1606=CARTESIAN_POINT('',(-2.03449472070182,0.,-0.976151919628135));
#1607=CARTESIAN_POINT('',(-2.04408871112695,-0.2,-0.981691012582687));
#1608=CARTESIAN_POINT('Origin',(-1.94855722070182,0.,-1.12500003590359));
#1609=CARTESIAN_POINT('',(-1.86261972070182,-0.2,-1.27384815217904));
#1610=CARTESIAN_POINT('',(-1.86261972070182,0.,-1.27384815217904));
#1611=CARTESIAN_POINT('Origin',(-1.94855722070182,-0.2,-1.12500003590359));
#1612=CARTESIAN_POINT('Origin',(-2.1608033035377,0.,-1.44600452399726));
#1613=CARTESIAN_POINT('',(-2.0213055025449,-0.2,-1.3654654310427));
#1614=CARTESIAN_POINT('Origin',(-1.94855722070182,0.,1.12500003590358));
#1615=CARTESIAN_POINT('',(-2.03449472070182,-0.2,0.976151919628133));
#1616=CARTESIAN_POINT('',(-2.03449472070182,0.,0.976151919628135));
#1617=CARTESIAN_POINT('',(-1.86261972070182,-0.2,1.27384815217903));
#1618=CARTESIAN_POINT('Origin',(-1.94855722070182,-0.2,1.12500003590358));
#1619=CARTESIAN_POINT('',(-1.86261972070182,0.,1.27384815217904));
#1620=CARTESIAN_POINT('Origin',(-2.3326783035377,0.,1.14830829144636));
#1621=CARTESIAN_POINT('',(-2.1931805025449,-0.2,1.0677691984918));
#1622=CARTESIAN_POINT('Origin',(-0.171875,0.,2.59431281544362));
#1623=CARTESIAN_POINT('',(-0.171875,-0.2,2.59431281544362));
#1624=CARTESIAN_POINT('',(-0.171875,0.,2.59431281544362));
#1625=CARTESIAN_POINT('',(-0.171875,-0.2,2.25000007180717));
#1626=CARTESIAN_POINT('',(-0.171875,-0.2,2.43323462953451));
#1627=CARTESIAN_POINT('',(-0.171875,0.,2.25000007180717));
#1628=CARTESIAN_POINT('Origin',(0.171875,0.,2.25000007180715));
#1629=CARTESIAN_POINT('',(0.171875,-0.2,2.25000007180717));
#1630=CARTESIAN_POINT('',(0.171875,0.,2.25000007180717));
#1631=CARTESIAN_POINT('',(0.171875000000001,-0.2,2.59431281544362));
#1632=CARTESIAN_POINT('',(0.171875,-0.2,2.26107825771627));
#1633=CARTESIAN_POINT('',(0.171875,0.,2.59431281544362));
#1634=CARTESIAN_POINT('Origin',(1.94855722070182,0.,1.12500003590359));
#1635=CARTESIAN_POINT('',(1.86261972070182,-0.2,1.27384815217904));
#1636=CARTESIAN_POINT('',(1.86261972070182,0.,1.27384815217904));
#1637=CARTESIAN_POINT('',(2.03449472070182,-0.2,0.976151919628135));
#1638=CARTESIAN_POINT('Origin',(1.94855722070182,-0.2,1.12500003590359));
#1639=CARTESIAN_POINT('',(2.03449472070182,0.,0.976151919628136));
#1640=CARTESIAN_POINT('Origin',(2.1608033035377,0.,1.44600452399726));
#1641=CARTESIAN_POINT('',(2.1608033035377,-0.2,1.44600452399726));
#1642=CARTESIAN_POINT('',(2.1608033035377,0.,1.44600452399726));
#1643=CARTESIAN_POINT('',(2.0213055025449,-0.2,1.36546543104271));
#1644=CARTESIAN_POINT('Origin',(1.94855722070182,0.,-1.12500003590358));
#1645=CARTESIAN_POINT('',(2.03449472070182,-0.2,-0.976151919628134));
#1646=CARTESIAN_POINT('',(2.03449472070182,0.,-0.976151919628133));
#1647=CARTESIAN_POINT('',(1.86261972070182,-0.2,-1.27384815217903));
#1648=CARTESIAN_POINT('Origin',(1.94855722070182,-0.2,-1.12500003590358));
#1649=CARTESIAN_POINT('',(1.86261972070182,0.,-1.27384815217903));
#1650=CARTESIAN_POINT('Origin',(2.33267830353771,0.,-1.14830829144636));
#1651=CARTESIAN_POINT('',(2.3326783035377,-0.2,-1.14830829144636));
#1652=CARTESIAN_POINT('',(2.33267830353771,0.,-1.14830829144636));
#1653=CARTESIAN_POINT('',(2.1931805025449,-0.2,-1.0677691984918));
#1654=CARTESIAN_POINT('Origin',(0.171875,0.,-2.59431281544362));
#1655=CARTESIAN_POINT('',(0.171875,-0.2,-2.43323462953451));
#1656=CARTESIAN_POINT('Origin',(-6.99353086378051E-16,-0.5,0.));
#1657=CARTESIAN_POINT('',(-1.84025606826603,-0.5,1.40476933439982));
#1658=CARTESIAN_POINT('',(-2.08876416114284,-0.5,1.54824554871805));
#1659=CARTESIAN_POINT('',(-0.97027260659277,-0.5,0.902484148612248));
#1660=CARTESIAN_POINT('',(-2.09855722548897,-0.5,0.865192406476674));
#1661=CARTESIAN_POINT('Origin',(-1.94855722070182,-0.5,1.12500003590358));
#1662=CARTESIAN_POINT('',(-1.12427861513806,-0.5,0.302692388524883));
#1663=CARTESIAN_POINT('',(-2.13669396418062,-0.5,-0.891323837386936));
#1664=CARTESIAN_POINT('',(-1.26671050250736,-0.5,-0.389038651599359));
#1665=CARTESIAN_POINT('',(-1.79855721591468,-0.5,-1.3848076653305));
#1666=CARTESIAN_POINT('Origin',(-1.94855722070182,-0.5,-1.12500003590359));
#1667=CARTESIAN_POINT('',(-0.824278605563765,-0.5,-0.822307647378703));
#1668=CARTESIAN_POINT('',(-0.296437895914593,-0.5,-2.29609317178676));
#1669=CARTESIAN_POINT('',(-0.296437895914593,-0.5,-1.29152280021161));
#1670=CARTESIAN_POINT('',(0.30000000957429,-0.5,-2.25000007180717));
#1671=CARTESIAN_POINT('Origin',(4.61311202171166E-16,-0.5,-2.25000007180717));
#1672=CARTESIAN_POINT('',(0.30000000957429,-0.5,-1.12500003590359));
#1673=CARTESIAN_POINT('',(1.84025606826602,-0.5,-1.40476933439982));
#1674=CARTESIAN_POINT('',(0.970272606592769,-0.5,-0.902484148612249));
#1675=CARTESIAN_POINT('',(2.09855722548897,-0.5,-0.865192406476675));
#1676=CARTESIAN_POINT('Origin',(1.94855722070182,-0.5,-1.12500003590358));
#1677=CARTESIAN_POINT('',(2.3866269284585,-0.5,-1.03150952703151));
#1678=CARTESIAN_POINT('',(1.12427861513805,-0.5,-0.302692388524883));
#1679=CARTESIAN_POINT('',(2.38520205705743,-0.5,1.03480005170516));
#1680=CARTESIAN_POINT('Origin',(0.,-0.5,0.));
#1681=CARTESIAN_POINT('',(2.13669396418062,-0.5,0.891323837386935));
#1682=CARTESIAN_POINT('',(1.26671050250736,-0.5,0.389038651599358));
#1683=CARTESIAN_POINT('',(1.79855721591468,-0.5,1.38480766533049));
#1684=CARTESIAN_POINT('Origin',(1.94855722070182,-0.5,1.12500003590359));
#1685=CARTESIAN_POINT('',(2.08662691888421,-0.5,1.55112478588533));
#1686=CARTESIAN_POINT('',(0.824278605563765,-0.5,0.822307647378702));
#1687=CARTESIAN_POINT('',(0.296437895914593,-0.5,2.58304560042321));
#1688=CARTESIAN_POINT('Origin',(0.,-0.5,0.));
#1689=CARTESIAN_POINT('',(0.296437895914593,-0.5,2.29609317178676));
#1690=CARTESIAN_POINT('',(0.296437895914594,-0.5,1.29152280021161));
#1691=CARTESIAN_POINT('',(-0.300000009574289,-0.5,2.25000007180717));
#1692=CARTESIAN_POINT('Origin',(-1.8576566356917E-16,-0.5,2.25000007180717));
#1693=CARTESIAN_POINT('',(-0.300000009574289,-0.5,2.58263431291684));
#1694=CARTESIAN_POINT('',(-0.300000009574289,-0.5,1.12500003590359));
#1695=CARTESIAN_POINT('Origin',(0.,-0.5,0.));
#1696=CARTESIAN_POINT('Origin',(0.30000000957429,-0.45,-2.25000007180717));
#1697=CARTESIAN_POINT('',(0.30000000957429,-0.2,-2.25000007180717));
#1698=CARTESIAN_POINT('',(0.30000000957429,-0.45,-2.25000007180717));
#1699=CARTESIAN_POINT('',(0.30000000957429,-0.2,-2.89226694400375));
#1700=CARTESIAN_POINT('Origin',(4.61311202171166E-16,-0.45,-2.25000007180717));
#1701=CARTESIAN_POINT('',(-0.296437895914593,-0.2,-2.29609317178676));
#1702=CARTESIAN_POINT('',(-0.296437895914593,-0.45,-2.29609317178676));
#1703=CARTESIAN_POINT('Origin',(4.61311202171166E-16,-0.2,-2.25000007180717));
#1704=CARTESIAN_POINT('Origin',(-0.296437895914593,-0.45,-2.58304560042321));
#1705=CARTESIAN_POINT('',(-0.296437895914593,-0.2,-2.25000007180717));
#1706=CARTESIAN_POINT('Origin',(-1.79855721591468,-0.45,-1.3848076653305));
#1707=CARTESIAN_POINT('',(-1.79855721591468,-0.2,-1.3848076653305));
#1708=CARTESIAN_POINT('',(-1.79855721591468,-0.45,-1.3848076653305));
#1709=CARTESIAN_POINT('',(-2.35477664324608,-0.2,-1.70594110142878));
#1710=CARTESIAN_POINT('Origin',(-1.94855722070182,-0.45,-1.12500003590359));
#1711=CARTESIAN_POINT('',(-2.13669396418062,-0.2,-0.891323837386936));
#1712=CARTESIAN_POINT('',(-2.13669396418062,-0.45,-0.891323837386936));
#1713=CARTESIAN_POINT('Origin',(-1.94855722070182,-0.2,-1.12500003590359));
#1714=CARTESIAN_POINT('Origin',(-2.38520205705743,-0.45,-1.03480005170516));
#1715=CARTESIAN_POINT('',(-2.09677616865912,-0.2,-0.868277287397141));
#1716=CARTESIAN_POINT('Origin',(-2.09855722548897,-0.45,0.865192406476674));
#1717=CARTESIAN_POINT('',(-2.09855722548897,-0.2,0.865192406476674));
#1718=CARTESIAN_POINT('',(-2.09855722548897,-0.45,0.865192406476674));
#1719=CARTESIAN_POINT('',(-2.65477665282038,-0.2,1.18632584257496));
#1720=CARTESIAN_POINT('Origin',(-1.94855722070182,-0.45,1.12500003590358));
#1721=CARTESIAN_POINT('',(-1.84025606826603,-0.2,1.40476933439982));
#1722=CARTESIAN_POINT('',(-1.84025606826603,-0.45,1.40476933439982));
#1723=CARTESIAN_POINT('Origin',(-1.94855722070182,-0.2,1.12500003590358));
#1724=CARTESIAN_POINT('Origin',(-2.08876416114284,-0.45,1.54824554871805));
#1725=CARTESIAN_POINT('',(-2.08876416114284,-0.2,1.54824554871805));
#1726=CARTESIAN_POINT('',(-2.08876416114284,0.,1.54824554871805));
#1727=CARTESIAN_POINT('',(-1.80033827274452,-0.2,1.38172278441003));
#1728=CARTESIAN_POINT('Origin',(0.,0.,0.));
#1729=CARTESIAN_POINT('',(-2.1608033035377,-0.2,1.44600452399726));
#1730=CARTESIAN_POINT('',(-2.1608033035377,0.,1.44600452399726));
#1731=CARTESIAN_POINT('Origin',(0.,-0.2,0.));
#1732=CARTESIAN_POINT('',(-0.300000009574289,-0.2,2.58263431291684));
#1733=CARTESIAN_POINT('',(-0.300000009574289,0.,2.58263431291684));
#1734=CARTESIAN_POINT('Origin',(0.,-0.2,0.));
#1735=CARTESIAN_POINT('Origin',(0.,0.,0.));
#1736=CARTESIAN_POINT('',(0.296437895914593,-0.2,2.58304560042321));
#1737=CARTESIAN_POINT('Origin',(0.,-0.2,0.));
#1738=CARTESIAN_POINT('',(0.296437895914594,0.,2.58304560042322));
#1739=CARTESIAN_POINT('',(2.08662691888421,-0.2,1.55112478588533));
#1740=CARTESIAN_POINT('',(2.08662691888421,0.,1.55112478588533));
#1741=CARTESIAN_POINT('Origin',(0.,-0.2,0.));
#1742=CARTESIAN_POINT('Origin',(0.,0.,0.));
#1743=CARTESIAN_POINT('',(2.3326783035377,-0.2,1.14830829144636));
#1744=CARTESIAN_POINT('',(2.3326783035377,0.,1.14830829144636));
#1745=CARTESIAN_POINT('',(2.38520205705743,-0.2,1.03480005170516));
#1746=CARTESIAN_POINT('Origin',(0.,-0.2,0.));
#1747=CARTESIAN_POINT('',(2.38520205705743,0.,1.03480005170516));
#1748=CARTESIAN_POINT('',(2.3866269284585,-0.2,-1.03150952703151));
#1749=CARTESIAN_POINT('',(2.3866269284585,0.,-1.03150952703151));
#1750=CARTESIAN_POINT('Origin',(0.,-0.2,0.));
#1751=CARTESIAN_POINT('Origin',(-1.96774520394567,-0.2,1.13607821766691));
#1752=CARTESIAN_POINT('',(-1.87221371112695,-0.2,1.27938724513359));
#1753=CARTESIAN_POINT('Origin',(-1.96774519915852,-0.2,-1.13607822595849));
#1754=CARTESIAN_POINT('Origin',(4.78714506207593E-9,-0.2,-2.27215644362539));
#1755=CARTESIAN_POINT('',(-0.171875,-0.2,-2.26107825771627));
#1756=CARTESIAN_POINT('Origin',(2.09855722548897,-0.45,-0.865192406476675));
#1757=CARTESIAN_POINT('',(2.09855722548897,-0.2,-0.865192406476675));
#1758=CARTESIAN_POINT('',(2.09855722548897,-0.45,-0.865192406476675));
#1759=CARTESIAN_POINT('',(2.65477665282038,-0.2,-1.18632584257496));
#1760=CARTESIAN_POINT('Origin',(1.94855722070182,-0.45,-1.12500003590358));
#1761=CARTESIAN_POINT('',(1.84025606826602,-0.2,-1.40476933439982));
#1762=CARTESIAN_POINT('',(1.84025606826602,-0.45,-1.40476933439982));
#1763=CARTESIAN_POINT('Origin',(1.94855722070182,-0.2,-1.12500003590358));
#1764=CARTESIAN_POINT('Origin',(2.08876416114284,-0.45,-1.54824554871805));
#1765=CARTESIAN_POINT('',(1.80033827274452,-0.2,-1.38172278441003));
#1766=CARTESIAN_POINT('Origin',(1.96774520394567,-0.2,-1.13607821766691));
#1767=CARTESIAN_POINT('',(1.87221371112695,-0.2,-1.27938724513359));
#1768=CARTESIAN_POINT('Origin',(1.79855721591468,-0.45,1.38480766533049));
#1769=CARTESIAN_POINT('',(1.79855721591468,-0.2,1.38480766533049));
#1770=CARTESIAN_POINT('',(1.79855721591468,-0.45,1.38480766533049));
#1771=CARTESIAN_POINT('',(2.35477664324609,-0.2,1.70594110142878));
#1772=CARTESIAN_POINT('Origin',(1.94855722070182,-0.45,1.12500003590359));
#1773=CARTESIAN_POINT('',(2.13669396418062,-0.2,0.891323837386935));
#1774=CARTESIAN_POINT('',(2.13669396418062,-0.45,0.891323837386935));
#1775=CARTESIAN_POINT('Origin',(1.94855722070182,-0.2,1.12500003590359));
#1776=CARTESIAN_POINT('Origin',(2.38520205705743,-0.45,1.03480005170516));
#1777=CARTESIAN_POINT('',(2.09677616865912,-0.2,0.86827728739714));
#1778=CARTESIAN_POINT('Origin',(1.96774519915852,-0.2,1.13607822595849));
#1779=CARTESIAN_POINT('',(2.04408871112695,-0.2,0.981691012582688));
#1780=CARTESIAN_POINT('Origin',(-4.78714478381702E-9,-0.2,2.27215644362539));
#1781=CARTESIAN_POINT('',(-0.300000009574289,-0.2,2.25000007180717));
#1782=CARTESIAN_POINT('',(-0.300000009574289,-0.2,2.89226694400375));
#1783=CARTESIAN_POINT('',(0.296437895914594,-0.2,2.29609317178676));
#1784=CARTESIAN_POINT('Origin',(-1.8576566356917E-16,-0.2,2.25000007180717));
#1785=CARTESIAN_POINT('',(0.296437895914594,-0.2,2.25000007180717));
#1786=CARTESIAN_POINT('Origin',(-2.75545538601997E-16,-0.2,2.25000007180717));
#1787=CARTESIAN_POINT('Origin',(0.296437895914594,-0.75,2.58304560042321));
#1788=CARTESIAN_POINT('',(0.296437895914594,-0.45,2.29609317178676));
#1789=CARTESIAN_POINT('Origin',(-1.8576566356917E-16,-0.75,2.25000007180717));
#1790=CARTESIAN_POINT('',(-0.300000009574289,-0.75,2.25000007180717));
#1791=CARTESIAN_POINT('Origin',(-0.300000009574289,-0.75,2.25000007180717));
#1792=CARTESIAN_POINT('Origin',(1.86261972070181,0.,-1.27384815217903));
#1793=CARTESIAN_POINT('Origin',(2.0344947207018,0.,0.976151919628127));
#1794=CARTESIAN_POINT('Origin',(-1.86261972070181,0.,1.27384815217903));
#1795=CARTESIAN_POINT('Origin',(-0.171875,0.,-2.25000007180715));
#1796=CARTESIAN_POINT('Origin',(-2.75545538601997E-16,0.,2.25000007180717));
#1797=UNCERTAINTY_MEASURE_WITH_UNIT(LENGTH_MEASURE(0.000393700787401575),
#1802,'DISTANCE_ACCURACY_VALUE',
'Maximum model space distance between geometric entities at asserted c
onnectivities');
#1798=UNCERTAINTY_MEASURE_WITH_UNIT(LENGTH_MEASURE(0.000393700787401575),
#1802,'DISTANCE_ACCURACY_VALUE',
'Maximum model space distance between geometric entities at asserted c
onnectivities');
#1799=(
GEOMETRIC_REPRESENTATION_CONTEXT(3)
GLOBAL_UNCERTAINTY_ASSIGNED_CONTEXT((#1797))
GLOBAL_UNIT_ASSIGNED_CONTEXT((#1802,#1806,#1807))
REPRESENTATION_CONTEXT('','3D')
);
#1800=(
GEOMETRIC_REPRESENTATION_CONTEXT(3)
GLOBAL_UNCERTAINTY_ASSIGNED_CONTEXT((#1798))
GLOBAL_UNIT_ASSIGNED_CONTEXT((#1802,#1806,#1807))
REPRESENTATION_CONTEXT('','3D')
);
#1801=DIMENSIONAL_EXPONENTS(1.,0.,0.,0.,0.,0.,0.);
#1802=(
CONVERSION_BASED_UNIT('inch',#1805)
LENGTH_UNIT()
NAMED_UNIT(#1801)
);
#1803=(
LENGTH_UNIT()
NAMED_UNIT(*)
SI_UNIT(.MILLI.,.METRE.)
);
#1804=(
LENGTH_UNIT()
NAMED_UNIT(*)
SI_UNIT($,.METRE.)
);
#1805=LENGTH_MEASURE_WITH_UNIT(LENGTH_MEASURE(25.4),#1803);
#1806=(
NAMED_UNIT(*)
PLANE_ANGLE_UNIT()
SI_UNIT($,.RADIAN.)
);
#1807=(
NAMED_UNIT(*)
SI_UNIT($,.STERADIAN.)
SOLID_ANGLE_UNIT()
);
#1808=SHAPE_DEFINITION_REPRESENTATION(#1809,#1810);
#1809=PRODUCT_DEFINITION_SHAPE('',$,#1812);
#1810=SHAPE_REPRESENTATION('',(#1065),#1799);
#1811=PRODUCT_DEFINITION_CONTEXT('part definition',#1816,'design');
#1812=PRODUCT_DEFINITION('2026-03-14-11-28-33-038',
'CircleBlankMoldBottom',#1813,#1811);
#1813=PRODUCT_DEFINITION_FORMATION('',$,#1818);
#1814=PRODUCT_RELATED_PRODUCT_CATEGORY('CircleBlankMoldBottom',
'CircleBlankMoldBottom',(#1818));
#1815=APPLICATION_PROTOCOL_DEFINITION('international standard',
'automotive_design',2009,#1816);
#1816=APPLICATION_CONTEXT(
'Core Data for Automotive Mechanical Design Process');
#1817=PRODUCT_CONTEXT('part definition',#1816,'mechanical');
#1818=PRODUCT('2026-03-14-11-28-33-038','CircleBlankMoldBottom',$,(#1817));
#1819=PRESENTATION_STYLE_ASSIGNMENT((#1820));
#1820=SURFACE_STYLE_USAGE(.BOTH.,#1821);
#1821=SURFACE_SIDE_STYLE('',(#1822));
#1822=SURFACE_STYLE_FILL_AREA(#1823);
#1823=FILL_AREA_STYLE('Steel - Satin',(#1824));
#1824=FILL_AREA_STYLE_COLOUR('Steel - Satin',#1825);
#1825=COLOUR_RGB('Steel - Satin',0.627450980392157,0.627450980392157,0.627450980392157);
ENDSEC;
END-ISO-10303-21;
