ISO-10303-21;
HEADER;
/* Generated by software containing ST-Developer
 * from STEP Tools, Inc. (www.steptools.com) 
 */

FILE_DESCRIPTION(
/* description */ (''),
/* implementation_level */ '2;1');

FILE_NAME(
/* name */ 'BusterBeagleMoldBlank_B.step',
/* time_stamp */ '2026-05-02T19:40:48-07:00',
/* author */ (''),
/* organization */ (''),
/* preprocessor_version */ 'ST-DEVELOPER v20.1',
/* originating_system */ 'Autodesk Translation Framework v14.24.0.0',
/* authorisation */ '');

FILE_SCHEMA (('AUTOMOTIVE_DESIGN { 1 0 10303 214 3 1 1 }'));
ENDSEC;

DATA;
#10=MECHANICAL_DESIGN_GEOMETRIC_PRESENTATION_REPRESENTATION('',(#13),#887);
#11=SHAPE_REPRESENTATION_RELATIONSHIP('SRR','None',#893,#12);
#12=ADVANCED_BREP_SHAPE_REPRESENTATION('',(#14),#886);
#13=STYLED_ITEM('',(#902),#14);
#14=MANIFOLD_SOLID_BREP('BusterBeagle_MouldBlank_B',#306);
#15=B_SPLINE_SURFACE_WITH_KNOTS('',3,1,((#646,#647),(#648,#649),(#650,#651),
(#652,#653),(#654,#655),(#656,#657),(#658,#659),(#660,#661),(#662,#663),
(#664,#665),(#666,#667),(#668,#669),(#670,#671),(#672,#673)),
 .UNSPECIFIED.,.F.,.F.,.F.,(4,2,2,2,2,2,4),(2,2),(0.,0.249999999999999,
0.374999999999999,0.499999999999999,0.624999999999999,0.75,1.),(0.,1.),
 .UNSPECIFIED.);
#16=B_SPLINE_SURFACE_WITH_KNOTS('',3,1,((#675,#676),(#677,#678),(#679,#680),
(#681,#682),(#683,#684),(#685,#686),(#687,#688),(#689,#690),(#691,#692),
(#693,#694),(#695,#696),(#697,#698),(#699,#700),(#701,#702)),
 .UNSPECIFIED.,.F.,.F.,.F.,(4,2,2,2,2,2,4),(2,2),(0.,0.250000000000002,
0.375000000000002,0.500000000000001,0.625,0.75,1.),(0.,1.),
 .UNSPECIFIED.);
#17=B_SPLINE_SURFACE_WITH_KNOTS('',3,1,((#706,#707),(#708,#709),(#710,#711),
(#712,#713),(#714,#715),(#716,#717),(#718,#719),(#720,#721),(#722,#723),
(#724,#725),(#726,#727),(#728,#729),(#730,#731),(#732,#733)),
 .UNSPECIFIED.,.F.,.F.,.F.,(4,2,2,2,2,2,4),(2,2),(0.,0.249999999999999,
0.374999999999999,0.499999999999999,0.624999999999999,0.75,1.),(0.,1.),
 .UNSPECIFIED.);
#18=B_SPLINE_SURFACE_WITH_KNOTS('',3,1,((#737,#738),(#739,#740),(#741,#742),
(#743,#744),(#745,#746),(#747,#748),(#749,#750),(#751,#752),(#753,#754),
(#755,#756),(#757,#758),(#759,#760),(#761,#762),(#763,#764),(#765,#766),
(#767,#768),(#769,#770),(#771,#772)),.UNSPECIFIED.,.F.,.F.,.F.,(4,2,2,2,
2,2,2,2,4),(2,2),(0.,0.250000000000005,0.312500000000004,0.375000000000002,
0.5,0.624999999999998,0.687499999999997,0.749999999999995,1.),(0.,1.),
 .UNSPECIFIED.);
#19=B_SPLINE_SURFACE_WITH_KNOTS('',3,1,((#776,#777),(#778,#779),(#780,#781),
(#782,#783),(#784,#785),(#786,#787),(#788,#789),(#790,#791),(#792,#793),
(#794,#795),(#796,#797),(#798,#799),(#800,#801),(#802,#803),(#804,#805),
(#806,#807),(#808,#809),(#810,#811)),.UNSPECIFIED.,.F.,.F.,.F.,(4,2,2,2,
2,2,2,2,4),(2,2),(0.,0.25,0.3125,0.375,0.5,0.625,0.6875,0.75,1.),(0.,1.),
 .UNSPECIFIED.);
#20=B_SPLINE_SURFACE_WITH_KNOTS('',3,1,((#815,#816),(#817,#818),(#819,#820),
(#821,#822),(#823,#824),(#825,#826),(#827,#828),(#829,#830),(#831,#832),
(#833,#834),(#835,#836),(#837,#838),(#839,#840),(#841,#842)),
 .UNSPECIFIED.,.F.,.F.,.F.,(4,2,2,2,2,2,4),(2,2),(0.,0.249999999999999,
0.374999999999999,0.499999999999999,0.624999999999999,0.75,1.),(0.,1.),
 .UNSPECIFIED.);
#21=B_SPLINE_SURFACE_WITH_KNOTS('',3,1,((#846,#847),(#848,#849),(#850,#851),
(#852,#853),(#854,#855),(#856,#857),(#858,#859),(#860,#861),(#862,#863),
(#864,#865),(#866,#867),(#868,#869),(#870,#871),(#872,#873),(#874,#875),
(#876,#877),(#878,#879),(#880,#881)),.UNSPECIFIED.,.F.,.F.,.F.,(4,2,2,2,
2,2,2,2,4),(2,2),(0.,0.25,0.3125,0.375,0.5,0.625,0.6875,0.75,1.),(0.,1.),
 .UNSPECIFIED.);
#22=FACE_OUTER_BOUND('',#38,.T.);
#23=FACE_OUTER_BOUND('',#39,.T.);
#24=FACE_OUTER_BOUND('',#40,.T.);
#25=FACE_OUTER_BOUND('',#41,.T.);
#26=FACE_OUTER_BOUND('',#42,.T.);
#27=FACE_OUTER_BOUND('',#43,.T.);
#28=FACE_OUTER_BOUND('',#44,.T.);
#29=FACE_OUTER_BOUND('',#45,.T.);
#30=FACE_OUTER_BOUND('',#46,.T.);
#31=FACE_OUTER_BOUND('',#47,.T.);
#32=FACE_OUTER_BOUND('',#48,.T.);
#33=FACE_OUTER_BOUND('',#49,.T.);
#34=FACE_OUTER_BOUND('',#50,.T.);
#35=FACE_OUTER_BOUND('',#51,.T.);
#36=FACE_OUTER_BOUND('',#52,.T.);
#37=FACE_OUTER_BOUND('',#53,.T.);
#38=EDGE_LOOP('',(#197,#198,#199,#200,#201,#202,#203,#204,#205,#206,#207,
#208,#209,#210));
#39=EDGE_LOOP('',(#211,#212,#213,#214,#215,#216,#217,#218,#219,#220,#221,
#222,#223,#224));
#40=EDGE_LOOP('',(#225,#226,#227,#228));
#41=EDGE_LOOP('',(#229,#230,#231,#232));
#42=EDGE_LOOP('',(#233,#234,#235,#236));
#43=EDGE_LOOP('',(#237,#238,#239,#240));
#44=EDGE_LOOP('',(#241,#242,#243,#244));
#45=EDGE_LOOP('',(#245,#246,#247,#248));
#46=EDGE_LOOP('',(#249,#250,#251,#252));
#47=EDGE_LOOP('',(#253,#254,#255,#256));
#48=EDGE_LOOP('',(#257,#258,#259,#260));
#49=EDGE_LOOP('',(#261,#262,#263,#264));
#50=EDGE_LOOP('',(#265,#266,#267,#268));
#51=EDGE_LOOP('',(#269,#270,#271,#272));
#52=EDGE_LOOP('',(#273,#274,#275,#276));
#53=EDGE_LOOP('',(#277,#278,#279,#280));
#54=B_SPLINE_CURVE_WITH_KNOTS('',3,(#374,#375,#376,#377,#378,#379,#380,
#381,#382,#383,#384,#385,#386,#387,#388,#389,#390,#391,#392),
 .UNSPECIFIED.,.F.,.F.,(4,3,3,3,3,3,4),(0.,0.25,0.375,0.499999999999999,
0.624999999999998,0.749999999999998,1.),.UNSPECIFIED.);
#55=B_SPLINE_CURVE_WITH_KNOTS('',3,(#396,#397,#398,#399,#400,#401,#402,
#403,#404,#405,#406,#407,#408,#409,#410,#411,#412,#413,#414),
 .UNSPECIFIED.,.F.,.F.,(4,3,3,3,3,3,4),(0.,0.25,0.375000000000001,0.500000000000001,
0.625000000000001,0.750000000000001,1.),.UNSPECIFIED.);
#56=B_SPLINE_CURVE_WITH_KNOTS('',3,(#426,#427,#428,#429,#430,#431,#432,
#433,#434,#435,#436,#437,#438,#439,#440,#441,#442,#443,#444),
 .UNSPECIFIED.,.F.,.F.,(4,3,3,3,3,3,4),(0.,0.25,0.375000000000001,0.500000000000001,
0.625000000000001,0.750000000000001,1.),.UNSPECIFIED.);
#57=B_SPLINE_CURVE_WITH_KNOTS('',3,(#451,#452,#453,#454,#455,#456,#457,
#458,#459,#460,#461,#462,#463,#464,#465,#466,#467,#468,#469),
 .UNSPECIFIED.,.F.,.F.,(4,3,3,3,3,3,4),(0.,0.25,0.375000000000001,0.500000000000001,
0.625000000000001,0.750000000000001,1.),.UNSPECIFIED.);
#58=B_SPLINE_CURVE_WITH_KNOTS('',3,(#473,#474,#475,#476,#477,#478,#479,
#480,#481,#482,#483,#484,#485,#486,#487,#488,#489,#490,#491,#492,#493,#494,
#495,#496,#497),.UNSPECIFIED.,.F.,.F.,(4,3,3,3,3,3,3,3,4),(3.14159265358979,
3.92699081698726,4.12334035783662,4.31968989868597,4.71238898038469,5.10508806208341,
5.30143760293277,5.49778714378212,6.28318530717959),.UNSPECIFIED.);
#59=B_SPLINE_CURVE_WITH_KNOTS('',3,(#501,#502,#503,#504,#505,#506,#507,
#508,#509,#510,#511,#512,#513,#514,#515,#516,#517,#518,#519),
 .UNSPECIFIED.,.F.,.F.,(4,3,3,3,3,3,4),(5.49786815078015,5.89052672897935,
6.08685601807896,6.28318530717856,6.47951459627816,6.67584388537777,7.06850246357697),
 .UNSPECIFIED.);
#60=B_SPLINE_CURVE_WITH_KNOTS('',3,(#523,#524,#525,#526,#527,#528,#529,
#530,#531,#532,#533,#534,#535,#536,#537,#538,#539,#540,#541),
 .UNSPECIFIED.,.F.,.F.,(4,3,3,3,3,3,4),(5.49786815077465,5.89052672897386,
6.08685601807346,6.28318530717307,6.47951459627267,6.67584388537227,7.06850246357148),
 .UNSPECIFIED.);
#61=B_SPLINE_CURVE_WITH_KNOTS('',3,(#545,#546,#547,#548,#549,#550,#551,
#552,#553,#554,#555,#556,#557,#558,#559,#560,#561,#562,#563),
 .UNSPECIFIED.,.F.,.F.,(4,3,3,3,3,3,4),(2.35627549719035,2.74893407538956,
2.94526336448916,3.14159265358877,3.33792194268837,3.53425123178797,3.92690980998718),
 .UNSPECIFIED.);
#62=B_SPLINE_CURVE_WITH_KNOTS('',3,(#567,#568,#569,#570,#571,#572,#573,
#574,#575,#576,#577,#578,#579,#580,#581,#582,#583,#584,#585,#586,#587,#588,
#589,#590,#591),.UNSPECIFIED.,.F.,.F.,(4,3,3,3,3,3,3,3,4),(3.14159265358979,
3.92699081698724,4.1233403578366,4.31968989868597,4.71238898038469,5.10508806208341,
5.30143760293277,5.49778714378214,6.28318530717959),.UNSPECIFIED.);
#63=B_SPLINE_CURVE_WITH_KNOTS('',3,(#595,#596,#597,#598,#599,#600,#601,
#602,#603,#604,#605,#606,#607,#608,#609,#610,#611,#612,#613),
 .UNSPECIFIED.,.F.,.F.,(4,3,3,3,3,3,4),(2.35627549719241,2.74893407539161,
2.94526336449121,3.14159265359081,3.33792194269041,3.53425123179002,3.92690980998922),
 .UNSPECIFIED.);
#64=B_SPLINE_CURVE_WITH_KNOTS('',3,(#617,#618,#619,#620,#621,#622,#623,
#624,#625,#626,#627,#628,#629,#630,#631,#632,#633,#634,#635,#636,#637,#638,
#639,#640,#641),.UNSPECIFIED.,.F.,.F.,(4,3,3,3,3,3,3,3,4),(3.14159265358979,
3.92699081698724,4.1233403578366,4.31968989868597,4.71238898038469,5.10508806208341,
5.30143760293278,5.49778714378214,6.28318530717959),.UNSPECIFIED.);
#65=LINE('',#372,#96);
#66=LINE('',#394,#97);
#67=LINE('',#416,#98);
#68=LINE('',#418,#99);
#69=LINE('',#420,#100);
#70=LINE('',#422,#101);
#71=LINE('',#424,#102);
#72=LINE('',#446,#103);
#73=LINE('',#448,#104);
#74=LINE('',#450,#105);
#75=LINE('',#499,#106);
#76=LINE('',#521,#107);
#77=LINE('',#543,#108);
#78=LINE('',#565,#109);
#79=LINE('',#593,#110);
#80=LINE('',#615,#111);
#81=LINE('',#642,#112);
#82=LINE('',#644,#113);
#83=LINE('',#645,#114);
#84=LINE('',#674,#115);
#85=LINE('',#703,#116);
#86=LINE('',#705,#117);
#87=LINE('',#734,#118);
#88=LINE('',#736,#119);
#89=LINE('',#773,#120);
#90=LINE('',#775,#121);
#91=LINE('',#812,#122);
#92=LINE('',#814,#123);
#93=LINE('',#843,#124);
#94=LINE('',#845,#125);
#95=LINE('',#882,#126);
#96=VECTOR('',#321,1000.);
#97=VECTOR('',#322,1000.);
#98=VECTOR('',#323,1000.);
#99=VECTOR('',#324,1000.);
#100=VECTOR('',#325,1000.);
#101=VECTOR('',#326,1000.);
#102=VECTOR('',#327,1000.);
#103=VECTOR('',#328,1000.);
#104=VECTOR('',#329,1000.);
#105=VECTOR('',#330,1000.);
#106=VECTOR('',#333,1000.);
#107=VECTOR('',#334,1000.);
#108=VECTOR('',#335,1000.);
#109=VECTOR('',#336,1000.);
#110=VECTOR('',#337,1000.);
#111=VECTOR('',#338,1000.);
#112=VECTOR('',#339,1000.);
#113=VECTOR('',#342,1000.);
#114=VECTOR('',#343,1000.);
#115=VECTOR('',#344,1000.);
#116=VECTOR('',#345,1000.);
#117=VECTOR('',#348,1000.);
#118=VECTOR('',#349,1000.);
#119=VECTOR('',#352,1000.);
#120=VECTOR('',#353,1000.);
#121=VECTOR('',#356,1000.);
#122=VECTOR('',#357,1000.);
#123=VECTOR('',#360,1000.);
#124=VECTOR('',#361,1000.);
#125=VECTOR('',#364,1000.);
#126=VECTOR('',#365,1000.);
#127=VERTEX_POINT('',#370);
#128=VERTEX_POINT('',#371);
#129=VERTEX_POINT('',#373);
#130=VERTEX_POINT('',#393);
#131=VERTEX_POINT('',#395);
#132=VERTEX_POINT('',#415);
#133=VERTEX_POINT('',#417);
#134=VERTEX_POINT('',#419);
#135=VERTEX_POINT('',#421);
#136=VERTEX_POINT('',#423);
#137=VERTEX_POINT('',#425);
#138=VERTEX_POINT('',#445);
#139=VERTEX_POINT('',#447);
#140=VERTEX_POINT('',#449);
#141=VERTEX_POINT('',#471);
#142=VERTEX_POINT('',#472);
#143=VERTEX_POINT('',#498);
#144=VERTEX_POINT('',#500);
#145=VERTEX_POINT('',#520);
#146=VERTEX_POINT('',#522);
#147=VERTEX_POINT('',#542);
#148=VERTEX_POINT('',#544);
#149=VERTEX_POINT('',#564);
#150=VERTEX_POINT('',#566);
#151=VERTEX_POINT('',#592);
#152=VERTEX_POINT('',#594);
#153=VERTEX_POINT('',#614);
#154=VERTEX_POINT('',#616);
#155=EDGE_CURVE('',#127,#128,#65,.T.);
#156=EDGE_CURVE('',#129,#127,#54,.T.);
#157=EDGE_CURVE('',#130,#129,#66,.T.);
#158=EDGE_CURVE('',#131,#130,#55,.T.);
#159=EDGE_CURVE('',#132,#131,#67,.T.);
#160=EDGE_CURVE('',#133,#132,#68,.T.);
#161=EDGE_CURVE('',#134,#133,#69,.T.);
#162=EDGE_CURVE('',#135,#134,#70,.T.);
#163=EDGE_CURVE('',#136,#135,#71,.T.);
#164=EDGE_CURVE('',#137,#136,#56,.T.);
#165=EDGE_CURVE('',#138,#137,#72,.T.);
#166=EDGE_CURVE('',#139,#138,#73,.T.);
#167=EDGE_CURVE('',#140,#139,#74,.T.);
#168=EDGE_CURVE('',#128,#140,#57,.T.);
#169=EDGE_CURVE('',#141,#142,#58,.T.);
#170=EDGE_CURVE('',#142,#143,#75,.T.);
#171=EDGE_CURVE('',#143,#144,#59,.T.);
#172=EDGE_CURVE('',#144,#145,#76,.T.);
#173=EDGE_CURVE('',#145,#146,#60,.T.);
#174=EDGE_CURVE('',#146,#147,#77,.T.);
#175=EDGE_CURVE('',#147,#148,#61,.T.);
#176=EDGE_CURVE('',#148,#149,#78,.T.);
#177=EDGE_CURVE('',#149,#150,#62,.T.);
#178=EDGE_CURVE('',#150,#151,#79,.T.);
#179=EDGE_CURVE('',#151,#152,#63,.T.);
#180=EDGE_CURVE('',#152,#153,#80,.T.);
#181=EDGE_CURVE('',#153,#154,#64,.T.);
#182=EDGE_CURVE('',#154,#141,#81,.T.);
#183=EDGE_CURVE('',#146,#127,#82,.T.);
#184=EDGE_CURVE('',#147,#128,#83,.T.);
#185=EDGE_CURVE('',#148,#140,#84,.T.);
#186=EDGE_CURVE('',#145,#129,#85,.T.);
#187=EDGE_CURVE('',#144,#130,#86,.T.);
#188=EDGE_CURVE('',#143,#131,#87,.T.);
#189=EDGE_CURVE('',#142,#132,#88,.T.);
#190=EDGE_CURVE('',#141,#133,#89,.T.);
#191=EDGE_CURVE('',#154,#134,#90,.T.);
#192=EDGE_CURVE('',#153,#135,#91,.T.);
#193=EDGE_CURVE('',#152,#136,#92,.T.);
#194=EDGE_CURVE('',#151,#137,#93,.T.);
#195=EDGE_CURVE('',#150,#138,#94,.T.);
#196=EDGE_CURVE('',#149,#139,#95,.T.);
#197=ORIENTED_EDGE('',*,*,#155,.F.);
#198=ORIENTED_EDGE('',*,*,#156,.F.);
#199=ORIENTED_EDGE('',*,*,#157,.F.);
#200=ORIENTED_EDGE('',*,*,#158,.F.);
#201=ORIENTED_EDGE('',*,*,#159,.F.);
#202=ORIENTED_EDGE('',*,*,#160,.F.);
#203=ORIENTED_EDGE('',*,*,#161,.F.);
#204=ORIENTED_EDGE('',*,*,#162,.F.);
#205=ORIENTED_EDGE('',*,*,#163,.F.);
#206=ORIENTED_EDGE('',*,*,#164,.F.);
#207=ORIENTED_EDGE('',*,*,#165,.F.);
#208=ORIENTED_EDGE('',*,*,#166,.F.);
#209=ORIENTED_EDGE('',*,*,#167,.F.);
#210=ORIENTED_EDGE('',*,*,#168,.F.);
#211=ORIENTED_EDGE('',*,*,#169,.T.);
#212=ORIENTED_EDGE('',*,*,#170,.T.);
#213=ORIENTED_EDGE('',*,*,#171,.T.);
#214=ORIENTED_EDGE('',*,*,#172,.T.);
#215=ORIENTED_EDGE('',*,*,#173,.T.);
#216=ORIENTED_EDGE('',*,*,#174,.T.);
#217=ORIENTED_EDGE('',*,*,#175,.T.);
#218=ORIENTED_EDGE('',*,*,#176,.T.);
#219=ORIENTED_EDGE('',*,*,#177,.T.);
#220=ORIENTED_EDGE('',*,*,#178,.T.);
#221=ORIENTED_EDGE('',*,*,#179,.T.);
#222=ORIENTED_EDGE('',*,*,#180,.T.);
#223=ORIENTED_EDGE('',*,*,#181,.T.);
#224=ORIENTED_EDGE('',*,*,#182,.T.);
#225=ORIENTED_EDGE('',*,*,#183,.T.);
#226=ORIENTED_EDGE('',*,*,#155,.T.);
#227=ORIENTED_EDGE('',*,*,#184,.F.);
#228=ORIENTED_EDGE('',*,*,#174,.F.);
#229=ORIENTED_EDGE('',*,*,#175,.F.);
#230=ORIENTED_EDGE('',*,*,#184,.T.);
#231=ORIENTED_EDGE('',*,*,#168,.T.);
#232=ORIENTED_EDGE('',*,*,#185,.F.);
#233=ORIENTED_EDGE('',*,*,#173,.F.);
#234=ORIENTED_EDGE('',*,*,#186,.T.);
#235=ORIENTED_EDGE('',*,*,#156,.T.);
#236=ORIENTED_EDGE('',*,*,#183,.F.);
#237=ORIENTED_EDGE('',*,*,#187,.T.);
#238=ORIENTED_EDGE('',*,*,#157,.T.);
#239=ORIENTED_EDGE('',*,*,#186,.F.);
#240=ORIENTED_EDGE('',*,*,#172,.F.);
#241=ORIENTED_EDGE('',*,*,#171,.F.);
#242=ORIENTED_EDGE('',*,*,#188,.T.);
#243=ORIENTED_EDGE('',*,*,#158,.T.);
#244=ORIENTED_EDGE('',*,*,#187,.F.);
#245=ORIENTED_EDGE('',*,*,#189,.T.);
#246=ORIENTED_EDGE('',*,*,#159,.T.);
#247=ORIENTED_EDGE('',*,*,#188,.F.);
#248=ORIENTED_EDGE('',*,*,#170,.F.);
#249=ORIENTED_EDGE('',*,*,#169,.F.);
#250=ORIENTED_EDGE('',*,*,#190,.T.);
#251=ORIENTED_EDGE('',*,*,#160,.T.);
#252=ORIENTED_EDGE('',*,*,#189,.F.);
#253=ORIENTED_EDGE('',*,*,#191,.T.);
#254=ORIENTED_EDGE('',*,*,#161,.T.);
#255=ORIENTED_EDGE('',*,*,#190,.F.);
#256=ORIENTED_EDGE('',*,*,#182,.F.);
#257=ORIENTED_EDGE('',*,*,#181,.F.);
#258=ORIENTED_EDGE('',*,*,#192,.T.);
#259=ORIENTED_EDGE('',*,*,#162,.T.);
#260=ORIENTED_EDGE('',*,*,#191,.F.);
#261=ORIENTED_EDGE('',*,*,#193,.T.);
#262=ORIENTED_EDGE('',*,*,#163,.T.);
#263=ORIENTED_EDGE('',*,*,#192,.F.);
#264=ORIENTED_EDGE('',*,*,#180,.F.);
#265=ORIENTED_EDGE('',*,*,#179,.F.);
#266=ORIENTED_EDGE('',*,*,#194,.T.);
#267=ORIENTED_EDGE('',*,*,#164,.T.);
#268=ORIENTED_EDGE('',*,*,#193,.F.);
#269=ORIENTED_EDGE('',*,*,#195,.T.);
#270=ORIENTED_EDGE('',*,*,#165,.T.);
#271=ORIENTED_EDGE('',*,*,#194,.F.);
#272=ORIENTED_EDGE('',*,*,#178,.F.);
#273=ORIENTED_EDGE('',*,*,#177,.F.);
#274=ORIENTED_EDGE('',*,*,#196,.T.);
#275=ORIENTED_EDGE('',*,*,#166,.T.);
#276=ORIENTED_EDGE('',*,*,#195,.F.);
#277=ORIENTED_EDGE('',*,*,#185,.T.);
#278=ORIENTED_EDGE('',*,*,#167,.T.);
#279=ORIENTED_EDGE('',*,*,#196,.F.);
#280=ORIENTED_EDGE('',*,*,#176,.F.);
#281=PLANE('',#308);
#282=PLANE('',#309);
#283=PLANE('',#310);
#284=PLANE('',#311);
#285=PLANE('',#312);
#286=PLANE('',#313);
#287=PLANE('',#314);
#288=PLANE('',#315);
#289=PLANE('',#316);
#290=ADVANCED_FACE('',(#22),#281,.T.);
#291=ADVANCED_FACE('',(#23),#282,.T.);
#292=ADVANCED_FACE('',(#24),#283,.T.);
#293=ADVANCED_FACE('',(#25),#15,.T.);
#294=ADVANCED_FACE('',(#26),#16,.T.);
#295=ADVANCED_FACE('',(#27),#284,.T.);
#296=ADVANCED_FACE('',(#28),#17,.T.);
#297=ADVANCED_FACE('',(#29),#285,.T.);
#298=ADVANCED_FACE('',(#30),#18,.T.);
#299=ADVANCED_FACE('',(#31),#286,.T.);
#300=ADVANCED_FACE('',(#32),#19,.T.);
#301=ADVANCED_FACE('',(#33),#287,.T.);
#302=ADVANCED_FACE('',(#34),#20,.T.);
#303=ADVANCED_FACE('',(#35),#288,.T.);
#304=ADVANCED_FACE('',(#36),#21,.T.);
#305=ADVANCED_FACE('',(#37),#289,.T.);
#306=CLOSED_SHELL('',(#290,#291,#292,#293,#294,#295,#296,#297,#298,#299,
#300,#301,#302,#303,#304,#305));
#307=AXIS2_PLACEMENT_3D('',#368,#317,#318);
#308=AXIS2_PLACEMENT_3D('',#369,#319,#320);
#309=AXIS2_PLACEMENT_3D('',#470,#331,#332);
#310=AXIS2_PLACEMENT_3D('',#643,#340,#341);
#311=AXIS2_PLACEMENT_3D('',#704,#346,#347);
#312=AXIS2_PLACEMENT_3D('',#735,#350,#351);
#313=AXIS2_PLACEMENT_3D('',#774,#354,#355);
#314=AXIS2_PLACEMENT_3D('',#813,#358,#359);
#315=AXIS2_PLACEMENT_3D('',#844,#362,#363);
#316=AXIS2_PLACEMENT_3D('',#883,#366,#367);
#317=DIRECTION('axis',(0.,0.,1.));
#318=DIRECTION('refdir',(1.,0.,0.));
#319=DIRECTION('center_axis',(0.,1.,3.21624529935327E-16));
#320=DIRECTION('ref_axis',(0.,-3.21624529935327E-16,1.));
#321=DIRECTION('',(-1.,0.,0.));
#322=DIRECTION('',(0.,-3.21624529935327E-16,1.));
#323=DIRECTION('',(1.,0.,0.));
#324=DIRECTION('',(1.,0.,0.));
#325=DIRECTION('',(1.,0.,0.));
#326=DIRECTION('',(1.,0.,0.));
#327=DIRECTION('',(1.,0.,0.));
#328=DIRECTION('',(0.,3.21624529935327E-16,-1.));
#329=DIRECTION('',(0.,3.21624529935327E-16,-1.));
#330=DIRECTION('',(0.,3.21624529935327E-16,-1.));
#331=DIRECTION('center_axis',(0.,-1.,-3.21624529935327E-16));
#332=DIRECTION('ref_axis',(0.,3.21624529935327E-16,-1.));
#333=DIRECTION('',(1.,0.,0.));
#334=DIRECTION('',(0.,-3.21624529935327E-16,1.));
#335=DIRECTION('',(-1.,0.,0.));
#336=DIRECTION('',(0.,3.21624529935327E-16,-1.));
#337=DIRECTION('',(0.,3.21624529935327E-16,-1.));
#338=DIRECTION('',(1.,0.,0.));
#339=DIRECTION('',(1.,0.,0.));
#340=DIRECTION('center_axis',(0.,-0.0348994967025035,0.999390827019096));
#341=DIRECTION('ref_axis',(0.,-0.999390827019096,-0.0348994967025035));
#342=DIRECTION('',(0.0127274409474591,0.99930987920357,0.0348966699424966));
#343=DIRECTION('',(-0.0127274409474591,0.99930987920357,0.0348966699424946));
#344=DIRECTION('',(-0.0348966699424987,0.99930987920357,0.0127274409474546));
#345=DIRECTION('',(0.034896669942497,0.99930987920357,0.0127274409474594));
#346=DIRECTION('center_axis',(0.999390827019096,-0.0348994967025056,-1.12245342219229E-17));
#347=DIRECTION('ref_axis',(0.0348994967025056,0.999390827019096,3.21428604961694E-16));
#348=DIRECTION('',(0.0348966699424987,0.99930987920357,-0.0127274409474539));
#349=DIRECTION('',(0.0127274409474591,0.99930987920357,-0.0348966699424908));
#350=DIRECTION('center_axis',(0.,-0.0348994967025028,-0.999390827019096));
#351=DIRECTION('ref_axis',(0.,0.999390827019096,-0.0348994967025028));
#352=DIRECTION('',(0.0115854091177347,0.999323754798288,-0.0348971544889407));
#353=DIRECTION('',(0.00964024473125213,0.999344387087403,-0.034897874984353));
#354=DIRECTION('center_axis',(0.,-0.0348994967025028,-0.999390827019096));
#355=DIRECTION('ref_axis',(0.,0.999390827019096,-0.0348994967025028));
#356=DIRECTION('',(0.000972746532489373,0.999390354189286,-0.034899480190922));
#357=DIRECTION('',(-0.000972746532487466,0.999390354189286,-0.034899480190922));
#358=DIRECTION('center_axis',(0.,-0.0348994967024997,-0.999390827019096));
#359=DIRECTION('ref_axis',(0.,0.999390827019096,-0.0348994967024997));
#360=DIRECTION('',(-0.0127274409474542,0.99930987920357,-0.0348966699424929));
#361=DIRECTION('',(-0.034896669942497,0.99930987920357,-0.0127274409474539));
#362=DIRECTION('center_axis',(-0.999390827019096,-0.0348994967025035,-1.12245342219222E-17));
#363=DIRECTION('ref_axis',(0.0348994967025035,-0.999390827019096,-3.21428604961695E-16));
#364=DIRECTION('',(-0.0348994650816784,0.99938992151714,-0.00134614522916305));
#365=DIRECTION('',(-0.03489946509532,0.999389921907783,0.00134585482750143));
#366=DIRECTION('center_axis',(-0.999390827019096,-0.0348994967025056,-1.12245342219229E-17));
#367=DIRECTION('ref_axis',(0.0348994967025056,-0.999390827019096,-3.21428604961694E-16));
#368=CARTESIAN_POINT('',(0.,0.,0.));
#369=CARTESIAN_POINT('Origin',(-49.9033982512474,-7.63984353613242E-15,
37.2033982512474));
#370=CARTESIAN_POINT('',(46.0525035233811,-8.34817343690506E-15,38.798415389835));
#371=CARTESIAN_POINT('',(-46.0525035233811,-8.34817343690506E-15,38.798415389835));
#372=CARTESIAN_POINT('',(25.4,-8.34817343690508E-15,38.798415389835));
#373=CARTESIAN_POINT('',(51.4984153898349,-1.48114869362197E-14,33.3525035233811));
#374=CARTESIAN_POINT('Ctrl Pts',(51.4984153898349,-1.48114869362197E-14,
33.3525035233811));
#375=CARTESIAN_POINT('Ctrl Pts',(51.498415389835,2.66703886507066E-15,33.9943623805426));
#376=CARTESIAN_POINT('Ctrl Pts',(51.3814445904866,-2.42858258879154E-14,
34.6868182096002));
#377=CARTESIAN_POINT('Ctrl Pts',(51.1160578915724,-1.57017500803535E-14,
35.3571979054723));
#378=CARTESIAN_POINT('Ctrl Pts',(50.9833645421153,-1.58506042750732E-14,
35.6923877534083));
#379=CARTESIAN_POINT('Ctrl Pts',(50.8142744210993,1.76689668467137E-15,
36.0213023746559));
#380=CARTESIAN_POINT('Ctrl Pts',(50.6107349365351,1.62863662427748E-15,
36.332636352891));
#381=CARTESIAN_POINT('Ctrl Pts',(50.4071954519709,-7.39140763311765E-15,
36.6439703311261));
#382=CARTESIAN_POINT('Ctrl Pts',(50.169234441012,-1.64035727496716E-14,
36.9375620614828));
#383=CARTESIAN_POINT('Ctrl Pts',(49.9033982512474,-7.63984353613242E-15,
37.2033982512474));
#384=CARTESIAN_POINT('Ctrl Pts',(49.6375620614828,-7.75789851959453E-15,
37.469234441012));
#385=CARTESIAN_POINT('Ctrl Pts',(49.343970331126,9.89999395707612E-15,37.7071954519709));
#386=CARTESIAN_POINT('Ctrl Pts',(49.032636352891,9.27820071201457E-16,37.9107349365351));
#387=CARTESIAN_POINT('Ctrl Pts',(48.7213023746559,-8.04435381467321E-15,
38.1142744210993));
#388=CARTESIAN_POINT('Ctrl Pts',(48.3923877534083,-1.70012291099099E-14,
38.2833645421153));
#389=CARTESIAN_POINT('Ctrl Pts',(48.0571979054723,-2.59419409916239E-14,
38.4160578915724));
#390=CARTESIAN_POINT('Ctrl Pts',(47.3868182096002,-1.71780121640482E-14,
38.6814445904867));
#391=CARTESIAN_POINT('Ctrl Pts',(46.6943623805426,9.41539495709745E-15,
38.798415389835));
#392=CARTESIAN_POINT('Ctrl Pts',(46.0525035233811,-8.34817343690506E-15,
38.798415389835));
#393=CARTESIAN_POINT('',(51.498415389835,1.48114869362197E-14,-33.3525035233811));
#394=CARTESIAN_POINT('',(51.498415389835,8.45989944764369E-15,-19.05));
#395=CARTESIAN_POINT('',(46.0525035233811,8.34817343690506E-15,-38.798415389835));
#396=CARTESIAN_POINT('Ctrl Pts',(46.0525035233811,8.34817343690506E-15,
-38.798415389835));
#397=CARTESIAN_POINT('Ctrl Pts',(46.6943623805426,-5.33610760096192E-16,
-38.798415389835));
#398=CARTESIAN_POINT('Ctrl Pts',(47.3868182096002,-5.85556229954303E-16,
-38.6814445904867));
#399=CARTESIAN_POINT('Ctrl Pts',(48.0571979054723,-9.5851957963811E-15,
-38.4160578915724));
#400=CARTESIAN_POINT('Ctrl Pts',(48.3923877534083,-7.62339284092613E-16,
-38.2833645421153));
#401=CARTESIAN_POINT('Ctrl Pts',(48.7213023746559,-8.37430382328052E-16,
-38.1142744210993));
#402=CARTESIAN_POINT('Ctrl Pts',(49.032636352891,-9.27820071201461E-16,
-37.9107349365351));
#403=CARTESIAN_POINT('Ctrl Pts',(49.343970331126,7.86357443692639E-15,-37.7071954519709));
#404=CARTESIAN_POINT('Ctrl Pts',(49.6375620614828,-1.12388567740673E-15,
-37.469234441012));
#405=CARTESIAN_POINT('Ctrl Pts',(49.9033982512474,7.63984353613242E-15,
-37.2033982512474));
#406=CARTESIAN_POINT('Ctrl Pts',(50.169234441012,7.52178855267031E-15,-36.9375620614829));
#407=CARTESIAN_POINT('Ctrl Pts',(50.4071954519709,-1.49037656388361E-15,
-36.643970331126));
#408=CARTESIAN_POINT('Ctrl Pts',(50.6107349365351,-1.62863662427749E-15,
-36.332636352891));
#409=CARTESIAN_POINT('Ctrl Pts',(50.8142744210993,7.11488751232988E-15,
-36.0213023746559));
#410=CARTESIAN_POINT('Ctrl Pts',(50.9833645421153,6.96882007807189E-15,
-35.6923877534083));
#411=CARTESIAN_POINT('Ctrl Pts',(51.1160578915724,1.57017500803535E-14,
-35.3571979054723));
#412=CARTESIAN_POINT('Ctrl Pts',(51.3814445904867,6.52225749391286E-15,
-34.6868182096002));
#413=CARTESIAN_POINT('Ctrl Pts',(51.4984153898349,1.50965295289318E-14,
-33.9943623805426));
#414=CARTESIAN_POINT('Ctrl Pts',(51.498415389835,1.48114869362197E-14,-33.3525035233811));
#415=CARTESIAN_POINT('',(41.9196355545938,8.34817343690508E-15,-38.798415389835));
#416=CARTESIAN_POINT('',(-25.4,8.34817343690508E-15,-38.798415389835));
#417=CARTESIAN_POINT('',(34.8807019575899,8.34817343690508E-15,-38.798415389835));
#418=CARTESIAN_POINT('',(-25.4,8.34817343690508E-15,-38.798415389835));
#419=CARTESIAN_POINT('',(3.51946679850194,8.34817343690508E-15,-38.798415389835));
#420=CARTESIAN_POINT('',(-25.4,8.34817343690508E-15,-38.798415389835));
#421=CARTESIAN_POINT('',(-3.5194667985019,8.34817343690508E-15,-38.798415389835));
#422=CARTESIAN_POINT('',(-25.4,8.34817343690508E-15,-38.798415389835));
#423=CARTESIAN_POINT('',(-46.0525035233811,8.34817343690508E-15,-38.798415389835));
#424=CARTESIAN_POINT('',(-25.4,8.34817343690508E-15,-38.798415389835));
#425=CARTESIAN_POINT('',(-51.498415389835,1.48114869362197E-14,-33.3525035233811));
#426=CARTESIAN_POINT('Ctrl Pts',(-51.498415389835,1.48114869362197E-14,
-33.3525035233811));
#427=CARTESIAN_POINT('Ctrl Pts',(-51.498415389835,6.21474533193058E-15,
-33.9943623805426));
#428=CARTESIAN_POINT('Ctrl Pts',(-51.3814445904867,6.52225749391286E-15,
-34.6868182096002));
#429=CARTESIAN_POINT('Ctrl Pts',(-51.1160578915724,-2.06181831364903E-15,
-35.3571979054723));
#430=CARTESIAN_POINT('Ctrl Pts',(-50.9833645421153,6.9688200780719E-15,
-35.6923877534083));
#431=CARTESIAN_POINT('Ctrl Pts',(-50.8142744210994,1.59966717093311E-14,
-36.021302374656));
#432=CARTESIAN_POINT('Ctrl Pts',(-50.6107349365352,7.25314757272378E-15,
-36.332636352891));
#433=CARTESIAN_POINT('Ctrl Pts',(-50.407195451971,7.39140763311766E-15,
-36.6439703311261));
#434=CARTESIAN_POINT('Ctrl Pts',(-50.1692344410121,4.30489253406753E-14,
-36.9375620614829));
#435=CARTESIAN_POINT('Ctrl Pts',(-49.9033982512475,3.42851961271362E-14,
-37.2033982512474));
#436=CARTESIAN_POINT('Ctrl Pts',(-49.6375620614829,2.5521466913597E-14,
-37.469234441012));
#437=CARTESIAN_POINT('Ctrl Pts',(-49.3439703311261,-1.01820976007486E-15,
-37.7071954519709));
#438=CARTESIAN_POINT('Ctrl Pts',(-49.032636352891,7.9539641257998E-15,-37.9107349365351));
#439=CARTESIAN_POINT('Ctrl Pts',(-48.721302374656,2.58079222086757E-14,
-38.1142744210994));
#440=CARTESIAN_POINT('Ctrl Pts',(-48.3923877534084,2.58830133069111E-14,
-38.2833645421153));
#441=CARTESIAN_POINT('Ctrl Pts',(-48.0571979054723,2.59419409916239E-14,
-38.4160578915724));
#442=CARTESIAN_POINT('Ctrl Pts',(-47.3868182096002,-5.85556229954301E-16,
-38.6814445904867));
#443=CARTESIAN_POINT('Ctrl Pts',(-46.6943623805426,4.38753102249101E-14,
-38.798415389835));
#444=CARTESIAN_POINT('Ctrl Pts',(-46.0525035233811,8.34817343690506E-15,
-38.798415389835));
#445=CARTESIAN_POINT('',(-51.498415389835,1.56644337753598E-15,-3.52731690568402));
#446=CARTESIAN_POINT('',(-51.498415389835,-8.45989944764369E-15,19.05));
#447=CARTESIAN_POINT('',(-51.498415389835,-1.56610545070821E-15,3.5265559621162));
#448=CARTESIAN_POINT('',(-51.498415389835,-8.45989944764369E-15,19.05));
#449=CARTESIAN_POINT('',(-51.498415389835,-1.48114869362197E-14,33.3525035233811));
#450=CARTESIAN_POINT('',(-51.498415389835,-8.45989944764369E-15,19.05));
#451=CARTESIAN_POINT('Ctrl Pts',(-46.0525035233811,-8.34817343690506E-15,
38.798415389835));
#452=CARTESIAN_POINT('Ctrl Pts',(-46.6943623805426,-1.72299576339063E-14,
38.798415389835));
#453=CARTESIAN_POINT('Ctrl Pts',(-47.3868182096002,-1.71780121640482E-14,
38.6814445904867));
#454=CARTESIAN_POINT('Ctrl Pts',(-48.0571979054723,-2.59419409916239E-14,
38.4160578915724));
#455=CARTESIAN_POINT('Ctrl Pts',(-48.3923877534083,-1.70012291099099E-14,
38.2833645421153));
#456=CARTESIAN_POINT('Ctrl Pts',(-48.7213023746559,-1.69261380116745E-14,
38.1142744210993));
#457=CARTESIAN_POINT('Ctrl Pts',(-49.032636352891,-1.6835748322801E-14,
37.9107349365351));
#458=CARTESIAN_POINT('Ctrl Pts',(-49.3439703311261,-7.86357443692639E-15,
37.7071954519709));
#459=CARTESIAN_POINT('Ctrl Pts',(-49.6375620614828,-1.66396827165958E-14,
37.469234441012));
#460=CARTESIAN_POINT('Ctrl Pts',(-49.9033982512474,-7.63984353613242E-15,
37.2033982512474));
#461=CARTESIAN_POINT('Ctrl Pts',(-50.169234441012,-7.52178855267031E-15,
36.9375620614829));
#462=CARTESIAN_POINT('Ctrl Pts',(-50.4071954519709,-1.62731918301189E-14,
36.643970331126));
#463=CARTESIAN_POINT('Ctrl Pts',(-50.6107349365351,-1.6134931769725E-14,
36.332636352891));
#464=CARTESIAN_POINT('Ctrl Pts',(-50.8142744210993,-2.48784559063324E-14,
36.0213023746559));
#465=CARTESIAN_POINT('Ctrl Pts',(-50.9833645421153,-2.47323884720744E-14,
35.6923877534083));
#466=CARTESIAN_POINT('Ctrl Pts',(-51.1160578915724,-1.57017500803535E-14,
35.3571979054723));
#467=CARTESIAN_POINT('Ctrl Pts',(-51.3814445904867,-2.42858258879154E-14,
34.6868182096002));
#468=CARTESIAN_POINT('Ctrl Pts',(-51.498415389835,-1.50965295289318E-14,
33.9943623805426));
#469=CARTESIAN_POINT('Ctrl Pts',(-51.498415389835,-1.48114869362197E-14,
33.3525035233811));
#470=CARTESIAN_POINT('Origin',(38.187770574659,-20.,-38.1));
#471=CARTESIAN_POINT('',(34.687770574659,-20.,-38.1));
#472=CARTESIAN_POINT('',(41.687770574659,-20.,-38.1));
#473=CARTESIAN_POINT('Ctrl Pts',(34.687770574659,-20.,-38.1));
#474=CARTESIAN_POINT('Ctrl Pts',(34.687770574659,-20.,-38.1203704488702));
#475=CARTESIAN_POINT('Ctrl Pts',(34.827770574659,-20.,-38.1472594413788));
#476=CARTESIAN_POINT('Ctrl Pts',(35.387770574659,-20.,-38.1733336159327));
#477=CARTESIAN_POINT('Ctrl Pts',(35.527770574659,-20.,-38.1798521595712));
#478=CARTESIAN_POINT('Ctrl Pts',(35.6937441782119,-20.,-38.1862141309473));
#479=CARTESIAN_POINT('Ctrl Pts',(35.8864007116453,-20.,-38.192085590783));
#480=CARTESIAN_POINT('Ctrl Pts',(36.0790572450787,-20.,-38.1979570506188));
#481=CARTESIAN_POINT('Ctrl Pts',(36.2984972182576,-20.,-38.2033324499782));
#482=CARTESIAN_POINT('Ctrl Pts',(36.5407117511296,-20.,-38.2078435528422));
#483=CARTESIAN_POINT('Ctrl Pts',(37.0251408168735,-20.,-38.2168657585701));
#484=CARTESIAN_POINT('Ctrl Pts',(37.6044372413257,-20.,-38.2222226932211));
#485=CARTESIAN_POINT('Ctrl Pts',(38.187770574659,-20.,-38.2222226932211));
#486=CARTESIAN_POINT('Ctrl Pts',(38.7711039079923,-20.,-38.2222226932211));
#487=CARTESIAN_POINT('Ctrl Pts',(39.3504003324445,-20.,-38.2168657585701));
#488=CARTESIAN_POINT('Ctrl Pts',(39.8348293981884,-20.,-38.2078435528422));
#489=CARTESIAN_POINT('Ctrl Pts',(40.0770439310604,-20.,-38.2033324499782));
#490=CARTESIAN_POINT('Ctrl Pts',(40.2964839042393,-20.,-38.1979570506188));
#491=CARTESIAN_POINT('Ctrl Pts',(40.4891404376727,-20.,-38.192085590783));
#492=CARTESIAN_POINT('Ctrl Pts',(40.6817969711061,-20.,-38.1862141309473));
#493=CARTESIAN_POINT('Ctrl Pts',(40.847770574659,-20.,-38.1798521595711));
#494=CARTESIAN_POINT('Ctrl Pts',(40.987770574659,-20.,-38.1733336159327));
#495=CARTESIAN_POINT('Ctrl Pts',(41.547770574659,-20.,-38.1472594413789));
#496=CARTESIAN_POINT('Ctrl Pts',(41.687770574659,-20.,-38.1203704488702));
#497=CARTESIAN_POINT('Ctrl Pts',(41.687770574659,-20.,-38.1));
#498=CARTESIAN_POINT('',(45.7977789136814,-20.,-38.1000000000001));
#499=CARTESIAN_POINT('',(41.687770574659,-20.,-38.1));
#500=CARTESIAN_POINT('',(50.8,-20.,-33.0977789136815));
#501=CARTESIAN_POINT('Ctrl Pts',(45.7977789136814,-20.,-38.1000000000001));
#502=CARTESIAN_POINT('Ctrl Pts',(46.387344075305,-20.,-38.1000000000001));
#503=CARTESIAN_POINT('Ctrl Pts',(47.0233839588721,-20.,-37.9925590767292));
#504=CARTESIAN_POINT('Ctrl Pts',(47.6391463018486,-20.,-37.7487940335388));
#505=CARTESIAN_POINT('Ctrl Pts',(47.9470274733368,-20.,-37.6269115119436));
#506=CARTESIAN_POINT('Ctrl Pts',(48.2491446750746,-20.,-37.4715975462431));
#507=CARTESIAN_POINT('Ctrl Pts',(48.5351135686235,-20.,-37.2846408847045));
#508=CARTESIAN_POINT('Ctrl Pts',(48.8210824621724,-20.,-37.097684223166));
#509=CARTESIAN_POINT('Ctrl Pts',(49.0907546089815,-20.,-36.8791104349869));
#510=CARTESIAN_POINT('Ctrl Pts',(49.3349325219841,-20.,-36.6349325219842));
#511=CARTESIAN_POINT('Ctrl Pts',(49.5791104349868,-20.,-36.3907546089816));
#512=CARTESIAN_POINT('Ctrl Pts',(49.7976842231659,-20.,-36.1210824621725));
#513=CARTESIAN_POINT('Ctrl Pts',(49.9846408847044,-20.,-35.8351135686236));
#514=CARTESIAN_POINT('Ctrl Pts',(50.171597546243,-20.,-35.5491446750747));
#515=CARTESIAN_POINT('Ctrl Pts',(50.3269115119435,-20.,-35.247027473337));
#516=CARTESIAN_POINT('Ctrl Pts',(50.4487940335387,-20.,-34.9391463018487));
#517=CARTESIAN_POINT('Ctrl Pts',(50.6925590767291,-20.,-34.3233839588722));
#518=CARTESIAN_POINT('Ctrl Pts',(50.8,-20.,-33.687344075305));
#519=CARTESIAN_POINT('Ctrl Pts',(50.7999999999999,-20.,-33.0977789136815));
#520=CARTESIAN_POINT('',(50.7999999999999,-20.,33.0977789136814));
#521=CARTESIAN_POINT('',(50.8,-20.,-33.0977789136815));
#522=CARTESIAN_POINT('',(45.7977789136814,-20.,38.1));
#523=CARTESIAN_POINT('Ctrl Pts',(50.7999999999999,-20.,33.0977789136814));
#524=CARTESIAN_POINT('Ctrl Pts',(50.7999999999999,-20.,33.6873440753049));
#525=CARTESIAN_POINT('Ctrl Pts',(50.6925590767291,-20.,34.3233839588721));
#526=CARTESIAN_POINT('Ctrl Pts',(50.4487940335387,-20.,34.9391463018486));
#527=CARTESIAN_POINT('Ctrl Pts',(50.3269115119435,-20.,35.2470274733369));
#528=CARTESIAN_POINT('Ctrl Pts',(50.171597546243,-20.,35.5491446750746));
#529=CARTESIAN_POINT('Ctrl Pts',(49.9846408847044,-20.,35.8351135686235));
#530=CARTESIAN_POINT('Ctrl Pts',(49.7976842231659,-20.,36.1210824621725));
#531=CARTESIAN_POINT('Ctrl Pts',(49.5791104349868,-20.,36.3907546089815));
#532=CARTESIAN_POINT('Ctrl Pts',(49.3349325219841,-20.,36.6349325219841));
#533=CARTESIAN_POINT('Ctrl Pts',(49.0907546089815,-20.,36.8791104349868));
#534=CARTESIAN_POINT('Ctrl Pts',(48.8210824621724,-20.,37.0976842231659));
#535=CARTESIAN_POINT('Ctrl Pts',(48.5351135686235,-20.,37.2846408847045));
#536=CARTESIAN_POINT('Ctrl Pts',(48.2491446750746,-20.,37.471597546243));
#537=CARTESIAN_POINT('Ctrl Pts',(47.9470274733368,-20.,37.6269115119435));
#538=CARTESIAN_POINT('Ctrl Pts',(47.6391463018486,-20.,37.7487940335387));
#539=CARTESIAN_POINT('Ctrl Pts',(47.0233839588721,-20.,37.9925590767291));
#540=CARTESIAN_POINT('Ctrl Pts',(46.3873440753049,-20.,38.1));
#541=CARTESIAN_POINT('Ctrl Pts',(45.7977789136814,-20.,38.1));
#542=CARTESIAN_POINT('',(-45.7977789136814,-20.,38.1));
#543=CARTESIAN_POINT('',(45.7977789136814,-20.,38.1));
#544=CARTESIAN_POINT('',(-50.8,-20.,33.0977789136815));
#545=CARTESIAN_POINT('Ctrl Pts',(-45.7977789136814,-20.,38.1000000000001));
#546=CARTESIAN_POINT('Ctrl Pts',(-46.387344075305,-20.,38.1000000000001));
#547=CARTESIAN_POINT('Ctrl Pts',(-47.0233839588721,-20.,37.9925590767292));
#548=CARTESIAN_POINT('Ctrl Pts',(-47.6391463018486,-20.,37.7487940335388));
#549=CARTESIAN_POINT('Ctrl Pts',(-47.9470274733369,-20.,37.6269115119436));
#550=CARTESIAN_POINT('Ctrl Pts',(-48.2491446750746,-20.,37.4715975462431));
#551=CARTESIAN_POINT('Ctrl Pts',(-48.5351135686235,-20.,37.2846408847045));
#552=CARTESIAN_POINT('Ctrl Pts',(-48.8210824621725,-20.,37.097684223166));
#553=CARTESIAN_POINT('Ctrl Pts',(-49.0907546089815,-20.,36.8791104349869));
#554=CARTESIAN_POINT('Ctrl Pts',(-49.3349325219842,-20.,36.6349325219842));
#555=CARTESIAN_POINT('Ctrl Pts',(-49.5791104349868,-20.,36.3907546089816));
#556=CARTESIAN_POINT('Ctrl Pts',(-49.7976842231659,-20.,36.1210824621725));
#557=CARTESIAN_POINT('Ctrl Pts',(-49.9846408847044,-20.,35.8351135686236));
#558=CARTESIAN_POINT('Ctrl Pts',(-50.171597546243,-20.,35.5491446750747));
#559=CARTESIAN_POINT('Ctrl Pts',(-50.3269115119435,-20.,35.247027473337));
#560=CARTESIAN_POINT('Ctrl Pts',(-50.4487940335387,-20.,34.9391463018487));
#561=CARTESIAN_POINT('Ctrl Pts',(-50.6925590767291,-20.,34.3233839588722));
#562=CARTESIAN_POINT('Ctrl Pts',(-50.8,-20.,33.687344075305));
#563=CARTESIAN_POINT('Ctrl Pts',(-50.8,-20.,33.0977789136815));
#564=CARTESIAN_POINT('',(-50.8,-20.,3.49962243401073));
#565=CARTESIAN_POINT('',(-50.8,-20.,3.49962243401073));
#566=CARTESIAN_POINT('',(-50.8,-20.,-3.50037756598927));
#567=CARTESIAN_POINT('Ctrl Pts',(-50.8,-20.,3.49962243401073));
#568=CARTESIAN_POINT('Ctrl Pts',(-50.8203704488702,-20.,3.49962243401073));
#569=CARTESIAN_POINT('Ctrl Pts',(-50.8472594413789,-20.,3.35962243401073));
#570=CARTESIAN_POINT('Ctrl Pts',(-50.8733336159327,-20.,2.79962243401073));
#571=CARTESIAN_POINT('Ctrl Pts',(-50.8798521595711,-20.,2.65962243401073));
#572=CARTESIAN_POINT('Ctrl Pts',(-50.8862141309473,-20.,2.49364883045785));
#573=CARTESIAN_POINT('Ctrl Pts',(-50.892085590783,-20.,2.30099229702443));
#574=CARTESIAN_POINT('Ctrl Pts',(-50.8979570506188,-20.,2.10833576359102));
#575=CARTESIAN_POINT('Ctrl Pts',(-50.9033324499782,-20.,1.88889579041212));
#576=CARTESIAN_POINT('Ctrl Pts',(-50.9078435528422,-20.,1.64668125754015));
#577=CARTESIAN_POINT('Ctrl Pts',(-50.9168657585701,-20.,1.1622521917962));
#578=CARTESIAN_POINT('Ctrl Pts',(-50.9222226932211,-20.,0.582955767344064));
#579=CARTESIAN_POINT('Ctrl Pts',(-50.9222226932211,-20.,-0.00037756598926968));
#580=CARTESIAN_POINT('Ctrl Pts',(-50.9222226932211,-20.,-0.583710899322602));
#581=CARTESIAN_POINT('Ctrl Pts',(-50.9168657585701,-20.,-1.16300732377474));
#582=CARTESIAN_POINT('Ctrl Pts',(-50.9078435528422,-20.,-1.64743638951868));
#583=CARTESIAN_POINT('Ctrl Pts',(-50.9033324499782,-20.,-1.88965092239065));
#584=CARTESIAN_POINT('Ctrl Pts',(-50.8979570506188,-20.,-2.10909089556955));
#585=CARTESIAN_POINT('Ctrl Pts',(-50.892085590783,-20.,-2.30174742900297));
#586=CARTESIAN_POINT('Ctrl Pts',(-50.8862141309473,-20.,-2.49440396243638));
#587=CARTESIAN_POINT('Ctrl Pts',(-50.8798521595711,-20.,-2.66037756598927));
#588=CARTESIAN_POINT('Ctrl Pts',(-50.8733336159327,-20.,-2.80037756598927));
#589=CARTESIAN_POINT('Ctrl Pts',(-50.8472594413789,-20.,-3.36037756598927));
#590=CARTESIAN_POINT('Ctrl Pts',(-50.8203704488702,-20.,-3.50037756598927));
#591=CARTESIAN_POINT('Ctrl Pts',(-50.8,-20.,-3.50037756598927));
#592=CARTESIAN_POINT('',(-50.8,-20.,-33.0977789136815));
#593=CARTESIAN_POINT('',(-50.8,-20.,-3.50037756598927));
#594=CARTESIAN_POINT('',(-45.7977789136815,-20.,-38.1));
#595=CARTESIAN_POINT('Ctrl Pts',(-50.8,-20.,-33.0977789136815));
#596=CARTESIAN_POINT('Ctrl Pts',(-50.8,-20.,-33.687344075305));
#597=CARTESIAN_POINT('Ctrl Pts',(-50.6925590767291,-20.,-34.3233839588722));
#598=CARTESIAN_POINT('Ctrl Pts',(-50.4487940335387,-20.,-34.9391463018487));
#599=CARTESIAN_POINT('Ctrl Pts',(-50.3269115119435,-20.,-35.2470274733369));
#600=CARTESIAN_POINT('Ctrl Pts',(-50.171597546243,-20.,-35.5491446750746));
#601=CARTESIAN_POINT('Ctrl Pts',(-49.9846408847045,-20.,-35.8351135686236));
#602=CARTESIAN_POINT('Ctrl Pts',(-49.7976842231659,-20.,-36.1210824621725));
#603=CARTESIAN_POINT('Ctrl Pts',(-49.5791104349868,-20.,-36.3907546089816));
#604=CARTESIAN_POINT('Ctrl Pts',(-49.3349325219842,-20.,-36.6349325219842));
#605=CARTESIAN_POINT('Ctrl Pts',(-49.0907546089816,-20.,-36.8791104349868));
#606=CARTESIAN_POINT('Ctrl Pts',(-48.8210824621725,-20.,-37.0976842231659));
#607=CARTESIAN_POINT('Ctrl Pts',(-48.5351135686236,-20.,-37.2846408847045));
#608=CARTESIAN_POINT('Ctrl Pts',(-48.2491446750746,-20.,-37.4715975462431));
#609=CARTESIAN_POINT('Ctrl Pts',(-47.9470274733369,-20.,-37.6269115119436));
#610=CARTESIAN_POINT('Ctrl Pts',(-47.6391463018487,-20.,-37.7487940335388));
#611=CARTESIAN_POINT('Ctrl Pts',(-47.0233839588722,-20.,-37.9925590767292));
#612=CARTESIAN_POINT('Ctrl Pts',(-46.3873440753051,-20.,-38.1000000000001));
#613=CARTESIAN_POINT('Ctrl Pts',(-45.7977789136815,-20.,-38.1000000000001));
#614=CARTESIAN_POINT('',(-3.5,-20.,-38.1));
#615=CARTESIAN_POINT('',(-45.7977789136815,-20.,-38.1));
#616=CARTESIAN_POINT('',(3.5,-20.,-38.1));
#617=CARTESIAN_POINT('Ctrl Pts',(-3.5,-20.,-38.1));
#618=CARTESIAN_POINT('Ctrl Pts',(-3.5,-20.,-38.1203704488702));
#619=CARTESIAN_POINT('Ctrl Pts',(-3.36,-20.,-38.1472594413789));
#620=CARTESIAN_POINT('Ctrl Pts',(-2.8,-20.,-38.1733336159327));
#621=CARTESIAN_POINT('Ctrl Pts',(-2.66,-20.,-38.1798521595712));
#622=CARTESIAN_POINT('Ctrl Pts',(-2.49402639644712,-20.,-38.1862141309473));
#623=CARTESIAN_POINT('Ctrl Pts',(-2.3013698630137,-20.,-38.192085590783));
#624=CARTESIAN_POINT('Ctrl Pts',(-2.10871332958029,-20.,-38.1979570506188));
#625=CARTESIAN_POINT('Ctrl Pts',(-1.88927335640138,-20.,-38.2033324499782));
#626=CARTESIAN_POINT('Ctrl Pts',(-1.64705882352941,-20.,-38.2078435528422));
#627=CARTESIAN_POINT('Ctrl Pts',(-1.16262975778547,-20.,-38.2168657585702));
#628=CARTESIAN_POINT('Ctrl Pts',(-0.583333333333335,-20.,-38.2222226932211));
#629=CARTESIAN_POINT('Ctrl Pts',(-2.1094237467878E-15,-20.,-38.2222226932211));
#630=CARTESIAN_POINT('Ctrl Pts',(0.583333333333332,-20.,-38.2222226932211));
#631=CARTESIAN_POINT('Ctrl Pts',(1.16262975778547,-20.,-38.2168657585701));
#632=CARTESIAN_POINT('Ctrl Pts',(1.64705882352941,-20.,-38.2078435528422));
#633=CARTESIAN_POINT('Ctrl Pts',(1.88927335640138,-20.,-38.2033324499782));
#634=CARTESIAN_POINT('Ctrl Pts',(2.10871332958028,-20.,-38.1979570506188));
#635=CARTESIAN_POINT('Ctrl Pts',(2.3013698630137,-20.,-38.192085590783));
#636=CARTESIAN_POINT('Ctrl Pts',(2.49402639644711,-20.,-38.1862141309473));
#637=CARTESIAN_POINT('Ctrl Pts',(2.66,-20.,-38.1798521595711));
#638=CARTESIAN_POINT('Ctrl Pts',(2.8,-20.,-38.1733336159327));
#639=CARTESIAN_POINT('Ctrl Pts',(3.36,-20.,-38.1472594413788));
#640=CARTESIAN_POINT('Ctrl Pts',(3.5,-20.,-38.1203704488702));
#641=CARTESIAN_POINT('Ctrl Pts',(3.5,-20.,-38.1));
#642=CARTESIAN_POINT('',(3.49999999999999,-20.,-38.1));
#643=CARTESIAN_POINT('Origin',(-8.88178419700125E-15,-71.2679620813213,
36.3096833138464));
#644=CARTESIAN_POINT('',(45.7977789136814,-20.,38.1));
#645=CARTESIAN_POINT('',(-45.7977789136814,-20.,38.1));
#646=CARTESIAN_POINT('Ctrl Pts',(-50.8,-20.,33.0977789136815));
#647=CARTESIAN_POINT('Ctrl Pts',(-51.498415389835,-1.48114869362197E-14,
33.3525035233811));
#648=CARTESIAN_POINT('Ctrl Pts',(-50.8,-20.,33.687344075305));
#649=CARTESIAN_POINT('Ctrl Pts',(-51.498415389835,-1.50965295289318E-14,
33.9943623805426));
#650=CARTESIAN_POINT('Ctrl Pts',(-50.6925590767291,-20.,34.3233839588722));
#651=CARTESIAN_POINT('Ctrl Pts',(-51.3814445904867,-2.42858258879154E-14,
34.6868182096002));
#652=CARTESIAN_POINT('Ctrl Pts',(-50.3269115119435,-20.,35.247027473337));
#653=CARTESIAN_POINT('Ctrl Pts',(-50.9833645421153,-2.47323884720744E-14,
35.6923877534083));
#654=CARTESIAN_POINT('Ctrl Pts',(-50.171597546243,-20.,35.5491446750747));
#655=CARTESIAN_POINT('Ctrl Pts',(-50.8142744210993,-2.48784559063324E-14,
36.0213023746559));
#656=CARTESIAN_POINT('Ctrl Pts',(-49.7976842231659,-20.,36.1210824621725));
#657=CARTESIAN_POINT('Ctrl Pts',(-50.4071954519709,-1.62731918301189E-14,
36.643970331126));
#658=CARTESIAN_POINT('Ctrl Pts',(-49.5791104349868,-20.,36.3907546089816));
#659=CARTESIAN_POINT('Ctrl Pts',(-50.169234441012,-7.52178855267031E-15,
36.9375620614829));
#660=CARTESIAN_POINT('Ctrl Pts',(-49.0907546089815,-20.,36.8791104349869));
#661=CARTESIAN_POINT('Ctrl Pts',(-49.6375620614828,-1.66396827165958E-14,
37.469234441012));
#662=CARTESIAN_POINT('Ctrl Pts',(-48.8210824621725,-20.,37.097684223166));
#663=CARTESIAN_POINT('Ctrl Pts',(-49.3439703311261,-7.86357443692639E-15,
37.7071954519709));
#664=CARTESIAN_POINT('Ctrl Pts',(-48.2491446750746,-20.,37.4715975462431));
#665=CARTESIAN_POINT('Ctrl Pts',(-48.7213023746559,-1.69261380116745E-14,
38.1142744210993));
#666=CARTESIAN_POINT('Ctrl Pts',(-47.9470274733369,-20.,37.6269115119436));
#667=CARTESIAN_POINT('Ctrl Pts',(-48.3923877534083,-1.70012291099099E-14,
38.2833645421153));
#668=CARTESIAN_POINT('Ctrl Pts',(-47.0233839588721,-20.,37.9925590767292));
#669=CARTESIAN_POINT('Ctrl Pts',(-47.3868182096002,-1.71780121640482E-14,
38.6814445904867));
#670=CARTESIAN_POINT('Ctrl Pts',(-46.387344075305,-20.,38.1000000000001));
#671=CARTESIAN_POINT('Ctrl Pts',(-46.6943623805426,-1.72299576339063E-14,
38.798415389835));
#672=CARTESIAN_POINT('Ctrl Pts',(-45.7977789136814,-20.,38.1000000000001));
#673=CARTESIAN_POINT('Ctrl Pts',(-46.0525035233811,-8.34817343690506E-15,
38.798415389835));
#674=CARTESIAN_POINT('',(-50.8,-20.,33.0977789136815));
#675=CARTESIAN_POINT('Ctrl Pts',(45.7977789136814,-20.,38.1));
#676=CARTESIAN_POINT('Ctrl Pts',(46.0525035233811,-8.34817343690506E-15,
38.798415389835));
#677=CARTESIAN_POINT('Ctrl Pts',(46.3873440753049,-20.,38.1));
#678=CARTESIAN_POINT('Ctrl Pts',(46.6943623805426,9.41539495709745E-15,
38.798415389835));
#679=CARTESIAN_POINT('Ctrl Pts',(47.0233839588721,-20.,37.9925590767291));
#680=CARTESIAN_POINT('Ctrl Pts',(47.3868182096002,-1.71780121640482E-14,
38.6814445904867));
#681=CARTESIAN_POINT('Ctrl Pts',(47.9470274733368,-20.,37.6269115119435));
#682=CARTESIAN_POINT('Ctrl Pts',(48.3923877534083,-1.70012291099099E-14,
38.2833645421153));
#683=CARTESIAN_POINT('Ctrl Pts',(48.2491446750746,-20.,37.471597546243));
#684=CARTESIAN_POINT('Ctrl Pts',(48.7213023746559,-8.04435381467321E-15,
38.1142744210993));
#685=CARTESIAN_POINT('Ctrl Pts',(48.8210824621724,-20.,37.0976842231659));
#686=CARTESIAN_POINT('Ctrl Pts',(49.343970331126,9.89999395707612E-15,37.7071954519709));
#687=CARTESIAN_POINT('Ctrl Pts',(49.0907546089815,-20.,36.8791104349868));
#688=CARTESIAN_POINT('Ctrl Pts',(49.6375620614828,-7.75789851959453E-15,
37.469234441012));
#689=CARTESIAN_POINT('Ctrl Pts',(49.5791104349868,-20.,36.3907546089815));
#690=CARTESIAN_POINT('Ctrl Pts',(50.169234441012,-1.64035727496716E-14,
36.9375620614828));
#691=CARTESIAN_POINT('Ctrl Pts',(49.7976842231659,-20.,36.1210824621725));
#692=CARTESIAN_POINT('Ctrl Pts',(50.4071954519709,-7.39140763311765E-15,
36.6439703311261));
#693=CARTESIAN_POINT('Ctrl Pts',(50.171597546243,-20.,35.5491446750746));
#694=CARTESIAN_POINT('Ctrl Pts',(50.8142744210993,1.76689668467137E-15,
36.0213023746559));
#695=CARTESIAN_POINT('Ctrl Pts',(50.3269115119435,-20.,35.2470274733369));
#696=CARTESIAN_POINT('Ctrl Pts',(50.9833645421153,-1.58506042750732E-14,
35.6923877534083));
#697=CARTESIAN_POINT('Ctrl Pts',(50.6925590767291,-20.,34.3233839588721));
#698=CARTESIAN_POINT('Ctrl Pts',(51.3814445904866,-2.42858258879154E-14,
34.6868182096002));
#699=CARTESIAN_POINT('Ctrl Pts',(50.7999999999999,-20.,33.6873440753049));
#700=CARTESIAN_POINT('Ctrl Pts',(51.498415389835,2.66703886507066E-15,33.9943623805426));
#701=CARTESIAN_POINT('Ctrl Pts',(50.7999999999999,-20.,33.0977789136814));
#702=CARTESIAN_POINT('Ctrl Pts',(51.4984153898349,-1.48114869362197E-14,
33.3525035233811));
#703=CARTESIAN_POINT('',(51.1492076949174,-10.,33.2251412185312));
#704=CARTESIAN_POINT('Origin',(48.9942150329961,-71.7109156895966,-2.27547329469286E-14));
#705=CARTESIAN_POINT('',(50.7999999999999,-20.,-33.0977789136815));
#706=CARTESIAN_POINT('Ctrl Pts',(50.7999999999999,-20.,-33.0977789136815));
#707=CARTESIAN_POINT('Ctrl Pts',(51.498415389835,1.48114869362197E-14,-33.3525035233811));
#708=CARTESIAN_POINT('Ctrl Pts',(50.8,-20.,-33.687344075305));
#709=CARTESIAN_POINT('Ctrl Pts',(51.4984153898349,1.50965295289318E-14,
-33.9943623805426));
#710=CARTESIAN_POINT('Ctrl Pts',(50.6925590767291,-20.,-34.3233839588722));
#711=CARTESIAN_POINT('Ctrl Pts',(51.3814445904867,6.52225749391286E-15,
-34.6868182096002));
#712=CARTESIAN_POINT('Ctrl Pts',(50.3269115119435,-20.,-35.247027473337));
#713=CARTESIAN_POINT('Ctrl Pts',(50.9833645421153,6.96882007807189E-15,
-35.6923877534083));
#714=CARTESIAN_POINT('Ctrl Pts',(50.171597546243,-20.,-35.5491446750747));
#715=CARTESIAN_POINT('Ctrl Pts',(50.8142744210993,7.11488751232988E-15,
-36.0213023746559));
#716=CARTESIAN_POINT('Ctrl Pts',(49.7976842231659,-20.,-36.1210824621725));
#717=CARTESIAN_POINT('Ctrl Pts',(50.4071954519709,-1.49037656388361E-15,
-36.643970331126));
#718=CARTESIAN_POINT('Ctrl Pts',(49.5791104349868,-20.,-36.3907546089816));
#719=CARTESIAN_POINT('Ctrl Pts',(50.169234441012,7.52178855267031E-15,-36.9375620614829));
#720=CARTESIAN_POINT('Ctrl Pts',(49.0907546089815,-20.,-36.8791104349869));
#721=CARTESIAN_POINT('Ctrl Pts',(49.6375620614828,-1.12388567740673E-15,
-37.469234441012));
#722=CARTESIAN_POINT('Ctrl Pts',(48.8210824621724,-20.,-37.097684223166));
#723=CARTESIAN_POINT('Ctrl Pts',(49.343970331126,7.86357443692639E-15,-37.7071954519709));
#724=CARTESIAN_POINT('Ctrl Pts',(48.2491446750746,-20.,-37.4715975462431));
#725=CARTESIAN_POINT('Ctrl Pts',(48.7213023746559,-8.37430382328052E-16,
-38.1142744210993));
#726=CARTESIAN_POINT('Ctrl Pts',(47.9470274733368,-20.,-37.6269115119436));
#727=CARTESIAN_POINT('Ctrl Pts',(48.3923877534083,-7.62339284092613E-16,
-38.2833645421153));
#728=CARTESIAN_POINT('Ctrl Pts',(47.0233839588721,-20.,-37.9925590767292));
#729=CARTESIAN_POINT('Ctrl Pts',(47.3868182096002,-5.85556229954303E-16,
-38.6814445904867));
#730=CARTESIAN_POINT('Ctrl Pts',(46.387344075305,-20.,-38.1000000000001));
#731=CARTESIAN_POINT('Ctrl Pts',(46.6943623805426,-5.33610760096192E-16,
-38.798415389835));
#732=CARTESIAN_POINT('Ctrl Pts',(45.7977789136814,-20.,-38.1000000000001));
#733=CARTESIAN_POINT('Ctrl Pts',(46.0525035233811,8.34817343690506E-15,
-38.798415389835));
#734=CARTESIAN_POINT('',(45.9251412185312,-9.99999999999998,-38.4492076949175));
#735=CARTESIAN_POINT('Origin',(-8.88178419700125E-15,-71.2679620813213,
-36.3096833138464));
#736=CARTESIAN_POINT('',(41.687770574659,-20.,-38.1));
#737=CARTESIAN_POINT('Ctrl Pts',(41.687770574659,-20.,-38.1));
#738=CARTESIAN_POINT('Ctrl Pts',(41.9196355545938,8.34817343690508E-15,
-38.798415389835));
#739=CARTESIAN_POINT('Ctrl Pts',(41.687770574659,-20.,-38.1203704488702));
#740=CARTESIAN_POINT('Ctrl Pts',(41.3330577548435,8.34817343690508E-15,
-38.798415389835));
#741=CARTESIAN_POINT('Ctrl Pts',(41.547770574659,-20.,-38.1472594413789));
#742=CARTESIAN_POINT('Ctrl Pts',(40.7464799550932,8.34817343690508E-15,
-38.798415389835));
#743=CARTESIAN_POINT('Ctrl Pts',(40.847770574659,-20.,-38.1798521595711));
#744=CARTESIAN_POINT('Ctrl Pts',(40.0132577054052,8.34817343690508E-15,
-38.798415389835));
#745=CARTESIAN_POINT('Ctrl Pts',(40.6817969711061,-20.,-38.1862141309473));
#746=CARTESIAN_POINT('Ctrl Pts',(39.8666132554677,8.34817343690508E-15,
-38.798415389835));
#747=CARTESIAN_POINT('Ctrl Pts',(40.2964839042393,-20.,-38.1979570506188));
#748=CARTESIAN_POINT('Ctrl Pts',(39.5733243555925,8.34817343690508E-15,
-38.798415389835));
#749=CARTESIAN_POINT('Ctrl Pts',(40.0770439310604,-20.,-38.2033324499782));
#750=CARTESIAN_POINT('Ctrl Pts',(39.4266799056549,8.34817343690508E-15,
-38.798415389835));
#751=CARTESIAN_POINT('Ctrl Pts',(39.3504003324445,-20.,-38.2168657585701));
#752=CARTESIAN_POINT('Ctrl Pts',(38.9867465558422,8.34817343690508E-15,
-38.798415389835));
#753=CARTESIAN_POINT('Ctrl Pts',(38.7711039079923,-20.,-38.2222226932211));
#754=CARTESIAN_POINT('Ctrl Pts',(38.693457655967,8.34817343690508E-15,-38.798415389835));
#755=CARTESIAN_POINT('Ctrl Pts',(37.6044372413257,-20.,-38.2222226932211));
#756=CARTESIAN_POINT('Ctrl Pts',(38.1068798562167,8.34817343690508E-15,
-38.798415389835));
#757=CARTESIAN_POINT('Ctrl Pts',(37.0251408168735,-20.,-38.2168657585701));
#758=CARTESIAN_POINT('Ctrl Pts',(37.8135909563416,8.34817343690508E-15,
-38.798415389835));
#759=CARTESIAN_POINT('Ctrl Pts',(36.2984972182576,-20.,-38.2033324499782));
#760=CARTESIAN_POINT('Ctrl Pts',(37.3736576065288,8.34817343690508E-15,
-38.798415389835));
#761=CARTESIAN_POINT('Ctrl Pts',(36.0790572450787,-20.,-38.1979570506188));
#762=CARTESIAN_POINT('Ctrl Pts',(37.2270131565913,8.34817343690508E-15,
-38.798415389835));
#763=CARTESIAN_POINT('Ctrl Pts',(35.6937441782119,-20.,-38.1862141309473));
#764=CARTESIAN_POINT('Ctrl Pts',(36.9337242567161,8.34817343690508E-15,
-38.798415389835));
#765=CARTESIAN_POINT('Ctrl Pts',(35.527770574659,-20.,-38.1798521595712));
#766=CARTESIAN_POINT('Ctrl Pts',(36.7870798067785,8.34817343690508E-15,
-38.798415389835));
#767=CARTESIAN_POINT('Ctrl Pts',(34.827770574659,-20.,-38.1472594413788));
#768=CARTESIAN_POINT('Ctrl Pts',(36.0538575570906,8.34817343690508E-15,
-38.798415389835));
#769=CARTESIAN_POINT('Ctrl Pts',(34.687770574659,-20.,-38.1203704488702));
#770=CARTESIAN_POINT('Ctrl Pts',(35.4672797573403,8.34817343690508E-15,
-38.798415389835));
#771=CARTESIAN_POINT('Ctrl Pts',(34.687770574659,-20.,-38.1));
#772=CARTESIAN_POINT('Ctrl Pts',(34.8807019575899,8.34817343690508E-15,
-38.798415389835));
#773=CARTESIAN_POINT('',(34.7842362661245,-9.99999999999998,-38.4492076949175));
#774=CARTESIAN_POINT('Origin',(-8.88178419700125E-15,-71.2679620813213,
-36.3096833138464));
#775=CARTESIAN_POINT('',(3.5,-20.,-38.1));
#776=CARTESIAN_POINT('Ctrl Pts',(3.5,-20.,-38.1));
#777=CARTESIAN_POINT('Ctrl Pts',(3.51946679850194,8.34817343690508E-15,
-38.798415389835));
#778=CARTESIAN_POINT('Ctrl Pts',(3.5,-20.,-38.1203704488702));
#779=CARTESIAN_POINT('Ctrl Pts',(2.93288899875162,8.34817343690508E-15,
-38.798415389835));
#780=CARTESIAN_POINT('Ctrl Pts',(3.36,-20.,-38.1472594413788));
#781=CARTESIAN_POINT('Ctrl Pts',(2.3463111990013,8.34817343690508E-15,-38.798415389835));
#782=CARTESIAN_POINT('Ctrl Pts',(2.66,-20.,-38.1798521595711));
#783=CARTESIAN_POINT('Ctrl Pts',(1.6130889493134,8.34817343690508E-15,-38.798415389835));
#784=CARTESIAN_POINT('Ctrl Pts',(2.49402639644711,-20.,-38.1862141309473));
#785=CARTESIAN_POINT('Ctrl Pts',(1.46644449937582,8.34817343690508E-15,
-38.798415389835));
#786=CARTESIAN_POINT('Ctrl Pts',(2.10871332958029,-20.,-38.1979570506188));
#787=CARTESIAN_POINT('Ctrl Pts',(1.17315559950065,8.34817343690508E-15,
-38.798415389835));
#788=CARTESIAN_POINT('Ctrl Pts',(1.88927335640138,-20.,-38.2033324499782));
#789=CARTESIAN_POINT('Ctrl Pts',(1.02651114956307,8.34817343690508E-15,
-38.798415389835));
#790=CARTESIAN_POINT('Ctrl Pts',(1.16262975778547,-20.,-38.2168657585701));
#791=CARTESIAN_POINT('Ctrl Pts',(0.586577799750334,8.34817343690508E-15,
-38.798415389835));
#792=CARTESIAN_POINT('Ctrl Pts',(0.583333333333333,-20.,-38.2222226932211));
#793=CARTESIAN_POINT('Ctrl Pts',(0.293288899875173,8.34817343690508E-15,
-38.798415389835));
#794=CARTESIAN_POINT('Ctrl Pts',(-0.583333333333334,-20.,-38.2222226932211));
#795=CARTESIAN_POINT('Ctrl Pts',(-0.293288899875148,8.34817343690508E-15,
-38.798415389835));
#796=CARTESIAN_POINT('Ctrl Pts',(-1.16262975778547,-20.,-38.2168657585702));
#797=CARTESIAN_POINT('Ctrl Pts',(-0.586577799750307,8.34817343690508E-15,
-38.798415389835));
#798=CARTESIAN_POINT('Ctrl Pts',(-1.88927335640138,-20.,-38.2033324499782));
#799=CARTESIAN_POINT('Ctrl Pts',(-1.02651114956305,8.34817343690508E-15,
-38.798415389835));
#800=CARTESIAN_POINT('Ctrl Pts',(-2.10871332958028,-20.,-38.1979570506188));
#801=CARTESIAN_POINT('Ctrl Pts',(-1.17315559950063,8.34817343690508E-15,
-38.798415389835));
#802=CARTESIAN_POINT('Ctrl Pts',(-2.49402639644711,-20.,-38.1862141309473));
#803=CARTESIAN_POINT('Ctrl Pts',(-1.46644449937579,8.34817343690508E-15,
-38.798415389835));
#804=CARTESIAN_POINT('Ctrl Pts',(-2.66,-20.,-38.1798521595712));
#805=CARTESIAN_POINT('Ctrl Pts',(-1.61308894931337,8.34817343690508E-15,
-38.798415389835));
#806=CARTESIAN_POINT('Ctrl Pts',(-3.36,-20.,-38.1472594413789));
#807=CARTESIAN_POINT('Ctrl Pts',(-2.34631119900127,8.34817343690508E-15,
-38.798415389835));
#808=CARTESIAN_POINT('Ctrl Pts',(-3.5,-20.,-38.1203704488702));
#809=CARTESIAN_POINT('Ctrl Pts',(-2.93288899875159,8.34817343690508E-15,
-38.798415389835));
#810=CARTESIAN_POINT('Ctrl Pts',(-3.5,-20.,-38.1));
#811=CARTESIAN_POINT('Ctrl Pts',(-3.5194667985019,8.34817343690508E-15,
-38.798415389835));
#812=CARTESIAN_POINT('',(-3.50973339925095,-9.99999999999998,-38.4492076949175));
#813=CARTESIAN_POINT('Origin',(-8.88178419700125E-15,-71.2679620813211,
-36.3096833138467));
#814=CARTESIAN_POINT('',(-45.7977789136815,-20.,-38.1000000000001));
#815=CARTESIAN_POINT('Ctrl Pts',(-45.7977789136815,-20.,-38.1000000000001));
#816=CARTESIAN_POINT('Ctrl Pts',(-46.0525035233811,8.34817343690506E-15,
-38.798415389835));
#817=CARTESIAN_POINT('Ctrl Pts',(-46.3873440753051,-20.,-38.1000000000001));
#818=CARTESIAN_POINT('Ctrl Pts',(-46.6943623805426,4.38753102249101E-14,
-38.798415389835));
#819=CARTESIAN_POINT('Ctrl Pts',(-47.0233839588722,-20.,-37.9925590767292));
#820=CARTESIAN_POINT('Ctrl Pts',(-47.3868182096002,-5.85556229954301E-16,
-38.6814445904867));
#821=CARTESIAN_POINT('Ctrl Pts',(-47.9470274733369,-20.,-37.6269115119436));
#822=CARTESIAN_POINT('Ctrl Pts',(-48.3923877534084,2.58830133069111E-14,
-38.2833645421153));
#823=CARTESIAN_POINT('Ctrl Pts',(-48.2491446750746,-20.,-37.4715975462431));
#824=CARTESIAN_POINT('Ctrl Pts',(-48.721302374656,2.58079222086757E-14,
-38.1142744210994));
#825=CARTESIAN_POINT('Ctrl Pts',(-48.8210824621725,-20.,-37.0976842231659));
#826=CARTESIAN_POINT('Ctrl Pts',(-49.3439703311261,-1.01820976007486E-15,
-37.7071954519709));
#827=CARTESIAN_POINT('Ctrl Pts',(-49.0907546089816,-20.,-36.8791104349868));
#828=CARTESIAN_POINT('Ctrl Pts',(-49.6375620614829,2.5521466913597E-14,
-37.469234441012));
#829=CARTESIAN_POINT('Ctrl Pts',(-49.5791104349868,-20.,-36.3907546089816));
#830=CARTESIAN_POINT('Ctrl Pts',(-50.1692344410121,4.30489253406753E-14,
-36.9375620614829));
#831=CARTESIAN_POINT('Ctrl Pts',(-49.7976842231659,-20.,-36.1210824621725));
#832=CARTESIAN_POINT('Ctrl Pts',(-50.407195451971,7.39140763311766E-15,
-36.6439703311261));
#833=CARTESIAN_POINT('Ctrl Pts',(-50.171597546243,-20.,-35.5491446750746));
#834=CARTESIAN_POINT('Ctrl Pts',(-50.8142744210994,1.59966717093311E-14,
-36.021302374656));
#835=CARTESIAN_POINT('Ctrl Pts',(-50.3269115119435,-20.,-35.2470274733369));
#836=CARTESIAN_POINT('Ctrl Pts',(-50.9833645421153,6.9688200780719E-15,
-35.6923877534083));
#837=CARTESIAN_POINT('Ctrl Pts',(-50.6925590767291,-20.,-34.3233839588722));
#838=CARTESIAN_POINT('Ctrl Pts',(-51.3814445904867,6.52225749391286E-15,
-34.6868182096002));
#839=CARTESIAN_POINT('Ctrl Pts',(-50.8,-20.,-33.687344075305));
#840=CARTESIAN_POINT('Ctrl Pts',(-51.498415389835,6.21474533193058E-15,
-33.9943623805426));
#841=CARTESIAN_POINT('Ctrl Pts',(-50.8,-20.,-33.0977789136815));
#842=CARTESIAN_POINT('Ctrl Pts',(-51.498415389835,1.48114869362197E-14,
-33.3525035233811));
#843=CARTESIAN_POINT('',(-51.1492076949175,-9.99999999999998,-33.2251412185313));
#844=CARTESIAN_POINT('Origin',(-48.9942150329963,-71.7109156895965,-2.27547329469286E-14));
#845=CARTESIAN_POINT('',(-50.8,-20.,-3.50037756598927));
#846=CARTESIAN_POINT('Ctrl Pts',(-50.8,-20.,-3.50037756598927));
#847=CARTESIAN_POINT('Ctrl Pts',(-51.498415389835,1.56644337753598E-15,
-3.52731690568402));
#848=CARTESIAN_POINT('Ctrl Pts',(-50.8203704488702,-20.,-3.50037756598927));
#849=CARTESIAN_POINT('Ctrl Pts',(-51.498415389835,1.30539764184897E-15,
-2.93949416670067));
#850=CARTESIAN_POINT('Ctrl Pts',(-50.8472594413789,-20.,-3.36037756598927));
#851=CARTESIAN_POINT('Ctrl Pts',(-51.498415389835,1.04435190616195E-15,
-2.35167142771731));
#852=CARTESIAN_POINT('Ctrl Pts',(-50.8798521595711,-20.,-2.66037756598927));
#853=CARTESIAN_POINT('Ctrl Pts',(-51.498415389835,7.1804473655318E-16,-1.61689300398812));
#854=CARTESIAN_POINT('Ctrl Pts',(-50.8862141309473,-20.,-2.49440396243638));
#855=CARTESIAN_POINT('Ctrl Pts',(-51.498415389835,6.52783302631426E-16,
-1.46993731924229));
#856=CARTESIAN_POINT('Ctrl Pts',(-50.8979570506188,-20.,-2.10909089556955));
#857=CARTESIAN_POINT('Ctrl Pts',(-51.498415389835,5.22260434787918E-16,
-1.17602594975061));
#858=CARTESIAN_POINT('Ctrl Pts',(-50.9033324499782,-20.,-1.88965092239065));
#859=CARTESIAN_POINT('Ctrl Pts',(-51.498415389835,4.56999000866163E-16,
-1.02907026500477));
#860=CARTESIAN_POINT('Ctrl Pts',(-50.9168657585701,-20.,-1.16300732377474));
#861=CARTESIAN_POINT('Ctrl Pts',(-51.498415389835,2.61214699100901E-16,
-0.588203210767258));
#862=CARTESIAN_POINT('Ctrl Pts',(-50.9222226932211,-20.,-0.583710899322601));
#863=CARTESIAN_POINT('Ctrl Pts',(-51.498415389835,1.30691831257393E-16,
-0.294291841275582));
#864=CARTESIAN_POINT('Ctrl Pts',(-50.9222226932211,-20.,0.582955767344065));
#865=CARTESIAN_POINT('Ctrl Pts',(-51.498415389835,-1.30353904429623E-16,
0.293530897707769));
#866=CARTESIAN_POINT('Ctrl Pts',(-50.9168657585701,-20.,1.1622521917962));
#867=CARTESIAN_POINT('Ctrl Pts',(-51.498415389835,-2.60876772273131E-16,
0.587442267199446));
#868=CARTESIAN_POINT('Ctrl Pts',(-50.9033324499782,-20.,1.88889579041212));
#869=CARTESIAN_POINT('Ctrl Pts',(-51.498415389835,-4.56661074038393E-16,
1.02830932143696));
#870=CARTESIAN_POINT('Ctrl Pts',(-50.8979570506188,-20.,2.10833576359102));
#871=CARTESIAN_POINT('Ctrl Pts',(-51.498415389835,-5.21922507960147E-16,
1.1752650061828));
#872=CARTESIAN_POINT('Ctrl Pts',(-50.8862141309473,-20.,2.49364883045784));
#873=CARTESIAN_POINT('Ctrl Pts',(-51.498415389835,-6.52445375803655E-16,
1.46917637567447));
#874=CARTESIAN_POINT('Ctrl Pts',(-50.8798521595711,-20.,2.65962243401073));
#875=CARTESIAN_POINT('Ctrl Pts',(-51.498415389835,-7.17706809725409E-16,
1.61613206042031));
#876=CARTESIAN_POINT('Ctrl Pts',(-50.8472594413789,-20.,3.35962243401073));
#877=CARTESIAN_POINT('Ctrl Pts',(-51.498415389835,-1.04401397933418E-15,
2.3509104841495));
#878=CARTESIAN_POINT('Ctrl Pts',(-50.8203704488702,-20.,3.49962243401073));
#879=CARTESIAN_POINT('Ctrl Pts',(-51.498415389835,-1.3050597150212E-15,
2.93873322313285));
#880=CARTESIAN_POINT('Ctrl Pts',(-50.8,-20.,3.49962243401073));
#881=CARTESIAN_POINT('Ctrl Pts',(-51.498415389835,-1.56610545070821E-15,
3.5265559621162));
#882=CARTESIAN_POINT('',(-51.1492076949175,-9.99999999999999,3.51308919806347));
#883=CARTESIAN_POINT('Origin',(-48.9942150329961,-71.7109156895966,-2.27547329469286E-14));
#884=UNCERTAINTY_MEASURE_WITH_UNIT(LENGTH_MEASURE(0.01),#888,
'DISTANCE_ACCURACY_VALUE',
'Maximum model space distance between geometric entities at asserted c
onnectivities');
#885=UNCERTAINTY_MEASURE_WITH_UNIT(LENGTH_MEASURE(0.01),#888,
'DISTANCE_ACCURACY_VALUE',
'Maximum model space distance between geometric entities at asserted c
onnectivities');
#886=(
GEOMETRIC_REPRESENTATION_CONTEXT(3)
GLOBAL_UNCERTAINTY_ASSIGNED_CONTEXT((#884))
GLOBAL_UNIT_ASSIGNED_CONTEXT((#888,#889,#890))
REPRESENTATION_CONTEXT('','3D')
);
#887=(
GEOMETRIC_REPRESENTATION_CONTEXT(3)
GLOBAL_UNCERTAINTY_ASSIGNED_CONTEXT((#885))
GLOBAL_UNIT_ASSIGNED_CONTEXT((#888,#889,#890))
REPRESENTATION_CONTEXT('','3D')
);
#888=(
LENGTH_UNIT()
NAMED_UNIT(*)
SI_UNIT(.MILLI.,.METRE.)
);
#889=(
NAMED_UNIT(*)
PLANE_ANGLE_UNIT()
SI_UNIT($,.RADIAN.)
);
#890=(
NAMED_UNIT(*)
SI_UNIT($,.STERADIAN.)
SOLID_ANGLE_UNIT()
);
#891=SHAPE_DEFINITION_REPRESENTATION(#892,#893);
#892=PRODUCT_DEFINITION_SHAPE('',$,#895);
#893=SHAPE_REPRESENTATION('',(#307),#886);
#894=PRODUCT_DEFINITION_CONTEXT('part definition',#899,'design');
#895=PRODUCT_DEFINITION('2026-05-02-19-04-22-590',
'BusterBeagleMoldBanks',#896,#894);
#896=PRODUCT_DEFINITION_FORMATION('',$,#901);
#897=PRODUCT_RELATED_PRODUCT_CATEGORY('BusterBeagleMoldBanks',
'BusterBeagleMoldBanks',(#901));
#898=APPLICATION_PROTOCOL_DEFINITION('international standard',
'automotive_design',2009,#899);
#899=APPLICATION_CONTEXT(
'Core Data for Automotive Mechanical Design Process');
#900=PRODUCT_CONTEXT('part definition',#899,'mechanical');
#901=PRODUCT('2026-05-02-19-04-22-590','BusterBeagleMoldBanks',$,(#900));
#902=PRESENTATION_STYLE_ASSIGNMENT((#903));
#903=SURFACE_STYLE_USAGE(.BOTH.,#904);
#904=SURFACE_SIDE_STYLE('',(#905));
#905=SURFACE_STYLE_FILL_AREA(#906);
#906=FILL_AREA_STYLE('Steel - Satin',(#907));
#907=FILL_AREA_STYLE_COLOUR('Steel - Satin',#908);
#908=COLOUR_RGB('Steel - Satin',0.627450980392157,0.627450980392157,0.627450980392157);
ENDSEC;
END-ISO-10303-21;
